{"accessors":[{"bufferView":0,"componentType":5123,"count":25800,"max":[4964],"min":[0],"type":"SCALAR"},{"bufferView":1,"componentType":5126,"count":4965,"max":[0.415932297706604,0.8989973664283752,0.40865132212638855],"min":[-0.415932297706604,0.33393770456314087,-0.3159506022930145],"type":"VEC3"},{"bufferView":2,"componentType":5126,"count":4965,"max":[0.999786376953125,0.999481201171875,0.99993896484375],"min":[-0.999786376953125,-0.9603564739227295,-0.9957274198532104],"type":"VEC3"},{"bufferView":3,"componentType":5126,"count":4965,"max":[0.9999880790710449,0.9998321533203125,0.9998722672462463,1.0],"min":[-1.0,-0.9982417225837708,-0.9992988109588623,1.0],"type":"VEC4"},{"bufferView":4,"componentType":5126,"count":4965,"max":[0.978423535823822,0.9984836555086076],"min":[0.00476444186642766,0.0019988417625427246],"type":"VEC2"},{"bufferView":5,"componentType":5123,"count":3990,"max":[747],"min":[0],"type":"SCALAR"},{"bufferView":6,"componentType":5126,"count":748,"max":[0.328154057264328,0.81141597032547,0.3777494430541992],"min":[-0.3214331269264221,0.24119146168231964,-0.322958767414093],"type":"VEC3"},{"bufferView":7,"componentType":5126,"count":748,"max":[0.9967542290687561,0.9976782202720642,0.9982513189315796],"min":[-0.9986875057220459,-0.9957617521286011,-0.9955400228500366],"type":"VEC3"},{"bufferView":8,"componentType":5126,"count":748,"max":[1.0,0.9928023815155029,0.9821086525917053,1.0],"min":[-0.9981503486633301,-0.9808846712112427,-0.9929071068763733,-1.0],"type":"VEC4"},{"bufferView":9,"componentType":5126,"count":748,"max":[0.44115808606147766,1.0],"min":[8.704776701051742e-05,0.4105055332183838],"type":"VEC2"},{"bufferView":10,"componentType":5123,"count":1320,"max":[362],"min":[0],"type":"SCALAR"},{"bufferView":11,"componentType":5126,"count":363,"max":[0.26611563563346863,0.27803656458854675,0.3061489164829254],"min":[-0.25986334681510925,2.4706125259399414e-05,-0.22050848603248596],"type":"VEC3"},{"bufferView":12,"componentType":5126,"count":363,"max":[1.0,0.998065710067749,1.0],"min":[-1.0,-1.0,-1.0],"type":"VEC3"},{"bufferView":13,"componentType":5126,"count":363,"max":[1.0,0.9885481595993042,1.0,1.0],"min":[-1.0,-1.0,-1.0,-1.0],"type":"VEC4"},{"bufferView":14,"componentType":5126,"count":363,"max":[0.9325590133666992,0.5696440041065216],"min":[0.0018487736815586686,0.0020011067390441895],"type":"VEC2"},{"bufferView":15,"componentType":5123,"count":3144,"max":[671],"min":[0],"type":"SCALAR"},{"bufferView":16,"componentType":5126,"count":672,"max":[0.2930562496185303,0.21997405588626862,0.33286750316619873],"min":[-0.2868039608001709,0.0027116909623146057,-0.24722707271575928],"type":"VEC3"},{"bufferView":17,"componentType":5126,"count":672,"max":[0.9762566089630127,0.9750663638114929,0.9764091968536377],"min":[-0.9762566089630127,-0.9861446022987366,-0.9764091968536377],"type":"VEC3"},{"bufferView":18,"componentType":5126,"count":672,"max":[0.983241856098175,0.9965000748634338,0.9961151480674744,1.0],"min":[-0.8043267130851746,-0.9965000748634338,-0.9961202144622803,-1.0],"type":"VEC4"},{"bufferView":19,"componentType":5126,"count":672,"max":[0.6528595685958862,0.35998398065567017],"min":[0.001999644562602043,0.001996755599975586],"type":"VEC2"}],"asset":{"generator":"Soft8Soft Verge3D for Blender add-on","version":"2.0"},"bufferViews":[{"buffer":0,"byteLength":51600,"byteOffset":0,"target":34963},{"buffer":0,"byteLength":59580,"byteOffset":51600,"target":34962},{"buffer":0,"byteLength":59580,"byteOffset":111180,"target":34962},{"buffer":0,"byteLength":79440,"byteOffset":170760,"target":34962},{"buffer":0,"byteLength":39720,"byteOffset":250200,"target":34962},{"buffer":0,"byteLength":7980,"byteOffset":289920,"target":34963},{"buffer":0,"byteLength":8976,"byteOffset":297900,"target":34962},{"buffer":0,"byteLength":8976,"byteOffset":306876,"target":34962},{"buffer":0,"byteLength":11968,"byteOffset":315852,"target":34962},{"buffer":0,"byteLength":5984,"byteOffset":327820,"target":34962},{"buffer":0,"byteLength":2640,"byteOffset":333804,"target":34963},{"buffer":0,"byteLength":4356,"byteOffset":336444,"target":34962},{"buffer":0,"byteLength":4356,"byteOffset":340800,"target":34962},{"buffer":0,"byteLength":5808,"byteOffset":345156,"target":34962},{"buffer":0,"byteLength":2904,"byteOffset":350964,"target":34962},{"buffer":0,"byteLength":6288,"byteOffset":353868,"target":34963},{"buffer":0,"byteLength":8064,"byteOffset":360156,"target":34962},{"buffer":0,"byteLength":8064,"byteOffset":368220,"target":34962},{"buffer":0,"byteLength":10752,"byteOffset":376284,"target":34962},{"buffer":0,"byteLength":5376,"byteOffset":387036,"target":34962}],"buffers":[{"byteLength":392412,"uri":"chair.bin"}],"cameras":[{"extensions":{"S8S_v3d_camera_data":{"controls":"ORBIT","enablePan":true,"moveSpeed":1,"orbitMaxDistance":10000,"orbitMaxPolarAngle":3.141592653589793,"orbitMinDistance":0,"orbitMinPolarAngle":0,"orbitTarget":[-0.008284325711429119,0.33122196793556213,-0.10527901351451874],"rotateSpeed":1,"viewportFitInitialAspect":1,"viewportFitType":"VERTICAL"}},"name":"__DEFAULT__","perspective":{"aspectRatio":1,"yfov":0.7853981633974483,"zfar":1000.0,"znear":0.009999999776482582},"type":"perspective"}],"extensions":{"S8S_v3d_data":{"nodeGraphs":[{"edges":[{"fromNode":0,"fromOutput":0,"toInput":2,"toNode":3},{"fromNode":1,"fromOutput":0,"toInput":1,"toNode":3},{"fromNode":3,"fromOutput":0,"toInput":0,"toNode":2},{"fromNode":6,"fromOutput":0,"toInput":0,"toNode":4},{"fromNode":5,"fromOutput":0,"toInput":0,"toNode":3},{"fromNode":4,"fromOutput":0,"toInput":0,"toNode":5}],"name":"Chair AO","nodes":[{"inputs":[],"is_active_output":false,"name":"Group Input","outputs":[[0,0,0,0]],"type":"GROUP_INPUT_BL"},{"inputs":[[0.0,0.0,0.0,1.0],0.0,[0.0,0.0,0.0]],"is_active_output":false,"name":"Diffuse BSDF","outputs":[[0,0,0,0]],"type":"BSDF_DIFFUSE_BL"},{"inputs":[[0,0,0,0]],"is_active_output":true,"name":"Group Output","outputs":[],"type":"GROUP_OUTPUT_BL"},{"inputs":[0.5,[0,0,0,0],[0,0,0,0]],"is_active_output":false,"name":"Mix Shader","outputs":[[0,0,0,0]],"type":"MIX_SHADER_BL"},{"inputs":[[0.0,0.0,0.0]],"is_active_output":false,"name":"Image Texture","outputs":[[0.0,0.0,0.0,0.0],0.0],"projection":"FLAT","projectionBlend":0.0,"texture":9,"type":"TEX_IMAGE_BL"},{"blendType":"MIX","inputs":[0.5,[0.03768346831202507,0.03768346831202507,0.03768346831202507,1.0],[1.0,1.0,1.0,1.0]],"is_active_output":false,"name":"Mix","outputs":[[0.0,0.0,0.0,0.0]],"type":"MIX_RGB_BL","useClamp":false},{"inputs":[],"is_active_output":false,"name":"UV Map.001","outputs":[[0.0,0.0,0.0]],"type":"UVMAP_BL","uvLayer":"UVMap"}]},{"edges":[{"fromNode":5,"fromOutput":1,"toInput":0,"toNode":3},{"fromNode":6,"fromOutput":0,"toInput":0,"toNode":7},{"fromNode":3,"fromOutput":0,"toInput":0,"toNode":0},{"fromNode":3,"fromOutput":1,"toInput":0,"toNode":2},{"fromNode":3,"fromOutput":2,"toInput":0,"toNode":4},{"fromNode":0,"fromOutput":0,"toInput":0,"toNode":6},{"fromNode":5,"fromOutput":0,"toInput":0,"toNode":1},{"fromNode":1,"fromOutput":0,"toInput":1,"toNode":0},{"fromNode":1,"fromOutput":1,"toInput":1,"toNode":2},{"fromNode":1,"fromOutput":2,"toInput":1,"toNode":4},{"fromNode":2,"fromOutput":0,"toInput":1,"toNode":6},{"fromNode":4,"fromOutput":0,"toInput":2,"toNode":6},{"fromNode":7,"fromOutput":0,"toInput":0,"toNode":8}],"name":"Normal Map Combiner","nodes":[{"inputs":[0.5,0.5,0.0],"is_active_output":false,"name":"Math","operation":"ADD","outputs":[0.0],"type":"MATH_BL","useClamp":false},{"inputs":[[0.800000011920929,0.800000011920929,0.800000011920929,1.0]],"is_active_output":false,"name":"Separate RGB.001","outputs":[0.0,0.0,0.0],"type":"SEPRGB_BL"},{"inputs":[0.5,0.5,0.0],"is_active_output":false,"name":"Math.001","operation":"ADD","outputs":[0.0],"type":"MATH_BL","useClamp":false},{"inputs":[[0.800000011920929,0.800000011920929,0.800000011920929,1.0]],"is_active_output":false,"name":"Separate RGB","outputs":[0.0,0.0,0.0],"type":"SEPRGB_BL"},{"inputs":[0.5,0.5,0.0],"is_active_output":false,"name":"Math.002","operation":"ADD","outputs":[0.0],"type":"MATH_BL","useClamp":false},{"inputs":[],"is_active_output":false,"name":"Group Input","outputs":[[0.0,0.0,0.0,1.0],[0.0,0.0,0.0,1.0]],"type":"GROUP_INPUT_BL"},{"inputs":[0.0,0.0,0.0],"is_active_output":false,"name":"Combine RGB","outputs":[[0.0,0.0,0.0,0.0]],"type":"COMBRGB_BL"},{"inputs":[[0.5,0.5,0.5],[0.5,0.5,0.5],1.0],"is_active_output":false,"name":"Vector Math","operation":"NORMALIZE","outputs":[[0.0,0.0,0.0],0.0],"type":"VECT_MATH_BL"},{"inputs":[[0.0,0.0,0.0,0.0]],"is_active_output":true,"name":"Group Output","outputs":[],"type":"GROUP_OUTPUT_BL"}]}]}},"extensionsUsed":["S8S_v3d_texture_data","S8S_v3d_data","S8S_v3d_material_data","S8S_v3d_camera_data","S8S_v3d_mesh_data","S8S_v3d_node_data","S8S_v3d_scene_data"],"images":[{"uri":"chair_normal.png"},{"uri":"Chair_Linen_basecolor.jpg"},{"uri":"Chair_Linen_normal.png"},{"uri":"Chair_wood_basecolor.jpg"},{"uri":"Chair_wood_normal.png"},{"uri":"environment.hdr"},{"uri":"chair_ao.jpg"}],"materials":[{"extensions":{"S8S_v3d_material_data":{"nodeGraph":{"edges":[{"fromNode":5,"fromOutput":0,"toInput":19,"toNode":0},{"fromNode":6,"fromOutput":0,"toInput":0,"toNode":1},{"fromNode":0,"fromOutput":0,"toInput":0,"toNode":6},{"fromNode":3,"fromOutput":0,"toInput":1,"toNode":5},{"fromNode":4,"fromOutput":0,"toInput":0,"toNode":3},{"fromNode":5,"fromOutput":0,"toInput":1,"toNode":2},{"fromNode":2,"fromOutput":0,"toInput":5,"toNode":0}],"nodes":[{"inputs":[[1.0,1.0,1.0,1.0],0.0,[1.0,0.20000000298023224,0.10000000149011612],[0.800000011920929,0.800000011920929,0.800000011920929,1.0],0.0,0.5,0.0,0.10000000149011612,0.0,0.0,0.0,0.5,0.0,0.029999999329447746,1.4500000476837158,0.0,0.0,[0.0,0.0,0.0,1.0],1.0,[0.0,0.0,0.0],[0.0,0.0,0.0],[0.0,0.0,0.0]],"is_active_output":false,"name":"Principled BSDF","outputs":[[0,0,0,0]],"type":"BSDF_PRINCIPLED_BL"},{"inputs":[[0,0,0,0],[0,0,0,0],[0.0,0.0,0.0]],"is_active_output":true,"name":"Material Output","outputs":[],"type":"OUTPUT_MATERIAL_BL"},{"inputs":[1.4500000476837158,[0.0,0.0,0.0]],"is_active_output":false,"name":"Fresnel","outputs":[0.0],"type":"FRESNEL_BL"},{"inputs":[[0.0,0.0,0.0]],"is_active_output":false,"name":"Image Texture.001","outputs":[[0.0,0.0,0.0,0.0],0.0],"projection":"FLAT","projectionBlend":0.0,"texture":0,"type":"TEX_IMAGE_BL"},{"inputs":[],"is_active_output":false,"name":"UV Map","outputs":[[0.0,0.0,0.0]],"type":"UVMAP_BL","uvLayer":"UVMap"},{"inputs":[1.0,[0.5,0.5,1.0,1.0]],"is_active_output":false,"name":"Normal Map","outputs":[[0.0,0.0,0.0]],"type":"NORMAL_MAP_BL","uvLayer":"UVMap"},{"inputs":[[0,0,0,0]],"is_active_output":false,"name":"Group.001","nodeGraph":0,"outputs":[[0,0,0,0]],"type":"GROUP_BL"}]},"useCastShadows":true}},"name":"chair_bottom"},{"extensions":{"S8S_v3d_material_data":{"nodeGraph":{"edges":[{"fromNode":2,"fromOutput":0,"toInput":19,"toNode":6},{"fromNode":3,"fromOutput":0,"toInput":0,"toNode":9},{"fromNode":3,"fromOutput":0,"toInput":0,"toNode":10},{"fromNode":4,"fromOutput":0,"toInput":0,"toNode":3},{"fromNode":10,"fromOutput":0,"toInput":0,"toNode":1},{"fromNode":0,"fromOutput":0,"toInput":1,"toNode":1},{"fromNode":1,"fromOutput":0,"toInput":1,"toNode":2},{"fromNode":9,"fromOutput":0,"toInput":0,"toNode":6},{"fromNode":8,"fromOutput":0,"toInput":0,"toNode":7},{"fromNode":6,"fromOutput":0,"toInput":0,"toNode":8},{"fromNode":4,"fromOutput":0,"toInput":0,"toNode":0},{"fromNode":2,"fromOutput":0,"toInput":1,"toNode":5},{"fromNode":5,"fromOutput":0,"toInput":5,"toNode":6}],"nodes":[{"inputs":[[0.0,0.0,0.0]],"is_active_output":false,"name":"Image Texture.001","outputs":[[0.0,0.0,0.0,0.0],0.0],"projection":"FLAT","projectionBlend":0.0,"texture":0,"type":"TEX_IMAGE_BL"},{"inputs":[[0.0,0.0,0.0,1.0],[0.0,0.0,0.0,1.0]],"is_active_output":false,"name":"Group","nodeGraph":1,"outputs":[[0.0,0.0,0.0,0.0]],"type":"GROUP_BL"},{"inputs":[1.0,[0.5,0.5,1.0,1.0]],"is_active_output":false,"name":"Normal Map","outputs":[[0.0,0.0,0.0]],"type":"NORMAL_MAP_BL","uvLayer":"UVMap"},{"inputs":[[0.0,0.0,0.0],[0.0,0.0,0.0],[0.0,0.0,0.0],[5.0,5.0,5.0]],"is_active_output":false,"name":"Mapping","outputs":[[0.0,0.0,0.0]],"type":"MAPPING_BL","vectorType":"POINT"},{"inputs":[],"is_active_output":false,"name":"UV Map","outputs":[[0.0,0.0,0.0]],"type":"UVMAP_BL","uvLayer":"UVMap"},{"inputs":[1.4500000476837158,[0.0,0.0,0.0]],"is_active_output":false,"name":"Fresnel","outputs":[0.0],"type":"FRESNEL_BL"},{"inputs":[[0.5768133401870728,0.5768133401870728,0.5768133401870728,1.0],0.0,[1.0,0.20000000298023224,0.10000000149011612],[0.800000011920929,0.800000011920929,0.800000011920929,1.0],0.0,0.3909090757369995,0.0,0.699999988079071,0.0,0.0,1.0,0.5,0.0,0.029999999329447746,1.4500000476837158,0.0,0.0,[0.0,0.0,0.0,1.0],1.0,[0.0,0.0,0.0],[0.0,0.0,0.0],[0.0,0.0,0.0]],"is_active_output":false,"name":"Principled BSDF","outputs":[[0,0,0,0]],"type":"BSDF_PRINCIPLED_BL"},{"inputs":[[0,0,0,0],[0,0,0,0],[0.0,0.0,0.0]],"is_active_output":true,"name":"Material Output","outputs":[],"type":"OUTPUT_MATERIAL_BL"},{"inputs":[[0,0,0,0]],"is_active_output":false,"name":"Group.001","nodeGraph":0,"outputs":[[0,0,0,0]],"type":"GROUP_BL"},{"inputs":[[0.0,0.0,0.0]],"is_active_output":false,"name":"Image Texture.002","outputs":[[0.0,0.0,0.0,0.0],0.0],"projection":"FLAT","projectionBlend":0.0,"texture":2,"type":"TEX_IMAGE_BL"},{"inputs":[[0.0,0.0,0.0]],"is_active_output":false,"name":"Image Texture.003","outputs":[[0.0,0.0,0.0,0.0],0.0],"projection":"FLAT","projectionBlend":0.0,"texture":3,"type":"TEX_IMAGE_BL"}]},"useCastShadows":true}},"name":"chair_linen"},{"extensions":{"S8S_v3d_material_data":{"nodeGraph":{"edges":[{"fromNode":5,"fromOutput":0,"toInput":19,"toNode":0},{"fromNode":6,"fromOutput":0,"toInput":0,"toNode":1},{"fromNode":0,"fromOutput":0,"toInput":0,"toNode":6},{"fromNode":3,"fromOutput":0,"toInput":1,"toNode":5},{"fromNode":4,"fromOutput":0,"toInput":0,"toNode":3},{"fromNode":5,"fromOutput":0,"toInput":1,"toNode":2},{"fromNode":2,"fromOutput":0,"toInput":5,"toNode":0}],"nodes":[{"inputs":[[0.0426972471177578,0.0426972471177578,0.0426972471177578,1.0],0.0,[1.0,0.20000000298023224,0.10000000149011612],[0.800000011920929,0.800000011920929,0.800000011920929,1.0],0.0,0.5,0.0,0.3863636255264282,0.0,0.0,0.0,0.5,0.0,0.029999999329447746,1.4500000476837158,0.0,0.0,[0.0,0.0,0.0,1.0],1.0,[0.0,0.0,0.0],[0.0,0.0,0.0],[0.0,0.0,0.0]],"is_active_output":false,"name":"Principled BSDF","outputs":[[0,0,0,0]],"type":"BSDF_PRINCIPLED_BL"},{"inputs":[[0,0,0,0],[0,0,0,0],[0.0,0.0,0.0]],"is_active_output":true,"name":"Material Output","outputs":[],"type":"OUTPUT_MATERIAL_BL"},{"inputs":[1.4500000476837158,[0.0,0.0,0.0]],"is_active_output":false,"name":"Fresnel","outputs":[0.0],"type":"FRESNEL_BL"},{"inputs":[[0.0,0.0,0.0]],"is_active_output":false,"name":"Image Texture.001","outputs":[[0.0,0.0,0.0,0.0],0.0],"projection":"FLAT","projectionBlend":0.0,"texture":0,"type":"TEX_IMAGE_BL"},{"inputs":[],"is_active_output":false,"name":"UV Map","outputs":[[0.0,0.0,0.0]],"type":"UVMAP_BL","uvLayer":"UVMap"},{"inputs":[1.0,[0.5,0.5,1.0,1.0]],"is_active_output":false,"name":"Normal Map","outputs":[[0.0,0.0,0.0]],"type":"NORMAL_MAP_BL","uvLayer":"UVMap"},{"inputs":[[0,0,0,0]],"is_active_output":false,"name":"Group.001","nodeGraph":0,"outputs":[[0,0,0,0]],"type":"GROUP_BL"}]},"useCastShadows":true}},"name":"chair_plastic"},{"extensions":{"S8S_v3d_material_data":{"nodeGraph":{"edges":[{"fromNode":5,"fromOutput":0,"toInput":19,"toNode":2},{"fromNode":0,"fromOutput":0,"toInput":0,"toNode":1},{"fromNode":2,"fromOutput":0,"toInput":0,"toNode":0},{"fromNode":8,"fromOutput":0,"toInput":0,"toNode":10},{"fromNode":11,"fromOutput":0,"toInput":0,"toNode":8},{"fromNode":5,"fromOutput":0,"toInput":1,"toNode":3},{"fromNode":10,"fromOutput":0,"toInput":1,"toNode":5},{"fromNode":6,"fromOutput":0,"toInput":0,"toNode":7},{"fromNode":7,"fromOutput":0,"toInput":0,"toNode":2},{"fromNode":6,"fromOutput":0,"toInput":0,"toNode":9},{"fromNode":9,"fromOutput":0,"toInput":1,"toNode":10},{"fromNode":4,"fromOutput":0,"toInput":5,"toNode":2},{"fromNode":3,"fromOutput":0,"toInput":0,"toNode":4},{"fromNode":11,"fromOutput":0,"toInput":0,"toNode":6}],"nodes":[{"inputs":[[0,0,0,0]],"is_active_output":false,"name":"Group.001","nodeGraph":0,"outputs":[[0,0,0,0]],"type":"GROUP_BL"},{"inputs":[[0,0,0,0],[0,0,0,0],[0.0,0.0,0.0]],"is_active_output":true,"name":"Material Output","outputs":[],"type":"OUTPUT_MATERIAL_BL"},{"inputs":[[1.0,1.0,1.0,1.0],0.0,[1.0,0.20000000298023224,0.10000000149011612],[0.800000011920929,0.800000011920929,0.800000011920929,1.0],0.0,0.5,0.0,0.25,0.0,0.0,0.0,0.5,0.0,0.029999999329447746,1.4500000476837158,0.0,0.0,[0.0,0.0,0.0,1.0],1.0,[0.0,0.0,0.0],[0.0,0.0,0.0],[0.0,0.0,0.0]],"is_active_output":false,"name":"Principled BSDF","outputs":[[0,0,0,0]],"type":"BSDF_PRINCIPLED_BL"},{"inputs":[1.4500000476837158,[0.0,0.0,0.0]],"is_active_output":false,"name":"Fresnel","outputs":[0.0],"type":"FRESNEL_BL"},{"blendType":"MIX","inputs":[1.0,[0.0,0.0,0.0,1.0],[0.6499999761581421,0.6499999761581421,0.6499999761581421,1.0]],"is_active_output":false,"name":"Mix","outputs":[[0.0,0.0,0.0,0.0]],"type":"MIX_RGB_BL","useClamp":false},{"inputs":[1.0,[0.5,0.5,1.0,1.0]],"is_active_output":false,"name":"Normal Map","outputs":[[0.0,0.0,0.0]],"type":"NORMAL_MAP_BL","uvLayer":"UVMap"},{"inputs":[[0.0,0.0,0.0],[0.0,0.0,0.0],[0.0,0.0,0.0],[10.0,10.0,10.0]],"is_active_output":false,"name":"Mapping","outputs":[[0.0,0.0,0.0]],"type":"MAPPING_BL","vectorType":"POINT"},{"inputs":[[0.0,0.0,0.0]],"is_active_output":false,"name":"Image Texture","outputs":[[0.0,0.0,0.0,0.0],0.0],"projection":"FLAT","projectionBlend":0.0,"texture":5,"type":"TEX_IMAGE_BL"},{"inputs":[[0.0,0.0,0.0]],"is_active_output":false,"name":"Image Texture.001","outputs":[[0.0,0.0,0.0,0.0],0.0],"projection":"FLAT","projectionBlend":0.0,"texture":0,"type":"TEX_IMAGE_BL"},{"inputs":[[0.0,0.0,0.0]],"is_active_output":false,"name":"Image Texture.002","outputs":[[0.0,0.0,0.0,0.0],0.0],"projection":"FLAT","projectionBlend":0.0,"texture":7,"type":"TEX_IMAGE_BL"},{"inputs":[[0.0,0.0,0.0,1.0],[0.0,0.0,0.0,1.0]],"is_active_output":false,"name":"Group","nodeGraph":1,"outputs":[[0.0,0.0,0.0,0.0]],"type":"GROUP_BL"},{"inputs":[],"is_active_output":false,"name":"UV Map","outputs":[[0.0,0.0,0.0]],"type":"UVMAP_BL","uvLayer":"UVMap"}]},"useCastShadows":true}},"name":"chair_wood"},{"extensions":{"S8S_v3d_material_data":{"nodeGraph":{"edges":[{"fromNode":1,"fromOutput":0,"toInput":0,"toNode":0},{"fromNode":2,"fromOutput":0,"toInput":1,"toNode":3},{"fromNode":3,"fromOutput":0,"toInput":0,"toNode":1},{"fromNode":4,"fromOutput":0,"toInput":0,"toNode":3}],"nodes":[{"inputs":[[0,0,0,0],[0,0,0,0]],"is_active_output":true,"name":"World Output","outputs":[],"type":"OUTPUT_WORLD_BL"},{"inputs":[[0.05087608844041824,0.05087608844041824,0.05087608844041824,1.0],1.0],"is_active_output":false,"name":"Background","outputs":[[0,0,0,0]],"type":"BACKGROUND_BL"},{"inputs":[[0.0,0.0,0.0]],"is_active_output":false,"name":"Environment Texture","outputs":[[0.0,0.0,0.0,0.0]],"projection":"EQUIRECTANGULAR","texture":8,"type":"TEX_ENVIRONMENT_BL"},{"blendType":"MIX","inputs":[0.5,[0.5,0.5,0.5,1.0],[0.05126899853348732,0.05126899853348732,0.05126899853348732,1.0]],"is_active_output":false,"name":"Mix","outputs":[[0.0,0.0,0.0,0.0]],"type":"MIX_RGB_BL","useClamp":false},{"inputs":[],"is_active_output":false,"name":"Light Path","outputs":[0.0,0.0,0.0,0.0,0.0,0.0,0.0,0.0,0.0,0.0,0.0,0.0,0.0],"type":"LIGHT_PATH_BL"}]},"useCastShadows":true}},"name":"Verge3D_Environment_World"}],"meshes":[{"extensions":{"S8S_v3d_mesh_data":{"colorLayers":{},"uvLayers":{"UVMap":"TEXCOORD_0"}}},"name":"Plane.006","primitives":[{"attributes":{"NORMAL":2,"POSITION":1,"TANGENT":3,"TEXCOORD_0":4},"indices":0,"material":1,"mode":4}]},{"extensions":{"S8S_v3d_mesh_data":{"colorLayers":{},"uvLayers":{"UVMap":"TEXCOORD_0"}}},"name":"plastic.002","primitives":[{"attributes":{"NORMAL":7,"POSITION":6,"TANGENT":8,"TEXCOORD_0":9},"indices":5,"material":0,"mode":4}]},{"extensions":{"S8S_v3d_mesh_data":{"colorLayers":{},"uvLayers":{"UVMap":"TEXCOORD_0"}}},"name":"plastic.004","primitives":[{"attributes":{"NORMAL":12,"POSITION":11,"TANGENT":13,"TEXCOORD_0":14},"indices":10,"material":2,"mode":4}]},{"extensions":{"S8S_v3d_mesh_data":{"colorLayers":{},"uvLayers":{"UVMap":"TEXCOORD_0"}}},"name":"wood.001","primitives":[{"attributes":{"NORMAL":17,"POSITION":16,"TANGENT":18,"TEXCOORD_0":19},"indices":15,"material":3,"mode":4}]}],"nodes":[{"extensions":{"S8S_v3d_node_data":{"frustumCulling":true,"groupNames":["chair"],"hidden":false,"renderOrder":0,"useShadows":true}},"mesh":3,"name":"chair_5"},{"extensions":{"S8S_v3d_node_data":{"frustumCulling":true,"groupNames":["chair"],"hidden":false,"renderOrder":0,"useShadows":true}},"mesh":1,"name":"chair_2"},{"children":[3,1,4,0],"extensions":{"S8S_v3d_node_data":{"frustumCulling":true,"groupNames":["chair"],"hidden":false,"renderOrder":0}},"name":"chair_base"},{"extensions":{"S8S_v3d_node_data":{"frustumCulling":true,"groupNames":["chair"],"hidden":false,"renderOrder":0,"useShadows":true}},"mesh":0,"name":"chair_1"},{"extensions":{"S8S_v3d_node_data":{"frustumCulling":true,"groupNames":["chair"],"hidden":false,"renderOrder":0,"useShadows":true}},"mesh":2,"name":"chair_4"},{"camera":0,"name":"__DEFAULT_CAMERA__","rotation":[-0.22569063305854797,0.23128458857536316,0.05525236576795578,0.9447318911552429],"scale":[0.9999999403953552,0.9999997615814209,0.9999997615814209],"translation":[0.5454328656196594,0.9385934472084045,0.9578304886817932]}],"samplers":[{}],"scene":0,"scenes":[{"extensions":{"S8S_v3d_scene_data":{"aaMethod":"AUTO","iblEnvironmentMode":"PMREM","physicallyCorrectLights":true,"pmremMaxTileSize":512,"shadowMap":{"renderReverseSided":false,"renderSingleSided":true,"type":"PCFPOISSON"},"worldMaterial":4}},"extras":{"animFrameRate":24,"coordSystem":"Z_UP_RIGHT"},"name":"Scene","nodes":[2,5]}],"textures":[{"extensions":{"S8S_v3d_texture_data":{"colorSpace":"non-color"}},"name":"chair_normal","sampler":0,"source":0},{"extensions":{"S8S_v3d_texture_data":{"colorSpace":"non-color"}},"name":"chair_normal","sampler":0,"source":0},{"extensions":{"S8S_v3d_texture_data":{"colorSpace":"srgb"}},"name":"Chair_Linen_basecolor","sampler":0,"source":1},{"extensions":{"S8S_v3d_texture_data":{"colorSpace":"non-color"}},"name":"Chair_Linen_normal","sampler":0,"source":2},{"extensions":{"S8S_v3d_texture_data":{"colorSpace":"non-color"}},"name":"chair_normal","sampler":0,"source":0},{"extensions":{"S8S_v3d_texture_data":{"colorSpace":"srgb"}},"name":"Chair_wood_basecolor","sampler":0,"source":3},{"extensions":{"S8S_v3d_texture_data":{"colorSpace":"non-color"}},"name":"chair_normal","sampler":0,"source":0},{"extensions":{"S8S_v3d_texture_data":{"colorSpace":"non-color"}},"name":"Chair_wood_normal","sampler":0,"source":4},{"extensions":{"S8S_v3d_texture_data":{"colorSpace":"linear"}},"name":"environment.hdr","sampler":0,"source":5},{"extensions":{"S8S_v3d_texture_data":{"colorSpace":"non-color"}},"name":"chair_ao","sampler":0,"source":6}]}
