{"accessors":[{"bufferView":0,"componentType":5123,"count":4020,"max":[1252],"min":[0],"type":"SCALAR"},{"bufferView":1,"componentType":5126,"count":1253,"max":[0.26637980341911316,1.2996245622634888,0.27171993255615234],"min":[-0.3104862868785858,0.0,-0.27171993255615234],"type":"VEC3"},{"bufferView":2,"componentType":5126,"count":1253,"max":[1.0,1.0,1.0],"min":[-1.0,-1.0,-1.0],"type":"VEC3"},{"bufferView":3,"componentType":5126,"count":1253,"max":[1.0,1.0,1.0,1.0],"min":[-1.0,-1.0,-1.0,-1.0],"type":"VEC4"},{"bufferView":4,"componentType":5126,"count":1253,"max":[0.9966670274734497,0.9966766054276377],"min":[0.003333984175696969,0.003553152084350586],"type":"VEC2"},{"bufferView":5,"componentType":5126,"count":1253,"max":[1.0,1.0,1.0,1.0],"min":[0.0,0.0,0.0,1.0],"type":"VEC4"},{"bufferView":6,"componentType":5126,"count":1253,"max":[0.4000000059604645,1.0,1.0,1.0],"min":[0.0,0.0,0.0,1.0],"type":"VEC4"},{"bufferView":7,"componentType":5121,"count":384,"max":[131],"min":[0],"type":"SCALAR"},{"bufferView":8,"componentType":5126,"count":132,"max":[0.26637980341911316,1.2809100151062012,0.26637980341911316],"min":[-0.26637980341911316,1.0140246152877808,-0.26637980341911316],"type":"VEC3"},{"bufferView":9,"componentType":5126,"count":132,"max":[1.0,2.0505478914856212e-06,1.0],"min":[-1.0,-1.541678216199216e-07,-1.0],"type":"VEC3"},{"bufferView":10,"componentType":5126,"count":132,"max":[4.5650518586626276e-05,1.0,2.9144155632820912e-05,1.0],"min":[-2.3115480871638283e-05,-1.0,-2.260585461044684e-05,1.0],"type":"VEC4"},{"bufferView":11,"componentType":5126,"count":132,"max":[0.5549269914627075,0.9966668100096285],"min":[0.039655886590480804,0.15730679035186768],"type":"VEC2"},{"bufferView":12,"componentType":5126,"count":132,"max":[1.0,1.0,1.0,1.0],"min":[1.0,1.0,1.0,1.0],"type":"VEC4"},{"bufferView":13,"componentType":5126,"count":132,"max":[1.0,1.0,1.0,1.0],"min":[1.0,1.0,1.0,1.0],"type":"VEC4"}],"asset":{"generator":"Soft8Soft Verge3D for Blender add-on","version":"2.0"},"bufferViews":[{"buffer":0,"byteLength":8040,"byteOffset":0,"target":34963},{"buffer":0,"byteLength":15036,"byteOffset":8040,"target":34962},{"buffer":0,"byteLength":15036,"byteOffset":23076,"target":34962},{"buffer":0,"byteLength":20048,"byteOffset":38112,"target":34962},{"buffer":0,"byteLength":10024,"byteOffset":58160,"target":34962},{"buffer":0,"byteLength":20048,"byteOffset":68184,"target":34962},{"buffer":0,"byteLength":20048,"byteOffset":88232,"target":34962},{"buffer":0,"byteLength":384,"byteOffset":108280,"target":34963},{"buffer":0,"byteLength":1584,"byteOffset":108664,"target":34962},{"buffer":0,"byteLength":1584,"byteOffset":110248,"target":34962},{"buffer":0,"byteLength":2112,"byteOffset":111832,"target":34962},{"buffer":0,"byteLength":1056,"byteOffset":113944,"target":34962},{"buffer":0,"byteLength":2112,"byteOffset":115000,"target":34962},{"buffer":0,"byteLength":2112,"byteOffset":117112,"target":34962}],"buffers":[{"byteLength":119224,"uri":"nightlight.bin"}],"cameras":[{"extensions":{"S8S_v3d_camera_data":{"controls":"ORBIT","enablePan":true,"moveSpeed":1,"orbitMaxDistance":10000,"orbitMaxPolarAngle":3.141592653589793,"orbitMinDistance":0,"orbitMinPolarAngle":0,"orbitTarget":[0.08100318908691406,0.6394432187080383,-0.027580352500081062],"rotateSpeed":1,"viewportFitInitialAspect":1,"viewportFitType":"VERTICAL"}},"name":"__DEFAULT__","perspective":{"aspectRatio":1,"yfov":0.7853981633974483,"zfar":1000.0,"znear":0.10000000149011612},"type":"perspective"}],"extensions":{"S8S_v3d_data":{"nodeGraphs":[{"edges":[{"fromNode":3,"fromOutput":0,"toInput":2,"toNode":1},{"fromNode":0,"fromOutput":0,"toInput":1,"toNode":1},{"fromNode":4,"fromOutput":0,"toInput":0,"toNode":1},{"fromNode":5,"fromOutput":0,"toInput":0,"toNode":4},{"fromNode":1,"fromOutput":0,"toInput":0,"toNode":2}],"name":"Nightlight AO","nodes":[{"inputs":[[0.0,0.0,0.0,1.0],0.0,[0.0,0.0,0.0]],"is_active_output":false,"name":"Diffuse BSDF","outputs":[[0,0,0,0]],"type":"BSDF_DIFFUSE_BL"},{"inputs":[0.5,[0,0,0,0],[0,0,0,0]],"is_active_output":false,"name":"Mix Shader","outputs":[[0,0,0,0]],"type":"MIX_SHADER_BL"},{"inputs":[[0,0,0,0]],"is_active_output":true,"name":"Group Output","outputs":[],"type":"GROUP_OUTPUT_BL"},{"inputs":[],"is_active_output":false,"name":"Group Input","outputs":[[0,0,0,0]],"type":"GROUP_INPUT_BL"},{"inputs":[[0.0,0.0,0.0]],"is_active_output":false,"name":"Image Texture","outputs":[[0.0,0.0,0.0,0.0],0.0],"projection":"FLAT","projectionBlend":0.0,"texture":3,"type":"TEX_IMAGE_BL"},{"inputs":[],"is_active_output":false,"name":"UV Map","outputs":[[0.0,0.0,0.0]],"type":"UVMAP_BL","uvLayer":"UVMap"}]}]}},"extensionsUsed":["S8S_v3d_texture_data","S8S_v3d_data","S8S_v3d_material_data","S8S_v3d_camera_data","S8S_v3d_mesh_data","S8S_v3d_node_data","S8S_v3d_scene_data"],"images":[{"uri":"Chair_Linen_basecolor.jpg"},{"uri":"Chair_Linen_normal.png"},{"uri":"environment.hdr"},{"uri":"nightstand_ao.jpg"}],"materials":[{"extensions":{"S8S_v3d_material_data":{"nodeGraph":{"edges":[{"fromNode":4,"fromOutput":0,"toInput":19,"toNode":0},{"fromNode":6,"fromOutput":0,"toInput":0,"toNode":7},{"fromNode":6,"fromOutput":0,"toInput":0,"toNode":8},{"fromNode":5,"fromOutput":0,"toInput":0,"toNode":6},{"fromNode":7,"fromOutput":0,"toInput":1,"toNode":3},{"fromNode":0,"fromOutput":0,"toInput":0,"toNode":10},{"fromNode":10,"fromOutput":0,"toInput":0,"toNode":1},{"fromNode":8,"fromOutput":0,"toInput":1,"toNode":4},{"fromNode":3,"fromOutput":0,"toInput":1,"toNode":2},{"fromNode":4,"fromOutput":0,"toInput":1,"toNode":9},{"fromNode":9,"fromOutput":0,"toInput":5,"toNode":0},{"fromNode":2,"fromOutput":0,"toInput":0,"toNode":0}],"nodes":[{"inputs":[[0.5768133401870728,0.5768133401870728,0.5768133401870728,1.0],0.0,[1.0,0.20000000298023224,0.10000000149011612],[0.800000011920929,0.800000011920929,0.800000011920929,1.0],0.0,1.0,0.0,0.6000000238418579,0.0,0.0,1.0,0.5,0.0,0.029999999329447746,1.4500000476837158,0.0,0.0,[0.0,0.0,0.0,1.0],1.0,[0.0,0.0,0.0],[0.0,0.0,0.0],[0.0,0.0,0.0]],"is_active_output":false,"name":"Principled BSDF","outputs":[[0,0,0,0]],"type":"BSDF_PRINCIPLED_BL"},{"inputs":[[0,0,0,0],[0,0,0,0],[0.0,0.0,0.0]],"is_active_output":true,"name":"Material Output","outputs":[],"type":"OUTPUT_MATERIAL_BL"},{"blendType":"MULTIPLY","inputs":[0.36666667461395264,[0.5,0.5,0.5,1.0],[0.0,0.0,0.0,1.0]],"is_active_output":false,"name":"Mix.001","outputs":[[0.0,0.0,0.0,0.0]],"type":"MIX_RGB_BL","useClamp":false},{"blendType":"COLOR","inputs":[1.0,[0.5,0.5,0.5,1.0],[1.0,0.8624045252799988,0.709047257900238,1.0]],"is_active_output":false,"name":"Mix","outputs":[[0.0,0.0,0.0,0.0]],"type":"MIX_RGB_BL","useClamp":false},{"inputs":[1.0,[0.5,0.5,1.0,1.0]],"is_active_output":false,"name":"Normal Map","outputs":[[0.0,0.0,0.0]],"type":"NORMAL_MAP_BL","uvLayer":"UVMap"},{"inputs":[],"is_active_output":false,"name":"UV Map","outputs":[[0.0,0.0,0.0]],"type":"UVMAP_BL","uvLayer":"UVMap"},{"inputs":[[0.0,0.0,0.0],[0.0,0.0,0.0],[0.0,0.0,0.0],[3.0,3.0,3.0]],"is_active_output":false,"name":"Mapping","outputs":[[0.0,0.0,0.0]],"type":"MAPPING_BL","vectorType":"POINT"},{"inputs":[[0.0,0.0,0.0]],"is_active_output":false,"name":"Image Texture.002","outputs":[[0.0,0.0,0.0,0.0],0.0],"projection":"FLAT","projectionBlend":0.0,"texture":0,"type":"TEX_IMAGE_BL"},{"inputs":[[0.0,0.0,0.0]],"is_active_output":false,"name":"Image Texture.003","outputs":[[0.0,0.0,0.0,0.0],0.0],"projection":"FLAT","projectionBlend":0.0,"texture":1,"type":"TEX_IMAGE_BL"},{"inputs":[1.4500000476837158,[0.0,0.0,0.0]],"is_active_output":false,"name":"Fresnel","outputs":[0.0],"type":"FRESNEL_BL"},{"inputs":[[0,0,0,0]],"is_active_output":false,"name":"Group.001","nodeGraph":0,"outputs":[[0,0,0,0]],"type":"GROUP_BL"}]},"useCastShadows":true}},"name":"nightlight_linen"},{"extensions":{"S8S_v3d_material_data":{"nodeGraph":{"edges":[{"fromNode":6,"fromOutput":0,"toInput":0,"toNode":7},{"fromNode":1,"fromOutput":0,"toInput":0,"toNode":2},{"fromNode":2,"fromOutput":0,"toInput":7,"toNode":4},{"fromNode":2,"fromOutput":1,"toInput":4,"toNode":4},{"fromNode":0,"fromOutput":1,"toInput":1,"toNode":3},{"fromNode":5,"fromOutput":0,"toInput":5,"toNode":4},{"fromNode":2,"fromOutput":2,"toInput":2,"toNode":5},{"fromNode":3,"fromOutput":0,"toInput":0,"toNode":5},{"fromNode":7,"fromOutput":0,"toInput":0,"toNode":4},{"fromNode":4,"fromOutput":0,"toInput":0,"toNode":9},{"fromNode":9,"fromOutput":0,"toInput":0,"toNode":8}],"nodes":[{"inputs":[],"is_active_output":false,"name":"Geometry","outputs":[[0.0,0.0,0.0],[0.0,0.0,0.0],[0.0,0.0,0.0],[0.0,0.0,0.0],[0.0,0.0,0.0],[0.0,0.0,0.0],0.0,0.0,0.0],"type":"NEW_GEOMETRY_BL"},{"colorLayer":"rought_met_spec","inputs":[],"is_active_output":false,"name":"Attribute.001","outputs":[[0.0,0.0,0.0,0.0],[0.0,0.0,0.0],0.0],"type":"ATTRIBUTE_BL"},{"inputs":[[0.800000011920929,0.800000011920929,0.800000011920929,1.0]],"is_active_output":false,"name":"Separate RGB","outputs":[0.0,0.0,0.0],"type":"SEPRGB_BL"},{"inputs":[1.4500000476837158,[0.0,0.0,0.0]],"is_active_output":false,"name":"Fresnel","outputs":[0.0],"type":"FRESNEL_BL"},{"inputs":[[0.800000011920929,0.800000011920929,0.800000011920929,1.0],0.0,[1.0,0.20000000298023224,0.10000000149011612],[0.800000011920929,0.800000011920929,0.800000011920929,1.0],0.0,0.5,0.0,0.0,0.0,0.0,0.0,0.5,0.0,0.029999999329447746,1.4500000476837158,0.0,0.0,[0.0,0.0,0.0,1.0],1.0,[0.0,0.0,0.0],[0.0,0.0,0.0],[0.0,0.0,0.0]],"is_active_output":false,"name":"Principled BSDF","outputs":[[0,0,0,0]],"type":"BSDF_PRINCIPLED_BL"},{"blendType":"MIX","inputs":[0.5,[0.0,0.0,0.0,1.0],[0.5,0.5,0.5,1.0]],"is_active_output":false,"name":"Mix","outputs":[[0.0,0.0,0.0,0.0]],"type":"MIX_RGB_BL","useClamp":false},{"colorLayer":"basecolor","inputs":[],"is_active_output":false,"name":"Attribute","outputs":[[0.0,0.0,0.0,0.0],[0.0,0.0,0.0],0.0],"type":"ATTRIBUTE_BL"},{"inputs":[[1.0,1.0,1.0,1.0],2.200000047683716],"is_active_output":false,"name":"Gamma","outputs":[[0.0,0.0,0.0,0.0]],"type":"GAMMA_BL"},{"inputs":[[0,0,0,0],[0,0,0,0],[0.0,0.0,0.0]],"is_active_output":true,"name":"Material Output","outputs":[],"type":"OUTPUT_MATERIAL_BL"},{"inputs":[[0,0,0,0]],"is_active_output":false,"name":"Group","nodeGraph":0,"outputs":[[0,0,0,0]],"type":"GROUP_BL"}]},"useCastShadows":true}},"name":"nightlight_uber"},{"extensions":{"S8S_v3d_material_data":{"nodeGraph":{"edges":[{"fromNode":0,"fromOutput":0,"toInput":0,"toNode":1},{"fromNode":4,"fromOutput":0,"toInput":1,"toNode":3},{"fromNode":2,"fromOutput":0,"toInput":0,"toNode":3},{"fromNode":3,"fromOutput":0,"toInput":0,"toNode":0}],"nodes":[{"inputs":[[0.05087608844041824,0.05087608844041824,0.05087608844041824,1.0],1.0],"is_active_output":false,"name":"Background","outputs":[[0,0,0,0]],"type":"BACKGROUND_BL"},{"inputs":[[0,0,0,0],[0,0,0,0]],"is_active_output":true,"name":"World Output","outputs":[],"type":"OUTPUT_WORLD_BL"},{"inputs":[],"is_active_output":false,"name":"Light Path","outputs":[0.0,0.0,0.0,0.0,0.0,0.0,0.0,0.0,0.0,0.0,0.0,0.0,0.0],"type":"LIGHT_PATH_BL"},{"blendType":"MIX","inputs":[0.5,[0.5,0.5,0.5,1.0],[0.05126946419477463,0.05126946419477463,0.05126946419477463,1.0]],"is_active_output":false,"name":"Mix","outputs":[[0.0,0.0,0.0,0.0]],"type":"MIX_RGB_BL","useClamp":false},{"inputs":[[0.0,0.0,0.0]],"is_active_output":false,"name":"Environment Texture","outputs":[[0.0,0.0,0.0,0.0]],"projection":"EQUIRECTANGULAR","texture":2,"type":"TEX_ENVIRONMENT_BL"}]},"useCastShadows":true}},"name":"Verge3D_Environment_World"}],"meshes":[{"extensions":{"S8S_v3d_mesh_data":{"colorLayers":{"basecolor":"COLOR_0","rought_met_spec":"COLOR_1"},"uvLayers":{"UVMap":"TEXCOORD_0"}}},"name":"Plane.002","primitives":[{"attributes":{"COLOR_0":5,"COLOR_1":6,"NORMAL":2,"POSITION":1,"TANGENT":3,"TEXCOORD_0":4},"indices":0,"material":1,"mode":4},{"attributes":{"COLOR_0":12,"COLOR_1":13,"NORMAL":9,"POSITION":8,"TANGENT":10,"TEXCOORD_0":11},"indices":7,"material":0,"mode":4}]}],"nodes":[{"extensions":{"S8S_v3d_node_data":{"frustumCulling":true,"groupNames":["nightlight"],"hidden":false,"renderOrder":0,"useShadows":true}},"mesh":0,"name":"nightlight"},{"children":[0],"extensions":{"S8S_v3d_node_data":{"frustumCulling":true,"groupNames":["nightlight"],"hidden":false,"renderOrder":0}},"name":"nightlight_base"},{"camera":0,"name":"__DEFAULT_CAMERA__","rotation":[-0.165803924202919,0.30048564076423645,0.053127989172935486,0.937760591506958],"scale":[1.0,0.9999998211860657,0.9999998211860657],"translation":[1.13286292552948,1.3000898361206055,1.4452264308929443]}],"samplers":[{}],"scene":0,"scenes":[{"extensions":{"S8S_v3d_scene_data":{"aaMethod":"AUTO","iblEnvironmentMode":"PMREM","physicallyCorrectLights":true,"pmremMaxTileSize":512,"shadowMap":{"renderReverseSided":false,"renderSingleSided":true,"type":"PCFPOISSON"},"toneMapping":{"type":"filmicBlender"},"worldMaterial":2}},"extras":{"animFrameRate":24,"coordSystem":"Z_UP_RIGHT"},"name":"Scene","nodes":[1,2]}],"textures":[{"extensions":{"S8S_v3d_texture_data":{"colorSpace":"srgb"}},"name":"Chair_Linen_basecolor","sampler":0,"source":0},{"extensions":{"S8S_v3d_texture_data":{"colorSpace":"non-color"}},"name":"Chair_Linen_normal","sampler":0,"source":1},{"extensions":{"S8S_v3d_texture_data":{"colorSpace":"linear"}},"name":"environment.hdr","sampler":0,"source":2},{"extensions":{"S8S_v3d_texture_data":{"colorSpace":"non-color"}},"name":"nightstand_ao","sampler":0,"source":3}]}
