{"accessors":[{"bufferView":0,"componentType":5123,"count":5055,"max":[1080],"min":[0],"type":"SCALAR"},{"bufferView":1,"componentType":5126,"count":1081,"max":[0.33103203773498535,0.4716276228427887,0.2690049409866333],"min":[-0.32920342683792114,0.2713445723056793,-0.27497199177742004],"type":"VEC3"},{"bufferView":2,"componentType":5126,"count":1081,"max":[0.99981689453125,0.999755859375,0.964506983757019],"min":[-0.99993896484375,-0.9917294979095459,-0.9929196834564209],"type":"VEC3"},{"bufferView":3,"componentType":5126,"count":1081,"max":[0.999963641166687,0.9954136610031128,0.8854789137840271,1.0],"min":[-0.999975860118866,-0.9905526041984558,-0.9997962713241577,-1.0],"type":"VEC4"},{"bufferView":4,"componentType":5126,"count":1081,"max":[0.8724945783615112,0.9980354523286223],"min":[0.007579688914120197,0.0016313791275024414],"type":"VEC2"},{"bufferView":5,"componentType":5123,"count":2256,"max":[407],"min":[0],"type":"SCALAR"},{"bufferView":6,"componentType":5126,"count":408,"max":[0.32518270611763,0.40593814849853516,0.23995906114578247],"min":[-0.32518264651298523,0.2474082112312317,-0.2502537667751312],"type":"VEC3"},{"bufferView":7,"componentType":5126,"count":408,"max":[0.9726859331130981,0.9986266493797302,0.8551591634750366],"min":[-0.9731131792068481,-0.99993896484375,-0.9284340739250183],"type":"VEC3"},{"bufferView":8,"componentType":5126,"count":408,"max":[0.9852422475814819,0.9213747978210449,0.9955536127090454,1.0],"min":[-0.9873818159103394,-0.8439966440200806,-0.9999685287475586,1.0],"type":"VEC4"},{"bufferView":9,"componentType":5126,"count":408,"max":[0.43550679087638855,0.9980033086612821],"min":[0.001996002160012722,0.3838087320327759],"type":"VEC2"},{"bufferView":10,"componentType":5123,"count":3768,"max":[1200],"min":[0],"type":"SCALAR"},{"bufferView":11,"componentType":5126,"count":1201,"max":[0.18615657091140747,0.2760162353515625,0.18425095081329346],"min":[-0.1886872798204422,-1.4901161193847656e-08,-0.1905929148197174],"type":"VEC3"},{"bufferView":12,"componentType":5126,"count":1201,"max":[1.0,1.0,1.0],"min":[-1.0,-1.0,-1.0],"type":"VEC3"},{"bufferView":13,"componentType":5126,"count":1201,"max":[1.0,0.9918397068977356,1.0,1.0],"min":[-1.0,-1.0,-1.0,1.0],"type":"VEC4"},{"bufferView":14,"componentType":5126,"count":1201,"max":[0.5527575016021729,0.998008640948683],"min":[0.0019591336604207754,0.0017150044441223145],"type":"VEC2"},{"bufferView":15,"componentType":5123,"count":3456,"max":[763],"min":[0],"type":"SCALAR"},{"bufferView":16,"componentType":5126,"count":764,"max":[0.21156249940395355,0.22098417580127716,0.2077956646680832],"min":[-0.21162857115268707,0.0014576110988855362,-0.21637623012065887],"type":"VEC3"},{"bufferView":17,"componentType":5126,"count":764,"max":[0.996621310710907,0.9844409227371216,0.9964190721511841],"min":[-0.996621310710907,-0.9998669624328613,-0.9964189529418945],"type":"VEC3"},{"bufferView":18,"componentType":5126,"count":764,"max":[0.9996067881584167,0.9403813481330872,0.996856689453125,1.0],"min":[-0.9996068477630615,-0.9994414448738098,-0.9968684315681458,-1.0],"type":"VEC4"},{"bufferView":19,"componentType":5126,"count":764,"max":[0.9960348010063171,0.9980025407858193],"min":[0.0018294634064659476,0.0019420981407165527],"type":"VEC2"}],"asset":{"generator":"Soft8Soft Verge3D for Blender add-on","version":"2.0"},"bufferViews":[{"buffer":0,"byteLength":10110,"byteOffset":0,"target":34963},{"buffer":0,"byteLength":12972,"byteOffset":10112,"target":34962},{"buffer":0,"byteLength":12972,"byteOffset":23084,"target":34962},{"buffer":0,"byteLength":17296,"byteOffset":36056,"target":34962},{"buffer":0,"byteLength":8648,"byteOffset":53352,"target":34962},{"buffer":0,"byteLength":4512,"byteOffset":62000,"target":34963},{"buffer":0,"byteLength":4896,"byteOffset":66512,"target":34962},{"buffer":0,"byteLength":4896,"byteOffset":71408,"target":34962},{"buffer":0,"byteLength":6528,"byteOffset":76304,"target":34962},{"buffer":0,"byteLength":3264,"byteOffset":82832,"target":34962},{"buffer":0,"byteLength":7536,"byteOffset":86096,"target":34963},{"buffer":0,"byteLength":14412,"byteOffset":93632,"target":34962},{"buffer":0,"byteLength":14412,"byteOffset":108044,"target":34962},{"buffer":0,"byteLength":19216,"byteOffset":122456,"target":34962},{"buffer":0,"byteLength":9608,"byteOffset":141672,"target":34962},{"buffer":0,"byteLength":6912,"byteOffset":151280,"target":34963},{"buffer":0,"byteLength":9168,"byteOffset":158192,"target":34962},{"buffer":0,"byteLength":9168,"byteOffset":167360,"target":34962},{"buffer":0,"byteLength":12224,"byteOffset":176528,"target":34962},{"buffer":0,"byteLength":6112,"byteOffset":188752,"target":34962}],"buffers":[{"byteLength":194864,"uri":"puff.bin"}],"cameras":[{"extensions":{"S8S_v3d_camera_data":{"controls":"ORBIT","enablePan":true,"moveSpeed":1,"orbitMaxDistance":10000,"orbitMaxPolarAngle":3.141592653589793,"orbitMinDistance":0,"orbitMinPolarAngle":0,"orbitTarget":[0.08765144646167755,0.24864095449447632,-0.027209237217903137],"rotateSpeed":1,"viewportFitInitialAspect":1,"viewportFitType":"VERTICAL"}},"name":"__DEFAULT__","perspective":{"aspectRatio":1,"yfov":0.7853981633974483,"zfar":1000.0,"znear":0.009999999776482582},"type":"perspective"}],"extensions":{"S8S_v3d_data":{"nodeGraphs":[{"edges":[{"fromNode":5,"fromOutput":1,"toInput":0,"toNode":3},{"fromNode":6,"fromOutput":0,"toInput":0,"toNode":7},{"fromNode":3,"fromOutput":0,"toInput":0,"toNode":0},{"fromNode":3,"fromOutput":1,"toInput":0,"toNode":2},{"fromNode":3,"fromOutput":2,"toInput":0,"toNode":4},{"fromNode":0,"fromOutput":0,"toInput":0,"toNode":6},{"fromNode":5,"fromOutput":0,"toInput":0,"toNode":1},{"fromNode":1,"fromOutput":0,"toInput":1,"toNode":0},{"fromNode":1,"fromOutput":1,"toInput":1,"toNode":2},{"fromNode":1,"fromOutput":2,"toInput":1,"toNode":4},{"fromNode":2,"fromOutput":0,"toInput":1,"toNode":6},{"fromNode":4,"fromOutput":0,"toInput":2,"toNode":6},{"fromNode":7,"fromOutput":0,"toInput":0,"toNode":8}],"name":"Normal Map Combiner","nodes":[{"inputs":[0.5,0.5,0.0],"is_active_output":false,"name":"Math","operation":"ADD","outputs":[0.0],"type":"MATH_BL","useClamp":false},{"inputs":[[0.800000011920929,0.800000011920929,0.800000011920929,1.0]],"is_active_output":false,"name":"Separate RGB.001","outputs":[0.0,0.0,0.0],"type":"SEPRGB_BL"},{"inputs":[0.5,0.5,0.0],"is_active_output":false,"name":"Math.001","operation":"ADD","outputs":[0.0],"type":"MATH_BL","useClamp":false},{"inputs":[[0.800000011920929,0.800000011920929,0.800000011920929,1.0]],"is_active_output":false,"name":"Separate RGB","outputs":[0.0,0.0,0.0],"type":"SEPRGB_BL"},{"inputs":[0.5,0.5,0.0],"is_active_output":false,"name":"Math.002","operation":"ADD","outputs":[0.0],"type":"MATH_BL","useClamp":false},{"inputs":[],"is_active_output":false,"name":"Group Input","outputs":[[0.0,0.0,0.0,1.0],[0.0,0.0,0.0,1.0]],"type":"GROUP_INPUT_BL"},{"inputs":[0.0,0.0,0.0],"is_active_output":false,"name":"Combine RGB","outputs":[[0.0,0.0,0.0,0.0]],"type":"COMBRGB_BL"},{"inputs":[[0.5,0.5,0.5],[0.5,0.5,0.5],1.0],"is_active_output":false,"name":"Vector Math","operation":"NORMALIZE","outputs":[[0.0,0.0,0.0],0.0],"type":"VECT_MATH_BL"},{"inputs":[[0.0,0.0,0.0,0.0]],"is_active_output":true,"name":"Group Output","outputs":[],"type":"GROUP_OUTPUT_BL"}]},{"edges":[{"fromNode":0,"fromOutput":0,"toInput":2,"toNode":3},{"fromNode":1,"fromOutput":0,"toInput":1,"toNode":3},{"fromNode":3,"fromOutput":0,"toInput":0,"toNode":2},{"fromNode":6,"fromOutput":0,"toInput":0,"toNode":4},{"fromNode":5,"fromOutput":0,"toInput":0,"toNode":3},{"fromNode":4,"fromOutput":0,"toInput":0,"toNode":5}],"name":"Puff AO","nodes":[{"inputs":[],"is_active_output":false,"name":"Group Input","outputs":[[0,0,0,0]],"type":"GROUP_INPUT_BL"},{"inputs":[[0.0,0.0,0.0,1.0],0.0,[0.0,0.0,0.0]],"is_active_output":false,"name":"Diffuse BSDF","outputs":[[0,0,0,0]],"type":"BSDF_DIFFUSE_BL"},{"inputs":[[0,0,0,0]],"is_active_output":true,"name":"Group Output","outputs":[],"type":"GROUP_OUTPUT_BL"},{"inputs":[0.5,[0,0,0,0],[0,0,0,0]],"is_active_output":false,"name":"Mix Shader","outputs":[[0,0,0,0]],"type":"MIX_SHADER_BL"},{"inputs":[[0.0,0.0,0.0]],"is_active_output":false,"name":"Image Texture","outputs":[[0.0,0.0,0.0,0.0],0.0],"projection":"FLAT","projectionBlend":0.0,"texture":9,"type":"TEX_IMAGE_BL"},{"blendType":"MIX","inputs":[0.5,[0.03768346831202507,0.03768346831202507,0.03768346831202507,1.0],[1.0,1.0,1.0,1.0]],"is_active_output":false,"name":"Mix","outputs":[[0.0,0.0,0.0,0.0]],"type":"MIX_RGB_BL","useClamp":false},{"inputs":[],"is_active_output":false,"name":"UV Map.001","outputs":[[0.0,0.0,0.0]],"type":"UVMAP_BL","uvLayer":"UVMap"}]}]}},"extensionsUsed":["S8S_v3d_texture_data","S8S_v3d_data","S8S_v3d_material_data","S8S_v3d_camera_data","S8S_v3d_mesh_data","S8S_v3d_node_data","S8S_v3d_scene_data"],"images":[{"uri":"puff_normal.png"},{"uri":"Chair_Linen_normal.png"},{"uri":"Chair_Linen_basecolor.jpg"},{"uri":"Chair_wood_normal.png"},{"uri":"Chair_wood_basecolor.jpg"},{"uri":"environment.hdr"},{"uri":"puff_ao.jpg"}],"materials":[{"extensions":{"S8S_v3d_material_data":{"nodeGraph":{"edges":[{"fromNode":5,"fromOutput":0,"toInput":19,"toNode":0},{"fromNode":6,"fromOutput":0,"toInput":0,"toNode":1},{"fromNode":0,"fromOutput":0,"toInput":0,"toNode":6},{"fromNode":3,"fromOutput":0,"toInput":1,"toNode":5},{"fromNode":4,"fromOutput":0,"toInput":0,"toNode":3},{"fromNode":5,"fromOutput":0,"toInput":1,"toNode":2},{"fromNode":2,"fromOutput":0,"toInput":5,"toNode":0}],"nodes":[{"inputs":[[1.0,1.0,1.0,1.0],0.0,[1.0,0.20000000298023224,0.10000000149011612],[0.800000011920929,0.800000011920929,0.800000011920929,1.0],0.0,0.5,0.0,0.10000000149011612,0.0,0.0,0.0,0.5,0.0,0.029999999329447746,1.4500000476837158,0.0,0.0,[0.0,0.0,0.0,1.0],1.0,[0.0,0.0,0.0],[0.0,0.0,0.0],[0.0,0.0,0.0]],"is_active_output":false,"name":"Principled BSDF","outputs":[[0,0,0,0]],"type":"BSDF_PRINCIPLED_BL"},{"inputs":[[0,0,0,0],[0,0,0,0],[0.0,0.0,0.0]],"is_active_output":true,"name":"Material Output","outputs":[],"type":"OUTPUT_MATERIAL_BL"},{"inputs":[1.4500000476837158,[0.0,0.0,0.0]],"is_active_output":false,"name":"Fresnel","outputs":[0.0],"type":"FRESNEL_BL"},{"inputs":[[0.0,0.0,0.0]],"is_active_output":false,"name":"Image Texture.001","outputs":[[0.0,0.0,0.0,0.0],0.0],"projection":"FLAT","projectionBlend":0.0,"texture":0,"type":"TEX_IMAGE_BL"},{"inputs":[],"is_active_output":false,"name":"UV Map","outputs":[[0.0,0.0,0.0]],"type":"UVMAP_BL","uvLayer":"UVMap"},{"inputs":[1.0,[0.5,0.5,1.0,1.0]],"is_active_output":false,"name":"Normal Map","outputs":[[0.0,0.0,0.0]],"type":"NORMAL_MAP_BL","uvLayer":"UVMap"},{"inputs":[[0,0,0,0]],"is_active_output":false,"name":"Group.001","nodeGraph":1,"outputs":[[0,0,0,0]],"type":"GROUP_BL"}]},"useCastShadows":true}},"name":"puff_bottom"},{"extensions":{"S8S_v3d_material_data":{"nodeGraph":{"edges":[{"fromNode":9,"fromOutput":0,"toInput":19,"toNode":3},{"fromNode":1,"fromOutput":0,"toInput":0,"toNode":11},{"fromNode":1,"fromOutput":0,"toInput":0,"toNode":2},{"fromNode":7,"fromOutput":0,"toInput":0,"toNode":0},{"fromNode":0,"fromOutput":0,"toInput":0,"toNode":1},{"fromNode":2,"fromOutput":0,"toInput":0,"toNode":8},{"fromNode":5,"fromOutput":0,"toInput":1,"toNode":8},{"fromNode":8,"fromOutput":0,"toInput":1,"toNode":9},{"fromNode":11,"fromOutput":0,"toInput":0,"toNode":3},{"fromNode":6,"fromOutput":0,"toInput":0,"toNode":4},{"fromNode":3,"fromOutput":0,"toInput":0,"toNode":6},{"fromNode":7,"fromOutput":0,"toInput":0,"toNode":5},{"fromNode":9,"fromOutput":0,"toInput":1,"toNode":10},{"fromNode":10,"fromOutput":0,"toInput":5,"toNode":3}],"nodes":[{"inputs":[[0.0,0.0,0.0],[0.0,0.0,0.0],[0.0,0.0,0.0],[3.0,3.0,3.0]],"is_active_output":false,"name":"Mapping","outputs":[[0.0,0.0,0.0]],"type":"MAPPING_BL","vectorType":"POINT"},{"inputs":[[0.0,0.0,0.0]],"is_active_output":false,"name":"Reroute","outputs":[[0.0,0.0,0.0]],"type":"REROUTE_BL"},{"inputs":[[0.0,0.0,0.0]],"is_active_output":false,"name":"Image Texture.003","outputs":[[0.0,0.0,0.0,0.0],0.0],"projection":"FLAT","projectionBlend":0.0,"texture":1,"type":"TEX_IMAGE_BL"},{"inputs":[[0.5768133401870728,0.5768133401870728,0.5768133401870728,1.0],0.0,[1.0,0.20000000298023224,0.10000000149011612],[0.800000011920929,0.800000011920929,0.800000011920929,1.0],0.0,0.3909090757369995,0.0,0.699999988079071,0.0,0.0,1.0,0.5,0.0,0.029999999329447746,1.4500000476837158,0.0,0.0,[0.0,0.0,0.0,1.0],1.0,[0.0,0.0,0.0],[0.0,0.0,0.0],[0.0,0.0,0.0]],"is_active_output":false,"name":"Principled BSDF","outputs":[[0,0,0,0]],"type":"BSDF_PRINCIPLED_BL"},{"inputs":[[0,0,0,0],[0,0,0,0],[0.0,0.0,0.0]],"is_active_output":true,"name":"Material Output","outputs":[],"type":"OUTPUT_MATERIAL_BL"},{"inputs":[[0.0,0.0,0.0]],"is_active_output":false,"name":"Image Texture.001","outputs":[[0.0,0.0,0.0,0.0],0.0],"projection":"FLAT","projectionBlend":0.0,"texture":0,"type":"TEX_IMAGE_BL"},{"inputs":[[0,0,0,0]],"is_active_output":false,"name":"Group.001","nodeGraph":1,"outputs":[[0,0,0,0]],"type":"GROUP_BL"},{"inputs":[],"is_active_output":false,"name":"UV Map","outputs":[[0.0,0.0,0.0]],"type":"UVMAP_BL","uvLayer":"UVMap"},{"inputs":[[0.0,0.0,0.0,1.0],[0.0,0.0,0.0,1.0]],"is_active_output":false,"name":"Group","nodeGraph":0,"outputs":[[0.0,0.0,0.0,0.0]],"type":"GROUP_BL"},{"inputs":[1.0,[0.5,0.5,1.0,1.0]],"is_active_output":false,"name":"Normal Map","outputs":[[0.0,0.0,0.0]],"type":"NORMAL_MAP_BL","uvLayer":"UVMap"},{"inputs":[1.4500000476837158,[0.0,0.0,0.0]],"is_active_output":false,"name":"Fresnel","outputs":[0.0],"type":"FRESNEL_BL"},{"inputs":[[0.0,0.0,0.0]],"is_active_output":false,"name":"Image Texture.002","outputs":[[0.0,0.0,0.0,0.0],0.0],"projection":"FLAT","projectionBlend":0.0,"texture":3,"type":"TEX_IMAGE_BL"}]},"useCastShadows":true}},"name":"puff_linen"},{"extensions":{"S8S_v3d_material_data":{"nodeGraph":{"edges":[{"fromNode":5,"fromOutput":0,"toInput":19,"toNode":0},{"fromNode":6,"fromOutput":0,"toInput":0,"toNode":1},{"fromNode":0,"fromOutput":0,"toInput":0,"toNode":6},{"fromNode":3,"fromOutput":0,"toInput":1,"toNode":5},{"fromNode":4,"fromOutput":0,"toInput":0,"toNode":3},{"fromNode":5,"fromOutput":0,"toInput":1,"toNode":2},{"fromNode":2,"fromOutput":0,"toInput":5,"toNode":0}],"nodes":[{"inputs":[[0.0426972471177578,0.0426972471177578,0.0426972471177578,1.0],0.0,[1.0,0.20000000298023224,0.10000000149011612],[0.800000011920929,0.800000011920929,0.800000011920929,1.0],0.0,0.5,0.0,0.3863636255264282,0.0,0.0,0.0,0.5,0.0,0.029999999329447746,1.4500000476837158,0.0,0.0,[0.0,0.0,0.0,1.0],1.0,[0.0,0.0,0.0],[0.0,0.0,0.0],[0.0,0.0,0.0]],"is_active_output":false,"name":"Principled BSDF","outputs":[[0,0,0,0]],"type":"BSDF_PRINCIPLED_BL"},{"inputs":[[0,0,0,0],[0,0,0,0],[0.0,0.0,0.0]],"is_active_output":true,"name":"Material Output","outputs":[],"type":"OUTPUT_MATERIAL_BL"},{"inputs":[1.4500000476837158,[0.0,0.0,0.0]],"is_active_output":false,"name":"Fresnel","outputs":[0.0],"type":"FRESNEL_BL"},{"inputs":[[0.0,0.0,0.0]],"is_active_output":false,"name":"Image Texture.001","outputs":[[0.0,0.0,0.0,0.0],0.0],"projection":"FLAT","projectionBlend":0.0,"texture":0,"type":"TEX_IMAGE_BL"},{"inputs":[],"is_active_output":false,"name":"UV Map","outputs":[[0.0,0.0,0.0]],"type":"UVMAP_BL","uvLayer":"UVMap"},{"inputs":[1.0,[0.5,0.5,1.0,1.0]],"is_active_output":false,"name":"Normal Map","outputs":[[0.0,0.0,0.0]],"type":"NORMAL_MAP_BL","uvLayer":"UVMap"},{"inputs":[[0,0,0,0]],"is_active_output":false,"name":"Group.001","nodeGraph":1,"outputs":[[0,0,0,0]],"type":"GROUP_BL"}]},"useCastShadows":true}},"name":"puff_plastic"},{"extensions":{"S8S_v3d_material_data":{"nodeGraph":{"edges":[{"fromNode":7,"fromOutput":0,"toInput":19,"toNode":0},{"fromNode":11,"fromOutput":0,"toInput":0,"toNode":9},{"fromNode":0,"fromOutput":0,"toInput":0,"toNode":11},{"fromNode":2,"fromOutput":0,"toInput":0,"toNode":6},{"fromNode":4,"fromOutput":0,"toInput":0,"toNode":2},{"fromNode":7,"fromOutput":0,"toInput":1,"toNode":8},{"fromNode":6,"fromOutput":0,"toInput":1,"toNode":7},{"fromNode":5,"fromOutput":0,"toInput":0,"toNode":10},{"fromNode":10,"fromOutput":0,"toInput":0,"toNode":0},{"fromNode":5,"fromOutput":0,"toInput":0,"toNode":3},{"fromNode":3,"fromOutput":0,"toInput":1,"toNode":6},{"fromNode":1,"fromOutput":0,"toInput":5,"toNode":0},{"fromNode":8,"fromOutput":0,"toInput":0,"toNode":1},{"fromNode":4,"fromOutput":0,"toInput":0,"toNode":5}],"nodes":[{"inputs":[[1.0,1.0,1.0,1.0],0.0,[1.0,0.20000000298023224,0.10000000149011612],[0.800000011920929,0.800000011920929,0.800000011920929,1.0],0.0,0.5,0.0,0.25,0.0,0.0,0.0,0.5,0.0,0.029999999329447746,1.4500000476837158,0.0,0.0,[0.0,0.0,0.0,1.0],1.0,[0.0,0.0,0.0],[0.0,0.0,0.0],[0.0,0.0,0.0]],"is_active_output":false,"name":"Principled BSDF","outputs":[[0,0,0,0]],"type":"BSDF_PRINCIPLED_BL"},{"blendType":"MIX","inputs":[1.0,[0.0,0.0,0.0,1.0],[0.6499999761581421,0.6499999761581421,0.6499999761581421,1.0]],"is_active_output":false,"name":"Mix","outputs":[[0.0,0.0,0.0,0.0]],"type":"MIX_RGB_BL","useClamp":false},{"inputs":[[0.0,0.0,0.0]],"is_active_output":false,"name":"Image Texture.001","outputs":[[0.0,0.0,0.0,0.0],0.0],"projection":"FLAT","projectionBlend":0.0,"texture":0,"type":"TEX_IMAGE_BL"},{"inputs":[[0.0,0.0,0.0]],"is_active_output":false,"name":"Image Texture.002","outputs":[[0.0,0.0,0.0,0.0],0.0],"projection":"FLAT","projectionBlend":0.0,"texture":6,"type":"TEX_IMAGE_BL"},{"inputs":[],"is_active_output":false,"name":"UV Map","outputs":[[0.0,0.0,0.0]],"type":"UVMAP_BL","uvLayer":"UVMap"},{"inputs":[[0.0,0.0,0.0],[0.0,0.0,0.0],[0.0,0.0,1.5707963705062866],[10.0,10.0,10.0]],"is_active_output":false,"name":"Mapping","outputs":[[0.0,0.0,0.0]],"type":"MAPPING_BL","vectorType":"POINT"},{"inputs":[[0.0,0.0,0.0,1.0],[0.0,0.0,0.0,1.0]],"is_active_output":false,"name":"Group","nodeGraph":0,"outputs":[[0.0,0.0,0.0,0.0]],"type":"GROUP_BL"},{"inputs":[1.0,[0.5,0.5,1.0,1.0]],"is_active_output":false,"name":"Normal Map","outputs":[[0.0,0.0,0.0]],"type":"NORMAL_MAP_BL","uvLayer":"UVMap"},{"inputs":[1.4500000476837158,[0.0,0.0,0.0]],"is_active_output":false,"name":"Fresnel","outputs":[0.0],"type":"FRESNEL_BL"},{"inputs":[[0,0,0,0],[0,0,0,0],[0.0,0.0,0.0]],"is_active_output":true,"name":"Material Output","outputs":[],"type":"OUTPUT_MATERIAL_BL"},{"inputs":[[0.0,0.0,0.0]],"is_active_output":false,"name":"Image Texture","outputs":[[0.0,0.0,0.0,0.0],0.0],"projection":"FLAT","projectionBlend":0.0,"texture":7,"type":"TEX_IMAGE_BL"},{"inputs":[[0,0,0,0]],"is_active_output":false,"name":"Group.001","nodeGraph":1,"outputs":[[0,0,0,0]],"type":"GROUP_BL"}]},"useCastShadows":true}},"name":"puff_wood"},{"extensions":{"S8S_v3d_material_data":{"nodeGraph":{"edges":[{"fromNode":4,"fromOutput":0,"toInput":0,"toNode":0},{"fromNode":3,"fromOutput":0,"toInput":1,"toNode":2},{"fromNode":1,"fromOutput":0,"toInput":0,"toNode":2},{"fromNode":2,"fromOutput":0,"toInput":0,"toNode":4}],"nodes":[{"inputs":[[0,0,0,0],[0,0,0,0]],"is_active_output":true,"name":"World Output","outputs":[],"type":"OUTPUT_WORLD_BL"},{"inputs":[],"is_active_output":false,"name":"Light Path","outputs":[0.0,0.0,0.0,0.0,0.0,0.0,0.0,0.0,0.0,0.0,0.0,0.0,0.0],"type":"LIGHT_PATH_BL"},{"blendType":"MIX","inputs":[0.5,[0.5,0.5,0.5,1.0],[0.05126946419477463,0.05126946419477463,0.05126946419477463,1.0]],"is_active_output":false,"name":"Mix","outputs":[[0.0,0.0,0.0,0.0]],"type":"MIX_RGB_BL","useClamp":false},{"inputs":[[0.0,0.0,0.0]],"is_active_output":false,"name":"Environment Texture","outputs":[[0.0,0.0,0.0,0.0]],"projection":"EQUIRECTANGULAR","texture":8,"type":"TEX_ENVIRONMENT_BL"},{"inputs":[[0.05087608844041824,0.05087608844041824,0.05087608844041824,1.0],1.0],"is_active_output":false,"name":"Background","outputs":[[0,0,0,0]],"type":"BACKGROUND_BL"}]},"useCastShadows":true}},"name":"Verge3D_Environment_World"}],"meshes":[{"extensions":{"S8S_v3d_mesh_data":{"colorLayers":{},"uvLayers":{"UVMap":"TEXCOORD_0"}}},"name":"Plane","primitives":[{"attributes":{"NORMAL":2,"POSITION":1,"TANGENT":3,"TEXCOORD_0":4},"indices":0,"material":1,"mode":4}]},{"extensions":{"S8S_v3d_mesh_data":{"colorLayers":{},"uvLayers":{"UVMap":"TEXCOORD_0"}}},"name":"plastic.004","primitives":[{"attributes":{"NORMAL":7,"POSITION":6,"TANGENT":8,"TEXCOORD_0":9},"indices":5,"material":0,"mode":4}]},{"extensions":{"S8S_v3d_mesh_data":{"colorLayers":{},"uvLayers":{"UVMap":"TEXCOORD_0"}}},"name":"plastic.005","primitives":[{"attributes":{"NORMAL":12,"POSITION":11,"TANGENT":13,"TEXCOORD_0":14},"indices":10,"material":2,"mode":4}]},{"extensions":{"S8S_v3d_mesh_data":{"colorLayers":{},"uvLayers":{"UVMap":"TEXCOORD_0"}}},"name":"wood.001","primitives":[{"attributes":{"NORMAL":17,"POSITION":16,"TANGENT":18,"TEXCOORD_0":19},"indices":15,"material":3,"mode":4}]}],"nodes":[{"extensions":{"S8S_v3d_node_data":{"frustumCulling":true,"groupNames":["puff"],"hidden":false,"renderOrder":0,"useShadows":true}},"mesh":3,"name":"puff_4","translation":[-3.637978807091713e-12,2.9802322387695312e-08,-4.656612873077393e-10]},{"extensions":{"S8S_v3d_node_data":{"frustumCulling":true,"groupNames":["puff"],"hidden":false,"renderOrder":0,"useShadows":true}},"mesh":2,"name":"puff_3"},{"extensions":{"S8S_v3d_node_data":{"frustumCulling":true,"groupNames":["puff"],"hidden":false,"renderOrder":0,"useShadows":true}},"mesh":0,"name":"puff_1"},{"extensions":{"S8S_v3d_node_data":{"frustumCulling":true,"groupNames":["puff"],"hidden":false,"renderOrder":0,"useShadows":true}},"mesh":1,"name":"puff_2"},{"children":[2,3,1,0],"extensions":{"S8S_v3d_node_data":{"frustumCulling":true,"groupNames":["puff"],"hidden":false,"renderOrder":0}},"name":"puff_base"},{"camera":0,"name":"__DEFAULT_CAMERA__","rotation":[-0.2866949439048767,0.2432992309331894,0.07552772760391235,0.9235296845436096],"scale":[0.9999999403953552,0.9999998807907104,0.9999998807907104],"translation":[0.43166840076446533,0.7283845543861389,0.5803953409194946]}],"samplers":[{}],"scene":0,"scenes":[{"extensions":{"S8S_v3d_scene_data":{"aaMethod":"AUTO","iblEnvironmentMode":"PMREM","physicallyCorrectLights":true,"pmremMaxTileSize":512,"shadowMap":{"renderReverseSided":false,"renderSingleSided":true,"type":"PCFPOISSON"},"worldMaterial":4}},"extras":{"animFrameRate":24,"coordSystem":"Z_UP_RIGHT"},"name":"Scene","nodes":[4,5]}],"textures":[{"extensions":{"S8S_v3d_texture_data":{"colorSpace":"non-color"}},"name":"puff_normal","sampler":0,"source":0},{"extensions":{"S8S_v3d_texture_data":{"colorSpace":"non-color"}},"name":"Chair_Linen_normal.png","sampler":0,"source":1},{"extensions":{"S8S_v3d_texture_data":{"colorSpace":"non-color"}},"name":"puff_normal","sampler":0,"source":0},{"extensions":{"S8S_v3d_texture_data":{"colorSpace":"srgb"}},"name":"Chair_Linen_basecolor","sampler":0,"source":2},{"extensions":{"S8S_v3d_texture_data":{"colorSpace":"non-color"}},"name":"puff_normal","sampler":0,"source":0},{"extensions":{"S8S_v3d_texture_data":{"colorSpace":"non-color"}},"name":"puff_normal","sampler":0,"source":0},{"extensions":{"S8S_v3d_texture_data":{"colorSpace":"non-color"}},"name":"Chair_wood_normal.png","sampler":0,"source":3},{"extensions":{"S8S_v3d_texture_data":{"colorSpace":"srgb"}},"name":"Chair_wood_basecolor","sampler":0,"source":4},{"extensions":{"S8S_v3d_texture_data":{"colorSpace":"linear"}},"name":"environment.hdr","sampler":0,"source":5},{"extensions":{"S8S_v3d_texture_data":{"colorSpace":"non-color"}},"name":"puff_ao","sampler":0,"source":6}]}
