<?xml version="1.0" encoding="UTF-8" standalone="no"?>
<svg
   xmlns:dc="http://purl.org/dc/elements/1.1/"
   xmlns:cc="http://creativecommons.org/ns#"
   xmlns:rdf="http://www.w3.org/1999/02/22-rdf-syntax-ns#"
   xmlns:svg="http://www.w3.org/2000/svg"
   xmlns="http://www.w3.org/2000/svg"
   xmlns:xlink="http://www.w3.org/1999/xlink"
   xmlns:sodipodi="http://sodipodi.sourceforge.net/DTD/sodipodi-0.dtd"
   xmlns:inkscape="http://www.inkscape.org/namespaces/inkscape"
   sodipodi:docname="puzzles_actions.svg"
   inkscape:version="1.0 (4035a4fb49, 2020-05-01)"
   id="svg2181"
   version="1.1"
   viewBox="0 0 4.2333332 4.2333335"
   height="16"
   width="16">
  <defs
     id="defs2175">
    <linearGradient
       inkscape:collect="always"
       xlink:href="#linearGradient2107"
       id="linearGradient2109"
       x1="3.1399553"
       y1="2.4180274"
       x2="0.63395625"
       y2="1.9856019"
       gradientUnits="userSpaceOnUse"
       gradientTransform="matrix(1.0490694,0,0,1.0490694,-0.01470529,-0.01648064)" />
    <linearGradient
       inkscape:collect="always"
       id="linearGradient2107">
      <stop
         style="stop-color:#ffffff;stop-opacity:0.44758064"
         offset="0"
         id="stop2103" />
      <stop
         style="stop-color:#ffffff;stop-opacity:0"
         offset="1"
         id="stop2105" />
    </linearGradient>
  </defs>
  <sodipodi:namedview
     inkscape:window-maximized="1"
     inkscape:window-y="-8"
     inkscape:window-x="-8"
     inkscape:window-height="1017"
     inkscape:window-width="1920"
     units="px"
     showgrid="false"
     inkscape:document-rotation="0"
     inkscape:current-layer="layer1"
     inkscape:document-units="mm"
     inkscape:cy="8.5030147"
     inkscape:cx="12.212656"
     inkscape:zoom="11.2"
     inkscape:pageshadow="2"
     inkscape:pageopacity="0.0"
     borderopacity="1.0"
     bordercolor="#666666"
     pagecolor="#ffffff"
     id="base" />
  <metadata
     id="metadata2178">
    <rdf:RDF>
      <cc:Work
         rdf:about="">
        <dc:format>image/svg+xml</dc:format>
        <dc:type
           rdf:resource="http://purl.org/dc/dcmitype/StillImage" />
        <dc:title></dc:title>
      </cc:Work>
    </rdf:RDF>
  </metadata>
  <g
     id="layer1"
     inkscape:groupmode="layer"
     inkscape:label="Layer 1">
    <g
       id="g2114"
       transform="translate(-0.18277016,0.00617932)">
      <path
         sodipodi:nodetypes="ccccc"
         d="M 0.29968361,0.04176086 3.5318583,0.03340869 C 3.28406,1.4445198 3.4270554,2.8890396 2.0117628,4.1832203 l -1.71207919,-0.00835 z"
         style="fill:url(#linearGradient2109);fill-opacity:1;stroke:none;stroke-width:0.207727;stroke-linecap:round;stroke-linejoin:round;stroke-miterlimit:4;stroke-dasharray:none;stroke-opacity:1"
         id="rect2100" />
      <g
         transform="translate(0.13363476)"
         style="font-size:4.22714px;line-height:1.25;font-family:'Font Awesome 5 Free';-inkscape-font-specification:'Font Awesome 5 Free';stroke-width:0.105679"
         id="text2064"
         aria-label="">
        <path
           id="path2066"
           style="fill:#ffffff;fill-opacity:1;stroke-width:0.105679"
           d="m 3.2447646,0.78641006 c 0.2146594,0 0.3962943,-0.17337878 0.3962943,-0.39629437 0,-0.21465945 -0.1816349,-0.39629437 -0.3962943,-0.39629437 -0.2229156,0 -0.3962944,0.18163492 -0.3962944,0.39629437 0,0.22291559 0.1733788,0.39629437 0.3962944,0.39629437 z M 4.020841,2.02483 3.83095,1.9257564 3.7483886,1.6780724 C 3.6245467,1.3148026 3.2860452,1.0588624 2.9062631,1.0506063 c -0.2972208,0 -0.4623434,0.090817 -0.7678203,0.2146595 -0.181635,0.066049 -0.3302453,0.2064033 -0.4128067,0.3797821 l -0.057793,0.1073297 c -0.066049,0.1320981 -0.00826,0.2889646 0.1155859,0.3550137 0.1320981,0.066049 0.2889646,0.016512 0.3550137,-0.1155859 l 0.057793,-0.1155858 c 0.024768,-0.057793 0.074305,-0.099074 0.1320981,-0.123842 l 0.2229156,-0.090817 -0.123842,0.5036241 c -0.049537,0.1733788 0,0.3550137 0.123842,0.4871119 l 0.4871118,0.5366486 c 0.066049,0.066049 0.1073298,0.1486104 0.123842,0.2311717 L 3.3190697,4.0228141 C 3.3520943,4.1631683 3.4924485,4.2539858 3.6328028,4.2127051 3.7814132,4.1796806 3.8639745,4.0393264 3.83095,3.8989721 L 3.6493151,3.1641763 C 3.6245467,3.0733588 3.583266,2.9990536 3.5254731,2.9330046 L 3.145691,2.5201979 3.2860452,1.9587809 3.335582,2.090879 c 0.041281,0.1320982 0.1403543,0.2394279 0.2641963,0.3054769 l 0.189891,0.099074 c 0.123842,0.066049 0.2807085,0.00826 0.3467576,-0.1155858 C 4.2024759,2.2477456 4.1529392,2.0826229 4.020841,2.02483 Z M 2.1301866,3.1806886 C 2.1054182,3.2467376 2.0641376,3.3127867 2.0146008,3.3623235 L 1.6017941,3.7751301 c -0.1073297,0.099074 -0.1073297,0.2724524 0,0.371526 0.099074,0.1073297 0.2724524,0.1073297 0.371526,0 L 2.4686881,3.6595442 C 2.5182249,3.6100075 2.5512494,3.5439584 2.5842739,3.4779093 L 2.6916037,3.1972008 C 2.2375164,2.7018329 2.3778706,2.8586994 2.3035654,2.7596258 Z" />
      </g>
    </g>
  </g>
</svg>
