<?xml version="1.0" encoding="UTF-8" standalone="no"?>
<svg
   xmlns:dc="http://purl.org/dc/elements/1.1/"
   xmlns:cc="http://creativecommons.org/ns#"
   xmlns:rdf="http://www.w3.org/1999/02/22-rdf-syntax-ns#"
   xmlns:svg="http://www.w3.org/2000/svg"
   xmlns="http://www.w3.org/2000/svg"
   xmlns:sodipodi="http://sodipodi.sourceforge.net/DTD/sodipodi-0.dtd"
   xmlns:inkscape="http://www.inkscape.org/namespaces/inkscape"
   sodipodi:docname="puzzles_groups.svg"
   inkscape:version="1.0 (4035a4fb49, 2020-05-01)"
   id="svg2181"
   version="1.1"
   viewBox="0 0 4.2333332 4.2333335"
   height="16"
   width="16">
  <defs
     id="defs2175" />
  <sodipodi:namedview
     inkscape:window-maximized="1"
     inkscape:window-y="-8"
     inkscape:window-x="-8"
     inkscape:window-height="1017"
     inkscape:window-width="1920"
     units="px"
     showgrid="false"
     inkscape:document-rotation="0"
     inkscape:current-layer="layer1"
     inkscape:document-units="mm"
     inkscape:cy="10.4673"
     inkscape:cx="9.5340845"
     inkscape:zoom="11.2"
     inkscape:pageshadow="2"
     inkscape:pageopacity="0.0"
     borderopacity="1.0"
     bordercolor="#666666"
     pagecolor="#ffffff"
     id="base" />
  <metadata
     id="metadata2178">
    <rdf:RDF>
      <cc:Work
         rdf:about="">
        <dc:format>image/svg+xml</dc:format>
        <dc:type
           rdf:resource="http://purl.org/dc/dcmitype/StillImage" />
        <dc:title></dc:title>
      </cc:Work>
    </rdf:RDF>
  </metadata>
  <g
     id="layer1"
     inkscape:groupmode="layer"
     inkscape:label="Layer 1">
    <path
       id="path2055"
       style="font-size:4.23333px;line-height:1.25;font-family:'Font Awesome 5 Free';-inkscape-font-specification:'Font Awesome 5 Free';fill:#ffffff;fill-opacity:1;stroke:none;stroke-width:0.0499999;stroke-miterlimit:4;stroke-dasharray:none;stroke-opacity:1"
       d="m 0.09921777,0.00568107 c -0.05788,0 -0.099220003333,0.04961 -0.099220003333,0.09922 v 0.595313 c 0,0.05788 0.041340003333,0.09922 0.099220003333,0.09922 h 0.09922 V 3.4338993 h -0.09922 c -0.05788,0 -0.099220003333,0.04961 -0.099220003333,0.09922 v 0.595313 c 0,0.05788 0.041340003333,0.09922 0.099220003333,0.09922 h 0.595313 c 0.04961,0 0.09922,-0.04134 0.09922,-0.09922 v -0.09922 H 3.4395836 v 0.09922 c 0,0.05788 0.04134,0.09922 0.09922,0.09922 h 0.595312 c 0.04961,0 0.09922,-0.04134 0.09922,-0.09922 v -0.595313 c 0,-0.04961 -0.04961,-0.09922 -0.09922,-0.09922 h -0.09922 V 0.79943427 h 0.09922 c 0.04961,0 0.09922,-0.04134 0.09922,-0.09922 v -0.595313 c 0,-0.04961 -0.04961,-0.09922 -0.09922,-0.09922 h -0.595312 c -0.05788,0 -0.09922,0.04961 -0.09922,0.09922 v 0.09922 H 0.79375077 v -0.09922 c 0,-0.04961 -0.04961,-0.09922 -0.09922,-0.09922 z m 0.79375,0.850004 H 2.3694378 c 0.04961,0 0.09922,0.04961 0.09922,0.09922 V 1.5147821 h 0.8717068 c 0.04961,0 0.09922,0.04961 0.09922,0.09922 v 1.6489221 c 0,0.05788 -0.04961,0.09922 -0.09922,0.09922 H 1.8520838 c -0.05788,0 -0.09922,-0.04134 -0.09922,-0.09922 V 2.67942 H 0.89296777 c -0.05788,0 -0.09922,-0.04134 -0.09922,-0.09922 V 0.95490307 c 0,-0.04961 0.04134,-0.09922 0.09922,-0.09922 z"
       sodipodi:nodetypes="ssssccssssssccssssssccssssssccsssssscsssssscssss" />
  </g>
</svg>
