<?xml version="1.0" encoding="UTF-8" standalone="no"?>
<svg
   xmlns:dc="http://purl.org/dc/elements/1.1/"
   xmlns:cc="http://creativecommons.org/ns#"
   xmlns:rdf="http://www.w3.org/1999/02/22-rdf-syntax-ns#"
   xmlns:svg="http://www.w3.org/2000/svg"
   xmlns="http://www.w3.org/2000/svg"
   xmlns:xlink="http://www.w3.org/1999/xlink"
   xmlns:sodipodi="http://sodipodi.sourceforge.net/DTD/sodipodi-0.dtd"
   xmlns:inkscape="http://www.inkscape.org/namespaces/inkscape"
   width="800"
   height="160"
   viewBox="0 0 211.66666 42.333335"
   version="1.1"
   id="svg6133"
   sodipodi:docname="banner.svg"
   inkscape:version="0.92.4 (5da689c313, 2019-01-14)">
  <sodipodi:namedview
     pagecolor="#ffffff"
     bordercolor="#666666"
     borderopacity="1"
     objecttolerance="10"
     gridtolerance="10"
     guidetolerance="10"
     inkscape:pageopacity="0"
     inkscape:pageshadow="2"
     inkscape:window-width="1920"
     inkscape:window-height="1013"
     id="namedview22608"
     showgrid="false"
     inkscape:zoom="1.3904297"
     inkscape:cx="397.48279"
     inkscape:cy="98.699256"
     inkscape:window-x="-9"
     inkscape:window-y="-9"
     inkscape:window-maximized="1"
     inkscape:current-layer="svg6133" />
  <defs
     id="defs6127">
    <linearGradient
       xlink:href="#linearGradient3077"
       id="linearGradient4375"
       gradientUnits="userSpaceOnUse"
       x1="172.91336"
       y1="78.689407"
       x2="193.7847"
       y2="53.806618"
       gradientTransform="translate(-148.24051,-45.829702)" />
    <linearGradient
       id="linearGradient3077">
      <stop
         style="stop-color:#0048a5;stop-opacity:1"
         offset="0"
         id="stop3073" />
      <stop
         style="stop-color:#4b86d1;stop-opacity:1"
         offset="1"
         id="stop3075" />
    </linearGradient>
    <linearGradient
       xlink:href="#linearGradient4546"
       id="linearGradient4168"
       gradientUnits="userSpaceOnUse"
       x1="265.46716"
       y1="72.952255"
       x2="265.52728"
       y2="62.66238"
       gradientTransform="translate(-148.24047,-46.921293)" />
    <linearGradient
       id="linearGradient4546">
      <stop
         id="stop4542"
         offset="0"
         style="stop-color:#9c9c9c;stop-opacity:1" />
      <stop
         id="stop4544"
         offset="1"
         style="stop-color:#c7c7c7;stop-opacity:1" />
    </linearGradient>
    <linearGradient
       xlink:href="#linearGradient4546"
       id="linearGradient6074"
       gradientUnits="userSpaceOnUse"
       x1="265.46716"
       y1="72.952255"
       x2="265.52728"
       y2="62.66238"
       gradientTransform="translate(-148.24046,-46.921294)" />
    <linearGradient
       xlink:href="#linearGradient3077"
       id="linearGradient6082"
       gradientUnits="userSpaceOnUse"
       x1="172.91336"
       y1="78.689407"
       x2="193.7847"
       y2="53.806618"
       gradientTransform="translate(-148.2405,-45.829701)" />
    <filter
       style="color-interpolation-filters:sRGB"
       id="filter3777"
       x="-0.11323258"
       width="1.2264652"
       y="-0.10322967"
       height="1.2064593">
      <feGaussianBlur
         stdDeviation="1.1789054"
         id="feGaussianBlur3779" />
    </filter>
    <filter
       style="color-interpolation-filters:sRGB"
       id="filter3801"
       x="-0.025709538"
       width="1.0514191"
       y="-0.36093333"
       height="1.7218667">
      <feGaussianBlur
         stdDeviation="1.398881"
         id="feGaussianBlur3803" />
    </filter>
    <linearGradient
       xlink:href="#linearGradient3077"
       id="linearGradient6756"
       gradientUnits="userSpaceOnUse"
       gradientTransform="translate(-148.24051,-45.829702)"
       x1="172.91336"
       y1="78.689407"
       x2="193.7847"
       y2="53.806618" />
    <linearGradient
       gradientUnits="userSpaceOnUse"
       y2="53.806618"
       x2="193.7847"
       y1="78.689407"
       x1="172.91336"
       id="linearGradient3079"
       xlink:href="#linearGradient3077"
       gradientTransform="translate(-149.07379,19.299547)" />
    <linearGradient
       gradientUnits="userSpaceOnUse"
       y2="62.66238"
       x2="265.52728"
       y1="72.952255"
       x1="265.46716"
       id="linearGradient1695"
       xlink:href="#linearGradient2768"
       gradientTransform="translate(-148.24046,-46.92129)" />
    <linearGradient
       id="linearGradient2768">
      <stop
         id="stop2764"
         offset="0"
         style="stop-color:#414141;stop-opacity:1" />
      <stop
         id="stop2766"
         offset="1"
         style="stop-color:#767676;stop-opacity:1" />
    </linearGradient>
    <linearGradient
       y2="62.66238"
       x2="265.52728"
       y1="72.952255"
       x1="265.46716"
       gradientTransform="translate(-148.24047,-46.921293)"
       gradientUnits="userSpaceOnUse"
       id="linearGradient20105"
       xlink:href="#linearGradient2648" />
    <linearGradient
       y2="62.66238"
       x2="265.52728"
       y1="72.952255"
       x1="265.46716"
       gradientTransform="translate(-148.24046,-46.921294)"
       gradientUnits="userSpaceOnUse"
       id="linearGradient20191"
       xlink:href="#linearGradient4546" />
    <linearGradient
       inkscape:collect="always"
       id="linearGradient2648">
      <stop
         style="stop-color:#ebebeb;stop-opacity:1"
         offset="0"
         id="stop2644" />
      <stop
         style="stop-color:#ffffff;stop-opacity:1"
         offset="1"
         id="stop2646" />
    </linearGradient>
    <linearGradient
       inkscape:collect="always"
       xlink:href="#linearGradient2648"
       id="linearGradient22568"
       gradientUnits="userSpaceOnUse"
       gradientTransform="translate(624.41705)"
       x1="265.46716"
       y1="72.952255"
       x2="265.52728"
       y2="62.66238" />
  </defs>
  <metadata
     id="metadata6130">
    <rdf:RDF>
      <cc:Work
         rdf:about="">
        <dc:format>image/svg+xml</dc:format>
        <dc:type
           rdf:resource="http://purl.org/dc/dcmitype/StillImage" />
        <dc:title></dc:title>
      </cc:Work>
    </rdf:RDF>
  </metadata>
  <path
     d="m 183.06233,19.616362 -0.79582,-0.03101 q -0.69763,0 -1.33325,0.764811 v 3.302124 q 0,0.139526 -0.093,0.227376 -0.0879,0.08785 -0.22221,0.08785 h -1.15755 q -0.13952,0 -0.22737,-0.08785 -0.0879,-0.08785 -0.0879,-0.227376 V 18.62417 q 0,-0.139526 0.0879,-0.227376 0.093,-0.09302 0.22737,-0.09302 h 1.15755 q 0.13953,0 0.22738,0.09302 0.0879,0.08785 0.0879,0.227376 v 0.325561 q 0.5271,-0.382405 1.01286,-0.563273 0.49092,-0.186035 1.28157,-0.186035 0.13953,0 0.22738,0.09302 0.093,0.08785 0.093,0.222208 v 0.785482 q 0,0.139527 -0.093,0.227376 -0.0879,0.08785 -0.22738,0.08785 z m -10.11825,3.700033 q -0.79582,-0.754476 -0.79582,-2.17041 0,-1.421102 0.80099,-2.180746 0.80098,-0.764811 2.22209,-0.764811 1.4211,0 2.21691,0.744141 0.79582,0.738973 0.79582,2.123901 v 0.294556 q 0,0.139526 -0.093,0.232544 -0.0879,0.08785 -0.22737,0.08785 h -3.89124 q 0.0517,0.63562 0.36174,0.925008 0.31522,0.289388 1.00252,0.289388 0.6873,0 0.94051,-0.310059 0.25322,-0.310058 0.62529,-0.315226 h 0.76998 q 0.13952,0 0.22737,0.09302 0.093,0.08785 0.093,0.227377 0,1.483113 -2.8267,1.477946 -1.42627,0 -2.22209,-0.754476 z m 1.01803,-2.723348 h 2.40295 q -0.0517,-1.219564 -1.19889,-1.219564 -1.14205,0 -1.20406,1.219564 z m -6.10299,2.940389 q -1.17305,0 -1.89652,-0.707967 -0.7183,-0.707967 -0.7183,-1.963705 0,-1.255737 0.82165,-1.958536 0.82166,-0.7028 2.35645,-0.7028 0.7493,0 1.55546,0.170532 0.80615,0.165365 1.21439,0.408244 v 4.785238 q 0,1.152384 -0.75964,1.700154 -0.75964,0.552938 -2.13424,0.552938 -1.36942,0 -2.11356,-0.346232 -0.73898,-0.341064 -0.73898,-1.131714 0,-0.139526 0.0879,-0.232544 0.093,-0.08785 0.23255,-0.08785 h 0.76998 q 0.37207,0 0.59428,0.273885 0.28422,0.3514 1.00769,0.3514 0.72863,0 0.99735,-0.237711 0.26872,-0.237712 0.26872,-0.842326 v -0.24288 q -0.82682,0.211874 -1.54513,0.211874 z m 0.45476,-4.082438 q -1.22474,-0.0052 -1.22474,1.415934 0,1.415934 1.19373,1.415934 0.49609,0 1.12138,-0.155029 v -2.563151 q -0.44442,-0.118856 -1.09037,-0.113688 z m -9.29142,4.14445 q -0.68213,-0.475424 -0.68213,-1.343588 0,-0.868164 0.68213,-1.333252 0.68729,-0.465087 1.76733,-0.465087 h 1.71049 q 0,-0.604615 -0.25321,-0.842326 -0.25322,-0.237712 -0.88884,-0.237712 -0.63045,0 -0.88883,0.315226 -0.25322,0.310059 -0.62529,0.310059 h -0.76998 q -0.13952,0 -0.23254,-0.08785 -0.0879,-0.09302 -0.0879,-0.227376 0,-1.483114 2.81636,-1.483114 1.2299,0 1.97404,0.552938 0.74414,0.54777 0.74414,1.700155 v 3.198771 q 0,0.139526 -0.0878,0.227376 -0.0879,0.08785 -0.22737,0.08785 h -0.99736 q -0.13952,0 -0.22737,-0.08785 -0.0879,-0.09302 -0.0879,-0.227376 v -0.160197 q -0.81649,0.583943 -1.88619,0.578776 -1.06454,0 -1.75183,-0.475423 z m 1.89135,-1.968872 q -0.36173,0 -0.57361,0.175699 -0.2067,0.1757 -0.2067,0.454753 0,0.279053 0.21704,0.45992 0.21704,0.180868 0.61495,0.180868 0.79582,0 1.53479,-0.465088 v -0.806152 z m -9.46712,2.025716 v -5.028117 q 0,-0.139526 0.0879,-0.227376 0.093,-0.09302 0.22737,-0.09302 h 1.15755 q 0.13436,0 0.22221,0.09302 0.093,0.08785 0.093,0.227376 v 0.325561 q 0.88883,-0.749308 1.89136,-0.749308 1.00769,0 1.63814,0.61495 0.63045,0.609782 0.63045,1.870687 v 2.966227 q 0,0.134358 -0.093,0.227376 -0.0878,0.08785 -0.22738,0.08785 h -1.15239 q -0.13435,0 -0.22737,-0.08785 -0.0879,-0.09302 -0.0879,-0.227376 v -2.966227 q 0,-1.235067 -0.98702,-1.235067 -0.64596,0 -1.38493,0.738973 v 3.462321 q 0,0.134358 -0.093,0.227376 -0.0879,0.08785 -0.22221,0.08785 h -1.15755 q -0.13436,0 -0.22737,-0.08785 -0.0879,-0.09302 -0.0879,-0.227376 z m -6.54224,-0.05684 q -0.68213,-0.475424 -0.68213,-1.343588 0,-0.868164 0.68213,-1.333252 0.6873,-0.465087 1.76734,-0.465087 h 1.71049 q 0,-0.604615 -0.25322,-0.842326 -0.25321,-0.237712 -0.88883,-0.237712 -0.63046,0 -0.88884,0.315226 -0.25321,0.310059 -0.62528,0.310059 h -0.76998 q -0.13953,0 -0.23255,-0.08785 -0.0879,-0.09302 -0.0879,-0.227376 0,-1.483114 2.81637,-1.483114 1.2299,0 1.97404,0.552938 0.74414,0.54777 0.74414,1.700155 v 3.198771 q 0,0.139526 -0.0879,0.227376 -0.0878,0.08785 -0.22738,0.08785 h -0.99735 q -0.13953,0 -0.22738,-0.08785 -0.0879,-0.09302 -0.0879,-0.227376 v -0.160197 q -0.81648,0.583943 -1.88619,0.578776 -1.06453,0 -1.75183,-0.475423 z m 1.89136,-1.968872 q -0.36174,0 -0.57361,0.175699 -0.2067,0.1757 -0.2067,0.454753 0,0.279053 0.21704,0.45992 0.21704,0.180868 0.61495,0.180868 0.79581,0 1.53479,-0.465088 v -0.806152 z m -13.10515,1.844848 v -6.413045 q 0,-0.211873 0.13953,-0.356567 0.13953,-0.144694 0.34106,-0.144694 h 2.10324 q 0.20153,0 0.3824,0.144694 0.18087,0.144694 0.24288,0.346232 l 1.52445,4.413167 1.52446,-4.413167 q 0.062,-0.201538 0.24288,-0.346232 0.18087,-0.144694 0.3824,-0.144694 h 2.10323 q 0.20154,0 0.3359,0.144694 0.13953,0.144694 0.13953,0.356567 v 6.413045 q 0,0.211873 -0.1447,0.356567 -0.13952,0.139527 -0.34106,0.139527 h -0.93018 q -0.20153,0 -0.34623,-0.139527 -0.13952,-0.144694 -0.13952,-0.356567 v -5.048787 l -1.82418,5.079793 q -0.0724,0.191203 -0.25322,0.330729 -0.18086,0.134359 -0.3824,0.134359 h -0.73898 q -0.20153,0 -0.3824,-0.134359 -0.1757,-0.139526 -0.25322,-0.330729 l -1.81901,-5.079793 v 5.048787 q 0,0.211873 -0.14469,0.356567 -0.13953,0.139527 -0.34106,0.139527 h -0.93018 q -0.20154,0 -0.34623,-0.139527 -0.1447,-0.144694 -0.1447,-0.356567 z m -10.8107,1.922363 v -6.769612 q 0,-0.139526 0.0879,-0.227376 0.093,-0.09302 0.22738,-0.09302 h 0.99735 q 0.13436,0 0.22221,0.09302 0.093,0.08785 0.093,0.227376 v 0.155029 q 0.81648,-0.578776 1.89652,-0.578776 1.08004,0 1.80351,0.764811 0.72347,0.759644 0.72347,2.180746 0,1.415934 -0.74931,2.17041 -0.74931,0.754476 -2.02055,0.754476 -0.65629,0 -1.49345,-0.26355 v 1.586466 q 0,0.139527 -0.093,0.227377 -0.0879,0.09302 -0.22221,0.09302 h -1.15755 q -0.13436,0 -0.22738,-0.09302 -0.0879,-0.08785 -0.0879,-0.227377 z m 1.788,-2.780192 q 0.66663,0.211874 1.12138,0.211874 0.70797,0 1.00252,-0.403076 0.29973,-0.403077 0.29973,-1.286744 0,-0.883667 -0.28422,-1.281575 -0.27905,-0.403076 -0.84233,-0.403076 -0.5581,0 -1.29708,0.465088 z m -8.79533,2.780192 v -6.769612 q 0,-0.139526 0.0879,-0.227376 0.093,-0.09302 0.22738,-0.09302 h 0.99735 q 0.13436,0 0.22221,0.09302 0.093,0.08785 0.093,0.227376 v 0.155029 q 0.81649,-0.578776 1.89652,-0.578776 1.08004,0 1.80351,0.764811 0.72347,0.759644 0.72347,2.180746 0,1.415934 -0.74931,2.17041 -0.74931,0.754476 -2.02055,0.754476 -0.65629,0 -1.49344,-0.26355 v 1.586466 q 0,0.139527 -0.093,0.227377 -0.0879,0.09302 -0.22221,0.09302 h -1.15755 q -0.13436,0 -0.22738,-0.09302 -0.0879,-0.08785 -0.0879,-0.227377 z m 1.78801,-2.780192 q 0.66662,0.211874 1.12137,0.211874 0.70797,0 1.00253,-0.403076 0.29972,-0.403077 0.29972,-1.286744 0,-0.883667 -0.28422,-1.281575 -0.27905,-0.403076 -0.84233,-0.403076 -0.5581,0 -1.29707,0.465088 z m -11.12077,0.8785 1.29708,-4.919597 q 0.5271,-2.010213 3.43131,-2.01538 h 2.78536 q 0.19121,0 0.31523,0.144694 0.12919,0.144694 0.12919,0.335896 v 6.454387 q 0,0.201538 -0.14469,0.341064 -0.1447,0.134359 -0.34624,0.134359 h -0.97151 q -0.21188,0 -0.3514,-0.134359 -0.13436,-0.139526 -0.13436,-0.3514 v -1.302246 h -3.6742 l -0.34623,1.302246 q -0.0517,0.211874 -0.23254,0.3514 -0.18087,0.134359 -0.38241,0.134359 h -1.01802 q -0.20154,0 -0.28939,-0.113688 -0.0879,-0.118856 -0.0879,-0.206706 0.005,-0.08785 0.0207,-0.155029 z m 2.71818,-2.775025 h 3.29179 v -2.697509 h -1.47278 q -0.49609,0 -0.86816,0.28422 -0.36691,0.279053 -0.4961,0.754476 z m -14.531414,2.775025 v -6.433716 q 0,-0.211873 0.144694,-0.356567 0.144694,-0.144694 0.346232,-0.144694 h 2.888713 q 2.242755,0 3.260785,0.89917 1.02319,0.894002 1.02319,2.811197 0,1.912028 -1.02319,2.806031 -1.01803,0.894002 -3.260785,0.894002 h -2.888713 q -0.201538,0 -0.346232,-0.134359 -0.144694,-0.139526 -0.144694,-0.341064 z m 1.948202,-0.98702 h 1.374593 q 1.390096,0 1.891357,-0.506429 0.501262,-0.506429 0.501262,-1.731161 0,-1.229899 -0.501262,-1.736328 -0.501261,-0.511596 -1.891357,-0.511596 H 96.674838 Z M 86.603104,21.946969 q 0,-0.310058 0.180867,-0.439249 0.180868,-0.134359 0.3514,-0.134359 h 0.609782 q 0.480591,0 0.754476,0.589111 0.273885,0.589112 1.260905,0.589112 h 0.738973 q 0.63562,0 0.930175,-0.180868 0.294556,-0.180867 0.294556,-0.614949 0,-0.434082 -0.294556,-0.61495 -0.294555,-0.180867 -0.930175,-0.180867 h -0.930176 q -0.201538,0 -0.346232,-0.139527 -0.144694,-0.144694 -0.144694,-0.346232 v -0.423747 q 0,-0.191202 0.139526,-0.335896 0.139526,-0.149862 0.330729,-0.149862 h 0.759644 q 0.687296,0 0.997355,-0.180868 0.315226,-0.180867 0.315226,-0.614949 0,-0.434082 -0.315226,-0.609782 Q 90.9956,17.97822 90.308304,17.97822 h -0.382406 q -0.992187,0 -1.312581,0.63562 -0.232544,0.485758 -0.697632,0.485758 h -0.61495 q -0.248046,0 -0.387573,-0.180867 -0.139526,-0.180868 -0.139526,-0.392741 0,-0.589112 0.449585,-1.059367 0.449585,-0.475423 1.121378,-0.713135 0.671794,-0.237711 1.400432,-0.237711 h 0.713134 q 3.110921,0 3.110921,2.263427 0,0.945679 -0.707967,1.483114 0.81132,0.511596 0.81132,1.493449 0,1.193725 -0.764811,1.725992 -0.759643,0.5271 -2.227254,0.5271 h -1.100708 q -1.157552,0 -2.067057,-0.568441 -0.909505,-0.573608 -0.909505,-1.493449 z m -5.829103,1.369426 q -0.795817,-0.754476 -0.795817,-2.17041 0,-1.421102 0.800985,-2.180746 0.800985,-0.764811 2.222087,-0.764811 1.421101,0 2.216918,0.744141 0.795817,0.738973 0.795817,2.123901 v 0.294556 q 0,0.139526 -0.09302,0.232544 -0.08785,0.08785 -0.227376,0.08785 h -3.891236 q 0.05168,0.63562 0.361735,0.925008 0.315227,0.289388 1.002523,0.289388 0.687297,0 0.940511,-0.310059 0.253215,-0.310058 0.625285,-0.315226 h 0.769979 q 0.139526,0 0.227376,0.09302 0.09302,0.08785 0.09302,0.227377 0,1.483113 -2.826701,1.477946 -1.42627,0 -2.222087,-0.754476 z m 1.018026,-2.723348 h 2.402954 q -0.05168,-1.219564 -1.198893,-1.219564 -1.142049,0 -1.204061,1.219564 z m -6.102986,2.940389 q -1.173055,0 -1.896525,-0.707967 -0.718302,-0.707967 -0.718302,-1.963705 0,-1.255737 0.821655,-1.958536 0.821655,-0.7028 2.356445,-0.7028 0.749308,0 1.555461,0.170532 0.806152,0.165365 1.214396,0.408244 v 4.785238 q 0,1.152384 -0.759644,1.700154 -0.759643,0.552938 -2.134236,0.552938 -1.369426,0 -2.113566,-0.346232 -0.738973,-0.341064 -0.738973,-1.131714 0,-0.139526 0.08785,-0.232544 0.09302,-0.08785 0.232544,-0.08785 h 0.769978 q 0.372071,0 0.594279,0.273885 0.284221,0.3514 1.007691,0.3514 0.728637,0 0.997355,-0.237711 0.268717,-0.237712 0.268717,-0.842326 v -0.24288 q -0.826823,0.211874 -1.545125,0.211874 z m 0.454753,-4.082438 q -1.224732,-0.0052 -1.224732,1.415934 0,1.415934 1.193726,1.415934 0.496094,0 1.121378,-0.155029 V 19.564686 Q 76.789749,19.44583 76.143794,19.450998 Z m -3.979087,0.165364 -0.795817,-0.03101 q -0.697631,0 -1.333252,0.764811 v 3.302124 q 0,0.139526 -0.09302,0.227376 -0.08785,0.08785 -0.222209,0.08785 H 68.56286 q -0.139526,0 -0.227376,-0.08785 -0.08785,-0.08785 -0.08785,-0.227376 V 18.62417 q 0,-0.139526 0.08785,-0.227376 0.09302,-0.09302 0.227376,-0.09302 h 1.157552 q 0.139527,0 0.227376,0.09302 0.08785,0.08785 0.08785,0.227376 v 0.325561 q 0.5271,-0.382405 1.012858,-0.563273 0.490927,-0.186035 1.281576,-0.186035 0.139526,0 0.227376,0.09302 0.09302,0.08785 0.09302,0.222208 v 0.785482 q 0,0.139527 -0.09302,0.227376 -0.08785,0.08785 -0.227376,0.08785 z M 62.05163,23.316395 q -0.795817,-0.754476 -0.795817,-2.17041 0,-1.421102 0.800985,-2.180746 0.800985,-0.764811 2.222086,-0.764811 1.421102,0 2.216919,0.744141 0.795817,0.738973 0.795817,2.123901 v 0.294556 q 0,0.139526 -0.09302,0.232544 -0.08785,0.08785 -0.227376,0.08785 h -3.891236 q 0.05168,0.63562 0.361735,0.925008 0.315227,0.289388 1.002523,0.289388 0.687297,0 0.940511,-0.310059 0.253215,-0.310058 0.625285,-0.315226 h 0.769979 q 0.139526,0 0.227376,0.09302 0.09302,0.08785 0.09302,0.227377 0,1.483113 -2.826701,1.477946 -1.42627,0 -2.222087,-0.754476 z m 1.018026,-2.723348 h 2.402954 q -0.05168,-1.219564 -1.198893,-1.219564 -1.142049,0 -1.204061,1.219564 z M 52.992752,16.9912 q -0.03101,-0.06201 -0.03101,-0.134359 0,-0.07751 0.09302,-0.186035 0.09819,-0.113688 0.273885,-0.113688 h 1.131714 q 0.403076,0 0.614949,0.490926 l 1.999878,4.454508 1.999878,-4.454508 q 0.211873,-0.485759 0.614949,-0.490926 h 1.131714 q 0.180868,0 0.273885,0.113688 0.09302,0.10852 0.09302,0.186035 0,0.07235 -0.02584,0.134359 l -2.976563,6.449218 q -0.242879,0.5271 -0.738973,0.5271 h -0.74414 q -0.496094,0 -0.738973,-0.5271 z"
     style="font-style:normal;font-variant:normal;font-weight:normal;font-stretch:normal;font-size:10.58333302px;line-height:1.25;font-family:'Days One';-inkscape-font-specification:'Days One';letter-spacing:0px;word-spacing:0px;fill:url(#linearGradient20191);fill-opacity:1;stroke:none;stroke-width:0.26458332;filter:url(#filter3801)"
     id="path20036" />
  <path
     d="m 183.06233,19.616362 -0.79581,-0.03101 q -0.69764,0 -1.33326,0.764811 v 3.302124 q 0,0.139526 -0.093,0.227376 -0.0879,0.08785 -0.22221,0.08785 h -1.15755 q -0.13953,0 -0.22738,-0.08785 -0.0879,-0.08785 -0.0879,-0.227376 V 18.62417 q 0,-0.139526 0.0879,-0.227376 0.093,-0.09302 0.22738,-0.09302 h 1.15755 q 0.13952,0 0.22737,0.09302 0.0879,0.08785 0.0879,0.227376 v 0.325561 q 0.5271,-0.382405 1.01286,-0.563273 0.49093,-0.186035 1.28158,-0.186035 0.13952,0 0.22737,0.09302 0.093,0.08785 0.093,0.222208 v 0.785482 q 0,0.139527 -0.093,0.227376 -0.0879,0.08785 -0.22737,0.08785 z m -10.11824,3.700033 q -0.79582,-0.754476 -0.79582,-2.17041 0,-1.421102 0.80098,-2.180746 0.80099,-0.764811 2.22209,-0.764811 1.4211,0 2.21692,0.744141 0.79582,0.738973 0.79582,2.123901 v 0.294556 q 0,0.139526 -0.093,0.232544 -0.0879,0.08785 -0.22738,0.08785 h -3.89123 q 0.0517,0.63562 0.36173,0.925008 0.31523,0.289388 1.00252,0.289388 0.6873,0 0.94052,-0.310059 0.25321,-0.310058 0.62528,-0.315226 h 0.76998 q 0.13953,0 0.22738,0.09302 0.093,0.08785 0.093,0.227377 0,1.483113 -2.8267,1.477946 -1.42627,0 -2.22208,-0.754476 z m 1.01802,-2.723348 h 2.40296 q -0.0517,-1.219564 -1.1989,-1.219564 -1.14205,0 -1.20406,1.219564 z m -6.10298,2.940389 q -1.17306,0 -1.89653,-0.707967 -0.7183,-0.707967 -0.7183,-1.963705 0,-1.255737 0.82165,-1.958536 0.82166,-0.7028 2.35645,-0.7028 0.74931,0 1.55546,0.170532 0.80615,0.165365 1.2144,0.408244 v 4.785238 q 0,1.152384 -0.75965,1.700154 -0.75964,0.552938 -2.13423,0.552938 -1.36943,0 -2.11357,-0.346232 -0.73897,-0.341064 -0.73897,-1.131714 0,-0.139526 0.0879,-0.232544 0.093,-0.08785 0.23254,-0.08785 h 0.76998 q 0.37207,0 0.59428,0.273885 0.28422,0.3514 1.00769,0.3514 0.72864,0 0.99735,-0.237711 0.26872,-0.237712 0.26872,-0.842326 v -0.24288 q -0.82682,0.211874 -1.54512,0.211874 z m 0.45475,-4.082438 q -1.22473,-0.0052 -1.22473,1.415934 0,1.415934 1.19372,1.415934 0.4961,0 1.12138,-0.155029 v -2.563151 q -0.44442,-0.118856 -1.09037,-0.113688 z m -9.29142,4.14445 q -0.68213,-0.475424 -0.68213,-1.343588 0,-0.868164 0.68213,-1.333252 0.6873,-0.465087 1.76733,-0.465087 h 1.71049 q 0,-0.604615 -0.25321,-0.842326 -0.25322,-0.237712 -0.88884,-0.237712 -0.63045,0 -0.88883,0.315226 -0.25321,0.310059 -0.62529,0.310059 h -0.76997 q -0.13953,0 -0.23255,-0.08785 -0.0879,-0.09302 -0.0879,-0.227376 0,-1.483114 2.81637,-1.483114 1.2299,0 1.97404,0.552938 0.74414,0.54777 0.74414,1.700155 v 3.198771 q 0,0.139526 -0.0879,0.227376 -0.0878,0.08785 -0.22738,0.08785 h -0.99735 q -0.13953,0 -0.22738,-0.08785 -0.0879,-0.09302 -0.0879,-0.227376 v -0.160197 q -0.81649,0.583943 -1.88619,0.578776 -1.06453,0 -1.75183,-0.475423 z m 1.89136,-1.968872 q -0.36174,0 -0.57361,0.175699 -0.20671,0.1757 -0.20671,0.454753 0,0.279053 0.21704,0.45992 0.21704,0.180868 0.61495,0.180868 0.79582,0 1.53479,-0.465088 v -0.806152 z m -9.46713,2.025716 v -5.028117 q 0,-0.139526 0.0879,-0.227376 0.093,-0.09302 0.22738,-0.09302 h 1.15755 q 0.13436,0 0.22221,0.09302 0.093,0.08785 0.093,0.227376 v 0.325561 q 0.88884,-0.749308 1.89136,-0.749308 1.00769,0 1.63814,0.61495 0.63046,0.609782 0.63046,1.870687 v 2.966227 q 0,0.134358 -0.093,0.227376 -0.0878,0.08785 -0.22738,0.08785 h -1.15238 q -0.13436,0 -0.22738,-0.08785 -0.0879,-0.09302 -0.0879,-0.227376 v -2.966227 q 0,-1.235067 -0.98702,-1.235067 -0.64595,0 -1.38493,0.738973 v 3.462321 q 0,0.134358 -0.093,0.227376 -0.0879,0.08785 -0.22221,0.08785 h -1.15755 q -0.13436,0 -0.22738,-0.08785 -0.0879,-0.09302 -0.0879,-0.227376 z m -6.54223,-0.05684 q -0.68213,-0.475424 -0.68213,-1.343588 0,-0.868164 0.68213,-1.333252 0.68729,-0.465087 1.76733,-0.465087 h 1.71049 q 0,-0.604615 -0.25321,-0.842326 -0.25322,-0.237712 -0.88884,-0.237712 -0.63045,0 -0.88883,0.315226 -0.25322,0.310059 -0.62529,0.310059 h -0.76998 q -0.13952,0 -0.23254,-0.08785 -0.0879,-0.09302 -0.0879,-0.227376 0,-1.483114 2.81636,-1.483114 1.2299,0 1.97404,0.552938 0.74414,0.54777 0.74414,1.700155 v 3.198771 q 0,0.139526 -0.0879,0.227376 -0.0878,0.08785 -0.22737,0.08785 h -0.99736 q -0.13952,0 -0.22737,-0.08785 -0.0878,-0.09302 -0.0878,-0.227376 v -0.160197 q -0.81649,0.583943 -1.88619,0.578776 -1.06454,0 -1.75183,-0.475423 z m 1.89135,-1.968872 q -0.36173,0 -0.57361,0.175699 -0.2067,0.1757 -0.2067,0.454753 0,0.279053 0.21704,0.45992 0.21704,0.180868 0.61495,0.180868 0.79582,0 1.53479,-0.465088 v -0.806152 z m -13.10514,1.844848 v -6.413045 q 0,-0.211873 0.13952,-0.356567 0.13953,-0.144694 0.34107,-0.144694 h 2.10323 q 0.20154,0 0.3824,0.144694 0.18087,0.144694 0.24288,0.346232 l 1.52446,4.413167 1.52445,-4.413167 q 0.062,-0.201538 0.24288,-0.346232 0.18087,-0.144694 0.38241,-0.144694 h 2.10323 q 0.20154,0 0.3359,0.144694 0.13952,0.144694 0.13952,0.356567 v 6.413045 q 0,0.211873 -0.14469,0.356567 -0.13953,0.139527 -0.34107,0.139527 h -0.93017 q -0.20154,0 -0.34623,-0.139527 -0.13953,-0.144694 -0.13953,-0.356567 v -5.048787 l -1.82418,5.079793 q -0.0724,0.191203 -0.25321,0.330729 -0.18087,0.134359 -0.38241,0.134359 h -0.73897 q -0.20154,0 -0.38241,-0.134359 -0.1757,-0.139526 -0.25321,-0.330729 l -1.81901,-5.079793 v 5.048787 q 0,0.211873 -0.1447,0.356567 -0.13952,0.139527 -0.34106,0.139527 h -0.93018 q -0.20153,0 -0.34623,-0.139527 -0.14469,-0.144694 -0.14469,-0.356567 z m -10.81071,1.922363 v -6.769612 q 0,-0.139526 0.0879,-0.227376 0.093,-0.09302 0.22738,-0.09302 h 0.99735 q 0.13436,0 0.22221,0.09302 0.093,0.08785 0.093,0.227376 v 0.155029 q 0.81649,-0.578776 1.89653,-0.578776 1.08003,0 1.8035,0.764811 0.72347,0.759644 0.72347,2.180746 0,1.415934 -0.74931,2.17041 -0.7493,0.754476 -2.02054,0.754476 -0.65629,0 -1.49345,-0.26355 v 1.586466 q 0,0.139527 -0.093,0.227377 -0.0879,0.09302 -0.22221,0.09302 h -1.15755 q -0.13436,0 -0.22738,-0.09302 -0.0879,-0.08785 -0.0879,-0.227377 z m 1.78801,-2.780192 q 0.66662,0.211874 1.12138,0.211874 0.70796,0 1.00252,-0.403076 0.29972,-0.403077 0.29972,-1.286744 0,-0.883667 -0.28422,-1.281575 -0.27905,-0.403076 -0.84232,-0.403076 -0.55811,0 -1.29708,0.465088 z m -8.79534,2.780192 v -6.769612 q 0,-0.139526 0.0879,-0.227376 0.093,-0.09302 0.22738,-0.09302 h 0.99736 q 0.13435,0 0.2222,0.09302 0.093,0.08785 0.093,0.227376 v 0.155029 q 0.81649,-0.578776 1.89653,-0.578776 1.08003,0 1.8035,0.764811 0.72347,0.759644 0.72347,2.180746 0,1.415934 -0.7493,2.17041 -0.74931,0.754476 -2.02055,0.754476 -0.65629,0 -1.49345,-0.26355 v 1.586466 q 0,0.139527 -0.093,0.227377 -0.0879,0.09302 -0.22221,0.09302 h -1.15755 q -0.13436,0 -0.22738,-0.09302 -0.0879,-0.08785 -0.0879,-0.227377 z m 1.78801,-2.780192 q 0.66663,0.211874 1.12138,0.211874 0.70797,0 1.00252,-0.403076 0.29972,-0.403077 0.29972,-1.286744 0,-0.883667 -0.28422,-1.281575 -0.27905,-0.403076 -0.84232,-0.403076 -0.55811,0 -1.29708,0.465088 z m -11.12077,0.8785 1.29708,-4.919597 q 0.5271,-2.010213 3.43132,-2.01538 h 2.78536 q 0.1912,0 0.31522,0.144694 0.12919,0.144694 0.12919,0.335896 v 6.454387 q 0,0.201538 -0.14469,0.341064 -0.14469,0.134359 -0.34623,0.134359 h -0.97152 q -0.21187,0 -0.3514,-0.134359 -0.13436,-0.139526 -0.13436,-0.3514 v -1.302246 h -3.67419 l -0.34623,1.302246 q -0.0517,0.211874 -0.23255,0.3514 -0.18087,0.134359 -0.3824,0.134359 h -1.01803 q -0.20154,0 -0.28939,-0.113688 -0.0879,-0.118856 -0.0879,-0.206706 0.005,-0.08785 0.0207,-0.155029 z m 2.71818,-2.775025 h 3.29179 v -2.697509 h -1.47278 q -0.49609,0 -0.86816,0.28422 -0.3669,0.279053 -0.49609,0.754476 z m -14.53141,2.775025 v -6.433716 q 0,-0.211873 0.144694,-0.356567 0.144694,-0.144694 0.346232,-0.144694 h 2.888713 q 2.242761,0 3.260781,0.89917 1.02319,0.894002 1.02319,2.811197 0,1.912028 -1.02319,2.806031 -1.01802,0.894002 -3.260781,0.894002 h -2.888713 q -0.201538,0 -0.346232,-0.134359 -0.144694,-0.139526 -0.144694,-0.341064 z m 1.948201,-0.98702 h 1.374594 q 1.390096,0 1.891357,-0.506429 0.501258,-0.506429 0.501258,-1.731161 0,-1.229899 -0.501258,-1.736328 -0.501261,-0.511596 -1.891357,-0.511596 H 96.674841 Z M 86.603107,21.946969 q 0,-0.310058 0.180868,-0.439249 0.180867,-0.134359 0.3514,-0.134359 h 0.609782 q 0.48059,0 0.754475,0.589111 0.273886,0.589112 1.260905,0.589112 h 0.738973 q 0.63562,0 0.930176,-0.180868 0.294556,-0.180867 0.294556,-0.614949 0,-0.434082 -0.294556,-0.61495 Q 91.13513,20.95995 90.49951,20.95995 h -0.930175 q -0.201539,0 -0.346233,-0.139527 -0.144694,-0.144694 -0.144694,-0.346232 v -0.423747 q 0,-0.191202 0.139527,-0.335896 0.139526,-0.149862 0.330729,-0.149862 h 0.759644 q 0.687296,0 0.997355,-0.180868 0.315226,-0.180867 0.315226,-0.614949 0,-0.434082 -0.315226,-0.609782 -0.310059,-0.180867 -0.997355,-0.180867 h -0.382406 q -0.992188,0 -1.312581,0.63562 -0.232544,0.485758 -0.697632,0.485758 h -0.61495 q -0.248047,0 -0.387573,-0.180867 -0.139526,-0.180868 -0.139526,-0.392741 0,-0.589112 0.449585,-1.059367 0.449585,-0.475423 1.121378,-0.713135 0.671794,-0.237711 1.400431,-0.237711 h 0.713135 q 3.110921,0 3.110921,2.263427 0,0.945679 -0.707967,1.483114 0.81132,0.511596 0.81132,1.493449 0,1.193725 -0.764811,1.725992 -0.759644,0.5271 -2.227254,0.5271 H 89.57967 q -1.157552,0 -2.067057,-0.568441 -0.909506,-0.573608 -0.909506,-1.493449 z m -5.829102,1.369426 q -0.795817,-0.754476 -0.795817,-2.17041 0,-1.421102 0.800985,-2.180746 0.800985,-0.764811 2.222086,-0.764811 1.421102,0 2.216919,0.744141 0.795817,0.738973 0.795817,2.123901 v 0.294556 q 0,0.139526 -0.09302,0.232544 -0.08785,0.08785 -0.227377,0.08785 h -3.891235 q 0.05168,0.63562 0.361735,0.925008 0.315226,0.289388 1.002523,0.289388 0.687296,0 0.940511,-0.310059 0.253215,-0.310058 0.625285,-0.315226 h 0.769979 q 0.139526,0 0.227376,0.09302 0.09302,0.08785 0.09302,0.227377 0,1.483113 -2.826701,1.477946 -1.42627,0 -2.222087,-0.754476 z m 1.018026,-2.723348 h 2.402954 q -0.05168,-1.219564 -1.198893,-1.219564 -1.142049,0 -1.204061,1.219564 z m -6.102986,2.940389 q -1.173055,0 -1.896525,-0.707967 -0.718303,-0.707967 -0.718303,-1.963705 0,-1.255737 0.821656,-1.958536 0.821655,-0.7028 2.356445,-0.7028 0.749308,0 1.555461,0.170532 0.806152,0.165365 1.214396,0.408244 v 4.785238 q 0,1.152384 -0.759644,1.700154 -0.759643,0.552938 -2.134236,0.552938 -1.369426,0 -2.113566,-0.346232 -0.738973,-0.341064 -0.738973,-1.131714 0,-0.139526 0.08785,-0.232544 0.09302,-0.08785 0.232544,-0.08785 h 0.769979 q 0.372071,0 0.594279,0.273885 0.284221,0.3514 1.007691,0.3514 0.728637,0 0.997355,-0.237711 0.268717,-0.237712 0.268717,-0.842326 v -0.24288 q -0.826823,0.211874 -1.545126,0.211874 z m 0.454752,-4.082438 q -1.224731,-0.0052 -1.224731,1.415934 0,1.415934 1.193726,1.415934 0.496093,0 1.121378,-0.155029 V 19.564686 Q 76.789753,19.44583 76.143797,19.450998 Z m -3.979086,0.165364 -0.795817,-0.03101 q -0.697632,0 -1.333252,0.764811 v 3.302124 q 0,0.139526 -0.09302,0.227376 -0.08785,0.08785 -0.222209,0.08785 h -1.157552 q -0.139526,0 -0.227376,-0.08785 -0.08785,-0.08785 -0.08785,-0.227376 V 18.62417 q 0,-0.139526 0.08785,-0.227376 0.09302,-0.09302 0.227376,-0.09302 h 1.157552 q 0.139526,0 0.227376,0.09302 0.08785,0.08785 0.08785,0.227376 v 0.325561 q 0.5271,-0.382405 1.012858,-0.563273 0.490926,-0.186035 1.281576,-0.186035 0.139526,0 0.227376,0.09302 0.09302,0.08785 0.09302,0.222208 v 0.785482 q 0,0.139527 -0.09302,0.227376 -0.08785,0.08785 -0.227376,0.08785 z m -10.113077,3.700033 q -0.795817,-0.754476 -0.795817,-2.17041 0,-1.421102 0.800985,-2.180746 0.800984,-0.764811 2.222086,-0.764811 1.421102,0 2.216919,0.744141 0.795817,0.738973 0.795817,2.123901 v 0.294556 q 0,0.139526 -0.09302,0.232544 -0.08785,0.08785 -0.227377,0.08785 h -3.891235 q 0.05168,0.63562 0.361735,0.925008 0.315226,0.289388 1.002523,0.289388 0.687296,0 0.940511,-0.310059 0.253214,-0.310058 0.625285,-0.315226 h 0.769979 q 0.139526,0 0.227376,0.09302 0.09302,0.08785 0.09302,0.227377 0,1.483113 -2.8267,1.477946 -1.42627,0 -2.222087,-0.754476 z m 1.018026,-2.723348 h 2.402954 q -0.05168,-1.219564 -1.198893,-1.219564 -1.142049,0 -1.204061,1.219564 z M 52.992756,16.9912 q -0.03101,-0.06201 -0.03101,-0.134359 0,-0.07751 0.09302,-0.186035 0.09818,-0.113688 0.273885,-0.113688 h 1.131714 q 0.403076,0 0.614949,0.490926 l 1.999878,4.454508 1.999878,-4.454508 q 0.211873,-0.485759 0.614949,-0.490926 h 1.131714 q 0.180868,0 0.273885,0.113688 0.09302,0.10852 0.09302,0.186035 0,0.07235 -0.02584,0.134359 l -2.976563,6.449218 q -0.242879,0.5271 -0.738973,0.5271 h -0.74414 q -0.496094,0 -0.738973,-0.5271 z"
     style="font-style:normal;font-variant:normal;font-weight:normal;font-stretch:normal;font-size:10.58333302px;line-height:1.25;font-family:'Days One';-inkscape-font-specification:'Days One';letter-spacing:0px;word-spacing:0px;fill:url(#linearGradient20105);fill-opacity:1.0;stroke:none;stroke-width:0.26458332"
     id="path20001" />
  <path
     style="display:inline;opacity:0.65;fill:url(#linearGradient6082);fill-opacity:1;stroke:none;stroke-width:0.79241806;stroke-miterlimit:4;stroke-dasharray:none;stroke-opacity:1;filter:url(#filter3777)"
     d="m 33.579022,7.46244 c -1.4442,-0.006 -2.8927,0.954 -6.25043,2.87281 -6.71547,3.83762 -6.25114,3.04158 -6.2854,10.77616 -0.0342,7.73457 -0.49148,6.93445 6.18973,10.83141 6.68121,3.89695 5.75966,3.89286 12.47511,0.0552 6.71548,-3.83763 6.25114,-3.04159 6.2854,-10.77617 0.0342,-7.73457 0.49148,-6.93444 -6.18973,-10.8314 -3.34061,-1.94848 -4.78049,-2.92166 -6.22468,-2.92806 z m -0.0114,2.46174 c 1.45604,0.006 2.90904,0.70166 5.28878,2.08968 4.75946,2.77606 5.28172,3.6899 5.2573,9.19974 -0.0244,5.50984 -0.5547,6.41901 -5.33856,9.15279 -4.78385,2.73379 -5.8364,2.72911 -10.59587,-0.0469 -4.75945,-2.77605 -5.28169,-3.6899 -5.2573,-9.19974 0.0245,-5.50983 0.5547,-6.419 5.33857,-9.15279 2.39193,-1.36689 3.85104,-2.04919 5.30708,-2.04274 z m -0.1334,1.39649 c -2.33001,0.0296 -4.91517,2.65027 -6.25825,5.24472 -1.36441,2.63564 -2.14509,5.1317 -1.82359,8.33696 0.14,1.39549 1.46882,3.17666 3.05965,4.06963 -0.33811,-2.76779 -0.14767,-5.47572 0.46701,-7.72353 0.61469,-2.24781 2.44942,-5.89505 4.61577,-5.89016 2.16637,0.005 4.00105,3.64904 4.61573,5.89685 0.61466,2.24781 0.80512,4.95575 0.467,7.72354 1.59084,-0.89298 2.91967,-2.6742 3.05966,-4.06969 0.3215,-3.20526 -0.45907,-5.70121 -1.82349,-8.33685 -1.33842,-2.58545 -3.91038,-5.19673 -6.26873,-5.25093 -0.0369,-8.3e-4 -0.0738,-9.9e-4 -0.11071,-5.2e-4 z m 0.11391,7.69891 a 2.1388648,2.1388648 0 0 0 -1.02798,0.25166 2.1388648,2.1388648 0 0 0 -0.88029,2.8939 2.1388648,2.1388648 0 0 0 2.89389,0.88028 2.1388648,2.1388648 0 0 0 0.8803,-2.8939 2.1388648,2.1388648 0 0 0 -1.86592,-1.13194 z"
     id="path3751" />
  <path
     style="display:inline;fill:url(#linearGradient6756);fill-opacity:1;stroke:none;stroke-width:0.79241812;stroke-miterlimit:4;stroke-dasharray:none;stroke-opacity:1"
     d="m 33.579021,7.46244 c -1.444199,-0.006 -2.8927,0.954 -6.250429,2.87281 -6.71547,3.83762 -6.25114,3.04158 -6.2854,10.77616 -0.0342,7.73457 -0.49148,6.93445 6.189729,10.83141 6.681211,3.89695 5.759662,3.89286 12.475112,0.0552 6.71548,-3.83763 6.251139,-3.04159 6.2854,-10.77617 0.0342,-7.73457 0.491479,-6.93445 -6.189731,-10.8314 C 36.463091,8.44197 35.023213,7.46879 33.579021,7.46239 Z m -0.0114,2.46173 c 1.456039,0.007 2.909038,0.70167 5.28878,2.08969 4.75946,2.77605 5.281718,3.6899 5.2573,9.19974 -0.02439,5.50984 -0.554702,6.41901 -5.338562,9.15279 -4.783849,2.73379 -5.836398,2.72911 -10.595869,-0.0469 -4.75945,-2.77605 -5.28169,-3.6899 -5.2573,-9.19973 0.0245,-5.50984 0.5547,-6.41901 5.33857,-9.1528 2.391931,-1.36689 3.851039,-2.04918 5.307081,-2.04274 z m -0.1334,1.3965 c -2.330011,0.0296 -4.91517,2.65027 -6.258251,5.24472 -1.36441,2.63564 -2.14509,5.1317 -1.82359,8.33696 0.14,1.39549 1.468821,3.17666 3.059649,4.06963 -0.338108,-2.76779 -0.147669,-5.47572 0.467011,-7.72353 0.614691,-2.24781 2.44942,-5.89505 4.61577,-5.89016 2.166369,0.005 4.001051,3.64904 4.615731,5.89685 0.614658,2.24781 0.805119,4.95574 0.467,7.72353 1.590839,-0.89297 2.919669,-2.67419 3.05966,-4.06968 0.321498,-3.20526 -0.459071,-5.70122 -1.82349,-8.33685 -1.338421,-2.58545 -3.91038,-5.19673 -6.268731,-5.25093 -0.0369,-8.2e-4 -0.0738,-9.8e-4 -0.110709,-5.3e-4 z m 0.113908,7.69891 a 2.1388648,2.1388648 0 0 0 -1.02798,0.25165 2.1388648,2.1388648 0 0 0 -0.88029,2.89391 2.1388648,2.1388648 0 0 0 2.893891,0.88028 2.1388648,2.1388648 0 0 0 0.8803,-2.8939 2.1388648,2.1388648 0 0 0 -1.865921,-1.13194 z"
     id="path3484" />
  <path
     id="path4130"
     d="m 33.579021,7.46244 c -1.444199,-0.006 -2.8927,0.954 -6.250429,2.87281 -6.71547,3.83762 -6.25114,3.04158 -6.2854,10.77616 -0.0342,7.73457 -0.49148,6.93445 6.189729,10.83141 6.681211,3.89695 5.759662,3.89286 12.475112,0.0552 6.71548,-3.83763 6.251139,-3.04159 6.2854,-10.77617 0.0342,-7.73457 0.491479,-6.93445 -6.189731,-10.8314 C 36.463091,8.44197 35.023213,7.46879 33.579021,7.46239 Z m -0.0114,2.46173 c 1.456039,0.007 2.909038,0.70167 5.28878,2.08969 4.75946,2.77605 5.281718,3.6899 5.2573,9.19974 -0.02439,5.50984 -0.554702,6.41901 -5.338562,9.15279 -4.783849,2.73379 -5.836398,2.72911 -10.595869,-0.0469 -4.75945,-2.77605 -5.28169,-3.6899 -5.2573,-9.19973 0.0245,-5.50984 0.5547,-6.41901 5.33857,-9.1528 2.391931,-1.36689 3.851039,-2.04918 5.307081,-2.04274 z m -0.1334,1.3965 c -2.330011,0.0296 -4.91517,2.65027 -6.258251,5.24472 -1.36441,2.63564 -2.14509,5.1317 -1.82359,8.33696 0.14,1.39549 1.468821,3.17666 3.059649,4.06963 -0.338108,-2.76779 -0.147669,-5.47572 0.467011,-7.72353 0.614691,-2.24781 2.44942,-5.89505 4.61577,-5.89016 2.166369,0.005 4.001051,3.64904 4.615731,5.89685 0.614658,2.24781 0.805119,4.95574 0.467,7.72353 1.590839,-0.89297 2.919669,-2.67419 3.05966,-4.06968 0.321498,-3.20526 -0.459071,-5.70122 -1.82349,-8.33685 -1.338421,-2.58545 -3.91038,-5.19673 -6.268731,-5.25093 -0.0369,-8.2e-4 -0.0738,-9.8e-4 -0.110709,-5.3e-4 z m 0.113908,7.69891 a 2.1388648,2.1388648 0 0 0 -1.02798,0.25165 2.1388648,2.1388648 0 0 0 -0.88029,2.89391 2.1388648,2.1388648 0 0 0 2.893891,0.88028 2.1388648,2.1388648 0 0 0 0.8803,-2.8939 2.1388648,2.1388648 0 0 0 -1.865921,-1.13194 z"
     style="display:inline;fill:url(#linearGradient4375);fill-opacity:1;stroke:none;stroke-width:0.79241812;stroke-miterlimit:4;stroke-dasharray:none;stroke-opacity:1" />
</svg>
