<?xml version="1.0" encoding="UTF-8" standalone="no"?>
<svg
   xmlns:dc="http://purl.org/dc/elements/1.1/"
   xmlns:cc="http://creativecommons.org/ns#"
   xmlns:rdf="http://www.w3.org/1999/02/22-rdf-syntax-ns#"
   xmlns:svg="http://www.w3.org/2000/svg"
   xmlns="http://www.w3.org/2000/svg"
   xmlns:xlink="http://www.w3.org/1999/xlink"
   id="svg21968"
   version="1.1"
   viewBox="0 0 23.812499 23.812501"
   height="90"
   width="90">
  <defs
     id="defs21962">
    <linearGradient
       y2="188.97368"
       x2="-7.0113277"
       y1="196.21292"
       x1="-13.585616"
       gradientTransform="matrix(2.3225817,0,0,2.3225817,36.189266,-162.17463)"
       gradientUnits="userSpaceOnUse"
       id="linearGradient3935"
       xlink:href="#linearGradient4038" />
    <linearGradient
       id="linearGradient4038">
      <stop
         id="stop4034"
         offset="0"
         style="stop-color:#464646;stop-opacity:1" />
      <stop
         id="stop4036"
         offset="1"
         style="stop-color:#5a5a5a;stop-opacity:1" />
    </linearGradient>
  </defs>
  <metadata
     id="metadata21965">
    <rdf:RDF>
      <cc:Work
         rdf:about="">
        <dc:format>image/svg+xml</dc:format>
        <dc:type
           rdf:resource="http://purl.org/dc/dcmitype/StillImage" />
        <dc:title></dc:title>
      </cc:Work>
    </rdf:RDF>
  </metadata>
  <g
     transform="translate(0,-273.18748)"
     id="layer1">
    <path
       id="path3923"
       d="M 11.90625,273.18748 C 5.329,273.18748 0,278.56449 0,285.09373 c 0,6.57725 5.329,11.90625 11.90625,11.90625 6.52924,0 11.90625,-5.329 11.90625,-11.90625 0,-6.52924 -5.37701,-11.90625 -11.90625,-11.90625 z m 0.24004,4.99294 c 2.35245,0 4.89693,1.87235 4.89693,4.27282 0,3.2166 -3.50466,3.26462 -3.50466,4.46483 v 0.28807 c 0,0.33606 -0.24003,0.57609 -0.57612,0.57609 h -2.16039 c -0.33608,0 -0.57612,-0.24003 -0.57612,-0.57609 v -0.38408 c 0,-1.72833 1.29626,-2.40047 2.25643,-2.97656 0.86417,-0.4801 1.39226,-0.76815 1.39226,-1.39226 0,-0.86417 -1.05619,-1.39228 -1.92036,-1.39228 -1.1042,0 -1.63231,0.52811 -2.35245,1.44028 -0.19208,0.23992 -0.5761,0.2881 -0.81616,0.096 l -1.34424,-1.00818 c -0.24004,-0.19208 -0.28804,-0.52811 -0.096,-0.76815 1.1042,-1.68031 2.54448,-2.6405 4.80089,-2.6405 z m -0.24004,10.27395 c 1.1042,0 2.01638,0.91219 2.01638,2.01639 0,1.15221 -0.91218,2.01638 -2.01638,2.01638 -1.15221,0 -2.01638,-0.86417 -2.01638,-2.01638 0,-1.1042 0.86417,-2.01639 2.01638,-2.01639 z"
       style="font-style:normal;font-variant:normal;font-weight:normal;font-stretch:normal;font-size:10.58333302px;line-height:1.25;font-family:'Font Awesome 5 Free';-inkscape-font-specification:'Font Awesome 5 Free';letter-spacing:0px;word-spacing:0px;display:inline;opacity:1;fill:url(#linearGradient3935);fill-opacity:1;stroke:none;stroke-width:0.61451638;stroke-opacity:1" />
  </g>
</svg>
