<?xml version="1.0" encoding="UTF-8" standalone="no"?>
<svg
   xmlns:dc="http://purl.org/dc/elements/1.1/"
   xmlns:cc="http://creativecommons.org/ns#"
   xmlns:rdf="http://www.w3.org/1999/02/22-rdf-syntax-ns#"
   xmlns:svg="http://www.w3.org/2000/svg"
   xmlns="http://www.w3.org/2000/svg"
   xmlns:xlink="http://www.w3.org/1999/xlink"
   id="svg21968"
   version="1.1"
   viewBox="0 0 21.695832 23.812501"
   height="90"
   width="82">
  <defs
     id="defs21962">
    <linearGradient
       y2="53.806618"
       x2="193.7847"
       y1="78.689407"
       x1="172.91336"
       gradientTransform="matrix(0.86827475,0,0,0.86879752,-146.96862,226.88748)"
       gradientUnits="userSpaceOnUse"
       id="linearGradient4022"
       xlink:href="#linearGradient4038" />
    <linearGradient
       id="linearGradient4038">
      <stop
         id="stop4034"
         offset="0"
         style="stop-color:#464646;stop-opacity:1" />
      <stop
         id="stop4036"
         offset="1"
         style="stop-color:#5a5a5a;stop-opacity:1" />
    </linearGradient>
  </defs>
  <metadata
     id="metadata21965">
    <rdf:RDF>
      <cc:Work
         rdf:about="">
        <dc:format>image/svg+xml</dc:format>
        <dc:type
           rdf:resource="http://purl.org/dc/dcmitype/StillImage" />
        <dc:title></dc:title>
      </cc:Work>
    </rdf:RDF>
  </metadata>
  <g
     transform="translate(0,-273.18748)"
     id="layer1">
    <path
       style="display:inline;fill:url(#linearGradient4022);fill-opacity:1;stroke:none;stroke-width:0.68824375;stroke-miterlimit:4;stroke-dasharray:none;stroke-opacity:1"
       d="m 10.900641,273.18758 c -1.2539548,-0.005 -2.5116579,0.82882 -5.4270925,2.49588 -5.83085933,3.33412 -5.42770206,2.64251 -5.45744416,9.36231 -0.029782,6.71977 -0.42674306,6.02463 5.37437416,9.41029 5.8011375,3.38565 5.0009785,3.38212 10.8318385,0.0479 5.830869,-3.33412 5.427702,-2.64252 5.457444,-9.3623 0.02968,-6.71978 0.426743,-6.02464 -5.374384,-9.4103 -2.900574,-1.69283 -4.150781,-2.53833 -5.404736,-2.54389 z m -0.01,2.13875 c 1.264239,0.006 2.525839,0.60959 4.592115,1.8155 4.132522,2.41183 4.585989,3.20578 4.564782,7.99272 -0.02119,4.78693 -0.48164,5.57681 -4.635329,7.95192 -4.1537,2.37511 -5.067609,2.37104 -9.2001412,-0.0407 -4.1325119,-2.41183 -4.5859489,-3.20578 -4.5647716,-7.99271 0.021287,-4.78693 0.48163,-5.57681 4.6353391,-7.95193 2.0768496,-1.18754 3.3437669,-1.78032 4.6080057,-1.77472 z m -0.11583,1.21326 c -2.0230923,0.0258 -4.2677208,2.30255 -5.4338787,4.5566 -1.1846867,2.28984 -1.8625286,4.45842 -1.5833767,7.24313 0.1215668,1.2124 1.2753322,2.75988 2.6566205,3.53569 -0.2935732,-2.40465 -0.1282228,-4.75729 0.4054959,-6.71019 0.5337186,-1.95289 2.1267597,-5.1216 4.007757,-5.11735 1.880997,0.004 3.474008,3.17027 4.007717,5.12316 0.533689,1.9529 0.699059,4.30554 0.405486,6.71019 1.381278,-0.77581 2.535073,-2.32333 2.65662,-3.53573 0.279152,-2.78472 -0.3986,-4.9532 -1.583296,-7.24303 -1.162101,-2.24623 -3.395276,-4.51491 -5.442973,-4.562 -0.03208,-7.1e-4 -0.06416,-8.5e-4 -0.09614,-4.5e-4 z m 0.09894,6.6888 a 1.8571224,1.8582405 0 0 0 -0.8925628,0.21864 1.8571224,1.8582405 0 0 0 -0.764329,2.51421 1.8571224,1.8582405 0 0 0 2.5126868,0.76479 1.8571224,1.8582405 0 0 0 0.76435,-2.51422 1.8571224,1.8582405 0 0 0 -1.620145,-0.98342 z"
       id="path3986" />
  </g>
</svg>
