<?xml version="1.0" encoding="UTF-8" standalone="no"?>
<svg
   xmlns:dc="http://purl.org/dc/elements/1.1/"
   xmlns:cc="http://creativecommons.org/ns#"
   xmlns:rdf="http://www.w3.org/1999/02/22-rdf-syntax-ns#"
   xmlns:svg="http://www.w3.org/2000/svg"
   xmlns="http://www.w3.org/2000/svg"
   xmlns:xlink="http://www.w3.org/1999/xlink"
   id="svg23288"
   version="1.1"
   viewBox="0 0 39.687499 39.687501"
   height="150"
   width="150">
  <defs
     id="defs23282">
    <linearGradient
       gradientTransform="matrix(0.26274274,0,0,0.26274276,-313.12726,157.41378)"
       gradientUnits="userSpaceOnUse"
       y2="495.00781"
       x2="1271.75"
       y1="495.00781"
       x1="1191.9141"
       id="linearGradient2783"
       xlink:href="#linearGradient2810" />
    <linearGradient
       id="linearGradient2810">
      <stop
         id="stop2806"
         offset="0"
         style="stop-color:#1458ae;stop-opacity:1;" />
      <stop
         id="stop2808"
         offset="1"
         style="stop-color:#4388e0;stop-opacity:1" />
    </linearGradient>
  </defs>
  <metadata
     id="metadata23285">
    <rdf:RDF>
      <cc:Work
         rdf:about="">
        <dc:format>image/svg+xml</dc:format>
        <dc:type
           rdf:resource="http://purl.org/dc/dcmitype/StillImage" />
        <dc:title></dc:title>
      </cc:Work>
    </rdf:RDF>
  </metadata>
  <g
     transform="translate(0,-257.31248)"
     id="layer1">
    <path
       id="path1815"
       d="M 19.843751,257.31248 A 19.843803,19.843804 0 0 0 -2.2519389e-7,277.15623 19.843803,19.843804 0 0 0 19.843751,296.99998 19.843803,19.843804 0 0 0 39.6875,277.15623 19.843803,19.843804 0 0 0 19.843751,257.31248 Z m 0,4.10997 a 15.733551,15.733552 0 0 1 15.73377,15.73378 15.733551,15.733552 0 0 1 -15.73377,15.73326 A 15.733551,15.733552 0 0 1 4.1099534,277.15623 15.733551,15.733552 0 0 1 19.843751,261.42245 Z"
       style="opacity:1;fill:#141414;fill-opacity:1;fill-rule:nonzero;stroke:none;stroke-width:0.26984015;stroke-linecap:round;stroke-linejoin:miter;stroke-miterlimit:4;stroke-dasharray:none;stroke-dashoffset:0;stroke-opacity:1;paint-order:markers stroke fill" />
    <path
       id="path1823"
       d="m 0.03951695,277.94702 a 19.843803,19.843804 0 0 0 19.80423405,19.05296 19.843803,19.843804 0 0 0 1.172069,-0.0585 v -4.09869 a 15.733551,15.733552 0 0 1 -1.172069,0.0467 A 15.733551,15.733552 0 0 1 4.1381985,277.947 Z"
       style="opacity:1;fill:url(#linearGradient2783);fill-opacity:1;fill-rule:nonzero;stroke:none;stroke-width:0.26984015;stroke-linecap:round;stroke-linejoin:miter;stroke-miterlimit:4;stroke-dasharray:none;stroke-dashoffset:0;stroke-opacity:1;paint-order:markers stroke fill" />
  </g>
</svg>
