<?xml version="1.0" encoding="UTF-8" standalone="no"?>
<svg
   xmlns:dc="http://purl.org/dc/elements/1.1/"
   xmlns:cc="http://creativecommons.org/ns#"
   xmlns:rdf="http://www.w3.org/1999/02/22-rdf-syntax-ns#"
   xmlns:svg="http://www.w3.org/2000/svg"
   xmlns="http://www.w3.org/2000/svg"
   id="svg1470"
   version="1.1"
   viewBox="0 0 66.674999 66.675003"
   height="252"
   width="252">
  <defs
     id="defs1464" />
  <metadata
     id="metadata1467">
    <rdf:RDF>
      <cc:Work
         rdf:about="">
        <dc:format>image/svg+xml</dc:format>
        <dc:type
           rdf:resource="http://purl.org/dc/dcmitype/StillImage" />
        <dc:title></dc:title>
      </cc:Work>
    </rdf:RDF>
  </metadata>
  <g
     transform="translate(0,-230.32498)"
     id="layer1">
    <path
       style="fill:#6da2b9;fill-opacity:1;stroke-width:0.18857443"
       d="M 28.666965,296.71999 C 17.960942,295.0909 9.0162088,288.79453 3.8935798,279.28149 0.71343183,273.37575 -0.60713417,266.19102 0.27251383,259.58059 1.7865588,248.20277 8.5957818,238.6765 18.724836,233.7653 c 15.122681,-7.33243 33.020305,-2.46717 42.372235,11.51836 9.470655,14.16305 6.608424,33.29589 -6.60926,44.18017 -4.11784,3.3909 -9.477602,5.91891 -14.808835,6.98476 -2.685698,0.53694 -8.349472,0.67654 -11.012011,0.2714 z m 0.822934,-15.22275 c 0.05479,-0.33707 0.122258,-1.15175 0.149984,-1.81039 l 0.05042,-1.19753 -1.414309,-0.50608 c -2.737914,-0.97969 -5.400043,-2.93923 -7.010671,-5.16042 -0.432434,-0.59637 -0.835187,-1.08556 -0.894991,-1.08709 -0.05978,-0.002 -0.849556,0.30638 -1.754991,0.68427 l -1.646255,0.68706 0.459957,0.77719 c 2.101391,3.55072 6.382613,6.74506 10.658391,7.9525 1.233199,0.34825 1.293119,0.33375 1.402506,-0.33951 z m 9.063386,0.35305 c 4.126315,-1.11747 8.307891,-4.23015 10.691368,-7.95845 l 0.491993,-0.76959 -1.633908,-0.69187 c -0.898644,-0.38052 -1.691843,-0.69187 -1.76267,-0.69187 -0.07083,0 -0.467526,0.47307 -0.881565,1.05127 -1.588791,2.21872 -4.490701,4.35052 -7.15745,5.25799 l -1.256379,0.42754 0.05337,1.58168 c 0.07733,2.29233 -0.0062,2.18914 1.455253,1.7933 z m 2.050947,-5.68742 c 0.0645,-0.16804 -0.01167,-0.33717 -0.181067,-0.40219 -0.352129,-0.13512 -0.737463,0.2001 -0.560031,0.4872 0.18505,0.2994 0.6124,0.25038 0.741098,-0.085 z m -10.666574,-0.89074 c 0.04357,-0.22629 -0.058,-0.32784 -0.327842,-0.32784 -0.269865,0 -0.390964,0.12111 -0.390964,0.39096 0,0.48325 0.624138,0.42844 0.718806,-0.0632 z m 7.578455,-0.1531 c 0,-0.48325 -0.624149,-0.42842 -0.718814,0.0632 -0.04357,0.22628 0.058,0.32785 0.32784,0.32785 0.269864,0 0.390974,-0.12112 0.390974,-0.39098 z m -13.424684,-1.07048 c -0.03492,-0.1815 -0.188513,-0.33 -0.341249,-0.33 -0.152726,0 -0.306293,0.1485 -0.341252,0.33 -0.04454,0.23155 0.0572,0.33001 0.341252,0.33001 0.284016,0 0.385847,-0.0985 0.341249,-0.33001 z m 4.373111,-1.1815 c 0,-0.26752 -0.628015,-0.38999 -0.775575,-0.15122 -0.223732,0.362 0.196916,0.77678 0.517731,0.51052 0.141811,-0.1177 0.257844,-0.27938 0.257844,-0.3593 z m 12.385019,-1.05327 c 0.133422,-0.34767 -0.32263,-0.71002 -0.575424,-0.45723 -0.205843,0.20582 -0.01693,0.75912 0.259181,0.75912 0.110215,0 0.252526,-0.13586 0.316243,-0.30189 z m 2.637608,-1.09975 c -0.06236,-0.16254 -0.203589,-0.29553 -0.31382,-0.29553 -0.324218,0 -0.455475,0.58934 -0.170484,0.76547 0.334624,0.20682 0.632925,-0.0827 0.484304,-0.46994 z m -19.584312,0.12876 c -0.03492,-0.1815 -0.188516,-0.33001 -0.341244,-0.33001 -0.152738,0 -0.306301,0.14851 -0.341251,0.33001 -0.04454,0.23155 0.0572,0.33 0.341251,0.33 0.284021,0 0.385842,-0.0985 0.341244,-0.33 z m -7.271351,-5.61596 1.461443,-0.31486 v -1.20149 c 0,-2.69795 1.219735,-6.43968 2.862745,-8.78196 0.869272,-1.23924 0.93487,-0.96496 -0.684249,-2.86113 l -0.936319,-1.09654 -0.668072,0.80429 c -2.798348,3.36884 -4.450804,8.47061 -4.193976,12.94845 0.04793,0.83528 0.109876,0.98459 0.377147,0.90878 0.175909,-0.0499 0.97748,-0.23239 1.781281,-0.40554 z m 35.546884,-2.0213 c -0.106614,-2.66366 -0.494337,-4.55884 -1.379188,-6.74154 -0.820407,-2.02372 -2.938661,-5.28008 -3.434681,-5.28008 -0.229878,0 -2.305415,2.37641 -2.305415,2.6396 0,0.11864 0.36958,0.74008 0.821314,1.38096 1.63975,2.32635 2.573025,5.26688 2.573025,8.1071 v 1.55288 l 1.744298,0.40181 c 0.959376,0.22099 1.819997,0.40991 1.912501,0.41984 0.09542,0.0102 0.124904,-1.06259 0.06815,-2.48057 z m -30.726997,0.47143 c -0.03492,-0.1815 -0.188515,-0.33 -0.341252,-0.33 -0.152735,0 -0.306291,0.1485 -0.341251,0.33 -0.04455,0.23153 0.0572,0.33001 0.341251,0.33001 0.284022,0 0.385842,-0.0985 0.341252,-0.33001 z m 24.32652,-0.0964 c 0.04357,-0.22629 -0.058,-0.32786 -0.327846,-0.32786 -0.269869,0 -0.390961,0.12111 -0.390961,0.39098 0,0.48326 0.624139,0.42842 0.718807,-0.0632 z m -22.530549,-1.91694 c 0.160293,-0.41771 -0.338347,-0.74071 -0.619847,-0.40153 -0.126401,0.15232 -0.175079,0.36551 -0.108171,0.47376 0.175856,0.28454 0.60755,0.24171 0.728018,-0.0722 z m 24.313057,-0.40938 c 0.179972,-0.17995 -0.06593,-0.64157 -0.341767,-0.64157 -0.315897,0 -0.521981,0.31673 -0.368105,0.56572 0.1288,0.20839 0.534027,0.25171 0.709872,0.0758 z m -4.104211,-1.9616 c 0,-0.15273 -0.148506,-0.30628 -0.330007,-0.34125 -0.231537,-0.0446 -0.329991,0.0572 -0.329991,0.34125 0,0.28402 0.09845,0.38585 0.329991,0.34125 0.181501,-0.0349 0.330007,-0.18851 0.330007,-0.34125 z m -22.570121,-1.55789 c 0.04356,-0.22629 -0.058,-0.32785 -0.327843,-0.32785 -0.269865,0 -0.390974,0.12111 -0.390974,0.39098 0,0.48324 0.624148,0.42843 0.718817,-0.0632 z m 2.958385,-1.08215 c 0,-0.15273 -0.148502,-0.3063 -0.330008,-0.34125 -0.231537,-0.0446 -0.330008,0.0572 -0.330008,0.34125 0,0.28403 0.09847,0.38584 0.330008,0.34126 0.181506,-0.0349 0.330008,-0.18852 0.330008,-0.34126 z m 19.70602,-0.2024 c 0,-0.26986 -0.101544,-0.37141 -0.327835,-0.32784 -0.491564,0.0947 -0.54638,0.71882 -0.06316,0.71882 0.26987,0 0.390981,-0.12111 0.390981,-0.39098 z m -10.972797,-3.42986 c 0.04357,-0.22629 -0.058,-0.32784 -0.32784,-0.32784 -0.269865,0 -0.390975,0.1211 -0.390975,0.39098 0,0.48326 0.624149,0.42843 0.718815,-0.0632 z m -2.640037,-0.94286 c 0.04357,-0.22629 -0.058,-0.32785 -0.327842,-0.32785 -0.269865,0 -0.390964,0.12111 -0.390964,0.39097 0,0.48325 0.624138,0.42844 0.718806,-0.0632 z m 7.353983,0.0965 c -0.03492,-0.18151 -0.188505,-0.33001 -0.341252,-0.33001 -0.152736,0 -0.306292,0.1485 -0.341251,0.33001 -0.04454,0.23154 0.0572,0.32999 0.341251,0.32999 0.284028,0 0.385842,-0.0985 0.341252,-0.32999 z m -1.944137,-2.49862 c 0,-0.15273 -0.148495,-0.30628 -0.329988,-0.34125 -0.231548,-0.0445 -0.330018,0.0572 -0.330018,0.34125 0,0.28402 0.09847,0.38585 0.330018,0.34125 0.181493,-0.0349 0.329988,-0.18851 0.329988,-0.34125 z m -3.488624,-1.07004 c 1.908125,-0.19429 4.677802,0.0952 6.237719,0.652 l 1.051925,0.37544 0.880978,-1.47004 c 0.484518,-0.80852 0.880951,-1.54188 0.880951,-1.62968 0,-0.2254 -1.909961,-0.92949 -3.582916,-1.32085 -2.110264,-0.49363 -5.977774,-0.44931 -8.24438,0.0945 -0.956217,0.22941 -2.122673,0.58177 -2.592145,0.78301 l -0.853583,0.36588 0.537909,0.90276 c 0.295833,0.4965 0.722363,1.21113 0.947841,1.58805 l 0.409957,0.6853 1.361434,-0.43156 c 0.748787,-0.23738 2.082729,-0.50503 2.96431,-0.59478 z"
       id="path852-3" />
  </g>
</svg>
