<?xml version="1.0" encoding="UTF-8" standalone="no"?>
<!-- Created with Inkscape (http://www.inkscape.org/) -->

<svg
   xmlns:dc="http://purl.org/dc/elements/1.1/"
   xmlns:cc="http://creativecommons.org/ns#"
   xmlns:rdf="http://www.w3.org/1999/02/22-rdf-syntax-ns#"
   xmlns:svg="http://www.w3.org/2000/svg"
   xmlns="http://www.w3.org/2000/svg"
   xmlns:sodipodi="http://sodipodi.sourceforge.net/DTD/sodipodi-0.dtd"
   xmlns:inkscape="http://www.inkscape.org/namespaces/inkscape"
   width="1000"
   height="700"
   viewBox="0 0 264.58333 185.20834"
   version="1.1"
   id="svg884"
   inkscape:version="0.92.3 (2405546, 2018-03-11)"
   sodipodi:docname="preloader_scooter_body.svg">
  <defs
     id="defs878" />
  <sodipodi:namedview
     id="base"
     pagecolor="#ffffff"
     bordercolor="#666666"
     borderopacity="1.0"
     inkscape:pageopacity="0.0"
     inkscape:pageshadow="2"
     inkscape:zoom="0.7"
     inkscape:cx="709.50315"
     inkscape:cy="468.04574"
     inkscape:document-units="mm"
     inkscape:current-layer="layer1"
     showgrid="false"
     units="px"
     inkscape:window-width="2400"
     inkscape:window-height="1471"
     inkscape:window-x="2391"
     inkscape:window-y="-9"
     inkscape:window-maximized="1" />
  <metadata
     id="metadata881">
    <rdf:RDF>
      <cc:Work
         rdf:about="">
        <dc:format>image/svg+xml</dc:format>
        <dc:type
           rdf:resource="http://purl.org/dc/dcmitype/StillImage" />
        <dc:title></dc:title>
      </cc:Work>
    </rdf:RDF>
  </metadata>
  <g
     inkscape:label="Layer 1"
     inkscape:groupmode="layer"
     id="layer1"
     transform="translate(0,-111.79164)">
    <g
       id="g1453"
       transform="matrix(0.8909028,0,0,0.8909028,99.964619,100.08594)">
      <path
         sodipodi:nodetypes="ccccssscsscccscsccccccccccscsscccccccsccsscccccsccccccccscssccsccccccccccccccsccccczzcczccccczccscccccccccccccccccccccccscccccccsscccccccccccsccccccccccccccsccccszcczc"
         inkscape:connector-curvature="0"
         id="path850"
         d="m -79.179138,89.504569 c 0.418682,-1.453293 0.22739,-0.605661 0.417311,-1.187744 0.22969,-0.70403 0.59136,-1.254569 1.080331,-1.644507 l 0.735039,-0.586171 3.2341,0.315547 c 4.142909,0.404217 16.689207,1.298321 22.707428,1.618229 6.267511,0.333155 12.63859,0.155638 15.5575,-0.433483 3.256632,-0.657283 6.403009,-1.522799 6.822667,-1.8768 0.741164,-0.625206 3.581458,-0.201449 10.851499,1.61899 8.0319183,2.011212 12.6512083,3.018049 16.82749828,3.667784 2.68074002,0.417057 3.88621002,0.477996 9.52500002,0.481483 6.0557597,0.0037 6.6919497,-0.03308 10.2658397,-0.59414 5.15182,-0.808786 7.20574,-0.73188 10.05417,0.376465 2.4627,0.95826 6.26347,2.931308 10.48371,5.442294 7.76514,4.620154 12.48629,9.155454 13.78373,13.241134 0.58091,1.82929 0.69197,4.60025 0.28751,7.17304 -0.42473,2.70171 -2.53109,8.28628 -3.36485,8.92121 -0.60611,0.46156 -1.97974,0.28822 -4.55777,-0.57515 -2.756,-0.92295 -3.04011,-0.98279 -2.69559,-0.56766 0.16206,0.19527 0.17335,1.12596 0.0381,3.14255 l -0.19213,2.86512 -1.47313,2.83703 c -0.89212,1.7181 -1.69909,3.63011 -2.04606,4.84786 -0.52195,1.8319 -0.56127,2.21802 -0.44188,4.33918 0.0721,1.28057 0.47929,4.3762 0.90492,6.87917 l 0.77386,4.55083 1.20791,1.05832 c 0.80373,0.70421 1.41168,1.06707 1.81686,1.08445 0.33493,0.0144 1.99008,0.59399 3.67812,1.28804 3.68676,1.51586 5.4406,2.01228 12.48834,3.53479 8.70459,1.88044 11.01679,2.26349 14.46096,2.3957 5.31617,0.20406 7.70461,-0.52002 11.21526,-3.40004 0.55939,-0.45889 1.22269,-0.84491 1.47401,-0.85781 0.78579,-0.0403 3.30818,-3.9661 5.90006,-9.18263 1.67529,-3.3718 2.28111,-4.7882 2.12752,-4.97416 -0.22058,-0.26705 -1.99934,-5.01618 -3.42709,-9.14999 -3.760259,-11.62389 -0.601499,-23.81395 -2.45314,-33.70793 -0.11743,-0.57514 -0.0774,-0.68791 0.24396,-0.68791 0.34487,0 0.34999,-0.0272 0.0498,-0.26459 -0.18403,-0.14552 -0.44775,-0.62177 -0.58604,-1.05833 -0.21372,-0.67467 -0.34266,-0.793748 -0.8595,-0.793748 -0.33444,0 -0.68424,-0.12891 -0.77734,-0.286465 -0.0931,-0.157554 -0.31214,-0.331824 -0.48677,-0.387268 -0.777747,-1.366336 -1.275566,-4.974428 0.12138,-5.644835 l 0.54845,-0.249893 -0.78911,-1.098384 c -1.56825,-2.182899 -2.12126,-3.977071 -2.41895,-7.848052 -0.10924,-1.420434 -0.34379,-3.058853 -0.52123,-3.640937 -0.17744,-0.582083 -0.32491,-1.21408 -0.32491,-1.21408 l 0.28772,-0.796753 c 0,0 -2.36845,-3.484573 -4.20585,-7.052204 -0.78585,-1.525876 -1.39483,-2.467234 -1.59746,-2.469362 -0.1801,-0.0019 -0.69935,-0.384294 -1.15389,-0.849786 -0.64336,-0.658857 -0.7701,-0.902689 -0.57213,-1.100666 0.41251,-0.412512 0.30172,-0.547765 -0.56927,-0.694918 -0.45891,-0.07753 -1.03759,-0.366937 -1.3069,-0.653603 -0.26582,-0.282953 -0.60467,-0.514461 -0.753,-0.514461 -0.14834,0 -0.52029,-0.232238 -0.82656,-0.516083 -0.63886,-0.592066 -0.87161,-0.54497 -2.15923,0.436922 -0.65101,0.496438 -1.21951,0.723112 -2.08468,0.831208 -3.53531,0.441708 -5.80563,-0.981589 -5.80358,-3.63836 0.001,-1.378641 0.51963,-2.16803 2.15283,-3.277111 1.70792,-1.15983 2.73019,-1.511929 3.8863,-1.338558 0.4968,0.0745 1.09154,0.0757 1.32165,0.003 0.40533,-0.128651 0.39611,-0.203581 -0.29538,-2.402152 -0.39257,-1.248148 -0.71431,-2.28437 -0.71498,-2.302708 -10e-4,-0.035 2.64547,-0.495922 5.74348,-1.00021 2.805927,-0.595826 5.735072,-2.251529 7.8671,-3.765082 2.24168,-1.600469 4.54557,-4.08832 5.74383,-6.202468 0.8765,-1.546471 2.44993,-2.863061 3.42159,-2.863061 3.823185,-0.910178 7.961189,0.239369 10.167435,1.799147 4.01436,2.550966 9.02758,10.053412 9.78857,23.304746 -0.29409,0.188677 -0.83909,0.322321 -4.20988,1.032375 -0.98954,0.208445 -2.01156,0.545058 -2.27114,0.74803 l -0.47198,0.369044 0.80662,0.558983 c 0.44365,0.307443 1.07865,0.842936 1.41116,1.18999 0.45049,0.470204 0.79769,0.630999 1.3625,0.630999 0.87588,0 2.50211,1.226005 4.17908,3.150582 0.80201,0.920424 0.98406,1.274156 0.94607,1.838229 13.14003,15.460443 23.86201,32.602053 27.13719,46.589113 0.19685,2.10271 -0.2249,2.78211 -3.04889,4.91155 -1.29369,0.97551 -2.274,1.84383 -2.17848,1.9296 2.84019,0.32187 4.81072,0.16375 11.06952,0.95363 6.25881,0.78988 14.80892,3.54003 21.40658,9.20673 6.59765,5.6667 10.1245,11.2231 12.5909,16.38042 -8.68144,0.17057 -16.71392,0.25872 -24.04371,0.38751 -20.1822,-0.73523 -23.83192,3.69135 -27.44206,8.90067 -3.61014,5.20932 -5.40877,8.44833 -9.17548,10.29739 -1.12177,0.52624 -1.30073,0.54549 -4.76389,0.51252 -3.10408,-0.0296 -6.71443,-0.38678 -8.255,-0.8168 -0.35357,-0.0987 -0.685,0.29199 -2.01084,2.37021 -1.77696,2.78534 -4.31781,5.83702 -7.120745,8.55232 -2.47699,2.39954 -4.784193,4.35464 -8.82351,5.82338 -4.039318,1.46875 -40.152244,1.44081 -63.65392,1.00526 -0.12031,-0.1203 -0.11507,-0.47847 0.0135,-0.92696 0.11529,-0.402 0.20962,-1.03678 0.20962,-1.41062 0,-0.60279 -0.0779,-0.6924 -0.68792,-0.7917 -2.81537,-0.0579 -5.413459,-0.0372 -8.19508,-0.16434 l -2.27892,1.07563 c -1.2534,0.5916 -2.85041,1.27666 -3.54891,1.52236 -1.5752697,0.5541 -5.0661797,0.76296 -7.3024997,0.43689 l -1.5875,-0.23146 -0.49627002,0.57894 c -4.87311178,3.38577 -12.82254928,3.88645 -18.22741428,4.12869 -10.204649,0.2645 -21.582312,0.40499 -30.986452,0.94942 -0.698499,1.38224 -1.149826,3.01318 -2.012011,4.26775 -5.951328,-2.14495 -8.856996,-3.60981 -13.682789,-6.0515 l -0.44387,0.47011 c -0.410308,0.43457 -0.51715,0.4515 -1.413198,0.22399 -0.53313,-0.13537 -1.143011,-0.39304 -1.355291,-0.57259 -0.212281,-0.17956 -0.666041,-0.34396 -1.008351,-0.36535 -0.752959,-0.047 -1.51905,-0.72072 -1.689558,-1.48576 -0.0689,-0.30911 -0.338032,-1.20889 -0.598072,-1.99952 l -0.472811,-1.4375 -1.695259,-0.50016 c -0.932389,-0.27509 -2.144869,-0.55469 -2.6944,-0.62134 l -0.999138,-0.12118 0.128468,0.64235 c 0.106982,0.53493 0.0528,0.66212 -0.323771,0.76061 -0.248737,0.065 -0.452249,0.28711 -0.452249,0.49346 0,0.20636 -0.179578,0.59698 -0.399069,0.86803 -0.35289,0.43581 -0.441161,0.45791 -0.76278,0.19099 -0.272071,-0.2258 -0.335971,-0.50873 -0.25359,-1.1229 0.108119,-0.8061 0.0999,-0.81802 -0.4543,-0.65447 -0.92006,0.27153 -1.902381,0.182 -2.33906,-0.21319 -0.390551,-0.35344 -0.444561,-0.34725 -1.221991,0.14014 l -0.813369,0.50993 -0.506751,-0.6181 c -0.711499,-0.86784 -2.350749,-3.78667 -2.350749,-4.18571 0,-0.1904 0.69904,-0.73965 1.640409,-1.28891 1.462431,-0.85327 1.641242,-1.02605 1.648002,-1.59242 0.005,-0.42708 0.293518,-0.97756 0.88001,-1.67955 0.606329,-0.72574 1.00888,-1.50771 1.319818,-2.56378 0.316291,-1.07428 0.625692,-1.66957 1.055902,-2.03156 0.334669,-0.28162 1.148228,-1.34868 1.807908,-2.37126 1.696972,-2.63053 3.33148,-4.67011 4.924812,-6.14533 l 1.374589,-1.27269 -0.359629,-2.81826 c -0.1978,-1.55005 -0.327322,-2.84982 -0.287811,-2.88837 0.13122,-0.12808 5.927381,-1.83818 5.987711,-1.76662 0.0326,0.0387 0.176149,0.29466 0.319008,0.56889 l 0.259742,0.49859 c 2.615865,-0.25359 6.6035,-0.66888 9.999466,-1.63223 -0.181189,-1.12396 -0.181319,-1.19287 -0.003,-1.74625 0.122029,-0.37894 0.0724,-0.47625 -0.243011,-0.47625 -12.799773,-2.76733 -22.748376,-4.16234 -34.768818,-6.12427 -5.625685,6.49055 -8.760474,10.7951 -16.320328,17.67125 -1.04511,0.5296 -1.87746,0.64519 -4.05923,0.56372 -0.85601,-0.032 -1.26001,-0.14025 -1.34448,-0.36037 5.61271,-10.07966 10.74099,-19.24373 15.554218,-28.14303 -0.0409,-0.0367 -0.58012,-0.37549 -1.19828,-0.75294 -0.67588,-0.41269 -1.08185,-0.79595 -1.01837,-0.96139 0.0656,-0.17104 -0.47002,-0.61472 -1.416058,-1.17292 -3.91946,-2.3126 -4.82939,-3.15567 -4.36267,-4.0421 0.4407,-0.83704 2.98251,-3.95762 3.49952,-4.29638 0.32653,-0.21395 1.01132,-0.32157 2.046128,-0.32157 1.70224,0 1.94453,-0.1479 3.12066,-1.905 1.98947,-2.97221 4.53222,-6.36138 5.00517,-6.67126 2.477731,0.0107 5.170164,-0.0647 8.1655,-0.14067 3.887904,-4.71881 7.183452,-7.45264 13.60061,-9.9944 0,0 -1.339781,-0.35523 -1.794888,-0.43438 -0.992394,-0.17257 -2.764587,-1.85738 -3.284945,-2.36074 -0.520359,-0.50336 -2.464737,-2.87507 -4.011917,-5.42809 -0.546769,-0.90223 -1.03323,-1.640418 -1.081019,-1.640418 -1.11688,-1.870887 -0.216701,-7.836508 0.201978,-9.289801 z"
         style="fill:#6da2b9;fill-opacity:1;stroke-width:0.21166667" />
    </g>
  </g>
</svg>
