{"accessors":[{"bufferView":0,"componentType":5123,"count":8448,"max":[2378],"min":[0],"type":"SCALAR"},{"bufferView":1,"componentType":5126,"count":2379,"max":[1.1807852983474731,0.5,1.1807852983474731],"min":[-1.1807852983474731,-0.5,-1.1807852983474731],"type":"VEC3"},{"bufferView":2,"componentType":5126,"count":2379,"max":[1.0,1.0,1.0],"min":[-1.0,-1.0,-1.0],"type":"VEC3"},{"bufferView":3,"componentType":5126,"count":2379,"max":[1.0,1.0],"min":[0.004003077745437622,0.0],"type":"VEC2"}],"asset":{"generator":"Soft8Soft Verge3D for Maya plug-in","version":"2.0"},"bufferViews":[{"buffer":0,"byteLength":16896,"byteOffset":0,"target":34963},{"buffer":0,"byteLength":28548,"byteOffset":16896,"target":34962},{"buffer":0,"byteLength":28548,"byteOffset":45444,"target":34962},{"buffer":0,"byteLength":19032,"byteOffset":73992,"target":34962}],"buffers":[{"byteLength":93024,"uri":"template.bin"}],"cameras":[{"extensions":{"S8S_v3d_camera_data":{"controls":"ORBIT","enablePan":true,"moveSpeed":1.0,"orbitMaxDistance":1000.0,"orbitMaxPolarAngle":3.141592653589793,"orbitMinDistance":0.0,"orbitMinPolarAngle":0.0,"orbitTarget":[2.1094237467877974e-14,-4.440892098500626e-15,-2.6645352591003757e-15],"rotateSpeed":1.0,"viewportFitType":"VERTICAL"}},"name":"perspShape","perspective":{"aspectRatio":1.5,"yfov":0.6605947096585074,"zfar":10000.0,"znear":0.1},"type":"perspective"}],"extensions":{"S8S_v3d_data":{"lights":[{"color":[1,1,1],"intensity":2.5,"name":"__DEFAULT__","profile":"maya","type":"directional"}]}},"extensionsUsed":["S8S_v3d_material_data","S8S_v3d_data","S8S_v3d_camera_data","S8S_v3d_node_data","S8S_v3d_scene_data"],"materials":[{"emissiveFactor":[0.0,0.0,0.0],"extensions":{"S8S_v3d_material_data":{"profile":"maya"}},"name":"aiStandardSurface1","pbrMetallicRoughness":{"baseColorFactor":[0.0,0.800000011920929,0.0,1.0],"metallicFactor":0.0,"roughnessFactor":0.20000000298023224}},{"extensions":{"S8S_v3d_material_data":{"nodeGraph":{"edges":[{"fromNode":1,"fromOutput":0,"toInput":0,"toNode":0},{"fromNode":2,"fromOutput":0,"toInput":0,"toNode":1}],"nodes":[{"inputs":[[0,0,0,0]],"is_active_output":true,"name":"World Bitmap","outputs":[],"type":"OUTPUT_MY"},{"inputs":[0,[0.21404114048223255,0.21404114048223255,0.21404114048223255,1],[0,0,0,0]],"name":"Blend Colors","outputs":[[0,0,0,0]],"type":"BLEND_COLORS_MY"},{"inputs":[],"name":"Ligth Path","outputs":[0],"type":"LIGHT_PATH_MY"}]},"profile":"maya"}},"name":"Verge3D_Environment"}],"meshes":[{"name":"pGearShape1","primitives":[{"attributes":{"NORMAL":2,"POSITION":1,"TEXCOORD_0":3},"indices":0,"material":0,"mode":4}]}],"nodes":[{"extensions":{"S8S_v3d_node_data":{"frustumCulling":true,"hidden":false,"renderOrder":0,"useCastShadows":true,"useShadows":true}},"mesh":0,"name":"pGear1","rotation":[0.0,0.0,0.0,1.0],"scale":[1.0,1.0,1.0],"translation":[0.0,0.0,0.0]},{"camera":0,"children":[2],"extensions":{"S8S_v3d_node_data":{"hidden":true}},"name":"persp","rotation":[-0.45674492742011324,0.3111941226879549,0.1744139276635992,0.8149368509997731],"scale":[1.0,1.0,1.0],"translation":[1.987182344270102,4.872477658643244,2.2225425028317813]},{"extensions":{"S8S_v3d_node_data":{"light":0}},"name":"__DEFAULT_LIGHT__","rotation":[-0.13052619222005157,-0.0,-0.0,0.9914448613738104],"translation":[1.987182344270102,4.872477658643244,2.2225425028317813]}],"scene":0,"scenes":[{"extensions":{"S8S_v3d_scene_data":{"aaMethod":"AUTO","physicallyCorrectLights":true,"postprocessing":[],"shadowMap":{"renderReverseSided":false,"renderSingleSided":true,"type":"PCFPOISSON"},"unitsScaleFactor":1.0,"useHDR":false,"worldMaterial":1}},"extras":{"animFrameRate":24.0,"coordSystem":"Y_UP_RIGHT"},"name":"Scene","nodes":[0,1]}]}