<?xml version="1.0" encoding="UTF-8" standalone="no"?>
<svg
   xmlns:dc="http://purl.org/dc/elements/1.1/"
   xmlns:cc="http://creativecommons.org/ns#"
   xmlns:rdf="http://www.w3.org/1999/02/22-rdf-syntax-ns#"
   xmlns:svg="http://www.w3.org/2000/svg"
   xmlns="http://www.w3.org/2000/svg"
   xmlns:xlink="http://www.w3.org/1999/xlink"
   xmlns:sodipodi="http://sodipodi.sourceforge.net/DTD/sodipodi-0.dtd"
   xmlns:inkscape="http://www.inkscape.org/namespaces/inkscape"
   id="svg4603"
   version="1.1"
   viewBox="0 0 29.104166 29.104167"
   height="110"
   width="110"
   sodipodi:docname="puzzles_preloader_icon_dark.svg"
   inkscape:version="0.92.4 (5da689c313, 2019-01-14)">
  <sodipodi:namedview
     pagecolor="#ffffff"
     bordercolor="#666666"
     borderopacity="1"
     objecttolerance="10"
     gridtolerance="10"
     guidetolerance="10"
     inkscape:pageopacity="0"
     inkscape:pageshadow="2"
     inkscape:window-width="1920"
     inkscape:window-height="1017"
     id="namedview5670"
     showgrid="false"
     inkscape:zoom="2.1454545"
     inkscape:cx="-3.029661"
     inkscape:cy="55"
     inkscape:window-x="-8"
     inkscape:window-y="-8"
     inkscape:window-maximized="1"
     inkscape:current-layer="svg4603" />
  <defs
     id="defs4597">
    <linearGradient
       gradientUnits="userSpaceOnUse"
       y2="796.1911"
       x2="247.77496"
       y1="771.04443"
       x1="262.25589"
       id="linearGradient4578"
       xlink:href="#linearGradient4570"
       gradientTransform="translate(-239.6418,-501.22125)" />
    <linearGradient
       id="linearGradient4570">
      <stop
         style="stop-color:#a0a0a0;stop-opacity:1"
         offset="0"
         id="stop4566" />
      <stop
         style="stop-color:#444444;stop-opacity:1"
         offset="1"
         id="stop4568" />
    </linearGradient>
    <linearGradient
       inkscape:collect="always"
       xlink:href="#linearGradient5017"
       id="linearGradient4282"
       gradientUnits="userSpaceOnUse"
       gradientTransform="translate(-239.64181,-769.11707)"
       x1="240.10271"
       y1="796.97986"
       x2="269.38782"
       y2="769.44519" />
    <linearGradient
       inkscape:collect="always"
       id="linearGradient5017">
      <stop
         style="stop-color:#c8c8c8;stop-opacity:1"
         offset="0"
         id="stop5013" />
      <stop
         style="stop-color:#ffffff;stop-opacity:1"
         offset="1"
         id="stop5015" />
    </linearGradient>
  </defs>
  <metadata
     id="metadata4600">
    <rdf:RDF>
      <cc:Work
         rdf:about="">
        <dc:format>image/svg+xml</dc:format>
        <dc:type
           rdf:resource="http://purl.org/dc/dcmitype/StillImage" />
        <dc:title></dc:title>
      </cc:Work>
    </rdf:RDF>
  </metadata>
  <path
     inkscape:export-ydpi="96"
     inkscape:export-xdpi="96"
     inkscape:export-filename="D:\Repos\art\design\app_manager\maket\dark\18_puzzles_preloader.png"
     inkscape:connector-curvature="0"
     d="m 18.44996,6.3198473 c -0.0405,0.8415 -0.0738,1.62644 -0.12993,2.6331 -0.0426,0.76454 -0.10394,1.4834597 -0.23751,2.1397697 -0.0676,0.32815 -0.14272,0.6376 -0.33096,1.00493 -0.18803,0.36735 -0.61254,0.98084 -1.44949,1.0983 a 1.5715857,1.5715857 0 0 1 -0.14614,0.006 c -1.78357,0.085 -2.72654,-0.97302 -3.66651,-1.69517 -0.46992,-0.36108 -0.90451,-0.69382 -1.22819,-0.89732 -0.2162,-0.13669 -0.37347,-0.18115 -0.39998,-0.19694 -0.26266,0.025 -0.63072,0.21818 -1.03538,0.87297 -0.43552,0.70475 -0.77354,1.8373 -0.77344,3.11424 -10e-5,1.27691 0.33792,2.41153 0.77344,3.11628 0.40663,0.65789 0.77657,0.85466 1.03944,0.87905 0.0239,-0.0154 0.17182,-0.0589 0.38781,-0.19692 0.31973,-0.20421 0.75453,-0.54193 1.2282,-0.91357 0.94734,-0.74305 1.97679,-1.78097 3.69893,-1.83322 a 1.5715857,1.5715857 0 0 1 1.57339,1.19778 c 0.53074,2.16673 0.50537,4.72006 0.63541,6.75836 h 7.6942 c 1.887621,-2.45435 3.020911,-5.51882 3.020911,-8.8555 0,-3.05731 -0.9462,-5.8906207 -2.55597,-8.2322397 z M 14.55208,-2.95e-6 C 6.5132,-2.95e-6 0,6.5132473 0,14.552077 c 0,8.03884 6.5132,14.552089 14.55208,14.552089 3.05365,0 5.88413,-0.943599 8.22411,-2.549858 H 16.9619 a 1.5715857,1.5715857 0 0 1 -1.55717,-1.380511 c -0.22733,-1.82862 -0.33761,-3.86921 -0.51359,-5.70876 -0.21703,0.14339 -0.23761,0.10881 -0.46899,0.29031 -0.45922,0.36013 -0.93747,0.7488 -1.47184,1.09019 -0.53437,0.34136 -1.13423,0.70645 -2.02607,0.70649 -1.63846,-1.6e-4 -2.96477,-1.06644 -3.77605,-2.37933 -0.81139,-1.31293 -1.24254,-2.97108 -1.24254,-4.77287 0,-1.80184 0.43115,-3.45183 1.24254,-4.7647497 0.81128,-1.31289 2.13759,-2.37921 3.77605,-2.37934 0.89257,0 1.47746,0.35757 2.00985,0.69229 0.5323,0.33459 1.00982,0.7154 1.46571,1.06582 0.39956,0.30678 0.39769,0.28956 0.70651,0.46085 0.0229,-0.25222 0.0592,-0.40766 0.0748,-0.69838 0.078,-1.40509 0.0665,-3.04079 0.22327,-4.22879 a 1.5715857,1.5715857 0 0 1 1.55718,-1.37238 H 23.6102 C 21.12387,1.1932073 17.97969,-2.95e-6 14.55174,-2.95e-6 Z"
     style="font-style:normal;font-variant:normal;font-weight:normal;font-stretch:normal;font-size:7.64731169px;line-height:1.25;font-family:'Font Awesome 5 Free';-inkscape-font-specification:'Font Awesome 5 Free';letter-spacing:0px;word-spacing:0px;display:inline;fill:url(#linearGradient4282);fill-opacity:1;stroke:none;stroke-width:0.75107527"
     id="path4791" />
</svg>
