<?xml version="1.0" encoding="UTF-8" standalone="no"?>
<svg
   xmlns:dc="http://purl.org/dc/elements/1.1/"
   xmlns:cc="http://creativecommons.org/ns#"
   xmlns:rdf="http://www.w3.org/1999/02/22-rdf-syntax-ns#"
   xmlns:svg="http://www.w3.org/2000/svg"
   xmlns="http://www.w3.org/2000/svg"
   xmlns:xlink="http://www.w3.org/1999/xlink"
   id="svg2612"
   version="1.1"
   viewBox="0 0 4.2333332 3.7041668"
   height="14"
   width="16">
  <defs
     id="defs2606">
    <linearGradient
       id="linearGradient1935">
      <stop
         style="stop-color:#dbdbdb;stop-opacity:1"
         offset="0"
         id="stop1931" />
      <stop
         style="stop-color:#ffffff;stop-opacity:1"
         offset="1"
         id="stop1933" />
    </linearGradient>
    <linearGradient
       gradientTransform="matrix(0.9863014,0,0,0.9863014,64.017517,5.3994983)"
       gradientUnits="userSpaceOnUse"
       y2="392.18137"
       x2="70.147652"
       y1="396.01782"
       x1="66.178909"
       id="linearGradient3899"
       xlink:href="#linearGradient1935" />
    <linearGradient
       y2="86.096649"
       x2="331.11148"
       y1="89.370705"
       x1="327.37134"
       gradientTransform="matrix(0.97361427,0,0,0.97361427,-318.27803,209.68372)"
       gradientUnits="userSpaceOnUse"
       id="linearGradient3969"
       xlink:href="#linearGradient1935" />
  </defs>
  <metadata
     id="metadata2609">
    <rdf:RDF>
      <cc:Work
         rdf:about="">
        <dc:format>image/svg+xml</dc:format>
        <dc:type
           rdf:resource="http://purl.org/dc/dcmitype/StillImage" />
        <dc:title></dc:title>
      </cc:Work>
    </rdf:RDF>
  </metadata>
  <g
     transform="translate(0,-293.29581)"
     id="layer1">
    <path
       id="path3963"
       d="m 0.39696199,293.29587 c -0.22323028,0 -0.396962013333334,0.18197 -0.396962013333334,0.39696 v 2.9106 c 0,0.22324 0.173731733333334,0.39648 0.396962013333334,0.39648 H 3.8363615 c 0.2150032,0 0.3969719,-0.17324 0.3969719,-0.39648 v -2.9106 c 0,-0.21499 -0.1819687,-0.39696 -0.3969719,-0.39696 z m 1.02285971,0.51822 a 0.38948468,0.38948468 0 0 1 0.3954724,0.39344 v 1.88472 a 0.38993255,0.38993255 0 1 1 -0.7798651,0 v -1.88472 a 0.38948468,0.38948468 0 0 1 0.3843927,-0.39344 z m 1.3826102,0 a 0.38948468,0.38948468 0 0 1 0.3954626,0.39344 v 1.88472 a 0.38993231,0.38993231 0 1 1 -0.7798553,0 v -1.88472 a 0.38948468,0.38948468 0 0 1 0.3843927,-0.39344 z"
       style="font-style:normal;font-variant:normal;font-weight:bold;font-stretch:normal;font-size:4.34817982px;line-height:1.25;font-family:'Font Awesome 5 Free';-inkscape-font-specification:'Font Awesome 5 Free Bold';letter-spacing:0px;word-spacing:0px;display:inline;fill:url(#linearGradient3969);fill-opacity:1;stroke:none;stroke-width:0.10583623" />
  </g>
</svg>
