<?xml version="1.0" encoding="UTF-8" standalone="no"?>
<svg
   xmlns:dc="http://purl.org/dc/elements/1.1/"
   xmlns:cc="http://creativecommons.org/ns#"
   xmlns:rdf="http://www.w3.org/1999/02/22-rdf-syntax-ns#"
   xmlns:svg="http://www.w3.org/2000/svg"
   xmlns="http://www.w3.org/2000/svg"
   xmlns:xlink="http://www.w3.org/1999/xlink"
   xmlns:sodipodi="http://sodipodi.sourceforge.net/DTD/sodipodi-0.dtd"
   xmlns:inkscape="http://www.inkscape.org/namespaces/inkscape"
   id="svg2612"
   version="1.1"
   viewBox="0 0 9.5249998 9.5250003"
   height="36"
   width="36"
   sodipodi:docname="puzzles_redo_inactive_button.svg"
   inkscape:version="0.92.4 (5da689c313, 2019-01-14)">
  <sodipodi:namedview
     pagecolor="#ffffff"
     bordercolor="#666666"
     borderopacity="1"
     objecttolerance="10"
     gridtolerance="10"
     guidetolerance="10"
     inkscape:pageopacity="0"
     inkscape:pageshadow="2"
     inkscape:window-width="1920"
     inkscape:window-height="1013"
     id="namedview5782"
     showgrid="false"
     inkscape:zoom="10.755208"
     inkscape:cx="2.6671915"
     inkscape:cy="23.772524"
     inkscape:window-x="-9"
     inkscape:window-y="-9"
     inkscape:window-maximized="1"
     inkscape:current-layer="svg2612" />
  <defs
     id="defs2606">
    <linearGradient
       y2="99.237892"
       x2="339.22046"
       y1="105.25716"
       x1="333.53189"
       gradientTransform="matrix(4.8593949,0,0,4.8593949,-1612.8879,-481.11126)"
       gradientUnits="userSpaceOnUse"
       id="linearGradient4874"
       xlink:href="#linearGradient3409" />
    <linearGradient
       id="linearGradient3409">
      <stop
         style="stop-color:#969696;stop-opacity:1"
         offset="0"
         id="stop3405" />
      <stop
         style="stop-color:#b8b8b8;stop-opacity:1"
         offset="1"
         id="stop3407" />
    </linearGradient>
  </defs>
  <metadata
     id="metadata2609">
    <rdf:RDF>
      <cc:Work
         rdf:about="">
        <dc:format>image/svg+xml</dc:format>
        <dc:type
           rdf:resource="http://purl.org/dc/dcmitype/StillImage" />
        <dc:title />
      </cc:Work>
    </rdf:RDF>
  </metadata>
  <g
     transform="translate(0,-287.47498)"
     id="layer1">
    <path
       id="path4868"
       transform="matrix(0.26458333,0,0,0.26458333,0,287.47498)"
       d="M 18 0 C 8.0564031 0 2.3684758e-15 8.0564787 0 18 C 0 27.943559 8.0564031 36 18 36 C 27.943521 36 36 27.943559 36 18 C 36 8.0564787 27.943521 0 18 0 z M 20.628906 8.0703125 C 20.826395 8.0910981 21.021193 8.1683677 21.1875 8.3125 L 28.992188 15.052734 C 29.480022 15.496224 29.480022 16.24987 28.992188 16.693359 L 21.1875 23.435547 C 20.522273 24.012076 19.414062 23.523224 19.414062 22.591797 L 19.414062 18.734375 C 12.540069 18.823194 9.6117444 20.506974 11.607422 26.9375 C 11.829167 27.647069 10.943717 28.22474 10.367188 27.78125 C 8.415859 26.362113 6.640625 23.656407 6.640625 20.951172 C 6.640625 14.210195 12.318325 12.747497 19.414062 12.703125 L 19.414062 9.1542969 C 19.414062 8.4558118 20.036439 8.0079556 20.628906 8.0703125 z "
       style="font-style:normal;font-variant:normal;font-weight:normal;font-stretch:normal;font-size:7.64731169px;line-height:1.25;font-family:'Font Awesome 5 Free';-inkscape-font-specification:'Font Awesome 5 Free';letter-spacing:0px;word-spacing:0px;fill:url(#linearGradient4874);fill-opacity:1;stroke:none;stroke-width:0.92903274;opacity:0.6" />
  </g>
</svg>
