<?xml version="1.0" encoding="UTF-8" standalone="no"?>
<svg
   xmlns:dc="http://purl.org/dc/elements/1.1/"
   xmlns:cc="http://creativecommons.org/ns#"
   xmlns:rdf="http://www.w3.org/1999/02/22-rdf-syntax-ns#"
   xmlns:svg="http://www.w3.org/2000/svg"
   xmlns="http://www.w3.org/2000/svg"
   xmlns:xlink="http://www.w3.org/1999/xlink"
   xmlns:sodipodi="http://sodipodi.sourceforge.net/DTD/sodipodi-0.dtd"
   xmlns:inkscape="http://www.inkscape.org/namespaces/inkscape"
   id="svg2612"
   version="1.1"
   viewBox="0 0 9.5249998 9.5250003"
   height="36"
   width="36"
   sodipodi:docname="puzzles_savecode_active_button.svg"
   inkscape:version="0.92.4 (5da689c313, 2019-01-14)">
  <sodipodi:namedview
     pagecolor="#ffffff"
     bordercolor="#666666"
     borderopacity="1"
     objecttolerance="10"
     gridtolerance="10"
     guidetolerance="10"
     inkscape:pageopacity="0"
     inkscape:pageshadow="2"
     inkscape:window-width="1920"
     inkscape:window-height="1013"
     id="namedview9410"
     showgrid="false"
     inkscape:zoom="15.210161"
     inkscape:cx="13.129052"
     inkscape:cy="15.922354"
     inkscape:window-x="-9"
     inkscape:window-y="-9"
     inkscape:window-maximized="1"
     inkscape:current-layer="svg2612" />
  <defs
     id="defs2606">
    <linearGradient
       y2="99.237892"
       x2="339.22046"
       y1="105.25716"
       x1="333.53189"
       gradientTransform="matrix(4.8593949,0,0,4.8593949,-1612.8883,-481.11122)"
       gradientUnits="userSpaceOnUse"
       id="linearGradient4804"
       xlink:href="#linearGradient3077" />
    <linearGradient
       id="linearGradient1935">
      <stop
         style="stop-color:#dbdbdb;stop-opacity:1"
         offset="0"
         id="stop1931" />
      <stop
         style="stop-color:#ffffff;stop-opacity:1"
         offset="1"
         id="stop1933" />
    </linearGradient>
    <linearGradient
       inkscape:collect="always"
       id="linearGradient3077">
      <stop
         style="stop-color:#4d89d8;stop-opacity:1"
         offset="0"
         id="stop3073" />
      <stop
         style="stop-color:#87b4ec;stop-opacity:1"
         offset="1"
         id="stop3075" />
    </linearGradient>
  </defs>
  <metadata
     id="metadata2609">
    <rdf:RDF>
      <cc:Work
         rdf:about="">
        <dc:format>image/svg+xml</dc:format>
        <dc:type
           rdf:resource="http://purl.org/dc/dcmitype/StillImage" />
        <dc:title />
      </cc:Work>
    </rdf:RDF>
  </metadata>
  <g
     transform="translate(0,-287.47498)"
     id="layer1">
    <path
       id="path4794"
       transform="matrix(0.26458333,0,0,0.26458333,0,287.47498)"
       d="M 18 0 C 8.0564031 0 2.3684758e-15 8.0564787 0 18 C 0 27.943559 8.0564031 36 18 36 C 27.943521 36 36 27.943559 36 18 C 36 8.0564787 27.943521 0 18 0 z M 9.2773438 6.8984375 L 22.560547 6.8984375 C 23.105751 6.8984375 23.847635 7.2437368 24.244141 7.640625 L 28.359375 11.755859 C 28.755918 12.15237 29.101562 12.894256 29.101562 13.439453 L 29.101562 26.722656 C 29.101563 28.060798 28.011318 29.101562 26.722656 29.101562 L 9.2773438 29.101562 C 7.9391189 29.101563 6.8984375 28.060798 6.8984375 26.722656 L 6.8984375 9.2773438 C 6.8984375 7.9887138 7.9391189 6.8984375 9.2773438 6.8984375 z M 10.537109 9.6621094 C 9.9186019 9.6621094 9.4199219 10.160789 9.4199219 10.779297 L 9.4199219 13.734375 C 9.4199219 14.352883 9.9186019 14.849609 10.537109 14.849609 L 19.572266 14.849609 C 20.190774 14.849609 20.689453 14.352883 20.689453 13.734375 L 20.689453 10.779297 C 20.689453 10.160789 20.190774 9.6621094 19.572266 9.6621094 L 10.537109 9.6621094 z M 18 17.839844 C 16.257797 17.839844 14.970703 19.202747 14.970703 20.869141 C 14.970703 22.611389 16.257797 23.898438 18 23.898438 C 19.666448 23.898438 21.029297 22.611389 21.029297 20.869141 C 21.029297 19.202747 19.666448 17.839844 18 17.839844 z "
       style="font-style:normal;font-variant:normal;font-weight:normal;font-stretch:normal;font-size:7.64731169px;line-height:1.25;font-family:'Font Awesome 5 Free';-inkscape-font-specification:'Font Awesome 5 Free';letter-spacing:0px;word-spacing:0px;fill:url(#linearGradient4804);fill-opacity:1.0;stroke:none;stroke-width:0.92903274" />
  </g>
</svg>
