<?xml version="1.0" encoding="UTF-8" standalone="no"?>
<svg
   xmlns:dc="http://purl.org/dc/elements/1.1/"
   xmlns:cc="http://creativecommons.org/ns#"
   xmlns:rdf="http://www.w3.org/1999/02/22-rdf-syntax-ns#"
   xmlns:svg="http://www.w3.org/2000/svg"
   xmlns="http://www.w3.org/2000/svg"
   xmlns:xlink="http://www.w3.org/1999/xlink"
   id="svg2612"
   version="1.1"
   viewBox="0 0 4.2333332 3.7041668"
   height="14"
   width="16">
  <defs
     id="defs2606">
    <linearGradient
       id="linearGradient1935">
      <stop
         style="stop-color:#dbdbdb;stop-opacity:1"
         offset="0"
         id="stop1931" />
      <stop
         style="stop-color:#ffffff;stop-opacity:1"
         offset="1"
         id="stop1933" />
    </linearGradient>
    <linearGradient
       gradientTransform="matrix(0.9863014,0,0,0.9863014,64.017517,5.3994983)"
       gradientUnits="userSpaceOnUse"
       y2="392.18137"
       x2="70.147652"
       y1="396.01782"
       x1="66.178909"
       id="linearGradient3899"
       xlink:href="#linearGradient1935" />
    <linearGradient
       y2="86.096649"
       x2="331.11148"
       y1="89.370705"
       x1="327.37134"
       gradientTransform="matrix(0.97361504,0,0,0.97361504,-318.27845,209.68365)"
       gradientUnits="userSpaceOnUse"
       id="linearGradient3939"
       xlink:href="#linearGradient1935" />
  </defs>
  <metadata
     id="metadata2609">
    <rdf:RDF>
      <cc:Work
         rdf:about="">
        <dc:format>image/svg+xml</dc:format>
        <dc:type
           rdf:resource="http://purl.org/dc/dcmitype/StillImage" />
        <dc:title></dc:title>
      </cc:Work>
    </rdf:RDF>
  </metadata>
  <g
     transform="translate(0,-293.29581)"
     id="layer1">
    <path
       id="path3948"
       d="M 0.3964758,293.29587 C 0.17321185,293.29587 0,293.47784 0,293.69283 v 2.9106 c 0,0.22324 0.17321185,0.39648 0.3964758,0.39648 H 3.836368 c 0.214995,0 0.3969653,-0.17324 0.3969653,-0.39648 v -2.9106 c 0,-0.21499 -0.1819703,-0.39696 -0.3969653,-0.39696 z m 0.9654932,0.56752 c 0.040676,0 0.081377,0.0113 0.1177501,0.0327 l 1.7649622,1.04301 c 0.155463,0.0952 0.155463,0.32131 0,0.41657 l -1.7649622,1.043 c -0.1604605,0.0952 -0.3612615,-0.0204 -0.3612615,-0.21082 v -2.08596 c 0,-0.1542 0.1215368,-0.24083 0.2435114,-0.23849 z"
       style="font-style:normal;font-variant:normal;font-weight:bold;font-stretch:normal;font-size:4.34817982px;line-height:1.25;font-family:'Font Awesome 5 Free';-inkscape-font-specification:'Font Awesome 5 Free Bold';letter-spacing:0px;word-spacing:0px;display:inline;fill:url(#linearGradient3939);fill-opacity:1;stroke:none;stroke-width:0.10583632" />
  </g>
</svg>
