<?xml version="1.0" encoding="UTF-8" standalone="no"?>
<svg
   xmlns:dc="http://purl.org/dc/elements/1.1/"
   xmlns:cc="http://creativecommons.org/ns#"
   xmlns:rdf="http://www.w3.org/1999/02/22-rdf-syntax-ns#"
   xmlns:svg="http://www.w3.org/2000/svg"
   xmlns="http://www.w3.org/2000/svg"
   xmlns:xlink="http://www.w3.org/1999/xlink"
   id="svg3274"
   version="1.1"
   viewBox="0 0 4.2333332 4.2333335"
   height="16"
   width="16">
  <defs
     id="defs3268">
    <linearGradient
       y2="388.52924"
       x2="90.255981"
       y1="392.39877"
       x1="86.336838"
       gradientTransform="matrix(1.0940172,0,0,1.1080432,-8.1171436,-42.395963)"
       gradientUnits="userSpaceOnUse"
       id="linearGradient3195"
       xlink:href="#linearGradient2831" />
    <linearGradient
       id="linearGradient2831">
      <stop
         style="stop-color:#e6162c;stop-opacity:1"
         offset="0"
         id="stop2827" />
      <stop
         style="stop-color:#ed7f8c;stop-opacity:1"
         offset="1"
         id="stop2829" />
    </linearGradient>
  </defs>
  <metadata
     id="metadata3271">
    <rdf:RDF>
      <cc:Work
         rdf:about="">
        <dc:format>image/svg+xml</dc:format>
        <dc:type
           rdf:resource="http://purl.org/dc/dcmitype/StillImage" />
        <dc:title></dc:title>
      </cc:Work>
    </rdf:RDF>
  </metadata>
  <g
     transform="translate(0,-292.76665)"
     id="layer1">
    <g
       style="display:inline"
       transform="matrix(0.98734179,0,0,0.98734179,-85.243975,-90.431763)"
       id="g3193">
      <rect
         style="opacity:1;fill:url(#linearGradient3195);fill-opacity:1;fill-rule:nonzero;stroke:none;stroke-width:0.29130828;stroke-linecap:round;stroke-linejoin:miter;stroke-miterlimit:4;stroke-dasharray:none;stroke-dashoffset:0;stroke-opacity:1;paint-order:markers stroke fill"
         id="rect3189"
         width="4.2876067"
         height="4.2876067"
         x="86.336845"
         y="388.11121"
         ry="0.48570547" />
      <path
         style="font-style:normal;font-variant:normal;font-weight:bold;font-stretch:normal;font-size:4.23333311px;line-height:1.25;font-family:'Font Awesome 5 Free';-inkscape-font-specification:'Font Awesome 5 Free Bold';letter-spacing:0px;word-spacing:0px;fill:#ffffff;fill-opacity:1;stroke:none;stroke-width:0.11906257"
         d="m 89.638719,390.87358 c 0.04646,0.0465 0.04646,0.12093 0,0.15813 l -0.381364,0.38137 c -0.03724,0.0465 -0.1116,0.0465 -0.15813,0 l -0.613925,-0.62321 -0.623216,0.62321 c -0.04646,0.0465 -0.120927,0.0465 -0.158131,0 l -0.381375,-0.38137 c -0.04646,-0.0372 -0.04646,-0.11162 0,-0.15813 l 0.623217,-0.62322 -0.623217,-0.61391 c -0.04646,-0.0465 -0.04646,-0.12093 0,-0.15813 l 0.381375,-0.38138 c 0.03724,-0.0465 0.111601,-0.0465 0.158131,0 l 0.623216,0.62322 0.613925,-0.62322 c 0.04646,-0.0465 0.120915,-0.0465 0.15813,0 l 0.381364,0.38138 c 0.04646,0.0372 0.04646,0.11162 0,0.15813 l -0.623217,0.61391 z"
         id="path3191" />
    </g>
  </g>
</svg>
