<?xml version="1.0" encoding="UTF-8" standalone="no"?>
<svg
   xmlns:dc="http://purl.org/dc/elements/1.1/"
   xmlns:cc="http://creativecommons.org/ns#"
   xmlns:rdf="http://www.w3.org/1999/02/22-rdf-syntax-ns#"
   xmlns:svg="http://www.w3.org/2000/svg"
   xmlns="http://www.w3.org/2000/svg"
   xmlns:xlink="http://www.w3.org/1999/xlink"
   id="svg2612"
   version="1.1"
   viewBox="0 0 4.2333332 4.2333335"
   height="16"
   width="16">
  <defs
     id="defs2606">
    <linearGradient
       gradientTransform="matrix(4.0825281,0,0,4.1348689,-352.47258,-1606.5174)"
       gradientUnits="userSpaceOnUse"
       y2="388.52924"
       x2="90.255981"
       y1="392.39877"
       x1="86.336838"
       id="linearGradient5064"
       xlink:href="#linearGradient2768" />
    <linearGradient
       id="linearGradient2768">
      <stop
         id="stop2764"
         offset="0"
         style="stop-color:#414141;stop-opacity:1" />
      <stop
         id="stop2766"
         offset="1"
         style="stop-color:#767676;stop-opacity:1" />
    </linearGradient>
  </defs>
  <metadata
     id="metadata2609">
    <rdf:RDF>
      <cc:Work
         rdf:about="">
        <dc:format>image/svg+xml</dc:format>
        <dc:type
           rdf:resource="http://purl.org/dc/dcmitype/StillImage" />
        <dc:title></dc:title>
      </cc:Work>
    </rdf:RDF>
  </metadata>
  <g
     transform="translate(0,-292.76665)"
     id="layer1">
    <path
       id="rect5056"
       transform="matrix(0.26458333,0,0,0.26458333,0,292.76665)"
       d="M 1.8125 0 C 0.80837497 0 0 0.80837497 0 1.8125 L 0 14.1875 C -1.4802974e-16 15.191625 0.80837497 16 1.8125 16 L 14.1875 16 C 15.191625 16 16 15.191625 16 14.1875 L 16 1.8125 C 16 0.80837497 15.191625 0 14.1875 0 L 1.8125 0 z M 5.3828125 3.5488281 C 5.4912608 3.5488281 5.6045886 3.5909942 5.6914062 3.6777344 L 8.0175781 6.0039062 L 10.308594 3.6777344 C 10.481968 3.5042541 10.759563 3.5042541 10.898438 3.6777344 L 12.322266 5.1015625 C 12.49564 5.2402712 12.49564 5.5178503 12.322266 5.6914062 L 9.9960938 7.9824219 L 12.322266 10.308594 C 12.49564 10.482074 12.49564 10.759615 12.322266 10.898438 L 10.898438 12.322266 C 10.759468 12.495746 10.482229 12.495746 10.308594 12.322266 L 8.0175781 9.9960938 L 5.6914062 12.322266 C 5.5180318 12.495746 5.2403963 12.495746 5.1015625 12.322266 L 3.6777344 10.898438 C 3.5043603 10.759729 3.5043603 10.48215 3.6777344 10.308594 L 6.0039062 7.9824219 L 3.6777344 5.6914062 C 3.5043603 5.5179259 3.5043603 5.2403845 3.6777344 5.1015625 L 5.1015625 3.6777344 C 5.1710472 3.5909942 5.2743642 3.5488281 5.3828125 3.5488281 z "
       style="opacity:1;fill:url(#linearGradient5064);fill-opacity:1;fill-rule:nonzero;stroke:none;stroke-width:1.08707094;stroke-linecap:round;stroke-linejoin:miter;stroke-miterlimit:4;stroke-dasharray:none;stroke-dashoffset:0;stroke-opacity:1;paint-order:markers stroke fill" />
  </g>
</svg>
