<?xml version="1.0" encoding="UTF-8" standalone="no"?>
<svg
   xmlns:dc="http://purl.org/dc/elements/1.1/"
   xmlns:cc="http://creativecommons.org/ns#"
   xmlns:rdf="http://www.w3.org/1999/02/22-rdf-syntax-ns#"
   xmlns:svg="http://www.w3.org/2000/svg"
   xmlns="http://www.w3.org/2000/svg"
   xmlns:xlink="http://www.w3.org/1999/xlink"
   id="svg3274"
   version="1.1"
   viewBox="0 0 4.2333332 4.2333335"
   height="16"
   width="16">
  <defs
     id="defs3268">
    <linearGradient
       y2="388.52924"
       x2="90.255981"
       y1="392.39877"
       x1="86.336838"
       gradientTransform="matrix(1.0801689,0,0,1.0940173,-93.258285,-132.29099)"
       gradientUnits="userSpaceOnUse"
       id="linearGradient3163"
       xlink:href="#linearGradient2810" />
    <linearGradient
       id="linearGradient2810">
      <stop
         id="stop2806"
         offset="0"
         style="stop-color:#1458ae;stop-opacity:1;" />
      <stop
         id="stop2808"
         offset="1"
         style="stop-color:#4388e0;stop-opacity:1" />
    </linearGradient>
  </defs>
  <metadata
     id="metadata3271">
    <rdf:RDF>
      <cc:Work
         rdf:about="">
        <dc:format>image/svg+xml</dc:format>
        <dc:type
           rdf:resource="http://purl.org/dc/dcmitype/StillImage" />
        <dc:title></dc:title>
      </cc:Work>
    </rdf:RDF>
  </metadata>
  <g
     transform="translate(0,-292.76665)"
     id="layer1">
    <path
       id="path3161"
       d="m 0.47955667,292.76665 c -0.26567,0 -0.4795600033333,0.21386 -0.4795600033333,0.47955 v 3.27422 c 0,0.26567 0.2138900033333,0.47956 0.4795600033333,0.47956 H 3.7537767 c 0.26567,0 0.47956,-0.21389 0.47956,-0.47956 v -3.27422 c 0,-0.26569 -0.21389,-0.47955 -0.47956,-0.47955 z m 1.63711003,0.72294 c 0.45186,0 0.82734,0.376 0.82734,0.82786 v 0.39171 h 0.13074 c 0.14155,0 0.26149,0.11994 0.26149,0.26149 v 1.0449 c 0,0.14697 -0.11994,0.26148 -0.26149,0.26148 h -1.91616 c -0.14699,0 -0.26148003,-0.11451 -0.26148003,-0.26148 v -1.0449 c 0,-0.14155 0.11449003,-0.26149 0.26148003,-0.26149 h 0.13074 v -0.39171 c 0,-0.45186 0.37004,-0.82786 0.82734,-0.82786 z m 0,0.43564 c -0.21776,0 -0.39171,0.17992 -0.39171,0.39222 v 0.39171 h 0.78394 v -0.39171 c 0,-0.2123 -0.17991,-0.39222 -0.39223,-0.39222 z"
       style="display:inline;opacity:1;fill:url(#linearGradient3163);fill-opacity:1;fill-rule:nonzero;stroke:none;stroke-width:0.28762084;stroke-linecap:round;stroke-linejoin:miter;stroke-miterlimit:4;stroke-dasharray:none;stroke-dashoffset:0;stroke-opacity:1;paint-order:markers stroke fill" />
  </g>
</svg>
