<?xml version="1.0" encoding="UTF-8" standalone="no"?>
<svg
   xmlns:dc="http://purl.org/dc/elements/1.1/"
   xmlns:cc="http://creativecommons.org/ns#"
   xmlns:rdf="http://www.w3.org/1999/02/22-rdf-syntax-ns#"
   xmlns:svg="http://www.w3.org/2000/svg"
   xmlns="http://www.w3.org/2000/svg"
   xmlns:xlink="http://www.w3.org/1999/xlink"
   id="svg4265"
   version="1.1"
   viewBox="0 0 4.7624999 4.7625001"
   height="18"
   width="18">
  <defs
     id="defs4259">
    <linearGradient
       y2="769.56036"
       x2="268.18359"
       y1="797.55078"
       x1="240.72726"
       gradientTransform="matrix(0.16363641,0,0,0.16363634,-39.214123,166.38197)"
       gradientUnits="userSpaceOnUse"
       id="linearGradient4244"
       xlink:href="#linearGradient2648" />
    <linearGradient
       id="linearGradient2648">
      <stop
         id="stop2644"
         offset="0"
         style="stop-color:#ebebeb;stop-opacity:1" />
      <stop
         id="stop2646"
         offset="1"
         style="stop-color:#ffffff;stop-opacity:1" />
    </linearGradient>
  </defs>
  <metadata
     id="metadata4262">
    <rdf:RDF>
      <cc:Work
         rdf:about="">
        <dc:format>image/svg+xml</dc:format>
        <dc:type
           rdf:resource="http://purl.org/dc/dcmitype/StillImage" />
        <dc:title></dc:title>
      </cc:Work>
    </rdf:RDF>
  </metadata>
  <g
     transform="translate(0,-292.23748)"
     id="layer1">
    <path
       d="m 3.0190844,293.27165 c -0.00663,0.1377 -0.012076,0.26614 -0.021262,0.43087 -0.00697,0.1251 -0.017007,0.24275 -0.038865,0.35014 -0.011062,0.0537 -0.023355,0.10434 -0.054157,0.16445 -0.030769,0.0601 -0.1002337,0.1605 -0.2371894,0.17972 a 0.25716863,0.25716854 0 0 1 -0.023914,9.8e-4 c -0.291856,0.0139 -0.4461602,-0.15922 -0.5999735,-0.27739 -0.076896,-0.0591 -0.1480108,-0.11354 -0.2009766,-0.14684 -0.035378,-0.0224 -0.061113,-0.0296 -0.065451,-0.0322 -0.042981,0.004 -0.1032087,0.0357 -0.1694258,0.14285 -0.071267,0.11532 -0.1265793,0.30065 -0.126563,0.5096 -1.63e-5,0.20895 0.055296,0.39461 0.126563,0.50994 0.066539,0.10765 0.1270751,0.13985 0.1700902,0.14384 0.00391,-0.003 0.028116,-0.01 0.06346,-0.0322 0.052319,-0.0334 0.1234686,-0.0887 0.2009783,-0.1495 0.1550193,-0.12159 0.3234748,-0.29143 0.6052796,-0.29998 a 0.25716863,0.25716854 0 0 1 0.2574639,0.196 c 0.086848,0.35456 0.082697,0.77238 0.1039762,1.10592 h 1.2590513 c 0.3088833,-0.40162 0.4943309,-0.90308 0.4943309,-1.44909 0,-0.50028 -0.1548329,-0.96392 -0.4182499,-1.34709 z m -0.6378349,-1.03416 c -1.3154535,0 -2.38125005,1.0658 -2.38125005,2.38125 0,1.31545 1.06579655,2.38125 2.38125005,2.38125 0.4996884,0 0.9628579,-0.15441 1.3457639,-0.41725 H 2.7755837 a 0.25716863,0.25716854 0 0 1 -0.2548096,-0.2259 c -0.037199,-0.29923 -0.055245,-0.63314 -0.084042,-0.93416 -0.035514,0.0235 -0.038882,0.0178 -0.076744,0.0475 -0.075145,0.0589 -0.1534042,0.12253 -0.2408466,0.1784 -0.087442,0.0559 -0.1856013,0.1156 -0.3315388,0.11561 -0.2681117,-3e-5 -0.4851443,-0.17451 -0.6178993,-0.38935 -0.1327729,-0.21484 -0.20332475,-0.48618 -0.20332475,-0.78101 0,-0.29485 0.0705521,-0.56485 0.20332475,-0.77969 0.132755,-0.21484 0.3497876,-0.38933 0.6178993,-0.38935 0.1460569,0 0.2417662,0.0585 0.3288846,0.11329 0.087104,0.0548 0.1652433,0.11706 0.2398435,0.1744 0.065383,0.0502 0.065077,0.0474 0.1156108,0.0754 0.00375,-0.0413 0.00969,-0.0667 0.01224,-0.11429 0.012764,-0.22992 0.010882,-0.49758 0.036535,-0.69198 a 0.25716863,0.25716854 0 0 1 0.2548113,-0.22457 h 1.0879598 c -0.4068543,-0.32432 -0.9213565,-0.51957 -1.4822941,-0.51957 z"
       style="font-style:normal;font-variant:normal;font-weight:normal;font-stretch:normal;font-size:7.64731169px;line-height:1.25;font-family:'Font Awesome 5 Free';-inkscape-font-specification:'Font Awesome 5 Free';letter-spacing:0px;word-spacing:0px;display:inline;fill:url(#linearGradient4244);fill-opacity:1;stroke:none;stroke-width:0.12290323"
       id="path4242" />
  </g>
</svg>
