<?xml version="1.0" encoding="UTF-8" standalone="no"?>
<svg
   xmlns:dc="http://purl.org/dc/elements/1.1/"
   xmlns:cc="http://creativecommons.org/ns#"
   xmlns:rdf="http://www.w3.org/1999/02/22-rdf-syntax-ns#"
   xmlns:svg="http://www.w3.org/2000/svg"
   xmlns="http://www.w3.org/2000/svg"
   xmlns:xlink="http://www.w3.org/1999/xlink"
   id="svg2612"
   version="1.1"
   viewBox="0 0 9.5249998 9.5250003"
   height="36"
   width="36">
  <defs
     id="defs2606">
    <linearGradient
       y2="99.237892"
       x2="339.22046"
       y1="105.25716"
       x1="333.53189"
       gradientTransform="matrix(4.8593949,0,0,4.8593949,-1612.8879,-481.11126)"
       gradientUnits="userSpaceOnUse"
       id="linearGradient4863"
       xlink:href="#linearGradient1935" />
    <linearGradient
       id="linearGradient1935">
      <stop
         style="stop-color:#dbdbdb;stop-opacity:1"
         offset="0"
         id="stop1931" />
      <stop
         style="stop-color:#ffffff;stop-opacity:1"
         offset="1"
         id="stop1933" />
    </linearGradient>
  </defs>
  <metadata
     id="metadata2609">
    <rdf:RDF>
      <cc:Work
         rdf:about="">
        <dc:format>image/svg+xml</dc:format>
        <dc:type
           rdf:resource="http://purl.org/dc/dcmitype/StillImage" />
        <dc:title></dc:title>
      </cc:Work>
    </rdf:RDF>
  </metadata>
  <g
     transform="translate(0,-287.47498)"
     id="layer1">
    <path
       id="path4859"
       transform="matrix(0.26458333,0,0,0.26458333,0,287.47498)"
       d="M 18 0 C 8.0564031 0 2.3684758e-15 8.0564787 0 18 C 0 27.943559 8.0564031 36 18 36 C 27.943521 36 36 27.943559 36 18 C 36 8.0564787 27.943521 0 18 0 z M 15.371094 8.0703125 C 15.963561 8.0079556 16.585938 8.4558118 16.585938 9.1542969 L 16.585938 12.703125 C 23.681675 12.747497 29.359375 14.210195 29.359375 20.951172 C 29.359375 23.656407 27.584141 26.362113 25.632812 27.78125 C 25.056283 28.22474 24.170833 27.647069 24.392578 26.9375 C 26.388256 20.506974 23.459931 18.823194 16.585938 18.734375 L 16.585938 22.591797 C 16.585938 23.523224 15.477727 24.012076 14.8125 23.435547 L 7.0078125 16.693359 C 6.5199775 16.24987 6.5199775 15.496224 7.0078125 15.052734 L 14.8125 8.3125 C 14.978807 8.1683677 15.173605 8.0910981 15.371094 8.0703125 z "
       style="font-style:normal;font-variant:normal;font-weight:normal;font-stretch:normal;font-size:7.64731169px;line-height:1.25;font-family:'Font Awesome 5 Free';-inkscape-font-specification:'Font Awesome 5 Free';letter-spacing:0px;word-spacing:0px;fill:url(#linearGradient4863);fill-opacity:1;stroke:none;stroke-width:0.92903274" />
  </g>
</svg>
