<?xml version="1.0" encoding="UTF-8" standalone="no"?>
<svg
   xmlns:dc="http://purl.org/dc/elements/1.1/"
   xmlns:cc="http://creativecommons.org/ns#"
   xmlns:rdf="http://www.w3.org/1999/02/22-rdf-syntax-ns#"
   xmlns:svg="http://www.w3.org/2000/svg"
   xmlns="http://www.w3.org/2000/svg"
   xmlns:xlink="http://www.w3.org/1999/xlink"
   id="svg2612"
   version="1.1"
   viewBox="0 0 9.5249998 9.5250003"
   height="36"
   width="36">
  <defs
     id="defs2606">
    <linearGradient
       y2="99.237892"
       x2="339.22046"
       y1="105.25716"
       x1="333.53189"
       gradientTransform="matrix(4.8593949,0,0,4.8593949,-1612.8883,-481.11126)"
       gradientUnits="userSpaceOnUse"
       id="linearGradient4832"
       xlink:href="#linearGradient1935" />
    <linearGradient
       id="linearGradient1935">
      <stop
         style="stop-color:#dbdbdb;stop-opacity:1"
         offset="0"
         id="stop1931" />
      <stop
         style="stop-color:#ffffff;stop-opacity:1"
         offset="1"
         id="stop1933" />
    </linearGradient>
  </defs>
  <metadata
     id="metadata2609">
    <rdf:RDF>
      <cc:Work
         rdf:about="">
        <dc:format>image/svg+xml</dc:format>
        <dc:type
           rdf:resource="http://purl.org/dc/dcmitype/StillImage" />
        <dc:title></dc:title>
      </cc:Work>
    </rdf:RDF>
  </metadata>
  <g
     transform="translate(0,-287.47498)"
     id="layer1">
    <path
       id="path4830"
       transform="matrix(0.26458333,0,0,0.26458333,0,287.47498)"
       d="M 18 0 C 8.0564031 0 2.3684758e-15 8.0564787 0 18 C 0 27.943559 8.0564031 36 18 36 C 27.943521 36 36 27.943559 36 18 C 36 8.0564787 27.943521 0 18 0 z M 17.007812 5.3085938 L 18.992188 5.3085938 C 19.289658 5.3085938 19.585938 5.6048949 19.585938 5.9023438 L 19.585938 7.4394531 C 24.196735 8.1335634 27.866448 11.803266 28.560547 16.414062 L 30.097656 16.414062 C 30.395127 16.414062 30.691406 16.710364 30.691406 17.007812 L 30.691406 18.992188 C 30.691406 19.339186 30.395128 19.585938 30.097656 19.585938 L 28.560547 19.585938 C 27.866448 24.246322 24.196735 27.915265 19.585938 28.609375 L 19.585938 30.097656 C 19.585937 30.444655 19.289659 30.691406 18.992188 30.691406 L 17.007812 30.691406 C 16.660762 30.691406 16.414062 30.444617 16.414062 30.097656 L 16.414062 28.609375 C 11.753686 27.915265 8.0847239 24.246322 7.390625 19.585938 L 5.9023438 19.585938 C 5.5552935 19.585938 5.3085938 19.339148 5.3085938 18.992188 L 5.3085938 17.007812 C 5.3085938 16.710326 5.5552924 16.414062 5.9023438 16.414062 L 7.390625 16.414062 C 8.0847239 11.803266 11.753686 8.1335634 16.414062 7.4394531 L 16.414062 5.9023438 C 16.414062 5.6048571 16.660761 5.3085938 17.007812 5.3085938 z M 16.414062 10.662109 C 13.488932 11.257045 11.208223 13.538522 10.613281 16.414062 L 12.646484 16.414062 C 12.943955 16.414062 13.240234 16.710364 13.240234 17.007812 L 13.240234 18.992188 C 13.240234 19.339186 12.943956 19.585938 12.646484 19.585938 L 10.613281 19.585938 C 11.208223 22.511065 13.488932 24.791783 16.414062 25.386719 L 16.414062 23.355469 C 16.414062 23.057982 16.660761 22.759766 17.007812 22.759766 L 18.992188 22.759766 C 19.289658 22.759766 19.585938 23.05802 19.585938 23.355469 L 19.585938 25.386719 C 22.461489 24.791783 24.742949 22.511065 25.337891 19.585938 L 23.353516 19.585938 C 23.006465 19.585938 22.759766 19.339148 22.759766 18.992188 L 22.759766 17.007812 C 22.759766 16.710326 23.006464 16.414062 23.353516 16.414062 L 25.337891 16.414062 C 24.742949 13.538522 22.461489 11.257045 19.585938 10.662109 L 19.585938 12.646484 C 19.585937 12.993483 19.289659 13.240234 18.992188 13.240234 L 17.007812 13.240234 C 16.660762 13.240234 16.414062 12.993445 16.414062 12.646484 L 16.414062 10.662109 z M 18 16.414062 C 18.842834 16.414062 19.585938 17.157165 19.585938 18 C 19.585938 18.892384 18.842834 19.585938 18 19.585938 C 17.107588 19.585938 16.414062 18.892384 16.414062 18 C 16.414062 17.157165 17.107588 16.414062 18 16.414062 z "
       style="font-style:normal;font-variant:normal;font-weight:normal;font-stretch:normal;font-size:7.64731169px;line-height:1.25;font-family:'Font Awesome 5 Free';-inkscape-font-specification:'Font Awesome 5 Free';letter-spacing:0px;word-spacing:0px;fill:url(#linearGradient4832);fill-opacity:1;stroke:none;stroke-width:0.92903274" />
  </g>
</svg>
