<?xml version="1.0" encoding="UTF-8" standalone="no"?>
<svg
   xmlns:dc="http://purl.org/dc/elements/1.1/"
   xmlns:cc="http://creativecommons.org/ns#"
   xmlns:rdf="http://www.w3.org/1999/02/22-rdf-syntax-ns#"
   xmlns:svg="http://www.w3.org/2000/svg"
   xmlns="http://www.w3.org/2000/svg"
   xmlns:xlink="http://www.w3.org/1999/xlink"
   id="svg2612"
   version="1.1"
   viewBox="0 0 9.5249998 9.5250003"
   height="36"
   width="36">
  <defs
     id="defs2606">
    <linearGradient
       y2="99.237892"
       x2="339.22046"
       y1="105.25716"
       x1="333.53189"
       gradientTransform="matrix(4.8593926,0,0,4.8593949,-1612.8879,-481.11099)"
       gradientUnits="userSpaceOnUse"
       id="linearGradient3301"
       xlink:href="#linearGradient1935" />
    <linearGradient
       id="linearGradient1935">
      <stop
         style="stop-color:#dbdbdb;stop-opacity:1"
         offset="0"
         id="stop1931" />
      <stop
         style="stop-color:#ffffff;stop-opacity:1"
         offset="1"
         id="stop1933" />
    </linearGradient>
  </defs>
  <metadata
     id="metadata2609">
    <rdf:RDF>
      <cc:Work
         rdf:about="">
        <dc:format>image/svg+xml</dc:format>
        <dc:type
           rdf:resource="http://purl.org/dc/dcmitype/StillImage" />
        <dc:title></dc:title>
      </cc:Work>
    </rdf:RDF>
  </metadata>
  <g
     transform="translate(0,-287.47498)"
     id="layer1">
    <path
       id="path3457"
       transform="matrix(0.26458333,0,0,0.26458333,0,287.47498)"
       d="M 18 0 C 8.0564031 2.2737368e-13 2.3684758e-15 8.0564787 0 18 C 0 27.943559 8.0564031 36 18 36 C 27.943521 36 36 27.943559 36 18 C 36 8.0564787 27.943521 0 18 0 z M 10.511719 7.2285156 L 25.349609 7.2285156 C 26.516641 7.2285156 27.490234 8.2020225 27.490234 9.3691406 L 27.490234 26.791016 C 27.490234 27.95802 26.516641 28.923828 25.349609 28.923828 L 10.511719 28.923828 C 9.3446876 28.923828 8.3789062 27.95802 8.3789062 26.791016 L 8.3789062 9.3691406 C 8.3789063 8.2020225 9.3446876 7.2285156 10.511719 7.2285156 z M 10.511719 9.265625 C 10.436544 9.265625 10.408203 9.293928 10.408203 9.3691406 L 10.408203 15.072266 A 3.2604266 3.2604266 0 0 1 12.960938 16.689453 A 3.2604266 3.2604266 0 0 1 12.960938 19.949219 A 3.2604266 3.2604266 0 0 1 10.408203 21.564453 L 10.408203 26.789062 C 10.408203 26.862385 10.436922 26.892578 10.511719 26.892578 L 25.349609 26.892578 C 25.424784 26.892578 25.453125 26.864275 25.453125 26.789062 L 25.453125 9.3691406 C 25.453125 9.2958178 25.424406 9.265625 25.349609 9.265625 L 10.511719 9.265625 z "
       style="font-style:normal;font-variant:normal;font-weight:normal;font-stretch:normal;font-size:7.64731169px;line-height:1.25;font-family:'Font Awesome 5 Free';-inkscape-font-specification:'Font Awesome 5 Free';letter-spacing:0px;word-spacing:0px;display:inline;fill:url(#linearGradient3301);fill-opacity:1;stroke:none;stroke-width:0.92903244" />
  </g>
</svg>
