<?xml version="1.0" encoding="UTF-8" standalone="no"?>
<svg
   xmlns:dc="http://purl.org/dc/elements/1.1/"
   xmlns:cc="http://creativecommons.org/ns#"
   xmlns:rdf="http://www.w3.org/1999/02/22-rdf-syntax-ns#"
   xmlns:svg="http://www.w3.org/2000/svg"
   xmlns="http://www.w3.org/2000/svg"
   xmlns:xlink="http://www.w3.org/1999/xlink"
   id="svg2612"
   version="1.1"
   viewBox="0 0 9.5249998 9.5250003"
   height="36"
   width="36">
  <defs
     id="defs2606">
    <linearGradient
       y2="99.237892"
       x2="339.22046"
       y1="105.25716"
       x1="333.53189"
       gradientTransform="matrix(4.8593926,0,0,4.8593949,-1612.8882,-481.11095)"
       gradientUnits="userSpaceOnUse"
       id="linearGradient2603"
       xlink:href="#linearGradient1935" />
    <linearGradient
       id="linearGradient1935">
      <stop
         style="stop-color:#dbdbdb;stop-opacity:1"
         offset="0"
         id="stop1931" />
      <stop
         style="stop-color:#ffffff;stop-opacity:1"
         offset="1"
         id="stop1933" />
    </linearGradient>
  </defs>
  <metadata
     id="metadata2609">
    <rdf:RDF>
      <cc:Work
         rdf:about="">
        <dc:format>image/svg+xml</dc:format>
        <dc:type
           rdf:resource="http://purl.org/dc/dcmitype/StillImage" />
        <dc:title></dc:title>
      </cc:Work>
    </rdf:RDF>
  </metadata>
  <g
     transform="translate(0,-287.47498)"
     id="layer1">
    <path
       id="path2601"
       transform="matrix(0.26458333,0,0,0.26458333,0,287.47498)"
       d="M 18 0 C 8.0564031 2.2737368e-13 2.3684758e-15 8.0564787 0 18 C 0 27.943559 8.0564031 36 18 36 C 27.943521 36 36 27.943559 36 18 C 36 8.0564787 27.943521 0 18 0 z M 16.738281 7.2011719 C 18.024747 7.2011719 19.15625 7.9812559 19.15625 9.3457031 C 19.15625 10.905023 17.712891 11.295805 17.712891 12.699219 C 17.712891 15.934721 25.392578 12.814453 25.392578 12.814453 C 25.392578 12.814453 23.248862 19.714844 25.587891 19.714844 C 26.445535 19.714844 27.147836 18.46875 28.785156 18.46875 C 30.266541 18.46875 31.007812 19.715535 31.007812 21.041016 C 31.007812 22.327453 30.227715 23.419922 28.863281 23.419922 C 27.303929 23.419922 26.87412 22.015625 25.470703 22.015625 C 23.131674 22.015625 24.457031 26.693359 24.457031 26.693359 C 22.468857 26.693359 17.402344 28.096753 17.402344 25.71875 C 17.402344 24.315336 18.84375 23.88754 18.84375 22.367188 C 18.84375 20.963773 17.7142 20.222656 16.427734 20.222656 C 15.063301 20.222656 13.931641 20.963869 13.931641 22.40625 C 13.931641 24.043579 15.492188 24.704945 15.492188 25.601562 C 15.492188 28.330419 8.5527344 26.693359 8.5527344 26.693359 L 8.5527344 13.712891 C 8.5527344 13.712891 15.375 15.310984 15.375 12.621094 C 15.375 11.724476 14.166016 11.02219 14.166016 9.4238281 C 14.166016 7.9424801 15.373848 7.2011719 16.738281 7.2011719 z "
       style="font-style:normal;font-variant:normal;font-weight:normal;font-stretch:normal;font-size:7.64731169px;line-height:1.25;font-family:'Font Awesome 5 Free';-inkscape-font-specification:'Font Awesome 5 Free';letter-spacing:0px;word-spacing:0px;fill:url(#linearGradient2603);fill-opacity:1;stroke:none;stroke-width:0.92903244" />
  </g>
</svg>
