<?xml version="1.0" encoding="UTF-8" standalone="no"?>
<svg
   xmlns:dc="http://purl.org/dc/elements/1.1/"
   xmlns:cc="http://creativecommons.org/ns#"
   xmlns:rdf="http://www.w3.org/1999/02/22-rdf-syntax-ns#"
   xmlns:svg="http://www.w3.org/2000/svg"
   xmlns="http://www.w3.org/2000/svg"
   xmlns:xlink="http://www.w3.org/1999/xlink"
   id="svg2612"
   version="1.1"
   viewBox="0 0 9.5249998 9.5250003"
   height="36"
   width="36">
  <defs
     id="defs2606">
    <linearGradient
       y2="99.237892"
       x2="339.22046"
       y1="105.25716"
       x1="333.53189"
       gradientTransform="matrix(1.2857143,0,0,1.2857149,-426.74328,160.18113)"
       gradientUnits="userSpaceOnUse"
       id="linearGradient5419"
       xlink:href="#linearGradient1935" />
    <linearGradient
       id="linearGradient1935">
      <stop
         style="stop-color:#dbdbdb;stop-opacity:1"
         offset="0"
         id="stop1931" />
      <stop
         style="stop-color:#ffffff;stop-opacity:1"
         offset="1"
         id="stop1933" />
    </linearGradient>
  </defs>
  <metadata
     id="metadata2609">
    <rdf:RDF>
      <cc:Work
         rdf:about="">
        <dc:format>image/svg+xml</dc:format>
        <dc:type
           rdf:resource="http://purl.org/dc/dcmitype/StillImage" />
        <dc:title></dc:title>
      </cc:Work>
    </rdf:RDF>
  </metadata>
  <g
     transform="translate(0,-287.47498)"
     id="layer1">
    <path
       id="path5417"
       d="m 4.7625,287.47498 c -2.6309108,0 -4.762499940000012,2.1316 -4.762499940000012,4.7625 0,2.63089 2.131589140000011,4.7625 4.762499940000012,4.7625 2.6308896,0 4.7624999,-2.13161 4.7624999,-4.7625 0,-2.6309 -2.1316103,-4.7625 -4.7624999,-4.7625 z m -1.3177493,2.127 H 6.821805 c 0.1338289,0 0.2470123,0.11317 0.2470123,0.24701 v 3.45922 c 0,0.0824 -0.041516,0.15466 -0.093017,0.19585 -0.051501,0.15444 -0.051501,0.60733 0,0.77205 0.051501,0.0412 0.093017,0.1129 0.093017,0.185 v 0.16485 c 0,0.14413 -0.1131834,0.24701 -0.2470123,0.24701 H 3.4447507 c -0.5456397,0 -0.9880547,-0.44241 -0.9880547,-0.98805 v -3.29437 c 0,-0.54564 0.442415,-0.98857 0.9880547,-0.98857 z m 0.3911891,1.31775 c -0.041198,0 -0.061494,0.0311 -0.061494,0.062 v 0.20567 c 0,0.0412 0.020294,0.062 0.061494,0.062 h 2.1828124 c 0.030901,0 0.061495,-0.0208 0.061495,-0.062 v -0.20567 c 0,-0.0309 -0.030594,-0.062 -0.061495,-0.062 z m 0,0.65887 c -0.041198,0 -0.061494,0.0311 -0.061494,0.062 v 0.20567 c 0,0.0412 0.020294,0.062 0.061494,0.062 h 2.1828124 c 0.030901,0 0.061495,-0.0208 0.061495,-0.062 v -0.20567 c 0,-0.0309 -0.030594,-0.062 -0.061495,-0.062 z m -0.3911891,1.97662 c -0.1853116,0 -0.3291787,0.15468 -0.3291787,0.3297 0,0.18531 0.1438671,0.32918 0.3291787,0.32918 h 2.9341868 c -0.020611,-0.17501 -0.020611,-0.47357 0,-0.65888 z"
       style="font-style:normal;font-variant:normal;font-weight:normal;font-stretch:normal;font-size:7.64731169px;line-height:1.25;font-family:'Font Awesome 5 Free';-inkscape-font-specification:'Font Awesome 5 Free';letter-spacing:0px;word-spacing:0px;fill:url(#linearGradient5419);fill-opacity:1;stroke:none;stroke-width:0.2458065" />
  </g>
</svg>
