<?xml version="1.0" encoding="UTF-8" standalone="no"?>
<svg
   xmlns:dc="http://purl.org/dc/elements/1.1/"
   xmlns:cc="http://creativecommons.org/ns#"
   xmlns:rdf="http://www.w3.org/1999/02/22-rdf-syntax-ns#"
   xmlns:svg="http://www.w3.org/2000/svg"
   xmlns="http://www.w3.org/2000/svg"
   xmlns:xlink="http://www.w3.org/1999/xlink"
   id="svg2612"
   version="1.1"
   viewBox="0 0 9.5249998 9.5250003"
   height="36"
   width="36">
  <defs
     id="defs2606">
    <linearGradient
       gradientTransform="matrix(0.92903227,0,0,0.92903264,14.475685,113.33013)"
       gradientUnits="userSpaceOnUse"
       y2="188.97368"
       x2="-7.0113277"
       y1="196.21292"
       x1="-13.585616"
       id="linearGradient6239-0"
       xlink:href="#linearGradient1935" />
    <linearGradient
       id="linearGradient1935">
      <stop
         style="stop-color:#dbdbdb;stop-opacity:1"
         offset="0"
         id="stop1931" />
      <stop
         style="stop-color:#ffffff;stop-opacity:1"
         offset="1"
         id="stop1933" />
    </linearGradient>
  </defs>
  <metadata
     id="metadata2609">
    <rdf:RDF>
      <cc:Work
         rdf:about="">
        <dc:format>image/svg+xml</dc:format>
        <dc:type
           rdf:resource="http://purl.org/dc/dcmitype/StillImage" />
        <dc:title></dc:title>
      </cc:Work>
    </rdf:RDF>
  </metadata>
  <g
     transform="translate(0,-287.47498)"
     id="layer1">
    <path
       style="font-style:normal;font-variant:normal;font-weight:normal;font-stretch:normal;font-size:10.58333302px;line-height:1.25;font-family:'Font Awesome 5 Free';-inkscape-font-specification:'Font Awesome 5 Free';letter-spacing:0px;word-spacing:0px;display:inline;fill:url(#linearGradient6239-0);fill-opacity:1;stroke:none;stroke-width:0.2458065"
       d="m 4.7624998,287.47498 c -2.6309,0 -4.76249995,2.1508 -4.76249995,4.7625 0,2.6309 2.13159995,4.7625 4.76249995,4.7625 2.6116903,0 4.7625003,-2.1316 4.7625003,-4.7625 0,-2.6117 -2.15081,-4.7625 -4.7625003,-4.7625 z m 0.096,1.99718 c 0.9409803,0 1.9587703,0.74894 1.9587703,1.70912 0,1.28665 -1.40187,1.30585 -1.40187,1.78594 v 0.11522 c 0,0.13443 -0.096,0.23044 -0.230441,0.23044 H 4.3207999 c -0.13443,0 -0.23045,-0.096 -0.23045,-0.23044 v -0.15363 c 0,-0.69133 0.5185,-0.96018 0.90257,-1.19062 0.3456702,-0.19204 0.5569102,-0.30726 0.5569102,-0.55691 0,-0.34566 -0.42248,-0.55691 -0.7681403,-0.55691 -0.4416899,0 -0.6529301,0.21125 -0.94098,0.57611 -0.0768,0.096 -0.2304499,0.11524 -0.3264598,0.0384 l -0.5377101,-0.40327 c -0.096,-0.0768 -0.1152199,-0.21124 -0.0384,-0.30726 0.4416901,-0.67213 1.0178,-1.0562 1.9203701,-1.0562 z m -0.096,4.10957 c 0.4416803,0 0.8065503,0.36488 0.8065503,0.80656 0,0.46089 -0.36487,0.80655 -0.8065503,0.80655 -0.4608899,0 -0.80655,-0.34566 -0.80655,-0.80655 0,-0.44168 0.3456601,-0.80656 0.80655,-0.80656 z"
       id="path6228-8" />
  </g>
</svg>
