<?xml version="1.0" encoding="UTF-8" standalone="no"?>
<svg
   xmlns:dc="http://purl.org/dc/elements/1.1/"
   xmlns:cc="http://creativecommons.org/ns#"
   xmlns:rdf="http://www.w3.org/1999/02/22-rdf-syntax-ns#"
   xmlns:svg="http://www.w3.org/2000/svg"
   xmlns="http://www.w3.org/2000/svg"
   xmlns:xlink="http://www.w3.org/1999/xlink"
   xmlns:sodipodi="http://sodipodi.sourceforge.net/DTD/sodipodi-0.dtd"
   xmlns:inkscape="http://www.inkscape.org/namespaces/inkscape"
   id="svg2612"
   version="1.1"
   viewBox="0 0 9.5249998 9.5250003"
   height="36"
   width="36"
   sodipodi:docname="puzzles_viewport_inactive_button.svg"
   inkscape:version="0.92.4 (5da689c313, 2019-01-14)">
  <sodipodi:namedview
     pagecolor="#ffffff"
     bordercolor="#666666"
     borderopacity="1"
     objecttolerance="10"
     gridtolerance="10"
     guidetolerance="10"
     inkscape:pageopacity="0"
     inkscape:pageshadow="2"
     inkscape:window-width="1920"
     inkscape:window-height="1013"
     id="namedview7594"
     showgrid="false"
     inkscape:zoom="21.510417"
     inkscape:cx="18"
     inkscape:cy="18"
     inkscape:window-x="-9"
     inkscape:window-y="-9"
     inkscape:window-maximized="1"
     inkscape:current-layer="svg2612" />
  <defs
     id="defs2606">
    <linearGradient
       y2="99.237892"
       x2="339.22046"
       y1="105.25716"
       x1="333.53189"
       gradientTransform="matrix(4.8593949,0,0,4.8593949,-1612.888,-481.11122)"
       gradientUnits="userSpaceOnUse"
       id="linearGradient4851"
       xlink:href="#linearGradient3409" />
    <linearGradient
       id="linearGradient3409">
      <stop
         style="stop-color:#969696;stop-opacity:1"
         offset="0"
         id="stop3405" />
      <stop
         style="stop-color:#b8b8b8;stop-opacity:0.97"
         offset="1"
         id="stop3407" />
    </linearGradient>
  </defs>
  <metadata
     id="metadata2609">
    <rdf:RDF>
      <cc:Work
         rdf:about="">
        <dc:format>image/svg+xml</dc:format>
        <dc:type
           rdf:resource="http://purl.org/dc/dcmitype/StillImage" />
        <dc:title />
      </cc:Work>
    </rdf:RDF>
  </metadata>
  <g
     transform="translate(0,-287.47498)"
     id="layer1">
    <path
       id="path4849"
       transform="matrix(0.26458333,0,0,0.26458333,0,287.47498)"
       d="M 18 0 C 8.0564031 0 2.3684758e-15 8.0564787 0 18 C 0 27.943559 8.0564031 36 18 36 C 27.943521 36 36 27.943559 36 18 C 36 8.0564787 27.943521 0 18 0 z M 15.101562 6.8183594 L 20.853516 6.8183594 C 21.77381 6.8183594 22.601725 7.4167353 22.923828 8.2910156 L 23.521484 9.7617188 L 27.570312 9.7617188 C 28.766694 9.7617188 29.779297 10.774331 29.779297 11.970703 L 29.779297 25.222656 C 29.779297 26.465063 28.766694 27.431641 27.570312 27.431641 L 8.4296875 27.431641 C 7.1872906 27.431641 6.2207031 26.465063 6.2207031 25.222656 L 6.2207031 11.970703 C 6.2207031 10.774331 7.1872906 9.7617188 8.4296875 9.7617188 L 12.478516 9.7617188 L 13.03125 8.2910156 C 13.353353 7.4167353 14.181269 6.8183594 15.101562 6.8183594 z M 18 13.076172 C 14.917016 13.076172 12.478516 15.560692 12.478516 18.597656 C 12.478516 21.680655 14.917016 24.119141 18 24.119141 C 21.03697 24.119141 23.521484 21.680655 23.521484 18.597656 C 23.521484 15.560692 21.03697 13.076172 18 13.076172 z M 18 14.548828 C 20.208705 14.548828 22.048828 16.388938 22.048828 18.597656 C 22.048828 20.852371 20.208705 22.646484 18 22.646484 C 15.74528 22.646484 13.951172 20.852371 13.951172 18.597656 C 13.951172 16.388938 15.74528 14.548828 18 14.548828 z "
       style="font-style:normal;font-variant:normal;font-weight:normal;font-stretch:normal;font-size:7.64731169px;line-height:1.25;font-family:'Font Awesome 5 Free';-inkscape-font-specification:'Font Awesome 5 Free';letter-spacing:0px;word-spacing:0px;fill:url(#linearGradient4851);fill-opacity:1;stroke:none;stroke-width:0.92903274;opacity:0.6" />
  </g>
</svg>
