<?xml version="1.0" encoding="UTF-8" standalone="no"?>
<svg
   xmlns:dc="http://purl.org/dc/elements/1.1/"
   xmlns:cc="http://creativecommons.org/ns#"
   xmlns:rdf="http://www.w3.org/1999/02/22-rdf-syntax-ns#"
   xmlns:svg="http://www.w3.org/2000/svg"
   xmlns="http://www.w3.org/2000/svg"
   id="svg30184"
   version="1.1"
   viewBox="0 0 4.7625001 4.7625001"
   height="18"
   width="18">
  <defs
     id="defs30178" />
  <metadata
     id="metadata30181">
    <rdf:RDF>
      <cc:Work
         rdf:about="">
        <dc:format>image/svg+xml</dc:format>
        <dc:type
           rdf:resource="http://purl.org/dc/dcmitype/StillImage" />
        <dc:title></dc:title>
      </cc:Work>
    </rdf:RDF>
  </metadata>
  <g
     transform="translate(0,-292.2375)"
     id="layer1">
    <path
       d="m 2.38125,292.23751 c -1.3154486,0 -2.381250037252903,1.0658 -2.381250037252903,2.38125 0,1.31545 1.065801437252903,2.38125 2.381250037252903,2.38125 1.3154486,0 2.38125,-1.0658 2.38125,-2.38125 0,-1.31545 -1.0658014,-2.38125 -2.38125,-2.38125 z m 1.3826613,2.6501 c 0,0.0672 -0.057611,0.11522 -0.1152218,0.11522 H 2.7653226 v 0.88337 c 0,0.0672 -0.057611,0.11522 -0.1152218,0.11522 H 2.1123992 c -0.067213,0 -0.1152218,-0.048 -0.1152218,-0.11522 v -0.88337 H 1.1138105 c -0.067213,0 -0.11522181,-0.048 -0.11522181,-0.11522 v -0.5377 c 0,-0.0576 0.0480091,-0.11522 0.11522181,-0.11522 h 0.8833669 v -0.88337 c 0,-0.0576 0.048009,-0.11522 0.1152218,-0.11522 h 0.5377016 c 0.057611,0 0.1152218,0.0576 0.1152218,0.11522 v 0.88337 h 0.8833669 c 0.057611,0 0.1152218,0.0576 0.1152218,0.11522 z"
       style="font-style:normal;font-variant:normal;font-weight:normal;font-stretch:normal;font-size:4.91612911px;line-height:1.25;font-family:'Glyphicons IFX';-inkscape-font-specification:'Glyphicons IFX';letter-spacing:0px;word-spacing:0px;fill:#ffffff;fill-opacity:1;stroke:none;stroke-width:0.12290323"
       id="path3150" />
  </g>
</svg>
