<?xml version="1.0" encoding="UTF-8" standalone="no"?>
<svg
   xmlns:dc="http://purl.org/dc/elements/1.1/"
   xmlns:cc="http://creativecommons.org/ns#"
   xmlns:rdf="http://www.w3.org/1999/02/22-rdf-syntax-ns#"
   xmlns:svg="http://www.w3.org/2000/svg"
   xmlns="http://www.w3.org/2000/svg"
   xmlns:xlink="http://www.w3.org/1999/xlink"
   xmlns:sodipodi="http://sodipodi.sourceforge.net/DTD/sodipodi-0.dtd"
   xmlns:inkscape="http://www.inkscape.org/namespaces/inkscape"
   id="svg7309"
   version="1.1"
   viewBox="0 0 6.8791665 7.4083336"
   height="28"
   width="26"
   sodipodi:docname="app_icon_html_main.svg"
   inkscape:version="0.92.4 (5da689c313, 2019-01-14)">
  <sodipodi:namedview
     pagecolor="#ffffff"
     bordercolor="#666666"
     borderopacity="1"
     objecttolerance="10"
     gridtolerance="10"
     guidetolerance="10"
     inkscape:pageopacity="0"
     inkscape:pageshadow="2"
     inkscape:window-width="1920"
     inkscape:window-height="1013"
     id="namedview9721"
     showgrid="false"
     inkscape:zoom="16.041967"
     inkscape:cx="13.460261"
     inkscape:cy="19.884441"
     inkscape:window-x="-9"
     inkscape:window-y="-9"
     inkscape:window-maximized="1"
     inkscape:current-layer="svg7309" />
  <defs
     id="defs7303">
    <linearGradient
       gradientTransform="matrix(3.7234595,0,0,3.7795275,-827.60674,-374.16218)"
       gradientUnits="userSpaceOnUse"
       y2="99.473969"
       x2="228.73648"
       y1="105.27372"
       x1="224.1391"
       id="linearGradient2812"
       xlink:href="#linearGradient2810" />
    <linearGradient
       id="linearGradient2810">
      <stop
         id="stop2806"
         offset="0"
         style="stop-color:#1458ae;stop-opacity:1;" />
      <stop
         id="stop2808"
         offset="1"
         style="stop-color:#4388e0;stop-opacity:1" />
    </linearGradient>
  </defs>
  <metadata
     id="metadata7306">
    <rdf:RDF>
      <cc:Work
         rdf:about="">
        <dc:format>image/svg+xml</dc:format>
        <dc:type
           rdf:resource="http://purl.org/dc/dcmitype/StillImage" />
        <dc:title />
      </cc:Work>
    </rdf:RDF>
  </metadata>
  <path
     style="fill:url(#linearGradient2812);fill-opacity:1;stroke:none;stroke-width:0.97943246;stroke-miterlimit:4;stroke-dasharray:none;stroke-opacity:1"
     d="M 13.060547 0 C 11.274254 -0.0080503937 9.4852397 0.84082073 6.5507812 2.5429688 C 0.68193879 5.9472646 0.02978759 7.0801657 0 13.941406 C -0.029899389 20.802685 0.61226618 21.94153 6.4511719 25.398438 C 12.290078 28.855495 13.580376 28.861327 19.449219 25.457031 C 25.318024 22.052697 25.970217 20.919872 26 14.058594 C 26.029937 7.1973151 25.387734 6.0585075 19.548828 2.6015625 C 16.629338 0.87307117 14.846802 0.0075590551 13.060547 0 z M 13.029297 4.5292969 C 13.068986 4.5287296 13.107997 4.5284276 13.148438 4.5292969 C 15.674712 4.5873882 18.429517 7.3847347 19.863281 10.154297 C 21.324868 12.97768 22.1611 15.652388 21.816406 19.085938 C 21.666472 20.580815 20.243214 22.488714 18.539062 23.445312 C 18.901255 20.480388 18.697494 17.579774 18.039062 15.171875 C 17.380594 12.763976 15.414418 8.8592483 13.09375 8.8554688 C 10.77312 8.8502152 8.8088599 12.756164 8.1503906 15.164062 C 7.4921481 17.572001 7.2883119 20.472574 7.6503906 23.4375 C 5.9462395 22.480939 4.5230941 20.573004 4.3730469 19.078125 C 4.0286563 15.644575 4.8645908 12.971782 6.3261719 10.148438 C 7.7649624 7.3691993 10.533335 4.5595331 13.029297 4.5292969 z M 13.152344 12.777344 A 2.2912003 2.2912003 0 0 1 15.150391 13.988281 A 2.2912003 2.2912003 0 0 1 14.207031 17.089844 A 2.2912003 2.2912003 0 0 1 11.107422 16.146484 A 2.2912003 2.2912003 0 0 1 12.050781 13.046875 A 2.2912003 2.2912003 0 0 1 13.152344 12.777344 z "
     id="path10271"
     transform="scale(0.26458333)" />
</svg>
