<?xml version="1.0" encoding="UTF-8" standalone="no"?>
<svg
   xmlns:dc="http://purl.org/dc/elements/1.1/"
   xmlns:cc="http://creativecommons.org/ns#"
   xmlns:rdf="http://www.w3.org/1999/02/22-rdf-syntax-ns#"
   xmlns:svg="http://www.w3.org/2000/svg"
   xmlns="http://www.w3.org/2000/svg"
   xmlns:xlink="http://www.w3.org/1999/xlink"
   id="svg3641"
   version="1.1"
   viewBox="0 0 7.4083332 7.4083335"
   height="28"
   width="28">
  <defs
     id="defs3635">
    <linearGradient
       id="linearGradient2768">
      <stop
         id="stop2764"
         offset="0"
         style="stop-color:#414141;stop-opacity:1" />
      <stop
         id="stop2766"
         offset="1"
         style="stop-color:#767676;stop-opacity:1" />
    </linearGradient>
    <linearGradient
       gradientTransform="translate(0.53673494,-5.1971741)"
       gradientUnits="userSpaceOnUse"
       y2="99.237892"
       x2="339.22046"
       y1="105.25716"
       x1="333.53189"
       id="linearGradient4293"
       xlink:href="#linearGradient2768" />
    <linearGradient
       y2="99.237892"
       x2="339.22046"
       y1="105.25716"
       x1="333.53189"
       gradientTransform="matrix(3.7795276,0,0,3.7795276,-1254.4681,-374.19723)"
       gradientUnits="userSpaceOnUse"
       id="linearGradient4327"
       xlink:href="#linearGradient2768" />
  </defs>
  <metadata
     id="metadata3638">
    <rdf:RDF>
      <cc:Work
         rdf:about="">
        <dc:format>image/svg+xml</dc:format>
        <dc:type
           rdf:resource="http://purl.org/dc/dcmitype/StillImage" />
        <dc:title></dc:title>
      </cc:Work>
    </rdf:RDF>
  </metadata>
  <g
     transform="translate(0,-289.59165)"
     id="layer1">
    <path
       transform="matrix(0.26458333,0,0,0.26458333,0,289.59165)"
       id="path4332"
       d="M 14 0 C 6.2661289 0 7.1054274e-15 6.2661417 0 14 C 0 21.733896 6.2661289 28 14 28 C 21.733871 28 28 21.733896 28 14 C 28 6.2661417 21.733871 0 14 0 z M 13.978516 5.2636719 C 14.324282 5.2636719 14.676726 5.3905092 14.958984 5.6445312 L 22.412109 13.152344 C 22.976625 13.660388 22.976625 14.507755 22.412109 15.072266 L 21.791016 15.693359 C 21.282951 16.201403 20.379158 16.201078 19.871094 15.636719 L 15.806641 11.402344 L 15.806641 21.677734 C 15.806641 22.468071 15.185043 23.03125 14.451172 23.03125 L 13.548828 23.03125 C 12.758505 23.03125 12.193359 22.468071 12.193359 21.677734 L 12.193359 11.402344 L 8.0722656 15.636719 C 7.5642011 16.201229 6.6604083 16.201555 6.1523438 15.693359 L 5.5332031 15.072266 C 4.9686872 14.507755 4.9686872 13.660388 5.5332031 13.152344 L 13.041016 5.6445312 C 13.295048 5.3905092 13.632749 5.2636719 13.978516 5.2636719 z "
       style="font-style:normal;font-variant:normal;font-weight:normal;font-stretch:normal;font-size:7.64731169px;line-height:1.25;font-family:'Font Awesome 5 Free';-inkscape-font-specification:'Font Awesome 5 Free';letter-spacing:0px;word-spacing:0px;fill:url(#linearGradient4327);fill-opacity:1;stroke:none;stroke-width:0.72258067" />
  </g>
</svg>
