<?xml version="1.0" encoding="UTF-8" standalone="no"?>
<!-- Created with Inkscape (http://www.inkscape.org/) -->

<svg
   xmlns:dc="http://purl.org/dc/elements/1.1/"
   xmlns:cc="http://creativecommons.org/ns#"
   xmlns:rdf="http://www.w3.org/1999/02/22-rdf-syntax-ns#"
   xmlns:svg="http://www.w3.org/2000/svg"
   xmlns="http://www.w3.org/2000/svg"
   xmlns:xlink="http://www.w3.org/1999/xlink"
   xmlns:sodipodi="http://sodipodi.sourceforge.net/DTD/sodipodi-0.dtd"
   xmlns:inkscape="http://www.inkscape.org/namespaces/inkscape"
   width="26"
   height="28"
   viewBox="0 0 6.8791665 7.4083335"
   version="1.1"
   id="svg8497"
   inkscape:version="0.92.4 (5da689c313, 2019-01-14)"
   sodipodi:docname="app_icon_gltf.svg">
  <defs
     id="defs8491">
    <linearGradient
       inkscape:collect="always"
       xlink:href="#linearGradient2828"
       id="linearGradient2822"
       gradientUnits="userSpaceOnUse"
       x1="224.1391"
       y1="105.27372"
       x2="228.73648"
       y2="99.473969"
       gradientTransform="matrix(3.7234596,0,0,3.7795276,-827.60673,-374.16219)" />
    <linearGradient
       id="linearGradient2828"
       inkscape:collect="always">
      <stop
         id="stop2824"
         offset="0"
         style="stop-color:#6aae14;stop-opacity:1" />
      <stop
         id="stop2826"
         offset="1"
         style="stop-color:#ade043;stop-opacity:1" />
    </linearGradient>
  </defs>
  <sodipodi:namedview
     id="base"
     pagecolor="#ffffff"
     bordercolor="#666666"
     borderopacity="1.0"
     inkscape:pageopacity="0.0"
     inkscape:pageshadow="2"
     inkscape:zoom="30.146484"
     inkscape:cx="9.4540281"
     inkscape:cy="14.418777"
     inkscape:document-units="mm"
     inkscape:current-layer="layer1"
     showgrid="false"
     units="px"
     inkscape:window-width="1920"
     inkscape:window-height="1013"
     inkscape:window-x="-9"
     inkscape:window-y="-9"
     inkscape:window-maximized="1" />
  <metadata
     id="metadata8494">
    <rdf:RDF>
      <cc:Work
         rdf:about="">
        <dc:format>image/svg+xml</dc:format>
        <dc:type
           rdf:resource="http://purl.org/dc/dcmitype/StillImage" />
        <dc:title />
      </cc:Work>
    </rdf:RDF>
  </metadata>
  <g
     inkscape:label="Layer 1"
     inkscape:groupmode="layer"
     id="layer1"
     transform="translate(0,-289.59165)">
    <path
       style="fill:url(#linearGradient2822);fill-opacity:1;stroke:none;stroke-width:0.97943246;stroke-miterlimit:4;stroke-dasharray:none;stroke-opacity:1"
       d="M 13.060547 0 C 11.274254 -0.0080125999 9.4852397 0.84082069 6.5507812 2.5429688 C 0.68193872 5.9472647 0.02978758 7.0801656 0 13.941406 C -0.0298994 20.802685 0.61226597 21.94153 6.4511719 25.398438 C 12.290078 28.855495 13.580376 28.861327 19.449219 25.457031 C 25.318024 22.052697 25.970217 20.919872 26 14.058594 C 26.029937 7.1973148 25.387734 6.0585074 19.548828 2.6015625 C 16.629338 0.87310898 14.846802 0.0075590599 13.060547 0 z M 12.939453 5.1113281 C 13.313324 5.1113281 13.687197 5.219528 14.019531 5.4355469 L 19.535156 8.7578125 C 19.701455 8.8908519 19.701455 9.1560798 19.535156 9.2558594 L 12.955078 13.177734 L 6.3417969 9.2558594 C 6.1754977 9.1561554 6.1754977 8.8908519 6.3417969 8.7578125 L 11.859375 5.4355469 C 12.191709 5.219528 12.565582 5.1113281 12.939453 5.1113281 z M 5.21875 10.970703 C 5.260809 10.969103 5.3060811 10.980909 5.3476562 11.005859 L 11.894531 14.892578 L 11.894531 22.337891 C 11.894531 22.769173 11.42798 23.035175 11.0625 22.802734 L 6.0117188 19.746094 C 5.3802731 19.347316 4.9804687 18.615953 4.9804688 17.818359 L 4.9804688 11.238281 C 4.9804688 11.089179 5.0925728 10.975557 5.21875 10.970703 z M 20.751953 10.970703 C 20.887463 10.975403 21.019531 11.088612 21.019531 11.238281 L 21.019531 17.818359 C 21.019531 18.615953 20.586524 19.347316 19.955078 19.746094 L 14.904297 22.802734 C 14.538703 23.035364 14.105469 22.769924 14.105469 22.337891 L 14.105469 14.892578 L 20.619141 11.005859 C 20.660641 10.981009 20.706781 10.969133 20.751953 10.970703 z "
       transform="matrix(0.26458333,0,0,0.26458333,0,289.59165)"
       id="path9082" />
  </g>
</svg>
