<?xml version="1.0" encoding="UTF-8" standalone="no"?>
<!-- Created with Inkscape (http://www.inkscape.org/) -->

<svg
   xmlns:dc="http://purl.org/dc/elements/1.1/"
   xmlns:cc="http://creativecommons.org/ns#"
   xmlns:rdf="http://www.w3.org/1999/02/22-rdf-syntax-ns#"
   xmlns:svg="http://www.w3.org/2000/svg"
   xmlns="http://www.w3.org/2000/svg"
   xmlns:xlink="http://www.w3.org/1999/xlink"
   xmlns:sodipodi="http://sodipodi.sourceforge.net/DTD/sodipodi-0.dtd"
   xmlns:inkscape="http://www.inkscape.org/namespaces/inkscape"
   width="26"
   height="28"
   viewBox="0 0 6.8791665 7.4083335"
   version="1.1"
   id="svg7898"
   inkscape:version="0.92.4 (5da689c313, 2019-01-14)"
   sodipodi:docname="app_icon_html.svg">
  <defs
     id="defs7892">
    <linearGradient
       inkscape:collect="always"
       xlink:href="#linearGradient2810"
       id="linearGradient2908"
       gradientUnits="userSpaceOnUse"
       x1="224.1391"
       y1="105.27372"
       x2="228.73648"
       y2="99.473969"
       gradientTransform="matrix(3.7234596,0,0,3.7795276,-827.60673,-374.16219)" />
    <linearGradient
       inkscape:collect="always"
       id="linearGradient2810">
      <stop
         style="stop-color:#1458ae;stop-opacity:1;"
         offset="0"
         id="stop2806" />
      <stop
         style="stop-color:#4388e0;stop-opacity:1"
         offset="1"
         id="stop2808" />
    </linearGradient>
  </defs>
  <sodipodi:namedview
     id="base"
     pagecolor="#ffffff"
     bordercolor="#666666"
     borderopacity="1.0"
     inkscape:pageopacity="0.0"
     inkscape:pageshadow="2"
     inkscape:zoom="24.729539"
     inkscape:cx="5.056512"
     inkscape:cy="18.265457"
     inkscape:document-units="mm"
     inkscape:current-layer="layer1"
     showgrid="false"
     units="px"
     inkscape:window-width="1920"
     inkscape:window-height="1013"
     inkscape:window-x="-9"
     inkscape:window-y="-9"
     inkscape:window-maximized="1" />
  <metadata
     id="metadata7895">
    <rdf:RDF>
      <cc:Work
         rdf:about="">
        <dc:format>image/svg+xml</dc:format>
        <dc:type
           rdf:resource="http://purl.org/dc/dcmitype/StillImage" />
        <dc:title />
      </cc:Work>
    </rdf:RDF>
  </metadata>
  <g
     inkscape:label="Layer 1"
     inkscape:groupmode="layer"
     id="layer1"
     transform="translate(0,-289.59165)">
    <path
       style="fill:url(#linearGradient2908);fill-opacity:1;stroke:none;stroke-width:0.97943246;stroke-miterlimit:4;stroke-dasharray:none;stroke-opacity:1"
       d="M 13.060547 0 C 11.274254 -0.0080125999 9.4852397 0.84082069 6.5507812 2.5429688 C 0.68193872 5.9472647 0.02978758 7.0801656 0 13.941406 C -0.0298994 20.802685 0.61226597 21.94153 6.4511719 25.398438 C 12.290078 28.855495 13.580376 28.861327 19.449219 25.457031 C 25.318024 22.052697 25.970217 20.919872 26 14.058594 C 26.029937 7.1973148 25.387734 6.0585074 19.548828 2.6015625 C 16.629338 0.87310898 14.846802 0.0075590599 13.060547 0 z M 14.177734 6.390625 C 14.225564 6.384945 14.275084 6.3871948 14.328125 6.4023438 L 16.177734 6.9492188 C 16.359579 6.9795257 16.480537 7.1901922 16.419922 7.4023438 L 12.267578 21.648438 C 12.206958 21.830281 12.024652 21.95124 11.8125 21.890625 L 9.9648438 21.34375 C 9.7829995 21.283135 9.6620416 21.102777 9.7226562 20.890625 L 13.875 6.6445312 C 13.92046 6.5081482 14.034248 6.4076729 14.177734 6.390625 z M 8.1113281 9.6835938 C 8.2060391 9.6835938 8.2987603 9.7211068 8.359375 9.796875 L 9.6914062 11.222656 C 9.8429431 11.343886 9.8136464 11.584791 9.6621094 11.736328 L 6.9335938 14.130859 L 9.6621094 16.556641 C 9.8136462 16.708177 9.8429429 16.918777 9.6914062 17.070312 L 8.359375 18.496094 C 8.2381455 18.647631 7.9952869 18.647631 7.84375 18.496094 L 3.4785156 14.404297 C 3.3269788 14.25276 3.3269788 14.009901 3.4785156 13.888672 L 7.84375 9.796875 C 7.9195184 9.7211066 8.0166176 9.6835937 8.1113281 9.6835938 z M 18.029297 9.6835938 C 18.124007 9.6835938 18.22306 9.7211068 18.298828 9.796875 L 22.664062 13.888672 C 22.815599 14.009901 22.815599 14.283067 22.664062 14.404297 L 18.298828 18.496094 C 18.147291 18.647631 17.904433 18.647631 17.783203 18.496094 L 16.451172 17.070312 C 16.299635 16.918777 16.328929 16.708177 16.480469 16.556641 L 19.238281 14.130859 L 16.480469 11.736328 C 16.328932 11.584791 16.329945 11.342943 16.451172 11.191406 L 17.783203 9.796875 C 17.843813 9.721107 17.934586 9.6835937 18.029297 9.6835938 z "
       transform="matrix(0.26458333,0,0,0.26458333,0,289.59165)"
       id="path9654" />
  </g>
</svg>
