<?xml version="1.0" encoding="UTF-8" standalone="no"?>
<!-- Created with Inkscape (http://www.inkscape.org/) -->

<svg
   xmlns:dc="http://purl.org/dc/elements/1.1/"
   xmlns:cc="http://creativecommons.org/ns#"
   xmlns:rdf="http://www.w3.org/1999/02/22-rdf-syntax-ns#"
   xmlns:svg="http://www.w3.org/2000/svg"
   xmlns="http://www.w3.org/2000/svg"
   xmlns:xlink="http://www.w3.org/1999/xlink"
   xmlns:sodipodi="http://sodipodi.sourceforge.net/DTD/sodipodi-0.dtd"
   xmlns:inkscape="http://www.inkscape.org/namespaces/inkscape"
   width="28"
   height="28"
   viewBox="0 0 7.4083332 7.4083335"
   version="1.1"
   id="svg3641"
   inkscape:version="0.92.4 (5da689c313, 2019-01-14)"
   sodipodi:docname="app_icon_puzzles_edit.svg">
  <defs
     id="defs3635">
    <linearGradient
       inkscape:collect="always"
       xlink:href="#linearGradient2768"
       id="linearGradient2770"
       x1="2249.4343"
       y1="226.81467"
       x2="2268.79"
       y2="202.41948"
       gradientUnits="userSpaceOnUse"
       gradientTransform="matrix(0.26458333,0,0,0.26458333,-593.38548,236.23109)" />
    <linearGradient
       inkscape:collect="always"
       id="linearGradient2768">
      <stop
         style="stop-color:#414141;stop-opacity:1"
         offset="0"
         id="stop2764" />
      <stop
         style="stop-color:#767676;stop-opacity:1"
         offset="1"
         id="stop2766" />
    </linearGradient>
  </defs>
  <sodipodi:namedview
     id="base"
     pagecolor="#ffffff"
     bordercolor="#666666"
     borderopacity="1.0"
     inkscape:pageopacity="0.0"
     inkscape:pageshadow="2"
     inkscape:zoom="15.073242"
     inkscape:cx="7.301737"
     inkscape:cy="15.248013"
     inkscape:document-units="mm"
     inkscape:current-layer="layer1"
     showgrid="false"
     units="px"
     inkscape:window-width="1920"
     inkscape:window-height="1013"
     inkscape:window-x="-9"
     inkscape:window-y="-9"
     inkscape:window-maximized="1" />
  <metadata
     id="metadata3638">
    <rdf:RDF>
      <cc:Work
         rdf:about="">
        <dc:format>image/svg+xml</dc:format>
        <dc:type
           rdf:resource="http://purl.org/dc/dcmitype/StillImage" />
        <dc:title />
      </cc:Work>
    </rdf:RDF>
  </metadata>
  <g
     inkscape:label="Layer 1"
     inkscape:groupmode="layer"
     id="layer1"
     transform="translate(0,-289.59165)">
    <g
       id="g18162">
      <path
         id="path2042"
         d="m 3.7041658,289.59166 c -2.046261,0 -3.70416660905602,1.65791 -3.70416660905602,3.70416 0,2.04625 1.65790560905602,3.70417 3.70416660905602,3.70417 0.7772929,0 1.4977798,-0.24019 2.0934098,-0.64906 H 4.3175758 a 0.40003999,0.40003999 0 0 1 -0.3963723,-0.3514 c -0.057864,-0.46547 -0.085937,-0.98489 -0.1307306,-1.45314 -0.055245,0.0365 -0.060484,0.0277 -0.11938,0.0739 -0.1168929,0.0917 -0.2386277,0.1906 -0.37465,0.2775 -0.1360223,0.0869 -0.2887133,0.17983 -0.5157258,0.17984 -0.4170627,-4e-5 -0.7546711,-0.27146 -0.9611783,-0.60565 -0.2065338,-0.3342 -0.316283,-0.75627 -0.316283,-1.21491 0,-0.45865 0.1097492,-0.87865 0.316283,-1.21285 0.2065072,-0.33419 0.5441156,-0.60562 0.9611783,-0.60565 0.2271977,0 0.3760787,0.091 0.5115983,0.17622 0.1354931,0.0852 0.2570427,0.1821 0.373089,0.2713 0.1017058,0.0781 0.1012295,0.0737 0.1798372,0.11731 0.00582,-0.0642 0.015081,-0.10377 0.01905,-0.17777 0.019844,-0.35766 0.016933,-0.77402 0.056833,-1.07642 a 0.40003999,0.40003999 0 0 1 0.3963723,-0.34933 h 1.6923808 c -0.6328833,-0.5045 -1.4332214,-0.80822 -2.3057908,-0.80822 z"
         style="font-style:normal;font-variant:normal;font-weight:normal;font-stretch:normal;font-size:7.64731169px;line-height:1.25;font-family:'Font Awesome 5 Free';-inkscape-font-specification:'Font Awesome 5 Free';letter-spacing:0px;word-spacing:0px;fill:url(#linearGradient2770);fill-opacity:1;stroke:none;stroke-width:0.19118281"
         inkscape:connector-curvature="0" />
      <path
         id="path2029"
         d="m 4.6963533,291.20034 c -0.010319,0.2142 -0.018785,0.41401 -0.033073,0.67025 -0.010848,0.19461 -0.026458,0.37761 -0.060457,0.54467 -0.017198,0.0835 -0.036327,0.16229 -0.084243,0.2558 -0.047863,0.0935 -0.155919,0.24966 -0.3689615,0.27957 a 0.40003999,0.40003999 0 0 1 -0.0372,0.002 c -0.4539985,0.0217 -0.6940285,-0.24768 -0.9332912,-0.4315 -0.1196182,-0.0919 -0.2302405,-0.1766 -0.3126317,-0.2284 -0.055033,-0.0348 -0.095065,-0.0461 -0.1018117,-0.0501 -0.06686,0.006 -0.1605491,0.0555 -0.2635514,0.22221 -0.1108604,0.17939 -0.1969029,0.46767 -0.1968765,0.79271 -2.64e-5,0.32503 0.086016,0.61385 0.1968765,0.79324 0.103505,0.16746 0.1976702,0.21755 0.2645833,0.22376 0.00609,-0.004 0.043736,-0.015 0.098716,-0.0501 0.081386,-0.052 0.1920611,-0.13795 0.3126317,-0.23255 0.2411412,-0.18914 0.5031846,-0.45333 0.9415462,-0.46663 a 0.40003999,0.40003999 0 0 1 0.4004998,0.30489 c 0.1350963,0.55153 0.1286404,1.20147 0.1617398,1.72031 h 1.9585252 c 0.4804833,-0.62475 0.7689585,-1.40479 0.7689585,-2.25413 0,-0.77823 -0.2408502,-1.49943 -0.6506104,-2.09548 z"
         style="font-style:normal;font-variant:normal;font-weight:normal;font-stretch:normal;font-size:7.64731169px;line-height:1.25;font-family:'Font Awesome 5 Free';-inkscape-font-specification:'Font Awesome 5 Free';letter-spacing:0px;word-spacing:0px;fill:#7cc662;fill-opacity:1;stroke:none;stroke-width:0.19118281"
         inkscape:connector-curvature="0" />
    </g>
  </g>
</svg>
