<?xml version="1.0" encoding="UTF-8" standalone="no"?>
<!-- Created with Inkscape (http://www.inkscape.org/) -->

<svg
   xmlns:dc="http://purl.org/dc/elements/1.1/"
   xmlns:cc="http://creativecommons.org/ns#"
   xmlns:rdf="http://www.w3.org/1999/02/22-rdf-syntax-ns#"
   xmlns:svg="http://www.w3.org/2000/svg"
   xmlns="http://www.w3.org/2000/svg"
   xmlns:xlink="http://www.w3.org/1999/xlink"
   xmlns:sodipodi="http://sodipodi.sourceforge.net/DTD/sodipodi-0.dtd"
   xmlns:inkscape="http://www.inkscape.org/namespaces/inkscape"
   width="26"
   height="28"
   viewBox="0 0 6.8791665 7.4083335"
   version="1.1"
   id="svg2358"
   inkscape:version="0.92.4 (5da689c313, 2019-01-14)"
   sodipodi:docname="app_icon_max.svg">
  <defs
     id="defs2352">
    <linearGradient
       inkscape:collect="always"
       xlink:href="#linearGradient2179"
       id="linearGradient2173"
       x1="280.33704"
       y1="114.17751"
       x2="286.42523"
       y2="107.71946"
       gradientUnits="userSpaceOnUse"
       gradientTransform="translate(-279.65409,182.1279)" />
    <linearGradient
       id="linearGradient2179"
       inkscape:collect="always">
      <stop
         id="stop2175"
         offset="0"
         style="stop-color:#00a5b2;stop-opacity:1;" />
      <stop
         id="stop2177"
         offset="1"
         style="stop-color:#51dce8;stop-opacity:1" />
    </linearGradient>
    <linearGradient
       inkscape:collect="always"
       xlink:href="#linearGradient2179"
       id="linearGradient2969"
       gradientUnits="userSpaceOnUse"
       gradientTransform="matrix(3.7667948,0,0,3.7795276,-1053.3558,-406.1622)"
       x1="280.33704"
       y1="114.17751"
       x2="286.42523"
       y2="107.71946" />
  </defs>
  <sodipodi:namedview
     id="base"
     pagecolor="#ffffff"
     bordercolor="#666666"
     borderopacity="1.0"
     inkscape:pageopacity="0.0"
     inkscape:pageshadow="2"
     inkscape:zoom="15.073242"
     inkscape:cx="1.7880896"
     inkscape:cy="20.381163"
     inkscape:document-units="mm"
     inkscape:current-layer="layer1"
     showgrid="false"
     units="px"
     inkscape:window-width="1920"
     inkscape:window-height="1013"
     inkscape:window-x="-9"
     inkscape:window-y="-9"
     inkscape:window-maximized="1" />
  <metadata
     id="metadata2355">
    <rdf:RDF>
      <cc:Work
         rdf:about="">
        <dc:format>image/svg+xml</dc:format>
        <dc:type
           rdf:resource="http://purl.org/dc/dcmitype/StillImage" />
        <dc:title />
      </cc:Work>
    </rdf:RDF>
  </metadata>
  <g
     inkscape:label="Layer 1"
     inkscape:groupmode="layer"
     id="layer1"
     transform="translate(0,-289.59165)">
    <path
       style="font-style:normal;font-variant:normal;font-weight:normal;font-stretch:normal;font-size:5.46236563px;line-height:1.25;font-family:'Font Awesome 5 Free';-inkscape-font-specification:'Font Awesome 5 Free';letter-spacing:0px;word-spacing:0px;display:inline;fill:url(#linearGradient2969);fill-opacity:1;stroke:none;stroke-width:0.69884086"
       d="M 2.6152344 0 C 1.1436231 0 5.9211895e-16 1.2030661 0 2.625 L 0 25.375 C 0 26.851548 1.1436231 28 2.6152344 28 L 23.382812 28 C 24.800032 28 26 26.851548 26 25.375 L 26 7.21875 C 26 6.562435 25.669972 5.8515829 25.179688 5.359375 L 20.658203 0.765625 C 20.167766 0.27353051 19.458678 0 18.804688 0 L 2.6152344 0 z M 2.5800781 2.625 L 18.875 2.734375 L 23.416016 7.1445312 L 23.416016 25.375 L 2.5800781 25.375 L 2.5800781 2.625 z "
       id="path2965"
       transform="matrix(0.26458333,0,0,0.26458333,0,289.59165)" />
    <path
       style="font-style:normal;font-variant:normal;font-weight:normal;font-stretch:normal;font-size:5.46236563px;line-height:1.25;font-family:'Font Awesome 5 Free';-inkscape-font-specification:'Font Awesome 5 Free';letter-spacing:0px;word-spacing:0px;display:inline;fill:url(#linearGradient2173);fill-opacity:1;stroke:none;stroke-width:0.18521388"
       d="m 3.2455534,291.66646 c -0.2401901,0 -0.4710401,0.0394 -0.6924701,0.11782 -0.22146,0.0784 -0.40579,0.19573 -0.55398,0.35243 -0.1482,0.15501 -0.2222,0.32931 -0.2222,0.52348 0,0.0699 0.0227,0.13471 0.0687,0.19431 0.046,0.0596 0.10994,0.0894 0.19175,0.0894 h 0.30331 c 0.15333,0 0.26903,-0.0802 0.34573,-0.2403 0.1056,-0.20951 0.322,-0.31419 0.6490499,-0.31419 h 0.1886302 c 0.2265299,0 0.39131,0.0298 0.4935,0.0894 0.1039199,0.0579 0.1555399,0.15819 0.1555399,0.30127 0,0.14309 -0.0516,0.24478 -0.1555399,0.30438 -0.10219,0.0596 -0.2669701,0.0894 -0.4935,0.0894 H 3.1483833 c -0.063,0 -0.1173099,0.0245 -0.1633,0.0739 -0.046,0.0477 -0.0687,0.10288 -0.0687,0.16588 v 0.20929 c 0,0.0664 0.023601,0.12438 0.0713,0.17208 0.0477,0.046 0.1046699,0.0687 0.1710499,0.0687 h 0.45993 c 0.2095201,0 0.3628199,0.0298 0.4599202,0.0894 0.0971,0.0596 0.1457399,0.16077 0.1457399,0.30386 0,0.14308 -0.0486,0.24425 -0.1457399,0.30385 -0.0971,0.0596 -0.2504001,0.0899 -0.4599202,0.0899 H 3.2533234 c -0.3253801,0 -0.53345,-0.0973 -0.6237501,-0.29145 -0.0903,-0.19416 -0.21416,-0.29094 -0.37259,-0.29094 h -0.30126 c -0.0563,0 -0.11456,0.0213 -0.17414,0.0656 -0.0596,0.0426 -0.0894,0.11535 -0.0894,0.21755 0,0.3032 0.14978,0.54939 0.44958,0.73846 0.29978,0.18736 0.6405902,0.28112 1.0221701,0.28112 h 0.5446699 c 0.48376,0 0.8502899,-0.0867 1.10069,-0.26045 0.2521,-0.17545 0.37777,-0.46022 0.37777,-0.85369 0,-0.32364 -0.1330299,-0.56982 -0.4004998,-0.73846 0.2333699,-0.17714 0.35037,-0.42105 0.35037,-0.73277 0,-0.74607 -0.5130001,-1.11931 -1.5384201,-1.11931 h -0.35243 z"
       id="path2093" />
  </g>
</svg>
