<?xml version="1.0" encoding="UTF-8" standalone="no"?>
<svg
   xmlns:dc="http://purl.org/dc/elements/1.1/"
   xmlns:cc="http://creativecommons.org/ns#"
   xmlns:rdf="http://www.w3.org/1999/02/22-rdf-syntax-ns#"
   xmlns:svg="http://www.w3.org/2000/svg"
   xmlns="http://www.w3.org/2000/svg"
   xmlns:xlink="http://www.w3.org/1999/xlink"
   xmlns:sodipodi="http://sodipodi.sourceforge.net/DTD/sodipodi-0.dtd"
   xmlns:inkscape="http://www.inkscape.org/namespaces/inkscape"
   id="svg3389"
   version="1.1"
   viewBox="0 0 211.66666 42.333335"
   height="160"
   width="800"
   sodipodi:docname="banner.svg"
   inkscape:version="0.92.4 (5da689c313, 2019-01-14)">
  <sodipodi:namedview
     pagecolor="#ffffff"
     bordercolor="#666666"
     borderopacity="1"
     objecttolerance="10"
     gridtolerance="10"
     guidetolerance="10"
     inkscape:pageopacity="0"
     inkscape:pageshadow="2"
     inkscape:window-width="1920"
     inkscape:window-height="1013"
     id="namedview4624"
     showgrid="false"
     inkscape:zoom="1.6130334"
     inkscape:cx="402.30953"
     inkscape:cy="74.787945"
     inkscape:window-x="-9"
     inkscape:window-y="-9"
     inkscape:window-maximized="1"
     inkscape:current-layer="svg3389" />
  <defs
     id="defs3383">
    <linearGradient
       gradientUnits="userSpaceOnUse"
       y2="62.66238"
       x2="265.52728"
       y1="72.952255"
       x1="265.46716"
       id="linearGradient1695"
       xlink:href="#linearGradient2768"
       gradientTransform="translate(-148.24046,-46.92129)" />
    <linearGradient
       id="linearGradient2768">
      <stop
         id="stop2764"
         offset="0"
         style="stop-color:#414141;stop-opacity:1" />
      <stop
         id="stop2766"
         offset="1"
         style="stop-color:#767676;stop-opacity:1" />
    </linearGradient>
    <linearGradient
       gradientUnits="userSpaceOnUse"
       y2="62.66238"
       x2="265.52728"
       y1="72.952255"
       x1="265.46716"
       id="linearGradient3367"
       xlink:href="#linearGradient2768" />
    <linearGradient
       gradientUnits="userSpaceOnUse"
       y2="53.806618"
       x2="193.7847"
       y1="78.689407"
       x1="172.91336"
       id="linearGradient3079"
       xlink:href="#linearGradient3077"
       gradientTransform="translate(-148.24046,-45.8297)" />
    <linearGradient
       id="linearGradient3077">
      <stop
         id="stop3073"
         offset="0"
         style="stop-color:#0048a5;stop-opacity:1" />
      <stop
         id="stop3075"
         offset="1"
         style="stop-color:#4b86d1;stop-opacity:1" />
    </linearGradient>
  </defs>
  <metadata
     id="metadata3386">
    <rdf:RDF>
      <cc:Work
         rdf:about="">
        <dc:format>image/svg+xml</dc:format>
        <dc:type
           rdf:resource="http://purl.org/dc/dcmitype/StillImage" />
        <dc:title />
      </cc:Work>
    </rdf:RDF>
  </metadata>
  <g
     aria-label="Verge3D App Manager"
     style="font-style:normal;font-variant:normal;font-weight:normal;font-stretch:normal;font-size:10.58333302px;line-height:1.25;font-family:'Days One';-inkscape-font-specification:'Days One';letter-spacing:0px;word-spacing:0px;display:inline;fill:url(#linearGradient1695);fill-opacity:1;stroke:none;stroke-width:0.26458332"
     id="text823">
    <path
       d="m 52.992733,16.991217 q -0.03101,-0.06201 -0.03101,-0.134359 0,-0.07751 0.09302,-0.186035 0.09819,-0.113688 0.273885,-0.113688 h 1.131714 q 0.403076,0 0.614949,0.490926 l 1.999878,4.454508 1.999878,-4.454508 q 0.211873,-0.485759 0.614949,-0.490926 h 1.131714 q 0.180868,0 0.273885,0.113688 0.09302,0.108521 0.09302,0.186035 0,0.07235 -0.02584,0.134359 l -2.976563,6.449218 q -0.242879,0.5271 -0.738973,0.5271 h -0.74414 q -0.496094,0 -0.738973,-0.5271 z"
       style="font-style:normal;font-variant:normal;font-weight:normal;font-stretch:normal;font-size:10.58333302px;font-family:'Days One';-inkscape-font-specification:'Days One';fill:url(#linearGradient1695);fill-opacity:1;stroke-width:0.26458332"
       id="path5173" />
    <path
       d="m 62.051611,23.316412 q -0.795817,-0.754476 -0.795817,-2.17041 0,-1.421102 0.800985,-2.180745 0.800985,-0.764812 2.222086,-0.764812 1.421102,0 2.216919,0.744141 0.795817,0.738973 0.795817,2.123901 v 0.294556 q 0,0.139526 -0.09302,0.232544 -0.08785,0.08785 -0.227377,0.08785 h -3.891235 q 0.05168,0.63562 0.361735,0.925008 0.315226,0.289388 1.002523,0.289388 0.687297,0 0.940511,-0.310059 0.253215,-0.310058 0.625285,-0.315226 h 0.769979 q 0.139526,0 0.227376,0.09302 0.09302,0.08785 0.09302,0.227376 0,1.483114 -2.826701,1.477946 -1.42627,0 -2.222087,-0.754476 z m 1.018026,-2.723348 h 2.402954 Q 65.420915,19.3735 64.273698,19.3735 q -1.142049,0 -1.204061,1.219564 z"
       style="font-style:normal;font-variant:normal;font-weight:normal;font-stretch:normal;font-size:10.58333302px;font-family:'Days One';-inkscape-font-specification:'Days One';fill:url(#linearGradient1695);fill-opacity:1;stroke-width:0.26458332"
       id="path5175" />
    <path
       d="m 72.164688,19.61638 -0.795817,-0.03101 q -0.697632,0 -1.333252,0.764811 v 3.302124 q 0,0.139526 -0.09302,0.227376 -0.08785,0.08785 -0.222209,0.08785 h -1.157552 q -0.139526,0 -0.227376,-0.08785 -0.08785,-0.08785 -0.08785,-0.227376 v -5.028117 q 0,-0.139526 0.08785,-0.227376 0.09302,-0.09302 0.227376,-0.09302 h 1.157552 q 0.139526,0 0.227376,0.09302 0.08785,0.08785 0.08785,0.227376 v 0.325562 q 0.5271,-0.382406 1.012858,-0.563274 0.490926,-0.186035 1.281576,-0.186035 0.139526,0 0.227376,0.09302 0.09302,0.08785 0.09302,0.222209 v 0.785481 q 0,0.139527 -0.09302,0.227377 -0.08785,0.08785 -0.227376,0.08785 z"
       style="font-style:normal;font-variant:normal;font-weight:normal;font-stretch:normal;font-size:10.58333302px;font-family:'Days One';-inkscape-font-specification:'Days One';fill:url(#linearGradient1695);fill-opacity:1;stroke-width:0.26458332"
       id="path5177" />
    <path
       d="m 75.689022,23.533453 q -1.173055,0 -1.896525,-0.707967 -0.718302,-0.707967 -0.718302,-1.963704 0,-1.255738 0.821655,-1.958537 0.821655,-0.7028 2.356445,-0.7028 0.749308,0 1.555461,0.170533 0.806152,0.165364 1.214396,0.408243 v 4.785238 q 0,1.152384 -0.759644,1.700154 -0.759643,0.552938 -2.134236,0.552938 -1.369426,0 -2.113566,-0.346232 -0.738973,-0.341064 -0.738973,-1.131714 0,-0.139526 0.08785,-0.232544 0.09302,-0.08785 0.232544,-0.08785 h 0.769978 q 0.372071,0 0.594279,0.273886 0.284221,0.351399 1.007691,0.351399 0.728637,0 0.997355,-0.237711 0.268717,-0.237712 0.268717,-0.842326 V 23.32158 q -0.826823,0.211873 -1.545125,0.211873 z m 0.454753,-4.082438 q -1.224732,-0.0052 -1.224732,1.415934 0,1.415934 1.193726,1.415934 0.496093,0 1.121378,-0.155029 V 19.564703 Q 76.78973,19.445847 76.143775,19.451015 Z"
       style="font-style:normal;font-variant:normal;font-weight:normal;font-stretch:normal;font-size:10.58333302px;font-family:'Days One';-inkscape-font-specification:'Days One';fill:url(#linearGradient1695);fill-opacity:1;stroke-width:0.26458332"
       id="path5179" />
    <path
       d="m 80.773982,23.316412 q -0.795817,-0.754476 -0.795817,-2.17041 0,-1.421102 0.800985,-2.180745 0.800985,-0.764812 2.222086,-0.764812 1.421102,0 2.216919,0.744141 0.795817,0.738973 0.795817,2.123901 v 0.294556 q 0,0.139526 -0.09302,0.232544 -0.08785,0.08785 -0.227376,0.08785 h -3.891236 q 0.05168,0.63562 0.361735,0.925008 0.315227,0.289388 1.002523,0.289388 0.687297,0 0.940511,-0.310059 0.253215,-0.310058 0.625285,-0.315226 h 0.769979 q 0.139526,0 0.227376,0.09302 0.09302,0.08785 0.09302,0.227376 0,1.483114 -2.826701,1.477946 -1.42627,0 -2.222087,-0.754476 z m 1.018026,-2.723348 h 2.402954 Q 84.143286,19.3735 82.996069,19.3735 q -1.142049,0 -1.204061,1.219564 z"
       style="font-style:normal;font-variant:normal;font-weight:normal;font-stretch:normal;font-size:10.58333302px;font-family:'Days One';-inkscape-font-specification:'Days One';fill:url(#linearGradient1695);fill-opacity:1;stroke-width:0.26458332"
       id="path5181" />
    <path
       d="m 86.603085,21.946987 q 0,-0.310059 0.180867,-0.43925 0.180868,-0.134359 0.3514,-0.134359 h 0.609782 q 0.48059,0 0.754476,0.589112 0.273885,0.589111 1.260904,0.589111 h 0.738973 q 0.635621,0 0.930176,-0.180868 0.294556,-0.180867 0.294556,-0.614949 0,-0.434082 -0.294556,-0.61495 -0.294555,-0.180867 -0.930176,-0.180867 h -0.930175 q -0.201538,0 -0.346232,-0.139527 -0.144694,-0.144694 -0.144694,-0.346232 v -0.423746 q 0,-0.191203 0.139526,-0.335897 0.139526,-0.149862 0.330729,-0.149862 h 0.759644 q 0.687296,0 0.997355,-0.180867 0.315226,-0.180868 0.315226,-0.61495 0,-0.434082 -0.315226,-0.609782 -0.310059,-0.180867 -0.997355,-0.180867 h -0.382406 q -0.992187,0 -1.312581,0.63562 -0.232544,0.485758 -0.697632,0.485758 h -0.61495 q -0.248046,0 -0.387573,-0.180867 -0.139526,-0.180868 -0.139526,-0.392741 0,-0.589111 0.449585,-1.059367 0.449585,-0.475423 1.121378,-0.713135 0.671794,-0.237711 1.400432,-0.237711 h 0.713134 q 3.110921,0 3.110921,2.263427 0,0.945679 -0.707967,1.483114 0.81132,0.511597 0.81132,1.493449 0,1.193725 -0.764811,1.725993 -0.759643,0.527099 -2.227254,0.527099 h -1.100708 q -1.157552,0 -2.067057,-0.568441 -0.909505,-0.573608 -0.909505,-1.493448 z"
       style="font-style:normal;font-variant:normal;font-weight:normal;font-stretch:normal;font-size:10.58333302px;font-family:'Days One';-inkscape-font-specification:'Days One';fill:url(#linearGradient1695);fill-opacity:1;stroke-width:0.26458332"
       id="path5183" />
    <path
       d="m 94.726617,23.492112 v -6.433716 q 0,-0.211873 0.144694,-0.356567 0.144694,-0.144694 0.346232,-0.144694 h 2.888713 q 2.242754,0 3.260784,0.89917 1.02319,0.894002 1.02319,2.811198 0,1.912028 -1.02319,2.80603 -1.01803,0.894002 -3.260784,0.894002 h -2.888713 q -0.201538,0 -0.346232,-0.134359 -0.144694,-0.139526 -0.144694,-0.341064 z m 1.948202,-0.98702 h 1.374593 q 1.390096,0 1.891357,-0.506429 0.501261,-0.506429 0.501261,-1.73116 0,-1.229899 -0.501261,-1.736328 -0.501261,-0.511597 -1.891357,-0.511597 h -1.374593 z"
       style="font-style:normal;font-variant:normal;font-weight:normal;font-stretch:normal;font-size:10.58333302px;font-family:'Days One';-inkscape-font-specification:'Days One';fill:url(#linearGradient1695);fill-opacity:1;stroke-width:0.26458332"
       id="path5185" />
    <path
       d="m 106.53985,23.492112 1.29708,-4.919596 q 0.5271,-2.010214 3.43131,-2.015381 h 2.78536 q 0.19121,0 0.31523,0.144694 0.12919,0.144694 0.12919,0.335897 v 6.454386 q 0,0.201538 -0.14469,0.341064 -0.1447,0.134359 -0.34623,0.134359 h -0.97152 q -0.21188,0 -0.3514,-0.134359 -0.13436,-0.139526 -0.13436,-0.351399 v -1.302246 h -3.67419 l -0.34624,1.302246 q -0.0517,0.211873 -0.23254,0.351399 -0.18087,0.134359 -0.38241,0.134359 h -1.01802 q -0.20154,0 -0.28939,-0.113688 -0.0878,-0.118856 -0.0878,-0.206706 0.005,-0.08785 0.0207,-0.155029 z m 2.71818,-2.775024 h 3.29179 v -2.69751 h -1.47278 q -0.49609,0 -0.86816,0.28422 -0.36691,0.279053 -0.4961,0.754476 z"
       style="font-style:normal;font-variant:normal;font-weight:normal;font-stretch:normal;font-size:10.58333302px;font-family:'Days One';-inkscape-font-specification:'Days One';fill:url(#linearGradient1695);fill-opacity:1;stroke-width:0.26458332"
       id="path5187" />
    <path
       d="m 115.87261,25.393805 v -6.769613 q 0,-0.139526 0.0879,-0.227376 0.093,-0.09302 0.22738,-0.09302 h 0.99735 q 0.13436,0 0.22221,0.09302 0.093,0.08785 0.093,0.227376 v 0.155029 q 0.81649,-0.578776 1.89652,-0.578776 1.08004,0 1.80351,0.764812 0.72347,0.759643 0.72347,2.180745 0,1.415934 -0.74931,2.17041 -0.7493,0.754476 -2.02054,0.754476 -0.6563,0 -1.49345,-0.26355 v 1.586467 q 0,0.139526 -0.093,0.227376 -0.0879,0.09302 -0.22221,0.09302 h -1.15755 q -0.13436,0 -0.22738,-0.09302 -0.0879,-0.08785 -0.0879,-0.227376 z m 1.78801,-2.780192 q 0.66662,0.211873 1.12138,0.211873 0.70796,0 1.00252,-0.403076 0.29972,-0.403076 0.29972,-1.286743 0,-0.883667 -0.28422,-1.281576 -0.27905,-0.403076 -0.84233,-0.403076 -0.5581,0 -1.29707,0.465088 z"
       style="font-style:normal;font-variant:normal;font-weight:normal;font-stretch:normal;font-size:10.58333302px;font-family:'Days One';-inkscape-font-specification:'Days One';fill:url(#linearGradient1695);fill-opacity:1;stroke-width:0.26458332"
       id="path5189" />
    <path
       d="m 122.87994,25.393805 v -6.769613 q 0,-0.139526 0.0878,-0.227376 0.093,-0.09302 0.22738,-0.09302 h 0.99735 q 0.13436,0 0.22221,0.09302 0.093,0.08785 0.093,0.227376 v 0.155029 q 0.81649,-0.578776 1.89652,-0.578776 1.08004,0 1.80351,0.764812 0.72347,0.759643 0.72347,2.180745 0,1.415934 -0.74931,2.17041 -0.74931,0.754476 -2.02055,0.754476 -0.65629,0 -1.49345,-0.26355 v 1.586467 q 0,0.139526 -0.093,0.227376 -0.0878,0.09302 -0.22221,0.09302 h -1.15755 q -0.13436,0 -0.22738,-0.09302 -0.0878,-0.08785 -0.0878,-0.227376 z m 1.788,-2.780192 q 0.66663,0.211873 1.12138,0.211873 0.70797,0 1.00253,-0.403076 0.29972,-0.403076 0.29972,-1.286743 0,-0.883667 -0.28422,-1.281576 -0.27905,-0.403076 -0.84233,-0.403076 -0.5581,0 -1.29708,0.465088 z"
       style="font-style:normal;font-variant:normal;font-weight:normal;font-stretch:normal;font-size:10.58333302px;font-family:'Days One';-inkscape-font-specification:'Days One';fill:url(#linearGradient1695);fill-opacity:1;stroke-width:0.26458332"
       id="path5191" />
    <path
       d="m 133.69064,23.471441 v -6.413045 q 0,-0.211873 0.13953,-0.356567 0.13953,-0.144694 0.34107,-0.144694 h 2.10323 q 0.20153,0 0.3824,0.144694 0.18087,0.144694 0.24288,0.346232 l 1.52446,4.413167 1.52445,-4.413167 q 0.062,-0.201538 0.24288,-0.346232 0.18087,-0.144694 0.38241,-0.144694 h 2.10323 q 0.20153,0 0.33589,0.144694 0.13953,0.144694 0.13953,0.356567 v 6.413045 q 0,0.211874 -0.14469,0.356568 -0.13953,0.139526 -0.34107,0.139526 h -0.93018 q -0.20153,0 -0.34623,-0.139526 -0.13952,-0.144694 -0.13952,-0.356568 v -5.048787 l -1.82418,5.079793 q -0.0724,0.191203 -0.25322,0.330729 -0.18086,0.134359 -0.3824,0.134359 h -0.73897 q -0.20154,0 -0.38241,-0.134359 -0.1757,-0.139526 -0.25321,-0.330729 l -1.81902,-5.079793 v 5.048787 q 0,0.211874 -0.14469,0.356568 -0.13953,0.139526 -0.34106,0.139526 h -0.93018 q -0.20154,0 -0.34623,-0.139526 -0.1447,-0.144694 -0.1447,-0.356568 z"
       style="font-style:normal;font-variant:normal;font-weight:normal;font-stretch:normal;font-size:10.58333302px;font-family:'Days One';-inkscape-font-specification:'Days One';fill:url(#linearGradient1695);fill-opacity:1;stroke-width:0.26458332"
       id="path5193" />
    <path
       d="m 144.90443,23.595465 q -0.68213,-0.475423 -0.68213,-1.343587 0,-0.868165 0.68213,-1.333252 0.6873,-0.465088 1.76734,-0.465088 h 1.71049 q 0,-0.604615 -0.25322,-0.842326 -0.25321,-0.237712 -0.88883,-0.237712 -0.63045,0 -0.88884,0.315227 -0.25321,0.310058 -0.62528,0.310058 h -0.76998 q -0.13953,0 -0.23254,-0.08785 -0.0879,-0.09302 -0.0879,-0.227376 0,-1.483114 2.81636,-1.483114 1.2299,0 1.97404,0.552938 0.74414,0.54777 0.74414,1.700155 v 3.198771 q 0,0.139526 -0.0879,0.227376 -0.0879,0.08785 -0.22738,0.08785 h -0.99735 q -0.13953,0 -0.22738,-0.08785 -0.0879,-0.09302 -0.0879,-0.227376 v -0.160197 q -0.81648,0.583944 -1.88619,0.578776 -1.06453,0 -1.75183,-0.475423 z m 1.89136,-1.968872 q -0.36173,0 -0.57361,0.1757 -0.2067,0.175699 -0.2067,0.454752 0,0.279053 0.21704,0.45992 0.21704,0.180868 0.61495,0.180868 0.79581,0 1.53479,-0.465088 v -0.806152 z"
       style="font-style:normal;font-variant:normal;font-weight:normal;font-stretch:normal;font-size:10.58333302px;font-family:'Days One';-inkscape-font-specification:'Days One';fill:url(#linearGradient1695);fill-opacity:1;stroke-width:0.26458332"
       id="path5195" />
    <path
       d="m 151.44667,23.652309 v -5.028117 q 0,-0.139526 0.0878,-0.227376 0.093,-0.09302 0.22737,-0.09302 h 1.15755 q 0.13436,0 0.22221,0.09302 0.093,0.08785 0.093,0.227376 v 0.325562 q 0.88884,-0.749309 1.89136,-0.749309 1.00769,0 1.63814,0.61495 0.63045,0.609782 0.63045,1.870687 v 2.966227 q 0,0.134359 -0.093,0.227376 -0.0879,0.08785 -0.22738,0.08785 h -1.15238 q -0.13436,0 -0.22738,-0.08785 -0.0879,-0.09302 -0.0879,-0.227376 v -2.966227 q 0,-1.235067 -0.98702,-1.235067 -0.64596,0 -1.38493,0.738973 v 3.462321 q 0,0.134359 -0.093,0.227376 -0.0879,0.08785 -0.22221,0.08785 h -1.15755 q -0.13436,0 -0.22737,-0.08785 -0.0878,-0.09302 -0.0878,-0.227376 z"
       style="font-style:normal;font-variant:normal;font-weight:normal;font-stretch:normal;font-size:10.58333302px;font-family:'Days One';-inkscape-font-specification:'Days One';fill:url(#linearGradient1695);fill-opacity:1;stroke-width:0.26458332"
       id="path5197" />
    <path
       d="m 159.02244,23.595465 q -0.68213,-0.475423 -0.68213,-1.343587 0,-0.868165 0.68213,-1.333252 0.68729,-0.465088 1.76733,-0.465088 h 1.71049 q 0,-0.604615 -0.25321,-0.842326 -0.25322,-0.237712 -0.88884,-0.237712 -0.63045,0 -0.88883,0.315227 -0.25322,0.310058 -0.62529,0.310058 h -0.76998 q -0.13952,0 -0.23254,-0.08785 -0.0879,-0.09302 -0.0879,-0.227376 0,-1.483114 2.81636,-1.483114 1.2299,0 1.97404,0.552938 0.74415,0.54777 0.74415,1.700155 v 3.198771 q 0,0.139526 -0.0879,0.227376 -0.0879,0.08785 -0.22738,0.08785 h -0.99736 q -0.13952,0 -0.22737,-0.08785 -0.0879,-0.09302 -0.0879,-0.227376 v -0.160197 q -0.81649,0.583944 -1.88619,0.578776 -1.06454,0 -1.75183,-0.475423 z m 1.89135,-1.968872 q -0.36173,0 -0.5736,0.1757 -0.20671,0.175699 -0.20671,0.454752 0,0.279053 0.21704,0.45992 0.21704,0.180868 0.61495,0.180868 0.79582,0 1.53479,-0.465088 v -0.806152 z"
       style="font-style:normal;font-variant:normal;font-weight:normal;font-stretch:normal;font-size:10.58333302px;font-family:'Days One';-inkscape-font-specification:'Days One';fill:url(#linearGradient1695);fill-opacity:1;stroke-width:0.26458332"
       id="path5199" />
    <path
       d="m 167.8591,23.533453 q -1.17305,0 -1.89652,-0.707967 -0.7183,-0.707967 -0.7183,-1.963704 0,-1.255738 0.82165,-1.958537 0.82166,-0.7028 2.35645,-0.7028 0.74931,0 1.55546,0.170533 0.80615,0.165364 1.21439,0.408243 v 4.785238 q 0,1.152384 -0.75964,1.700154 -0.75964,0.552938 -2.13424,0.552938 -1.36942,0 -2.11356,-0.346232 -0.73898,-0.341064 -0.73898,-1.131714 0,-0.139526 0.0879,-0.232544 0.093,-0.08785 0.23255,-0.08785 h 0.76998 q 0.37207,0 0.59428,0.273886 0.28422,0.351399 1.00769,0.351399 0.72863,0 0.99735,-0.237711 0.26872,-0.237712 0.26872,-0.842326 V 23.32158 q -0.82682,0.211873 -1.54513,0.211873 z m 0.45476,-4.082438 q -1.22473,-0.0052 -1.22473,1.415934 0,1.415934 1.19372,1.415934 0.49609,0 1.12138,-0.155029 v -2.563151 q -0.44442,-0.118856 -1.09037,-0.113688 z"
       style="font-style:normal;font-variant:normal;font-weight:normal;font-stretch:normal;font-size:10.58333302px;font-family:'Days One';-inkscape-font-specification:'Days One';fill:url(#linearGradient1695);fill-opacity:1;stroke-width:0.26458332"
       id="path5201" />
    <path
       d="m 172.94406,23.316412 q -0.79581,-0.754476 -0.79581,-2.17041 0,-1.421102 0.80098,-2.180745 0.80098,-0.764812 2.22209,-0.764812 1.4211,0 2.21692,0.744141 0.79581,0.738973 0.79581,2.123901 v 0.294556 q 0,0.139526 -0.093,0.232544 -0.0879,0.08785 -0.22738,0.08785 h -3.89124 q 0.0517,0.63562 0.36174,0.925008 0.31522,0.289388 1.00252,0.289388 0.6873,0 0.94051,-0.310059 0.25322,-0.310058 0.62529,-0.315226 h 0.76998 q 0.13952,0 0.22737,0.09302 0.093,0.08785 0.093,0.227376 0,1.483114 -2.8267,1.477946 -1.42627,0 -2.22209,-0.754476 z m 1.01803,-2.723348 h 2.40295 q -0.0517,-1.219564 -1.19889,-1.219564 -1.14205,0 -1.20406,1.219564 z"
       style="font-style:normal;font-variant:normal;font-weight:normal;font-stretch:normal;font-size:10.58333302px;font-family:'Days One';-inkscape-font-specification:'Days One';fill:url(#linearGradient1695);fill-opacity:1;stroke-width:0.26458332"
       id="path5203" />
    <path
       d="m 183.06231,19.61638 -0.79582,-0.03101 q -0.69763,0 -1.33325,0.764811 v 3.302124 q 0,0.139526 -0.093,0.227376 -0.0878,0.08785 -0.2222,0.08785 h -1.15756 q -0.13952,0 -0.22737,-0.08785 -0.0879,-0.08785 -0.0879,-0.227376 v -5.028117 q 0,-0.139526 0.0879,-0.227376 0.093,-0.09302 0.22737,-0.09302 h 1.15756 q 0.13952,0 0.22737,0.09302 0.0879,0.08785 0.0879,0.227376 v 0.325562 q 0.5271,-0.382406 1.01286,-0.563274 0.49093,-0.186035 1.28157,-0.186035 0.13953,0 0.22738,0.09302 0.093,0.08785 0.093,0.222209 v 0.785481 q 0,0.139527 -0.093,0.227377 -0.0879,0.08785 -0.22738,0.08785 z"
       style="font-style:normal;font-variant:normal;font-weight:normal;font-stretch:normal;font-size:10.58333302px;font-family:'Days One';-inkscape-font-specification:'Days One';fill:url(#linearGradient1695);fill-opacity:1;stroke-width:0.26458332"
       id="path5205" />
  </g>
  <path
     inkscape:connector-curvature="0"
     style="display:inline;fill:url(#linearGradient3079);fill-opacity:1;stroke:none;stroke-width:0.79241812;stroke-miterlimit:4;stroke-dasharray:none;stroke-opacity:1"
     d="m 33.579025,7.46244 c -1.444202,-0.006 -2.8927,0.954 -6.250432,2.87281 -6.715469,3.83763 -6.251139,3.04159 -6.285399,10.77616 -0.0342,7.73458 -0.49148,6.93446 6.189731,10.83141 6.681208,3.89695 5.759659,3.89286 12.475109,0.0552 6.71548,-3.83762 6.251142,-3.04159 6.2854,-10.77616 0.0342,-7.73458 0.491479,-6.93445 -6.189729,-10.83141 C 36.463094,8.44198 35.023213,7.46879 33.579025,7.4624 Z m -0.0114,2.46174 c 1.45604,0.006 2.909041,0.70166 5.288781,2.08969 4.759459,2.77605 5.281721,3.6899 5.257299,9.19974 -0.02439,5.50983 -0.554698,6.419 -5.338558,9.15279 -4.783852,2.73378 -5.836402,2.7291 -10.595872,-0.0469 -4.75945,-2.77605 -5.28169,-3.6899 -5.2573,-9.19974 0.0245,-5.50984 0.5547,-6.41901 5.338569,-9.15279 2.391931,-1.3669 3.851042,-2.04919 5.307081,-2.04274 z m -0.1334,1.3965 c -2.330011,0.0296 -4.91517,2.65026 -6.25825,5.24472 -1.36441,2.63563 -2.145089,5.1317 -1.82359,8.33696 0.140001,1.39549 1.468821,3.17665 3.059652,4.06963 -0.338111,-2.76779 -0.147672,-5.47572 0.467008,-7.72353 0.61469,-2.24782 2.44942,-5.89506 4.61577,-5.89016 2.166371,0.005 4.00105,3.64903 4.61573,5.89685 0.614662,2.24781 0.805119,4.95574 0.467,7.72353 1.590839,-0.89298 2.919669,-2.6742 3.05966,-4.06969 0.321501,-3.20525 -0.45907,-5.70121 -1.823489,-8.33685 -1.338422,-2.58545 -3.910381,-5.19672 -6.268731,-5.25093 -0.0369,-8.2e-4 -0.0738,-9.8e-4 -0.11071,-5.3e-4 z m 0.113911,7.69891 a 2.1388648,2.1388648 0 0 0 -1.02798,0.25165 2.1388648,2.1388648 0 0 0 -0.88029,2.8939 2.1388648,2.1388648 0 0 0 2.893891,0.88029 2.1388648,2.1388648 0 0 0 0.880298,-2.8939 2.1388648,2.1388648 0 0 0 -1.865919,-1.13194 z"
     id="path6128" />
</svg>
