<?xml version="1.0" encoding="UTF-8" standalone="no"?>
<!-- Created with Inkscape (http://www.inkscape.org/) -->

<svg
   xmlns:dc="http://purl.org/dc/elements/1.1/"
   xmlns:cc="http://creativecommons.org/ns#"
   xmlns:rdf="http://www.w3.org/1999/02/22-rdf-syntax-ns#"
   xmlns:svg="http://www.w3.org/2000/svg"
   xmlns="http://www.w3.org/2000/svg"
   xmlns:xlink="http://www.w3.org/1999/xlink"
   xmlns:sodipodi="http://sodipodi.sourceforge.net/DTD/sodipodi-0.dtd"
   xmlns:inkscape="http://www.inkscape.org/namespaces/inkscape"
   width="90"
   height="90"
   viewBox="0 0 23.812499 23.812501"
   version="1.1"
   id="svg3522"
   inkscape:version="0.92.4 (5da689c313, 2019-01-14)"
   sodipodi:docname="delete_confirmation_window_icon.svg">
  <defs
     id="defs3516">
    <linearGradient
       inkscape:collect="always"
       xlink:href="#linearGradient2429"
       id="linearGradient3335-1"
       gradientUnits="userSpaceOnUse"
       gradientTransform="matrix(3.2142877,0,0,3.2142877,-1066.8579,-45.04734)"
       x1="333.53189"
       y1="105.25716"
       x2="339.22046"
       y2="99.237892" />
    <linearGradient
       id="linearGradient2429"
       inkscape:collect="always">
      <stop
         id="stop2425"
         offset="0"
         style="stop-color:#c50000;stop-opacity:1" />
      <stop
         id="stop2427"
         offset="1"
         style="stop-color:#f97070;stop-opacity:1" />
    </linearGradient>
  </defs>
  <sodipodi:namedview
     id="base"
     pagecolor="#ffffff"
     bordercolor="#666666"
     borderopacity="1.0"
     inkscape:pageopacity="0.0"
     inkscape:pageshadow="2"
     inkscape:zoom="4.59375"
     inkscape:cx="32.537926"
     inkscape:cy="47.336563"
     inkscape:document-units="mm"
     inkscape:current-layer="layer1"
     showgrid="false"
     units="px"
     inkscape:window-width="1920"
     inkscape:window-height="1013"
     inkscape:window-x="-9"
     inkscape:window-y="-9"
     inkscape:window-maximized="1" />
  <metadata
     id="metadata3519">
    <rdf:RDF>
      <cc:Work
         rdf:about="">
        <dc:format>image/svg+xml</dc:format>
        <dc:type
           rdf:resource="http://purl.org/dc/dcmitype/StillImage" />
        <dc:title></dc:title>
      </cc:Work>
    </rdf:RDF>
  </metadata>
  <g
     inkscape:label="Layer 1"
     inkscape:groupmode="layer"
     id="layer1"
     transform="translate(0,-273.18748)">
    <path
       inkscape:connector-curvature="0"
       id="path3331-1"
       d="m 11.906265,273.18748 c -6.5772,0 -11.90627,5.32903 -11.90627,11.90626 0,6.57724 5.32907,11.90624 11.90627,11.90624 6.57727,0 11.90624,-5.329 11.90624,-11.90624 0,-6.57723 -5.32897,-11.90626 -11.90624,-11.90626 z m -1.61286,4.78375 h 3.19917 c 0.22276,0 0.47337,0.16779 0.58472,0.39035 l 0.27739,0.49998 h 3.33868 c 0.22243,0 0.44512,0.22243 0.44512,0.44518 v 0.89029 c 0,0.2504 -0.22243,0.44518 -0.44512,0.44518 H 6.119295 c -0.25039,0 -0.44514,-0.19478 -0.44514,-0.44518 v -0.89029 c 0,-0.22243 0.19478,-0.44518 0.44514,-0.44518 h 3.33868 l 0.25071,-0.49998 c 0.0833,-0.22243 0.36213,-0.39035 0.58472,-0.39035 z m -3.72897,3.56124 h 10.68372 l -0.6113,9.43134 c -0.0289,0.69556 -0.63986,1.25241 -1.33543,1.25241 h -6.81687 c -0.69557,0 -1.30763,-0.55685 -1.33543,-1.25241 z"
       style="font-style:normal;font-variant:normal;font-weight:normal;font-stretch:normal;font-size:7.64731169px;line-height:1.25;font-family:'Font Awesome 5 Free';-inkscape-font-specification:'Font Awesome 5 Free';letter-spacing:0px;word-spacing:0px;display:inline;fill:url(#linearGradient3335-1);fill-opacity:1;stroke:none;stroke-width:0.6145165"
       inkscape:export-filename="D:\Repos\art\design\app_manager\maket\default\15_delete_application.png"
       inkscape:export-xdpi="96"
       inkscape:export-ydpi="96" />
  </g>
</svg>
