<?xml version="1.0" encoding="UTF-8" standalone="no"?>
<!-- Created with Inkscape (http://www.inkscape.org/) -->

<svg
   xmlns:dc="http://purl.org/dc/elements/1.1/"
   xmlns:cc="http://creativecommons.org/ns#"
   xmlns:rdf="http://www.w3.org/1999/02/22-rdf-syntax-ns#"
   xmlns:svg="http://www.w3.org/2000/svg"
   xmlns="http://www.w3.org/2000/svg"
   xmlns:xlink="http://www.w3.org/1999/xlink"
   xmlns:sodipodi="http://sodipodi.sourceforge.net/DTD/sodipodi-0.dtd"
   xmlns:inkscape="http://www.inkscape.org/namespaces/inkscape"
   width="82"
   height="90"
   viewBox="0 0 21.695833 23.812501"
   version="1.1"
   id="svg28974"
   inkscape:version="0.92.4 (5da689c313, 2019-01-14)"
   sodipodi:docname="about_image.svg">
  <defs
     id="defs28968">
    <linearGradient
       gradientTransform="matrix(0.86827477,0,0,0.86879752,-146.96864,226.88749)"
       inkscape:collect="always"
       xlink:href="#linearGradient1840"
       id="linearGradient3079-5"
       x1="172.91336"
       y1="78.689407"
       x2="193.7847"
       y2="53.806618"
       gradientUnits="userSpaceOnUse" />
    <linearGradient
       id="linearGradient1840"
       inkscape:collect="always">
      <stop
         id="stop1836"
         offset="0"
         style="stop-color:#aeaeae;stop-opacity:1" />
      <stop
         id="stop1838"
         offset="1"
         style="stop-color:#d8d8d8;stop-opacity:1" />
    </linearGradient>
  </defs>
  <sodipodi:namedview
     id="base"
     pagecolor="#ffffff"
     bordercolor="#666666"
     borderopacity="1.0"
     inkscape:pageopacity="0.0"
     inkscape:pageshadow="2"
     inkscape:zoom="6.4965435"
     inkscape:cx="15.128945"
     inkscape:cy="50.241479"
     inkscape:document-units="mm"
     inkscape:current-layer="layer1"
     showgrid="false"
     units="px"
     inkscape:window-width="1920"
     inkscape:window-height="1013"
     inkscape:window-x="-9"
     inkscape:window-y="-9"
     inkscape:window-maximized="1" />
  <metadata
     id="metadata28971">
    <rdf:RDF>
      <cc:Work
         rdf:about="">
        <dc:format>image/svg+xml</dc:format>
        <dc:type
           rdf:resource="http://purl.org/dc/dcmitype/StillImage" />
        <dc:title></dc:title>
      </cc:Work>
    </rdf:RDF>
  </metadata>
  <g
     inkscape:label="Layer 1"
     inkscape:groupmode="layer"
     id="layer1"
     transform="translate(0,-273.18749)">
    <path
       style="display:inline;fill:url(#linearGradient3079-5);fill-opacity:1;stroke:none;stroke-width:0.68824381;stroke-miterlimit:4;stroke-dasharray:none;stroke-opacity:1"
       d="m 10.90064,273.18759 c -1.2539539,-0.005 -2.5116567,0.82882 -5.4270915,2.49588 -5.8308595,3.33412 -5.42770222,2.64251 -5.45744432,9.36231 -0.02978207,6.71977 -0.42674307,6.02463 5.37437432,9.41029 5.8011365,3.38565 5.0009785,3.38212 10.8318375,0.0479 5.83087,-3.33412 5.427703,-2.64252 5.457445,-9.3623 0.02968,-6.71978 0.426743,-6.02464 -5.374385,-9.4103 -2.900573,-1.69283 -4.150781,-2.53833 -5.404736,-2.54389 z m -0.01,2.13875 c 1.264239,0.006 2.52584,0.60959 4.592116,1.8155 4.132522,2.41183 4.585989,3.20578 4.564781,7.99272 -0.02119,4.78693 -0.48164,5.57681 -4.635329,7.95192 -4.153699,2.37511 -5.067609,2.37104 -9.2001401,-0.0407 -4.132512,-2.41183 -4.585949,-3.20578 -4.5647718,-7.99271 0.021287,-4.78693 0.4816301,-5.57681 4.6353393,-7.95193 2.0768496,-1.18754 3.3437669,-1.78032 4.6080046,-1.77472 z m -0.11583,1.21326 c -2.0230911,0.0258 -4.2677197,2.30255 -5.4338776,4.5566 -1.1846868,2.28984 -1.8625287,4.45842 -1.5833768,7.24313 0.1215669,1.2124 1.2753322,2.75988 2.6566206,3.53569 -0.2935732,-2.40465 -0.1282228,-4.75729 0.4054959,-6.71019 0.5337187,-1.95289 2.1267596,-5.1216 4.0077559,-5.11735 1.880998,0.004 3.474009,3.17027 4.007717,5.12316 0.533689,1.9529 0.69906,4.30554 0.405486,6.71019 1.381279,-0.77581 2.535074,-2.32333 2.656621,-3.53573 0.279152,-2.78472 -0.3986,-4.9532 -1.583297,-7.24303 -1.1621,-2.24623 -3.395276,-4.51491 -5.442973,-4.562 -0.03208,-7.1e-4 -0.06416,-8.5e-4 -0.09614,-4.5e-4 z m 0.09894,6.6888 a 1.8571224,1.8582405 0 0 0 -0.8925613,0.21864 1.8571224,1.8582405 0 0 0 -0.7643299,2.51421 1.8571224,1.8582405 0 0 0 2.5126862,0.76479 1.8571224,1.8582405 0 0 0 0.76435,-2.51422 1.8571224,1.8582405 0 0 0 -1.620145,-0.98342 z"
       id="path6128-1"
       inkscape:connector-curvature="0"
       inkscape:export-filename="D:\Repos\art\design\app_manager\maket\08_about.png"
       inkscape:export-xdpi="96"
       inkscape:export-ydpi="96" />
  </g>
</svg>
