<?xml version="1.0" encoding="UTF-8" standalone="no"?>
<!-- Created with Inkscape (http://www.inkscape.org/) -->

<svg
   xmlns:dc="http://purl.org/dc/elements/1.1/"
   xmlns:cc="http://creativecommons.org/ns#"
   xmlns:rdf="http://www.w3.org/1999/02/22-rdf-syntax-ns#"
   xmlns:svg="http://www.w3.org/2000/svg"
   xmlns="http://www.w3.org/2000/svg"
   xmlns:xlink="http://www.w3.org/1999/xlink"
   xmlns:sodipodi="http://sodipodi.sourceforge.net/DTD/sodipodi-0.dtd"
   xmlns:inkscape="http://www.inkscape.org/namespaces/inkscape"
   width="90"
   height="90"
   viewBox="0 0 23.812499 23.812501"
   version="1.1"
   id="svg28239"
   inkscape:version="0.92.4 (5da689c313, 2019-01-14)"
   sodipodi:docname="help_image.svg">
  <defs
     id="defs28233">
    <linearGradient
       inkscape:collect="always"
       xlink:href="#linearGradient1840"
       id="linearGradient6239-6"
       x1="-13.585616"
       y1="196.21292"
       x2="-7.0113277"
       y2="188.97368"
       gradientUnits="userSpaceOnUse"
       gradientTransform="matrix(2.3225817,0,0,2.3225817,36.189269,-162.17463)" />
    <linearGradient
       id="linearGradient1840"
       inkscape:collect="always">
      <stop
         id="stop1836"
         offset="0"
         style="stop-color:#aeaeae;stop-opacity:1" />
      <stop
         id="stop1838"
         offset="1"
         style="stop-color:#d8d8d8;stop-opacity:1" />
    </linearGradient>
  </defs>
  <sodipodi:namedview
     id="base"
     pagecolor="#ffffff"
     bordercolor="#666666"
     borderopacity="1.0"
     inkscape:pageopacity="0.0"
     inkscape:pageshadow="2"
     inkscape:zoom="4.59375"
     inkscape:cx="26.175135"
     inkscape:cy="36.242707"
     inkscape:document-units="mm"
     inkscape:current-layer="layer1"
     showgrid="false"
     units="px"
     inkscape:window-width="1920"
     inkscape:window-height="1013"
     inkscape:window-x="-9"
     inkscape:window-y="-9"
     inkscape:window-maximized="1" />
  <metadata
     id="metadata28236">
    <rdf:RDF>
      <cc:Work
         rdf:about="">
        <dc:format>image/svg+xml</dc:format>
        <dc:type
           rdf:resource="http://purl.org/dc/dcmitype/StillImage" />
        <dc:title></dc:title>
      </cc:Work>
    </rdf:RDF>
  </metadata>
  <g
     inkscape:label="Layer 1"
     inkscape:groupmode="layer"
     id="layer1"
     transform="translate(0,-273.18748)">
    <path
       inkscape:connector-curvature="0"
       id="path6228-1"
       d="M 11.90625,273.18748 C 5.329,273.18748 0,278.56449 0,285.09373 c 0,6.57725 5.329,11.90625 11.90625,11.90625 6.52924,0 11.90625,-5.329 11.90625,-11.90625 0,-6.52924 -5.37701,-11.90625 -11.90625,-11.90625 z m 0.24004,4.99294 c 2.35245,0 4.89693,1.87235 4.89693,4.27282 0,3.2166 -3.50466,3.26462 -3.50466,4.46483 v 0.28807 c 0,0.33606 -0.24003,0.57609 -0.57612,0.57609 h -2.16039 c -0.33608,0 -0.57612,-0.24003 -0.57612,-0.57609 v -0.38408 c 0,-1.72833 1.29626,-2.40047 2.25643,-2.97656 0.86417,-0.4801 1.39226,-0.76815 1.39226,-1.39226 0,-0.86417 -1.05619,-1.39228 -1.92036,-1.39228 -1.1042,0 -1.63231,0.52811 -2.35245,1.44028 -0.19208,0.23992 -0.5761,0.2881 -0.81616,0.096 l -1.34424,-1.00818 c -0.24004,-0.19208 -0.28804,-0.52811 -0.096,-0.76815 1.1042,-1.68031 2.54448,-2.6405 4.80089,-2.6405 z m -0.24004,10.27395 c 1.1042,0 2.01638,0.91219 2.01638,2.01639 0,1.15221 -0.91218,2.01638 -2.01638,2.01638 -1.15221,0 -2.01638,-0.86417 -2.01638,-2.01638 0,-1.1042 0.86417,-2.01639 2.01638,-2.01639 z"
       style="font-style:normal;font-variant:normal;font-weight:normal;font-stretch:normal;font-size:10.58333302px;line-height:1.25;font-family:'Font Awesome 5 Free';-inkscape-font-specification:'Font Awesome 5 Free';letter-spacing:0px;word-spacing:0px;display:inline;opacity:1;fill:url(#linearGradient6239-6);fill-opacity:1;stroke:none;stroke-width:0.61451638"
       inkscape:export-filename="D:\Repos\art\design\app_manager\maket\07_help.png"
       inkscape:export-xdpi="96"
       inkscape:export-ydpi="96" />
  </g>
</svg>
