<?xml version="1.0" encoding="UTF-8" standalone="no"?>
<!-- Created with Inkscape (http://www.inkscape.org/) -->

<svg
   xmlns:dc="http://purl.org/dc/elements/1.1/"
   xmlns:cc="http://creativecommons.org/ns#"
   xmlns:rdf="http://www.w3.org/1999/02/22-rdf-syntax-ns#"
   xmlns:svg="http://www.w3.org/2000/svg"
   xmlns="http://www.w3.org/2000/svg"
   xmlns:xlink="http://www.w3.org/1999/xlink"
   xmlns:sodipodi="http://sodipodi.sourceforge.net/DTD/sodipodi-0.dtd"
   xmlns:inkscape="http://www.inkscape.org/namespaces/inkscape"
   width="26"
   height="28"
   viewBox="0 0 6.8791665 7.4083335"
   version="1.1"
   id="svg8497"
   inkscape:version="0.92.4 (5da689c313, 2019-01-14)"
   sodipodi:docname="gltf_icon.svg">
  <defs
     id="defs8491">
    <linearGradient
       inkscape:collect="always"
       xlink:href="#linearGradient2828"
       id="linearGradient2822"
       gradientUnits="userSpaceOnUse"
       x1="224.1391"
       y1="105.27372"
       x2="228.73648"
       y2="99.473969"
       gradientTransform="matrix(3.7234596,0,0,3.7795276,-827.60674,-374.16219)" />
    <linearGradient
       id="linearGradient2828"
       inkscape:collect="always">
      <stop
         id="stop2824"
         offset="0"
         style="stop-color:#6aae14;stop-opacity:1" />
      <stop
         id="stop2826"
         offset="1"
         style="stop-color:#ade043;stop-opacity:1" />
    </linearGradient>
  </defs>
  <sodipodi:namedview
     id="base"
     pagecolor="#ffffff"
     bordercolor="#666666"
     borderopacity="1.0"
     inkscape:pageopacity="0.0"
     inkscape:pageshadow="2"
     inkscape:zoom="18.375"
     inkscape:cx="4.1774793"
     inkscape:cy="14.077305"
     inkscape:document-units="mm"
     inkscape:current-layer="layer1"
     showgrid="false"
     units="px"
     inkscape:window-width="1920"
     inkscape:window-height="1013"
     inkscape:window-x="-9"
     inkscape:window-y="-9"
     inkscape:window-maximized="1" />
  <metadata
     id="metadata8494">
    <rdf:RDF>
      <cc:Work
         rdf:about="">
        <dc:format>image/svg+xml</dc:format>
        <dc:type
           rdf:resource="http://purl.org/dc/dcmitype/StillImage" />
        <dc:title></dc:title>
      </cc:Work>
    </rdf:RDF>
  </metadata>
  <g
     inkscape:label="Layer 1"
     inkscape:groupmode="layer"
     id="layer1"
     transform="translate(0,-289.59165)">
    <path
       style="fill:url(#linearGradient2822);fill-opacity:1;stroke:none;stroke-width:0.97943246;stroke-miterlimit:4;stroke-dasharray:none;stroke-opacity:1"
       d="M 13.060547,0 C 11.274254,-0.0080126 9.4852397,0.84082072 6.5507812,2.5429688 0.6819386,5.9472648 0.02978758,7.0801653 0,13.941406 -0.0298994,20.802685 0.61226592,21.94153 6.4511719,25.398438 12.290078,28.855496 13.580376,28.861327 19.449219,25.457031 25.318024,22.052697 25.970217,20.919872 26,14.058594 26.029937,7.197315 25.387734,6.0585074 19.548828,2.6015625 16.629338,0.87310896 14.846802,0.00755906 13.060547,0 Z"
       transform="matrix(0.26458333,0,0,0.26458333,0,289.59165)"
       id="path9082" />
    <path
       id="path2818"
       transform="matrix(0.26458333,0,0,0.26458333,0,289.59165)"
       style="fill:#ffffff;fill-opacity:1;stroke:none;stroke-width:0.97943246;stroke-miterlimit:4;stroke-dasharray:none;stroke-opacity:1"
       d="m 20.751953,10.970703 c 0.13551,0.0047 0.267578,0.117909 0.267578,0.267578 v 6.580078 c 0,0.797594 -0.433007,1.528957 -1.064453,1.927735 l -5.050781,3.05664 c -0.365594,0.23263 -0.798828,-0.03281 -0.798828,-0.464843 v -7.445313 l 6.513672,-3.886719 c 0.0415,-0.02485 0.08764,-0.03673 0.132812,-0.03516 z m -15.533203,0 c 0.042059,-0.0016 0.087331,0.01021 0.1289062,0.03516 l 6.5468748,3.886719 v 7.445313 c 0,0.431282 -0.466551,0.697284 -0.832031,0.464843 l -5.0507812,-3.05664 c -0.6314457,-0.398778 -1.03125,-1.130141 -1.03125,-1.927735 v -6.580078 c 0,-0.149102 0.112104,-0.262724 0.2382812,-0.267578 z m 7.720703,-5.8593749 c 0.373871,0 0.747744,0.1081999 1.080078,0.3242188 l 5.515625,3.3222656 c 0.166299,0.1330394 0.166299,0.3982673 0,0.4980469 L 12.955078,13.177734 6.3417969,9.2558594 c -0.1662992,-0.099704 -0.1662992,-0.3650075 0,-0.4980469 L 11.859375,5.4355469 C 12.191709,5.219528 12.565582,5.1113281 12.939453,5.1113281 Z" />
  </g>
</svg>
