<?xml version="1.0" encoding="UTF-8" standalone="no"?>
<!-- Created with Inkscape (http://www.inkscape.org/) -->

<svg
   xmlns:dc="http://purl.org/dc/elements/1.1/"
   xmlns:cc="http://creativecommons.org/ns#"
   xmlns:rdf="http://www.w3.org/1999/02/22-rdf-syntax-ns#"
   xmlns:svg="http://www.w3.org/2000/svg"
   xmlns="http://www.w3.org/2000/svg"
   xmlns:xlink="http://www.w3.org/1999/xlink"
   xmlns:sodipodi="http://sodipodi.sourceforge.net/DTD/sodipodi-0.dtd"
   xmlns:inkscape="http://www.inkscape.org/namespaces/inkscape"
   width="28"
   height="28"
   viewBox="0 0 7.408333 7.4083336"
   version="1.1"
   id="svg28239"
   inkscape:version="0.92.4 (5da689c313, 2019-01-14)"
   sodipodi:docname="help_webgl_report_icon.svg">
  <defs
     id="defs28233">
    <linearGradient
       inkscape:collect="always"
       xlink:href="#linearGradient2768"
       id="linearGradient7999"
       gradientUnits="userSpaceOnUse"
       gradientTransform="translate(-331.91132,190.58528)"
       x1="333.53189"
       y1="105.25716"
       x2="339.22046"
       y2="99.237892" />
    <linearGradient
       inkscape:collect="always"
       id="linearGradient2768">
      <stop
         style="stop-color:#414141;stop-opacity:1"
         offset="0"
         id="stop2764" />
      <stop
         style="stop-color:#767676;stop-opacity:1"
         offset="1"
         id="stop2766" />
    </linearGradient>
  </defs>
  <sodipodi:namedview
     id="base"
     pagecolor="#ffffff"
     bordercolor="#666666"
     borderopacity="1.0"
     inkscape:pageopacity="0.0"
     inkscape:pageshadow="2"
     inkscape:zoom="12.993087"
     inkscape:cx="27.420561"
     inkscape:cy="13.057695"
     inkscape:document-units="mm"
     inkscape:current-layer="layer1"
     showgrid="false"
     units="px"
     inkscape:window-width="1920"
     inkscape:window-height="1013"
     inkscape:window-x="-9"
     inkscape:window-y="-9"
     inkscape:window-maximized="1" />
  <metadata
     id="metadata28236">
    <rdf:RDF>
      <cc:Work
         rdf:about="">
        <dc:format>image/svg+xml</dc:format>
        <dc:type
           rdf:resource="http://purl.org/dc/dcmitype/StillImage" />
        <dc:title></dc:title>
      </cc:Work>
    </rdf:RDF>
  </metadata>
  <g
     inkscape:label="Layer 1"
     inkscape:groupmode="layer"
     id="layer1"
     transform="translate(0,-289.59165)">
    <path
       style="font-style:normal;font-variant:normal;font-weight:normal;font-stretch:normal;font-size:7.64731169px;line-height:1.25;font-family:'Font Awesome 5 Free';-inkscape-font-specification:'Font Awesome 5 Free';letter-spacing:0px;word-spacing:0px;display:inline;fill:url(#linearGradient7999);fill-opacity:1;stroke:none;stroke-width:0.19118281"
       d="m 3.7041617,289.59165 c -2.0462601,0 -3.7041601,1.65792 -3.7041601,3.70417 0,2.04625 1.6579,3.70417 3.7041601,3.70417 2.0462599,0 3.7041701,-1.65792 3.7041701,-3.70417 0,-2.04625 -1.6579102,-3.70417 -3.7041701,-3.70417 z"
       id="path7997"
       inkscape:connector-curvature="0" />
    <path
       id="path7972"
       style="font-style:normal;font-variant:normal;font-weight:normal;font-stretch:normal;font-size:7.64731169px;line-height:1.25;font-family:'Font Awesome 5 Free';-inkscape-font-specification:'Font Awesome 5 Free';letter-spacing:0px;word-spacing:0px;display:inline;fill:#f2f2f2;fill-opacity:1;stroke:none;stroke-width:0.17481573"
       d="m 2.7189517,292.29503 v 0.93513 c 0,0.30912 0.24706,0.55663 0.5561799,0.55663 0.3013699,0 0.5566201,-0.24751 0.5566201,-0.55663 v -0.43284 h 1.1742399 c 0.1004501,0 0.18568,0.0852 0.18568,0.18571 v 0.37093 c 0,0.10819 -0.0852,0.18523 -0.18568,0.18523 h -0.0615 v 0.49473 c 0,0.13911 -0.1162399,0.2476 -0.2476097,0.2476 H 4.5735616 c 0,0.27822 -0.2242698,0.49427 -0.4947499,0.49427 h -1.05892 l -0.7957401,0.46354 c -0.12365,0.0696 -0.27067,0.031 -0.3402,-0.0926 l -0.61807,-1.06649 c -0.0696,-0.11592 -0.031,-0.27019 0.0926,-0.33974 l 0.61806,-0.35582 v -0.36289 c 0,-0.17774 0.085,-0.34027 0.23956,-0.42528 z m 2.56393,-0.97481 c 0.0935,-0.0131 0.18883,0.0303 0.2409899,0.11718 l 0.6185202,1.07405 c 0.0696,0.11592 0.0309,0.27067 -0.085,0.34021 l -0.61855,0.35535 v -0.22398 c 0,-0.23184 -0.201,-0.43283 -0.43282,-0.43283 H 3.5841816 v 0.67996 c 0,0.17774 -0.13902,0.30903 -0.3090199,0.30903 -0.17775,0 -0.30905,-0.13129 -0.30905,-0.30903 v -0.9734 c 0,-0.085 0.0385,-0.16249 0.1157701,-0.20885 l 0.2551699,-0.16208 c 0.0773,-0.0464 0.1699999,-0.0774 0.26274,-0.0774 h 0.78817 l 0.8037398,-0.45598 c 0.029,-0.0174 0.0601,-0.0278 0.0912,-0.0321 z"
       inkscape:connector-curvature="0" />
  </g>
</svg>
