<?xml version="1.0" encoding="UTF-8" standalone="no"?>
<!-- Created with Inkscape (http://www.inkscape.org/) -->

<svg
   xmlns:dc="http://purl.org/dc/elements/1.1/"
   xmlns:cc="http://creativecommons.org/ns#"
   xmlns:rdf="http://www.w3.org/1999/02/22-rdf-syntax-ns#"
   xmlns:svg="http://www.w3.org/2000/svg"
   xmlns="http://www.w3.org/2000/svg"
   xmlns:xlink="http://www.w3.org/1999/xlink"
   xmlns:sodipodi="http://sodipodi.sourceforge.net/DTD/sodipodi-0.dtd"
   xmlns:inkscape="http://www.inkscape.org/namespaces/inkscape"
   width="28"
   height="28"
   viewBox="0 0 7.408333 7.4083336"
   version="1.1"
   id="svg28239"
   inkscape:version="0.92.4 (5da689c313, 2019-01-14)"
   sodipodi:docname="help_manual_icon.svg">
  <defs
     id="defs28233">
    <linearGradient
       inkscape:collect="always"
       xlink:href="#linearGradient2768"
       id="linearGradient7967"
       gradientUnits="userSpaceOnUse"
       gradientTransform="translate(-331.91132,190.58528)"
       x1="333.53189"
       y1="105.25716"
       x2="339.22046"
       y2="99.237892" />
    <linearGradient
       inkscape:collect="always"
       id="linearGradient2768">
      <stop
         style="stop-color:#414141;stop-opacity:1"
         offset="0"
         id="stop2764" />
      <stop
         style="stop-color:#767676;stop-opacity:1"
         offset="1"
         id="stop2766" />
    </linearGradient>
  </defs>
  <sodipodi:namedview
     id="base"
     pagecolor="#ffffff"
     bordercolor="#666666"
     borderopacity="1.0"
     inkscape:pageopacity="0.0"
     inkscape:pageshadow="2"
     inkscape:zoom="12.993087"
     inkscape:cx="19.416305"
     inkscape:cy="13.981263"
     inkscape:document-units="mm"
     inkscape:current-layer="layer1"
     showgrid="false"
     units="px"
     inkscape:window-width="1920"
     inkscape:window-height="1013"
     inkscape:window-x="-9"
     inkscape:window-y="-9"
     inkscape:window-maximized="1" />
  <metadata
     id="metadata28236">
    <rdf:RDF>
      <cc:Work
         rdf:about="">
        <dc:format>image/svg+xml</dc:format>
        <dc:type
           rdf:resource="http://purl.org/dc/dcmitype/StillImage" />
        <dc:title></dc:title>
      </cc:Work>
    </rdf:RDF>
  </metadata>
  <g
     inkscape:label="Layer 1"
     inkscape:groupmode="layer"
     id="layer1"
     transform="translate(0,-289.59165)">
    <path
       style="font-style:normal;font-variant:normal;font-weight:normal;font-stretch:normal;font-size:7.64731169px;line-height:1.25;font-family:'Font Awesome 5 Free';-inkscape-font-specification:'Font Awesome 5 Free';letter-spacing:0px;word-spacing:0px;display:inline;fill:url(#linearGradient7967);fill-opacity:1;stroke:none;stroke-width:0.19118281"
       d="m 3.7041617,289.59166 c -2.0462601,0 -3.7041601,1.65791 -3.7041601,3.70416 0,2.04624 1.6579,3.70416 3.7041601,3.70416 2.0462599,0 3.7041701,-1.65792 3.7041701,-3.70416 0,-2.04625 -1.6579102,-3.70416 -3.7041701,-3.70416 z"
       id="path8009"
       inkscape:connector-curvature="0" />
    <g
       transform="translate(-227.52964,193.54054)"
       aria-label=""
       style="font-style:normal;font-variant:normal;font-weight:normal;font-stretch:normal;font-size:3.98954797px;line-height:1.25;font-family:'Glyphicons IFX';-inkscape-font-specification:'Glyphicons IFX';letter-spacing:0px;word-spacing:0px;display:inline;fill:#f2f2f2;fill-opacity:1;stroke:none;stroke-width:0.0997387"
       id="text7979">
      <path
         inkscape:connector-curvature="0"
         d="m 232.97923,100.56567 v -2.618141 c 0,-0.101297 -0.0857,-0.18701 -0.18701,-0.18701 h -2.55581 c -0.41298,0 -0.74804,0.33506 -0.74804,0.74804 v 2.493471 c 0,0.41298 0.33506,0.74804 0.74804,0.74804 h 2.55581 c 0.10129,0 0.18701,-0.0779 0.18701,-0.18701 v -0.12468 c 0,-0.0545 -0.0312,-0.10909 -0.0701,-0.14025 -0.039,-0.12468 -0.039,-0.46753 0,-0.58441 0.039,-0.0312 0.0701,-0.0857 0.0701,-0.14805 z m -2.49347,-1.761012 c 0,-0.02338 0.0156,-0.04675 0.0468,-0.04675 h 1.65192 c 0.0234,0 0.0468,0.02338 0.0468,0.04675 V 98.9605 c 0,0.03117 -0.0234,0.04675 -0.0468,0.04675 h -1.65192 c -0.0312,0 -0.0468,-0.01559 -0.0468,-0.04675 z m 0,0.498694 c 0,-0.02338 0.0156,-0.04675 0.0468,-0.04675 h 1.65192 c 0.0234,0 0.0468,0.02338 0.0468,0.04675 v 0.155842 c 0,0.03117 -0.0234,0.04675 -0.0468,0.04675 h -1.65192 c -0.0312,0 -0.0468,-0.01558 -0.0468,-0.04675 z m 1.9714,1.948018 h -2.22075 c -0.14025,0 -0.24934,-0.10909 -0.24934,-0.24934 0,-0.13247 0.10909,-0.24935 0.24934,-0.24935 h 2.22075 c -0.0156,0.14026 -0.0156,0.36623 0,0.49869 z"
         style="fill:#f2f2f2;fill-opacity:1;stroke-width:0.0997387"
         id="path28819" />
    </g>
  </g>
</svg>
