<?xml version="1.0" encoding="UTF-8" standalone="no"?>
<!-- Created with Inkscape (http://www.inkscape.org/) -->

<svg
   xmlns:dc="http://purl.org/dc/elements/1.1/"
   xmlns:cc="http://creativecommons.org/ns#"
   xmlns:rdf="http://www.w3.org/1999/02/22-rdf-syntax-ns#"
   xmlns:svg="http://www.w3.org/2000/svg"
   xmlns="http://www.w3.org/2000/svg"
   xmlns:xlink="http://www.w3.org/1999/xlink"
   xmlns:sodipodi="http://sodipodi.sourceforge.net/DTD/sodipodi-0.dtd"
   xmlns:inkscape="http://www.inkscape.org/namespaces/inkscape"
   width="14"
   height="16"
   viewBox="0 0 3.7041665 4.2333332"
   version="1.1"
   id="svg25997"
   inkscape:version="0.92.4 (5da689c313, 2019-01-14)"
   sodipodi:docname="network_directory_archive_file.svg">
  <defs
     id="defs25991">
    <linearGradient
       id="linearGradient2940"
       inkscape:collect="always">
      <stop
         id="stop2936"
         offset="0"
         style="stop-color:#cea909;stop-opacity:1" />
      <stop
         id="stop2938"
         offset="1"
         style="stop-color:#fbe983;stop-opacity:1" />
    </linearGradient>
    <linearGradient
       inkscape:collect="always"
       xlink:href="#linearGradient2940"
       id="linearGradient26788"
       gradientUnits="userSpaceOnUse"
       gradientTransform="matrix(0.53640616,0,0,0.57142789,-145.17676,236.19699)"
       x1="271.58212"
       y1="105.50758"
       x2="277.73929"
       y2="99.099792" />
  </defs>
  <sodipodi:namedview
     id="base"
     pagecolor="#ffffff"
     bordercolor="#666666"
     borderopacity="1.0"
     inkscape:pageopacity="0.0"
     inkscape:pageshadow="2"
     inkscape:zoom="36.75"
     inkscape:cx="7.3836536"
     inkscape:cy="8.7832021"
     inkscape:document-units="mm"
     inkscape:current-layer="layer1"
     showgrid="false"
     units="px"
     inkscape:window-width="1920"
     inkscape:window-height="1013"
     inkscape:window-x="-9"
     inkscape:window-y="-9"
     inkscape:window-maximized="1"
     showguides="true"
     inkscape:guide-bbox="true" />
  <metadata
     id="metadata25994">
    <rdf:RDF>
      <cc:Work
         rdf:about="">
        <dc:format>image/svg+xml</dc:format>
        <dc:type
           rdf:resource="http://purl.org/dc/dcmitype/StillImage" />
        <dc:title></dc:title>
      </cc:Work>
    </rdf:RDF>
  </metadata>
  <g
     inkscape:label="Layer 1"
     inkscape:groupmode="layer"
     id="layer1"
     transform="translate(0,-292.76667)">
    <path
       style="font-style:normal;font-variant:normal;font-weight:normal;font-stretch:normal;font-size:5.46236563px;line-height:1.25;font-family:'Font Awesome 5 Free';-inkscape-font-specification:'Font Awesome 5 Free';letter-spacing:0px;word-spacing:0px;display:inline;fill:url(#linearGradient26788);fill-opacity:1;stroke:none;stroke-width:0.10254192"
       d="M 0.37254661,292.76667 C 0.16296979,292.76667 2.3333333e-8,292.94856 2.3333333e-8,293.16355 v 3.43958 C 2.3333333e-8,296.82637 0.07415826,297 0.28377263,297 H 3.3316107 c 0.2018229,0 0.3725559,-0.17363 0.3725559,-0.39687 v -2.74505 c 0,-0.0992 -0.04656,-0.20671 -0.116419,-0.28112 l -0.6442099,-0.69453 c -0.06984,-0.0744 -0.1707423,-0.11576 -0.2638908,-0.11576 -3.27568548,0 1.3257584,0 -2.30710029,0 z"
       id="path26763"
       inkscape:connector-curvature="0"
       sodipodi:nodetypes="csssssscccc" />
    <path
       style="font-style:normal;font-variant:normal;font-weight:normal;font-stretch:normal;font-size:5.46236563px;line-height:1.25;font-family:'Font Awesome 5 Free';-inkscape-font-specification:'Font Awesome 5 Free';letter-spacing:0px;word-spacing:0px;display:inline;fill:#ffffff;fill-opacity:1;stroke:none;stroke-width:0.40001178"
       d="M 4.2988281 0 L 4.2988281 1.6484375 L 5.9609375 1.6484375 L 5.9609375 0 L 4.2988281 0 z M 4.2988281 1.6484375 L 2.6347656 1.6484375 L 2.6347656 3.3105469 L 4.2988281 3.3105469 L 4.2988281 1.6484375 z M 4.2988281 3.3105469 L 4.2988281 4.9726562 L 5.9609375 4.9726562 L 5.9609375 3.3105469 L 4.2988281 3.3105469 z M 4.2988281 4.9726562 L 2.6347656 4.9726562 L 2.6347656 6.6367188 L 1.5957031 11.728516 C 1.2835141 13.391357 2.532088 14.949219 4.2988281 14.949219 C 6.013562 14.949219 7.2590766 13.391357 6.9472656 11.728516 L 6.0644531 7.15625 C 6.0111618 6.8963697 5.7535952 6.6367188 5.4414062 6.6367188 L 4.2988281 6.6367188 L 4.2988281 4.9726562 z M 4.2988281 10.845703 C 5.2341856 10.845703 5.9609375 11.468633 5.9609375 12.248047 C 5.9609375 12.97553 5.2341856 13.650391 4.2988281 13.650391 C 3.3635461 13.650391 2.5839844 12.97553 2.5839844 12.248047 C 2.5839844 11.468633 3.3635461 10.845703 4.2988281 10.845703 z "
       transform="matrix(0.26458333,0,0,0.26458333,0,292.76667)"
       id="path26782" />
  </g>
</svg>
