<?xml version="1.0" encoding="UTF-8" standalone="no"?>
<!-- Created with Inkscape (http://www.inkscape.org/) -->

<svg
   xmlns:dc="http://purl.org/dc/elements/1.1/"
   xmlns:cc="http://creativecommons.org/ns#"
   xmlns:rdf="http://www.w3.org/1999/02/22-rdf-syntax-ns#"
   xmlns:svg="http://www.w3.org/2000/svg"
   xmlns="http://www.w3.org/2000/svg"
   xmlns:xlink="http://www.w3.org/1999/xlink"
   xmlns:sodipodi="http://sodipodi.sourceforge.net/DTD/sodipodi-0.dtd"
   xmlns:inkscape="http://www.inkscape.org/namespaces/inkscape"
   width="14"
   height="16"
   viewBox="0 0 3.7041665 4.2333332"
   version="1.1"
   id="svg25997"
   inkscape:version="0.92.4 (5da689c313, 2019-01-14)"
   sodipodi:docname="network_directory_max_file.svg">
  <defs
     id="defs25991">
    <linearGradient
       inkscape:collect="always"
       xlink:href="#linearGradient2179"
       id="linearGradient2195-7"
       x1="271.58212"
       y1="105.50758"
       x2="277.73929"
       y2="99.099792"
       gradientUnits="userSpaceOnUse"
       gradientTransform="matrix(0.57181646,0,0,0.57142789,-154.88503,236.19698)" />
    <linearGradient
       id="linearGradient2179"
       inkscape:collect="always">
      <stop
         id="stop2175"
         offset="0"
         style="stop-color:#00a5b2;stop-opacity:1;" />
      <stop
         id="stop2177"
         offset="1"
         style="stop-color:#51dce8;stop-opacity:1" />
    </linearGradient>
  </defs>
  <sodipodi:namedview
     id="base"
     pagecolor="#ffffff"
     bordercolor="#666666"
     borderopacity="1.0"
     inkscape:pageopacity="0.0"
     inkscape:pageshadow="2"
     inkscape:zoom="25.986174"
     inkscape:cx="-3.6799885"
     inkscape:cy="5.8351419"
     inkscape:document-units="mm"
     inkscape:current-layer="layer1"
     showgrid="false"
     units="px"
     inkscape:window-width="1920"
     inkscape:window-height="1013"
     inkscape:window-x="-9"
     inkscape:window-y="-9"
     inkscape:window-maximized="1"
     showguides="true"
     inkscape:guide-bbox="true" />
  <metadata
     id="metadata25994">
    <rdf:RDF>
      <cc:Work
         rdf:about="">
        <dc:format>image/svg+xml</dc:format>
        <dc:type
           rdf:resource="http://purl.org/dc/dcmitype/StillImage" />
        <dc:title></dc:title>
      </cc:Work>
    </rdf:RDF>
  </metadata>
  <g
     inkscape:label="Layer 1"
     inkscape:groupmode="layer"
     id="layer1"
     transform="translate(0,-292.76667)">
    <path
       style="font-style:normal;font-variant:normal;font-weight:normal;font-stretch:normal;font-size:5.46236563px;line-height:1.25;font-family:'Font Awesome 5 Free';-inkscape-font-specification:'Font Awesome 5 Free';letter-spacing:0px;word-spacing:0px;display:inline;fill:url(#linearGradient2195-7);fill-opacity:1.0;stroke:none;stroke-width:0.10587243"
       d="m 0.39713986,292.76667 c -0.22341182,0 -0.397139876666667,0.18189 -0.397139876666667,0.39688 v 3.43958 c 0,0.22324 0.07915378666667,0.39688 0.302585636666667,0.39688 H 3.3070168 c 0.2151461,0 0.3971499,-0.17364 0.3971499,-0.39688 v -2.74505 c 0,-0.0992 -0.049634,-0.20671 -0.1241143,-0.28112 l -0.6864266,-0.69453 c -0.074451,-0.0744 -0.1823038,-0.11576 -0.2816014,-0.11576 z"
       id="path26824"
       inkscape:connector-curvature="0"
       sodipodi:nodetypes="sssssssccss" />
    <path
       style="font-style:normal;font-variant:normal;font-weight:normal;font-stretch:normal;font-size:5.46236563px;line-height:1.25;font-family:'Font Awesome 5 Free';-inkscape-font-specification:'Font Awesome 5 Free';letter-spacing:0px;word-spacing:0px;display:inline;fill:#ffffff;fill-opacity:1;stroke:none;stroke-width:0.10583662"
       d="m 1.7411988,293.96668 h 2.99e-4 0.20139 c 0.58595,0 0.8791001,0.21328 0.8791001,0.6396 0,0.17813 -0.0669,0.31751 -0.20022,0.41873 0.15284,0.0964 0.2288498,0.23704 0.2288498,0.42198 0,0.22484 -0.0718,0.38756 -0.21585,0.48782 -0.1431099,0.0993 -0.3525499,0.14883 -0.6289899,0.14883 h -0.311239 c -0.21803,0 -0.41277,-0.0536 -0.58409,-0.16064 -0.17129997,-0.10804 -0.25689987,-0.24872 -0.25689987,-0.42198 0,-0.0584 0.017,-0.1 0.0511,-0.12431 0.0341,-0.0253 0.0674,-0.0375 0.0995,-0.0375 h 0.17216 c 0.0905,0 0.1613,0.0553 0.21291,0.16625 0.0516,0.11097 0.1705,0.16654 0.35641,0.16654 h 0.20878 c 0.11973,0 0.20733,-0.0173 0.26281,-0.0514 0.0555,-0.0341 0.0833,-0.0919 0.0833,-0.17363 0,-0.0818 -0.0278,-0.13956 -0.0833,-0.17363 -0.0555,-0.0341 -0.14308,-0.0511 -0.26281,-0.0511 H 1.6915988 c -0.0379,0 -0.0705,-0.013 -0.0977,-0.0393 -0.0273,-0.0273 -0.0407,-0.0604 -0.0407,-0.0983 v -0.11959 c 0,-0.036 0.013,-0.0675 0.0393,-0.0948 0.0263,-0.0282 0.0573,-0.0422 0.0933,-0.0422 h 0.21469 c 0.12945,0 0.2236,-0.017 0.282,-0.0511 0.0594,-0.0341 0.0889,-0.0922 0.0889,-0.17393 0,-0.0818 -0.0295,-0.13906 -0.0889,-0.17215 -0.0584,-0.0341 -0.15255,-0.0511 -0.282,-0.0511 h -0.10779 c -0.18688,0 -0.31054,0.0598 -0.37089,0.17953 -0.0438,0.0915 -0.10994,0.13732 -0.19755,0.13732 h -0.17334 c -0.0467,0 -0.0833,-0.017 -0.10954997,-0.0511 -0.0263,-0.0341 -0.0393,-0.0711 -0.0393,-0.11103 0,-0.11096 0.0423,-0.21056 0.12698997,-0.29914 0.0847,-0.0895 0.19001,-0.15661 0.31654,-0.20139 0.12655,-0.0448 0.25846,-0.0673 0.3957,-0.0673 z"
       id="path2091-0"
       inkscape:connector-curvature="0" />
  </g>
</svg>
