<?xml version="1.0" encoding="UTF-8" standalone="no"?>
<!-- Created with Inkscape (http://www.inkscape.org/) -->

<svg
   xmlns:dc="http://purl.org/dc/elements/1.1/"
   xmlns:cc="http://creativecommons.org/ns#"
   xmlns:rdf="http://www.w3.org/1999/02/22-rdf-syntax-ns#"
   xmlns:svg="http://www.w3.org/2000/svg"
   xmlns="http://www.w3.org/2000/svg"
   xmlns:xlink="http://www.w3.org/1999/xlink"
   xmlns:sodipodi="http://sodipodi.sourceforge.net/DTD/sodipodi-0.dtd"
   xmlns:inkscape="http://www.inkscape.org/namespaces/inkscape"
   width="14"
   height="16"
   viewBox="0 0 3.7041665 4.2333332"
   version="1.1"
   id="svg25997"
   inkscape:version="0.92.4 (5da689c313, 2019-01-14)"
   sodipodi:docname="network_directory_font_file.svg">
  <defs
     id="defs25991">
    <linearGradient
       inkscape:collect="always"
       xlink:href="#linearGradient2768"
       id="linearGradient2053"
       gradientUnits="userSpaceOnUse"
       gradientTransform="matrix(0.5366878,0,0,0.57142797,-150.00969,236.19693)"
       x1="280.20465"
       y1="105.71093"
       x2="286.27216"
       y2="99.240173" />
    <linearGradient
       inkscape:collect="always"
       id="linearGradient2768">
      <stop
         style="stop-color:#414141;stop-opacity:1"
         offset="0"
         id="stop2764" />
      <stop
         style="stop-color:#767676;stop-opacity:1"
         offset="1"
         id="stop2766" />
    </linearGradient>
  </defs>
  <sodipodi:namedview
     id="base"
     pagecolor="#ffffff"
     bordercolor="#666666"
     borderopacity="1.0"
     inkscape:pageopacity="0.0"
     inkscape:pageshadow="2"
     inkscape:zoom="25.986174"
     inkscape:cx="2.2255185"
     inkscape:cy="7.8636789"
     inkscape:document-units="mm"
     inkscape:current-layer="layer1"
     showgrid="false"
     units="px"
     inkscape:window-width="1920"
     inkscape:window-height="1013"
     inkscape:window-x="-9"
     inkscape:window-y="-9"
     inkscape:window-maximized="1" />
  <metadata
     id="metadata25994">
    <rdf:RDF>
      <cc:Work
         rdf:about="">
        <dc:format>image/svg+xml</dc:format>
        <dc:type
           rdf:resource="http://purl.org/dc/dcmitype/StillImage" />
        <dc:title></dc:title>
      </cc:Work>
    </rdf:RDF>
  </metadata>
  <g
     inkscape:label="Layer 1"
     inkscape:groupmode="layer"
     id="layer1"
     transform="translate(0,-292.76667)">
    <path
       style="font-style:normal;font-variant:normal;font-weight:normal;font-stretch:normal;font-size:5.46236563px;line-height:1.25;font-family:'Font Awesome 5 Free';-inkscape-font-specification:'Font Awesome 5 Free';letter-spacing:0px;word-spacing:0px;display:inline;fill:url(#linearGradient2053);fill-opacity:1;stroke:none;stroke-width:0.10256877"
       d="M 0.3727421,292.76667 C 0.16306467,292.76667 0,292.94856 0,293.16355 v 3.43958 c 0,0.22324 0.16306467,0.39688 0.3727421,0.39688 h 2.9586825 c 0.2019103,0 0.3727421,-0.17364 0.3727421,-0.39688 v -2.74505 c 0,-0.0992 -0.046679,-0.2067 -0.1164802,-0.28112 L 2.943627,292.88243 c -0.069877,-0.0744 -0.1713296,-0.11576 -0.2645175,-0.11576 z"
       id="path26695"
       inkscape:connector-curvature="0" />
    <path
       id="path2051"
       style="font-style:normal;font-variant:normal;font-weight:normal;font-stretch:normal;font-size:5.46236563px;line-height:1.25;font-family:'Font Awesome 5 Free';-inkscape-font-specification:'Font Awesome 5 Free';letter-spacing:0px;word-spacing:0px;display:inline;fill:#ffffff;fill-opacity:1;stroke:none;stroke-width:0.10583639"
       d="m 1.9445833,293.82656 h 0.002 c 0.0357,0 0.0709,0.007 0.10335,0.0212 h 0.002 c 0.0332,0.0143 0.0634,0.037 0.0879,0.0646 l 0.002,0.002 c 0.0261,0.0292 0.0463,0.0652 0.0605,0.10542 0.0155,0.0425 0.0217,0.0884 0.0217,0.14056 0,0.0504 -0.006,0.10538 -0.0196,0.16381 -0.005,0.0233 -0.0159,0.0428 -0.0294,0.0589 l -0.002,0.002 -0.002,0.002 c -0.0126,0.0126 -0.027,0.0241 -0.0434,0.0331 -0.0155,0.008 -0.0317,0.0136 -0.0465,0.0176 h -0.002 l -0.002,0.002 c -0.0124,0.002 -0.0248,0.004 -0.0393,0.004 -0.0289,0 -0.0562,-0.008 -0.0816,-0.0212 h -0.002 -0.002 c -0.030599,-0.0182 -0.050599,-0.0566 -0.050599,-0.092 0,-0.0163 5.503e-4,-0.0309 0.002,-0.0429 v -0.002 l 0.002,-0.002 c 0.002,-0.009 0.002,-0.0164 0.002,-0.0253 0,-0.0387 -0.009,-0.0602 -0.0134,-0.0646 -0.007,-0.008 -0.0115,-0.0114 -0.0274,-0.0114 -0.0183,0 -0.0497,0.009 -0.0899,0.0351 -0.040001,0.0263 -0.081501,0.0618 -0.1250607,0.10749 -0.0428,0.0458 -0.0849,0.0983 -0.12505,0.15813 -0.0242,0.0353 -0.0396,0.0729 -0.0584,0.10904 h 0.28681 c 0.0336,0 0.0661,9.6e-4 0.0956,0.002 0.0443,-7.1e-4 0.0967,-0.002 0.1410801,-0.002 0.0443,-2.4e-4 0.0756,0.0165 0.10335,0.0429 0.024,0.0223 0.0301,0.0568 0.0351,0.0899 0.004,-0.003 0.006,-0.005 0.0103,-0.008 0.0465,-0.034 0.0971,-0.0642 0.15193,-0.0899 0.0556,-0.0267 0.11162,-0.0473 0.17002,-0.0641 0.0603,-0.0171 0.1188501,-0.0253 0.1741501,-0.0253 0.0645,0 0.1223999,0.0157 0.16949,0.0506 0.0529,0.0376 0.078,0.10342 0.078,0.17776 0,0.0435 -0.006,0.0873 -0.0191,0.13281 -0.0123,0.0436 -0.0273,0.0878 -0.047,0.13074 l -0.00201,0.002 c -0.0186,0.0427 -0.0402,0.0859 -0.0641,0.12713 -0.022799,0.04 -0.0458,0.0771 -0.0687,0.11317 -0.0224,0.0352 -0.0433,0.0678 -0.0625,0.0977 -0.017701,0.0281 -0.0306,0.052 -0.0408,0.0703 l -0.00201,0.004 -0.004,0.004 c -5.027e-4,6.1e-4 4.498e-4,0.002 0,0.002 0.003,-10e-4 0.00201,-10e-4 0.006,-0.004 l 0.006,-0.004 0.006,-0.002 c 0.0551,-0.0204 0.11201,-0.047 0.1700101,-0.078 0.0592,-0.0311 0.1162199,-0.0636 0.17002,-0.0977 0.0546,-0.0357 0.1056798,-0.0717 0.1503799,-0.10594 0.046,-0.0356 0.0839,-0.0662 0.1131699,-0.0935 v -0.002 c 0.0108,-0.01 0.023699,-0.0192 0.0408,-0.0253 0.013801,-0.005 0.0276,-0.008 0.0413,-0.008 0.0306,0 0.0635,0.0178 0.0816,0.0429 0.018399,0.0239 0.0253,0.0537 0.0253,0.0822 0,0.0438 -0.012801,0.0873 -0.0367,0.13281 -0.024299,0.0485 -0.0625,0.0921 -0.1116198,0.13074 h -0.00201 c -0.0608,0.0438 -0.1166498,0.0846 -0.1679498,0.12092 -0.0513,0.0371 -0.1036302,0.0712 -0.1581301,0.10387 -0.054,0.0319 -0.1115301,0.0616 -0.1736299,0.0899 v 0.002 c -0.0625,0.0279 -0.1359001,0.0525 -0.2186001,0.0765 -0.0287,0.009 -0.0571,0.0166 -0.0822,0.0212 l 0.002,-0.002 c -0.0246,0.005 -0.0489,0.008 -0.0723,0.008 -0.0657,0 -0.1240699,-0.0183 -0.16227,-0.0625 l -0.002,-0.002 c -0.034771,-0.0433 -0.048571,-0.1004 -0.048571,-0.16433 v -0.0233 -0.004 c 10e-4,-0.009 0.004,-0.0155 0.004,-0.0212 l -0.002,0.002 c 0.002,-0.0391 0.0123,-0.0816 0.0289,-0.12505 0.0167,-0.0412 0.0371,-0.0825 0.0589,-0.12506 v -0.002 c 0.0228,-0.0423 0.0474,-0.0839 0.0724,-0.12507 0.0244,-0.0412 0.046,-0.0793 0.0661,-0.11524 0.0209,-0.0365 0.0373,-0.0681 0.0506,-0.0956 0.0116,-0.0253 0.016,-0.0433 0.016,-0.0486 0,-0.007 10e-4,-0.005 0,-0.006 l -0.002,-0.002 -0.002,-0.004 c 10e-4,0.002 0.007,0.004 0,0.004 -0.0585,0 -0.11325,0.0169 -0.16795,0.0527 -0.056999,0.038 -0.1115594,0.0838 -0.1622594,0.14056 -0.0516,0.0568 -0.099,0.11764 -0.14263,0.1819 -0.0441,0.0651 -0.0816,0.12432 -0.1152401,0.17571 l -0.002,0.002 c -0.0197,0.0328 -0.0374,0.0676 -0.0543,0.10542 -0.0175,0.0406 -0.0367,0.0805 -0.0568,0.1173 -0.0209,0.0372 -0.0462,0.0694 -0.0744,0.0956 l -0.002,0.002 c -0.0323,0.0312 -0.0773,0.047 -0.1235099,0.047 -0.0478,0 -0.0935,-0.017 -0.1245401,-0.0512 -0.0294,-0.0323 -0.044999,-0.0743 -0.044999,-0.11887 0,-0.0315 0.01,-0.0624 0.0253,-0.10542 v -0.002 c 0.0154,-0.0416 0.0345,-0.0885 0.0584,-0.14262 0.0238,-0.0539 0.0512,-0.11103 0.0801,-0.17208 0.0298,-0.0618 0.0591,-0.12376 0.0879,-0.18345 0.0292,-0.0594 0.056,-0.11555 0.0822,-0.16795 -0.12429,0.002 -0.26775,0.006 -0.40049,0.004 -0.0244,0.0484 -0.0501,0.0998 -0.0801,0.16175 -0.0343,0.0716 -0.0712,0.14591 -0.10955,0.22479 -0.0373,0.0787 -0.0747,0.15914 -0.11318,0.24029 -0.0374,0.0802 -0.0735,0.15605 -0.10747997,0.22841 -0.034,0.0713 -0.0657,0.13551 -0.0935,0.19327 h 0.002 c -0.0276,0.0581 -0.0514,0.10389 -0.0687,0.1385 v 0.002 c -0.0135001,0.0278 -0.0312,0.0535 -0.0506,0.0765 -0.0193,0.0238 -0.0408,0.0451 -0.0646,0.0625 -0.0232,0.0171 -0.0469,0.0296 -0.0723,0.0388 -0.0255,0.0102 -0.0518,0.0176 -0.078,0.0176 -0.0338,0 -0.067,-0.009 -0.0956,-0.0274 -0.034,-0.0218 -0.0527,-0.0636 -0.0527,-0.10336 0,-0.0211 0.002,-0.0426 0.0114001,-0.0662 0.008,-0.0203 0.0177001,-0.0415 0.0295,-0.0667 v -0.002 l 0.5312283,-1.12497 h -0.006 c -0.0634999,0 -0.11363997,-0.004 -0.15243996,-0.0372 -0.0298,-0.0254 -0.0491,-0.0643 -0.0491,-0.10336 0,-0.0427 0.023,-0.0814 0.0568,-0.1111 0.0383,-0.0341 0.0901,-0.0491 0.14830996,-0.0491 H 1.0499029 c 0.0715,-0.14032 0.14424,-0.26227 0.21704,-0.3576 0.0786,-0.10151 0.1561,-0.18291 0.23409,-0.24391 0.0771,-0.0604 0.15418,-0.10405 0.23048,-0.12868 0.0738,-0.0235 0.14361,-0.0349 0.2129101,-0.0351 z" />
  </g>
</svg>
