<?xml version="1.0" encoding="UTF-8" standalone="no"?>
<svg
   xmlns:dc="http://purl.org/dc/elements/1.1/"
   xmlns:cc="http://creativecommons.org/ns#"
   xmlns:rdf="http://www.w3.org/1999/02/22-rdf-syntax-ns#"
   xmlns:svg="http://www.w3.org/2000/svg"
   xmlns="http://www.w3.org/2000/svg"
   xmlns:xlink="http://www.w3.org/1999/xlink"
   width="20"
   height="20"
   viewBox="0 0 5.2916665 5.2916668"
   version="1.1"
   id="svg4029">
  <defs
     id="defs4023">
    <linearGradient
       xlink:href="#linearGradient2768"
       id="linearGradient1672"
       gradientUnits="userSpaceOnUse"
       gradientTransform="matrix(0.71428604,0,0,0.71428575,-237.07953,-70.7189)"
       x1="333.53189"
       y1="105.25716"
       x2="339.22046"
       y2="99.237892" />
    <linearGradient
       id="linearGradient2768">
      <stop
         style="stop-color:#414141;stop-opacity:1"
         offset="0"
         id="stop2764" />
      <stop
         style="stop-color:#767676;stop-opacity:1"
         offset="1"
         id="stop2766" />
    </linearGradient>
  </defs>
  <metadata
     id="metadata4026">
    <rdf:RDF>
      <cc:Work
         rdf:about="">
        <dc:format>image/svg+xml</dc:format>
        <dc:type
           rdf:resource="http://purl.org/dc/dcmitype/StillImage" />
        <dc:title></dc:title>
      </cc:Work>
    </rdf:RDF>
  </metadata>
  <path
     id="path10842"
     d="M 2.2004784,0.26458321 C 1.1302504,0.26497343 0.26458342,1.1385639 0.26458342,2.1976121 c 0,1.0685812 0.86604708,1.9323189 1.93660598,1.9323189 0.4468456,0 0.8563907,-0.1478669 1.1915386,-0.4080363 v 0.1575374 c 0,0.055698 0.018769,0.1118319 0.065407,0.1582473 l 0.9206699,0.9196788 c 0.093056,0.092967 0.2332964,0.092967 0.3170799,0 L 4.9568003,4.697634 c 0.092726,-0.083629 0.092017,-0.2235275 0.00782,-0.3164941 L 4.0347086,3.4522357 C 3.9881116,3.4151589 3.9320243,3.3869489 3.8761685,3.3869489 H 3.7268708 C 3.9782217,3.0617313 4.1370843,2.6529153 4.1370843,2.1976121 c 0,-1.0590464 -0.8749589,-1.93263588 -1.9358949,-1.93302889 z m 0,0.74369099 c 0.651641,0 1.1915387,0.5389006 1.1915387,1.1893379 0,0.6597336 -0.5398977,1.1893375 -1.1915387,1.1893375 -0.660941,4e-7 -1.1915388,-0.5296039 -1.1915388,-1.1893375 1e-7,-0.6504373 0.5305978,-1.1893379 1.1915388,-1.1893379 z"
     style="font-style:normal;font-variant:normal;font-weight:normal;font-stretch:normal;font-size:7.64731169px;line-height:1.25;font-family:'Font Awesome 5 Free';-inkscape-font-specification:'Font Awesome 5 Free';letter-spacing:0px;word-spacing:0px;display:inline;fill:#ffffff;fill-opacity:1;stroke:none;stroke-width:0.1876986" />
</svg>
