<?xml version="1.0" encoding="UTF-8" standalone="no"?>
<!-- Created with Inkscape (http://www.inkscape.org/) -->

<svg
   xmlns:dc="http://purl.org/dc/elements/1.1/"
   xmlns:cc="http://creativecommons.org/ns#"
   xmlns:rdf="http://www.w3.org/1999/02/22-rdf-syntax-ns#"
   xmlns:svg="http://www.w3.org/2000/svg"
   xmlns="http://www.w3.org/2000/svg"
   xmlns:xlink="http://www.w3.org/1999/xlink"
   xmlns:sodipodi="http://sodipodi.sourceforge.net/DTD/sodipodi-0.dtd"
   xmlns:inkscape="http://www.inkscape.org/namespaces/inkscape"
   width="28"
   height="28"
   viewBox="0 0 7.4083332 7.4083335"
   version="1.1"
   id="svg23899"
   inkscape:version="0.92.4 (5da689c313, 2019-01-14)"
   sodipodi:docname="socials_youtube_button.svg">
  <defs
     id="defs23893">
    <linearGradient
       inkscape:collect="always"
       xlink:href="#linearGradient3259"
       id="linearGradient3243"
       gradientUnits="userSpaceOnUse"
       gradientTransform="translate(-331.91117,190.58532)"
       x1="333.53189"
       y1="105.25716"
       x2="338.53149"
       y2="99.454987" />
    <linearGradient
       inkscape:collect="always"
       id="linearGradient3259">
      <stop
         style="stop-color:#c90000;stop-opacity:1"
         offset="0"
         id="stop3255" />
      <stop
         style="stop-color:#ff0a0a;stop-opacity:1"
         offset="1"
         id="stop3257" />
    </linearGradient>
  </defs>
  <sodipodi:namedview
     id="base"
     pagecolor="#ffffff"
     bordercolor="#666666"
     borderopacity="1.0"
     inkscape:pageopacity="0.0"
     inkscape:pageshadow="2"
     inkscape:zoom="15.073242"
     inkscape:cx="10.443958"
     inkscape:cy="14.739981"
     inkscape:document-units="mm"
     inkscape:current-layer="layer1"
     showgrid="false"
     units="px"
     inkscape:window-width="1920"
     inkscape:window-height="1013"
     inkscape:window-x="-9"
     inkscape:window-y="-9"
     inkscape:window-maximized="1" />
  <metadata
     id="metadata23896">
    <rdf:RDF>
      <cc:Work
         rdf:about="">
        <dc:format>image/svg+xml</dc:format>
        <dc:type
           rdf:resource="http://purl.org/dc/dcmitype/StillImage" />
        <dc:title></dc:title>
      </cc:Work>
    </rdf:RDF>
  </metadata>
  <g
     inkscape:label="Layer 1"
     inkscape:groupmode="layer"
     id="layer1"
     transform="translate(0,-289.59165)">
    <path
       inkscape:connector-curvature="0"
       style="font-style:normal;font-variant:normal;font-weight:normal;font-stretch:normal;font-size:7.64731169px;line-height:1.25;font-family:'Font Awesome 5 Free';-inkscape-font-specification:'Font Awesome 5 Free';letter-spacing:0px;word-spacing:0px;display:inline;fill:url(#linearGradient3243);fill-opacity:1;stroke:none;stroke-width:0.19118281"
       d="m 3.7041767,289.59165 c -2.04625,0 -3.70418,1.65792 -3.70418,3.70417 0,2.04625 1.65793,3.70416 3.70418,3.70416 2.04625,0 3.70416,-1.65791 3.70416,-3.70416 0,-2.04625 -1.65791,-3.70417 -3.70416,-3.70417 z"
       id="path3237" />
    <path
       style="font-style:normal;font-variant:normal;font-weight:normal;font-stretch:normal;font-size:10.58333302px;line-height:1.25;font-family:'el-harrak.blogspot.com : darrati10@gmail.com';-inkscape-font-specification:'el-harrak.blogspot.com : darrati10@gmail.com';letter-spacing:0px;word-spacing:0px;fill:#ffffff;fill-opacity:1;stroke:none;stroke-width:0.21046545"
       d="m 3.7020967,291.4769 c -0.27404,0 -0.59056,0.004 -0.94955,0.0123 -0.59467,0.0165 -0.93586,0.037 -1.02355,0.0617 -0.15622,0.0274 -0.28912,0.10551 -0.39875,0.23431 -0.063,0.0822 -0.12058,0.23841 -0.17265,0.46861 -0.0302,0.30966 -0.0452,0.58782 -0.0452,0.83446 0,0.76184 0.0288,1.21675 0.0863,1.36474 0.0247,0.11236 0.0493,0.19868 0.074,0.25897 0.0795,0.14524 0.21512,0.25074 0.40696,0.31652 l 0.20554,0.0288 c 0.0521,0.0137 0.21238,0.026 0.48093,0.037 0.62208,0.0137 1.07563,0.0205 1.36064,0.0205 0.25486,0 0.58644,-0.002 0.99477,-0.008 0.53439,-0.0192 0.84131,-0.037 0.92078,-0.0535 0.12881,-0.0219 0.23431,-0.0671 0.31653,-0.13565 0.0987,-0.0795 0.1699,-0.18086 0.21376,-0.30418 0.0822,-0.20828 0.12331,-0.5755 0.12331,-1.10166 v -0.4234 c 0,-0.24664 -0.0165,-0.5248 -0.0493,-0.83446 -0.0411,-0.23568 -0.10823,-0.40422 -0.20141,-0.50561 -0.0493,-0.0493 -0.0822,-0.0753 -0.0987,-0.0781 -0.0822,-0.0658 -0.17675,-0.10687 -0.28362,-0.12331 -0.24938,-0.0466 -0.90298,-0.0699 -1.96078,-0.0699 z m -0.53439,1.03588 c 0.0165,0.008 0.39873,0.2069 1.14687,0.59604 0.16718,0.0877 0.25075,0.13292 0.25075,0.13565 l -1.39762,0.72348 z"
       id="path3234"
       inkscape:connector-curvature="0" />
  </g>
</svg>
