<?xml version="1.0" encoding="UTF-8" standalone="no"?>
<!-- Created with Inkscape (http://www.inkscape.org/) -->

<svg
   xmlns:dc="http://purl.org/dc/elements/1.1/"
   xmlns:cc="http://creativecommons.org/ns#"
   xmlns:rdf="http://www.w3.org/1999/02/22-rdf-syntax-ns#"
   xmlns:svg="http://www.w3.org/2000/svg"
   xmlns="http://www.w3.org/2000/svg"
   xmlns:xlink="http://www.w3.org/1999/xlink"
   xmlns:sodipodi="http://sodipodi.sourceforge.net/DTD/sodipodi-0.dtd"
   xmlns:inkscape="http://www.inkscape.org/namespaces/inkscape"
   width="28"
   height="28"
   viewBox="0 0 7.4083332 7.4083335"
   version="1.1"
   id="svg23899"
   inkscape:version="0.92.4 (5da689c313, 2019-01-14)"
   sodipodi:docname="socials_weibo_button.svg">
  <defs
     id="defs23893">
    <linearGradient
       inkscape:collect="always"
       xlink:href="#linearGradient2831"
       id="linearGradient7668-1-2"
       gradientUnits="userSpaceOnUse"
       gradientTransform="translate(-331.91119,190.58531)"
       x1="333.53189"
       y1="105.25716"
       x2="339.22046"
       y2="99.237892" />
    <linearGradient
       id="linearGradient2831"
       inkscape:collect="always">
      <stop
         id="stop2827"
         offset="0"
         style="stop-color:#e6162c;stop-opacity:1" />
      <stop
         id="stop2829"
         offset="1"
         style="stop-color:#ed7f8c;stop-opacity:1" />
    </linearGradient>
  </defs>
  <sodipodi:namedview
     id="base"
     pagecolor="#ffffff"
     bordercolor="#666666"
     borderopacity="1.0"
     inkscape:pageopacity="0.0"
     inkscape:pageshadow="2"
     inkscape:zoom="9.1875"
     inkscape:cx="4.8618701"
     inkscape:cy="12.75704"
     inkscape:document-units="mm"
     inkscape:current-layer="layer1"
     showgrid="false"
     units="px"
     inkscape:window-width="1920"
     inkscape:window-height="1013"
     inkscape:window-x="-9"
     inkscape:window-y="-9"
     inkscape:window-maximized="1" />
  <metadata
     id="metadata23896">
    <rdf:RDF>
      <cc:Work
         rdf:about="">
        <dc:format>image/svg+xml</dc:format>
        <dc:type
           rdf:resource="http://purl.org/dc/dcmitype/StillImage" />
        <dc:title></dc:title>
      </cc:Work>
    </rdf:RDF>
  </metadata>
  <g
     inkscape:label="Layer 1"
     inkscape:groupmode="layer"
     id="layer1"
     transform="translate(0,-289.59165)">
    <path
       inkscape:connector-curvature="0"
       style="font-style:normal;font-variant:normal;font-weight:normal;font-stretch:normal;font-size:7.64731169px;line-height:1.25;font-family:'Font Awesome 5 Free';-inkscape-font-specification:'Font Awesome 5 Free';letter-spacing:0px;word-spacing:0px;display:inline;fill:url(#linearGradient7668-1-2);fill-opacity:1;stroke:none;stroke-width:0.19118281"
       d="m 3.7041717,289.59165 c -2.0462401,0 -3.7041701,1.65792 -3.7041701,3.70417 0,2.04625 1.65793,3.70416 3.7041701,3.70416 2.04626,0 3.7041601,-1.65791 3.7041601,-3.70416 0,-2.04625 -1.6579001,-3.70417 -3.7041601,-3.70417 z"
       id="path1903" />
    <path
       inkscape:connector-curvature="0"
       id="path1701"
       style="display:inline;fill:#f2f2f2;fill-opacity:1;stroke-width:0.00965231"
       d="m 3.6558315,293.93806 c -0.0405,0.0695 -0.1302998,0.10231 -0.1997897,0.0734 -0.0695,-0.028 -0.0907,-0.10618 -0.0512,-0.17374 0.0405,-0.0676 0.1264399,-0.10039 0.1949699,-0.0734 0.0695,0.0251 0.0946,0.10327 0.056,0.17374 m -0.36967,0.47296 c -0.1119802,0.17857 -0.3523102,0.25675 -0.5328201,0.17471 -0.1776,-0.0811 -0.23069,-0.28861 -0.11872,-0.46332 0.111,-0.17374 0.3426502,-0.25095 0.5221901,-0.17567 0.1814599,0.0782 0.2393698,0.28378 0.12935,0.46428 m 0.4208399,-1.26445 c -0.5511499,-0.14382 -1.17372,0.13127 -1.41311,0.61678 -0.2442,0.49516 -0.008,1.04535 0.54825,1.22488 0.5772201,0.18629 1.2567301,-0.0994 1.49322,-0.63319 0.23358,-0.52316 -0.0579,-1.06079 -0.62836,-1.20847 m -0.1148699,2.16791 c -1.1582701,0.11486 -2.1582601,-0.40926 -2.2335501,-1.1689 -0.0753,-0.7606 0.80308,-1.46908 1.96039,-1.58394 1.15828,-0.11487 2.15826,0.40925 2.2325902,1.16889 0.0763,0.7606 -0.8021201,1.47005 -1.9594301,1.58395 m 2.3155899,-2.52408 c -0.0985,-0.0299 -0.1660199,-0.0492 -0.1148501,-0.17857 0.1119503,-0.28088 0.1235303,-0.52316 0.00201,-0.6969 -0.2268403,-0.32432 -0.8484402,-0.30694 -1.5607702,-0.009 0,0 -0.22395,0.0975 -0.1660401,-0.0791 0.1090795,-0.35231 0.09269,-0.6467 -0.07721,-0.81755 -0.3861001,-0.38706 -1.4140701,0.0145 -2.2953301,0.89573 -0.65924,0.65926 -1.04243,1.35905 -1.04243,1.96425 0,1.15635 1.48356,1.86 2.9343001,1.86 1.9024701,0 3.1678801,-1.10519 3.1678801,-1.98258 9.26e-4,-0.53088 -0.4459301,-0.83203 -0.8474602,-0.95655" />
  </g>
</svg>
