<?xml version="1.0" encoding="UTF-8" standalone="no"?>
<!-- Created with Inkscape (http://www.inkscape.org/) -->

<svg
   xmlns:dc="http://purl.org/dc/elements/1.1/"
   xmlns:cc="http://creativecommons.org/ns#"
   xmlns:rdf="http://www.w3.org/1999/02/22-rdf-syntax-ns#"
   xmlns:svg="http://www.w3.org/2000/svg"
   xmlns="http://www.w3.org/2000/svg"
   xmlns:xlink="http://www.w3.org/1999/xlink"
   xmlns:sodipodi="http://sodipodi.sourceforge.net/DTD/sodipodi-0.dtd"
   xmlns:inkscape="http://www.inkscape.org/namespaces/inkscape"
   width="28"
   height="28"
   viewBox="0 0 7.4083332 7.4083335"
   version="1.1"
   id="svg23899"
   inkscape:version="0.92.4 (5da689c313, 2019-01-14)"
   sodipodi:docname="socials_vk_button.svg">
  <defs
     id="defs23893">
    <linearGradient
       inkscape:collect="always"
       xlink:href="#linearGradient2806"
       id="linearGradient1883"
       gradientUnits="userSpaceOnUse"
       gradientTransform="translate(-331.91115,190.58531)"
       x1="333.53189"
       y1="105.25716"
       x2="339.22046"
       y2="99.237892" />
    <linearGradient
       id="linearGradient2806"
       inkscape:collect="always">
      <stop
         id="stop2802"
         offset="0"
         style="stop-color:#4876b4;stop-opacity:1" />
      <stop
         id="stop2804"
         offset="1"
         style="stop-color:#b3c8e5;stop-opacity:1" />
    </linearGradient>
  </defs>
  <sodipodi:namedview
     id="base"
     pagecolor="#ffffff"
     bordercolor="#666666"
     borderopacity="1.0"
     inkscape:pageopacity="0.0"
     inkscape:pageshadow="2"
     inkscape:zoom="9.1875"
     inkscape:cx="3.7683814"
     inkscape:cy="11.293719"
     inkscape:document-units="mm"
     inkscape:current-layer="layer1"
     showgrid="false"
     units="px"
     inkscape:window-width="1920"
     inkscape:window-height="1013"
     inkscape:window-x="-9"
     inkscape:window-y="-9"
     inkscape:window-maximized="1" />
  <metadata
     id="metadata23896">
    <rdf:RDF>
      <cc:Work
         rdf:about="">
        <dc:format>image/svg+xml</dc:format>
        <dc:type
           rdf:resource="http://purl.org/dc/dcmitype/StillImage" />
        <dc:title></dc:title>
      </cc:Work>
    </rdf:RDF>
  </metadata>
  <g
     inkscape:label="Layer 1"
     inkscape:groupmode="layer"
     id="layer1"
     transform="translate(0,-289.59165)">
    <path
       inkscape:connector-curvature="0"
       style="font-style:normal;font-variant:normal;font-weight:normal;font-stretch:normal;font-size:7.64731169px;line-height:1.25;font-family:'Font Awesome 5 Free';-inkscape-font-specification:'Font Awesome 5 Free';letter-spacing:0px;word-spacing:0px;display:inline;fill:url(#linearGradient1883);fill-opacity:1;stroke:none;stroke-width:0.19118281"
       d="m 3.7041667,289.59165 c -2.0462401,0 -3.7041601,1.65792 -3.7041601,3.70417 0,2.04625 1.65792,3.70416 3.7041601,3.70416 2.0462599,0 3.70416,-1.65791 3.70416,-3.70416 0,-2.04625 -1.6579001,-3.70417 -3.70416,-3.70417 z"
       id="path1881" />
    <path
       style="font-style:normal;font-variant:normal;font-weight:normal;font-stretch:normal;font-size:7.57296276px;line-height:1.25;font-family:'el-harrak.blogspot.com : darrati10@gmail.com';-inkscape-font-specification:'el-harrak.blogspot.com : darrati10@gmail.com';letter-spacing:0px;word-spacing:0px;display:inline;fill:#f2f2f2;fill-opacity:1;stroke:none;stroke-width:0.21091506"
       d="m 6.2532667,294.34887 q -0.1070501,-0.13182 -0.5025699,-0.51905 -0.2018401,-0.21421 -0.2142101,-0.28424 v -0.0247 q 0,-0.0783 0.0866,-0.21421 0.0701,-0.1071 0.3213302,-0.4449 0.2018598,-0.25952 0.3213197,-0.4449 0.1483101,-0.26364 0.1483101,-0.39134 0,-0.0288 -0.004,-0.0494 -0.037199,-0.0783 -0.2183193,-0.0783 h -0.0246 q -0.3048101,0.008 -0.63026,0.008 -0.2883598,0 -0.3172,0.0124 -0.066,0.0206 -0.1153498,0.16889 -0.1277001,0.30896 -0.28424,0.5726 -0.2100901,0.35016 -0.34192,0.49846 -0.107061,0.11145 -0.181251,0.11145 h -0.004 q -0.1111599,-0.004 -0.1318001,-0.25952 -0.008,-0.0453 -0.008,-0.1483 0,-0.20186 0.0289,-0.60968 v -0.07 q 0,-0.21009 -0.0494,-0.28424 -0.0866,-0.1483 -0.63027,-0.1483 -0.0989,0 -0.2018602,0.0124 -0.4490098,0.0165 -0.5107897,0.21421 0.2141997,0.0618 0.2636498,0.15654 0.0742,0.12771 0.0742,0.60556 0,0.18125 -0.024799,0.32132 -0.0372,0.20597 -0.13183,0.22245 h -0.024799 q -0.066,0 -0.1565399,-0.0989 -0.0495,-0.0577 -0.1276999,-0.16478 -0.267762,-0.38314 -0.490212,-0.89807 -0.0618,-0.14418 -0.10294,-0.18125 -0.066,-0.0412 -0.3625,-0.0412 h -0.25954 q -0.42841,0 -0.45312,0.0783 -0.0124,0.008 -0.0124,0.033 0,0.0659 0.0866,0.25128 0.46137,0.98043 0.94747,1.64366 0.36663,0.49021 0.7744601,0.71266 0.42017,0.2348 0.8321099,0.2348 h 0.0412 q 0.42018,-0.0206 0.4572601,-0.0741 0.0289,-0.0206 0.0494,-0.25952 0.012401,-0.14006 0.0495,-0.22657 0.0577,-0.14418 0.1647499,-0.15654 h 0.012401 q 0.10293,0 0.2430401,0.15654 0.016499,0.0124 0.1894999,0.21833 0.2512801,0.28836 0.4778499,0.34191 0.0372,0.004 0.3501501,0.004 h 0.1524202 l 0.1524298,-0.004 q 0.4284002,0 0.4531199,-0.15241 0.012401,-0.0165 0.012401,-0.0247 0,-0.10711 -0.17302,-0.32544 z"
       id="path1855"
       inkscape:connector-curvature="0" />
  </g>
</svg>
