<?xml version="1.0" encoding="UTF-8" standalone="no"?>
<!-- Created with Inkscape (http://www.inkscape.org/) -->

<svg
   xmlns:dc="http://purl.org/dc/elements/1.1/"
   xmlns:cc="http://creativecommons.org/ns#"
   xmlns:rdf="http://www.w3.org/1999/02/22-rdf-syntax-ns#"
   xmlns:svg="http://www.w3.org/2000/svg"
   xmlns="http://www.w3.org/2000/svg"
   xmlns:xlink="http://www.w3.org/1999/xlink"
   xmlns:sodipodi="http://sodipodi.sourceforge.net/DTD/sodipodi-0.dtd"
   xmlns:inkscape="http://www.inkscape.org/namespaces/inkscape"
   width="28"
   height="28"
   viewBox="0 0 7.4083332 7.4083335"
   version="1.1"
   id="svg23899"
   inkscape:version="0.92.4 (5da689c313, 2019-01-14)"
   sodipodi:docname="socials_linkedin_button.svg">
  <defs
     id="defs23893">
    <linearGradient
       inkscape:collect="always"
       xlink:href="#linearGradient2813"
       id="linearGradient1875"
       gradientUnits="userSpaceOnUse"
       gradientTransform="translate(-331.91115,190.58531)"
       x1="333.53189"
       y1="105.25716"
       x2="339.22046"
       y2="99.237892" />
    <linearGradient
       id="linearGradient2813"
       inkscape:collect="always">
      <stop
         id="stop2809"
         offset="0"
         style="stop-color:#027ab4;stop-opacity:1" />
      <stop
         id="stop2811"
         offset="1"
         style="stop-color:#67c4f1;stop-opacity:1" />
    </linearGradient>
  </defs>
  <sodipodi:namedview
     id="base"
     pagecolor="#ffffff"
     bordercolor="#666666"
     borderopacity="1.0"
     inkscape:pageopacity="0.0"
     inkscape:pageshadow="2"
     inkscape:zoom="9.1875"
     inkscape:cx="8.6709385"
     inkscape:cy="17.030935"
     inkscape:document-units="mm"
     inkscape:current-layer="layer1"
     showgrid="false"
     units="px"
     inkscape:window-width="1920"
     inkscape:window-height="1013"
     inkscape:window-x="-9"
     inkscape:window-y="-9"
     inkscape:window-maximized="1" />
  <metadata
     id="metadata23896">
    <rdf:RDF>
      <cc:Work
         rdf:about="">
        <dc:format>image/svg+xml</dc:format>
        <dc:type
           rdf:resource="http://purl.org/dc/dcmitype/StillImage" />
        <dc:title></dc:title>
      </cc:Work>
    </rdf:RDF>
  </metadata>
  <g
     inkscape:label="Layer 1"
     inkscape:groupmode="layer"
     id="layer1"
     transform="translate(0,-289.59165)">
    <path
       inkscape:connector-curvature="0"
       style="font-style:normal;font-variant:normal;font-weight:normal;font-stretch:normal;font-size:7.64731169px;line-height:1.25;font-family:'Font Awesome 5 Free';-inkscape-font-specification:'Font Awesome 5 Free';letter-spacing:0px;word-spacing:0px;display:inline;fill:url(#linearGradient1875);fill-opacity:1;stroke:none;stroke-width:0.19118281"
       d="m 3.7041666,289.59165 c -2.0462401,0 -3.7041601,1.65792 -3.7041601,3.70417 0,2.04625 1.65792,3.70416 3.7041601,3.70416 2.0462603,0 3.7041603,-1.65791 3.7041603,-3.70416 0,-2.04625 -1.6579,-3.70417 -3.7041603,-3.70417 z"
       id="path1873" />
    <path
       id="path1837"
       style="font-style:normal;font-variant:normal;font-weight:normal;font-stretch:normal;font-size:7.57296276px;line-height:1.25;font-family:'el-harrak.blogspot.com : darrati10@gmail.com';-inkscape-font-specification:'el-harrak.blogspot.com : darrati10@gmail.com';letter-spacing:0px;word-spacing:0px;display:inline;fill:#f2f2f2;fill-opacity:1;stroke:none;stroke-width:0.19838753"
       d="m 5.8236469,293.57305 q 0,-0.63934 -0.29448,-0.93769 -0.29062,-0.29836 -0.7439703,-0.29836 -0.3758501,0 -0.5540801,0.15499 -0.1743699,0.15499 -0.26735,0.29835 v -0.38747 H 3.0570666 v 1.46466 1.26704 h 0.9066999 v -1.52665 q 0,-0.062 0,-0.12012 0,-0.0581 0.023299,-0.10074 0.0543,-0.12787 0.16662,-0.23249 0.11235,-0.10462 0.3061002,-0.10462 0.2440998,0 0.3487099,0.17824 0.10458,0.17437 0.10458,0.44947 v 1.45691 h 0.9105703 z m -3.7314104,-1.55378 q 0.23249,0 0.37586,-0.13174 0.14723,-0.13562 0.14723,-0.32936 -0.0155,-0.20923 -0.15498,-0.3371 -0.13562,-0.13174 -0.35261,-0.13174 -0.23636,0 -0.37972,0.13174 -0.14335,0.12787 -0.14335,0.3371 0,0.19374 0.13561,0.32936 0.13562,0.13174 0.37196,0.13174 z m 0.45722,0.3836 h -0.91442 v 2.7317 h 0.91443 z m 1.4026601,0.40297 q 0,-0.0155 0.011599,-0.0155 v 0.0155 z"
       inkscape:connector-curvature="0" />
  </g>
</svg>
