<?xml version="1.0" encoding="UTF-8" standalone="no"?>
<!-- Created with Inkscape (http://www.inkscape.org/) -->

<svg
   xmlns:dc="http://purl.org/dc/elements/1.1/"
   xmlns:cc="http://creativecommons.org/ns#"
   xmlns:rdf="http://www.w3.org/1999/02/22-rdf-syntax-ns#"
   xmlns:svg="http://www.w3.org/2000/svg"
   xmlns="http://www.w3.org/2000/svg"
   xmlns:xlink="http://www.w3.org/1999/xlink"
   xmlns:sodipodi="http://sodipodi.sourceforge.net/DTD/sodipodi-0.dtd"
   xmlns:inkscape="http://www.inkscape.org/namespaces/inkscape"
   width="60"
   height="60"
   viewBox="0 0 15.875 15.875"
   version="1.1"
   id="svg4407"
   inkscape:version="0.92.4 (5da689c313, 2019-01-14)"
   sodipodi:docname="menu_settings_button.svg">
  <defs
     id="defs4401">
    <linearGradient
       id="linearGradient1935"
       inkscape:collect="always">
      <stop
         id="stop1931"
         offset="0"
         style="stop-color:#dbdbdb;stop-opacity:1" />
      <stop
         id="stop1933"
         offset="1"
         style="stop-color:#ffffff;stop-opacity:1" />
    </linearGradient>
    <linearGradient
       inkscape:collect="always"
       xlink:href="#linearGradient1935"
       id="linearGradient4985"
       x1="4.2322721"
       y1="65.823776"
       x2="12.521172"
       y2="56.894089"
       gradientUnits="userSpaceOnUse"
       gradientTransform="translate(18.594628,-1.632148)" />
    <linearGradient
       inkscape:collect="always"
       xlink:href="#linearGradient1935"
       id="linearGradient5146"
       gradientUnits="userSpaceOnUse"
       x1="5.6470833"
       y1="73.281136"
       x2="11.827924"
       y2="65.343636"
       gradientTransform="translate(18.648419,38.181878)" />
    <linearGradient
       inkscape:collect="always"
       xlink:href="#linearGradient1935"
       id="linearGradient19057"
       gradientUnits="userSpaceOnUse"
       gradientTransform="translate(0.02681951,219.41935)"
       x1="5.6470833"
       y1="73.281136"
       x2="11.827924"
       y2="65.343636" />
  </defs>
  <sodipodi:namedview
     id="base"
     pagecolor="#ffffff"
     bordercolor="#666666"
     borderopacity="1.0"
     inkscape:pageopacity="0.0"
     inkscape:pageshadow="2"
     inkscape:zoom="7.5366211"
     inkscape:cx="25.488155"
     inkscape:cy="37.440346"
     inkscape:document-units="mm"
     inkscape:current-layer="layer1"
     showgrid="false"
     units="px"
     inkscape:window-width="1920"
     inkscape:window-height="1013"
     inkscape:window-x="-9"
     inkscape:window-y="-9"
     inkscape:window-maximized="1" />
  <metadata
     id="metadata4404">
    <rdf:RDF>
      <cc:Work
         rdf:about="">
        <dc:format>image/svg+xml</dc:format>
        <dc:type
           rdf:resource="http://purl.org/dc/dcmitype/StillImage" />
        <dc:title />
      </cc:Work>
    </rdf:RDF>
  </metadata>
  <g
     inkscape:label="Layer 1"
     inkscape:groupmode="layer"
     id="layer1"
     transform="translate(0,-281.12498)">
    <path
       inkscape:connector-curvature="0"
       id="path19054"
       style="font-style:normal;font-variant:normal;font-weight:normal;font-stretch:normal;font-size:10.58333302px;line-height:1.25;font-family:'Font Awesome 5 Free';-inkscape-font-specification:'Font Awesome 5 Free';letter-spacing:0px;word-spacing:0px;fill:url(#linearGradient19057);fill-opacity:1;stroke:none;stroke-width:0.26458332"
       d="m 12.717739,290.2898 -0.888834,-0.4961 c 0.103353,-0.49609 0.103353,-0.97152 0,-1.46761 L 12.717739,287.83 c 0.103353,-0.062 0.144694,-0.18604 0.103353,-0.28939 -0.227376,-0.74414 -0.620117,-1.4056 -1.116211,-1.96371 -0.08268,-0.0827 -0.206705,-0.10335 -0.310058,-0.0413 l -0.888835,0.4961 c -0.37207,-0.31006 -0.7854815,-0.55811 -1.2402341,-0.72347 v -1.01286 c 0,-0.10335 -0.082682,-0.20671 -0.2067058,-0.22738 -0.7648111,-0.18603 -1.5296223,-0.16536 -2.2530923,0 -0.1240235,0.0207 -0.1860352,0.12403 -0.1860352,0.22738 v 1.01286 c -0.4754232,0.16536 -0.8888346,0.41341 -1.2609049,0.74414 L 4.4701811,285.5356 c -0.1033529,-0.062 -0.2273763,-0.0413 -0.3100586,0.0413 -0.4960937,0.55811 -0.8888346,1.21957 -1.1162109,1.96371 -0.041341,0.10335 0,0.22738 0.1033529,0.28939 l 0.8888346,0.49609 c -0.082682,0.49609 -0.082682,0.97152 0,1.46761 l -0.8888346,0.4961 c -0.1033529,0.062 -0.144694,0.18603 -0.1033529,0.28938 0.2273763,0.74414 0.6201172,1.4056 1.1162109,1.96371 0.082682,0.0827 0.2067057,0.10335 0.3100586,0.0413 l 0.8888346,-0.4961 c 0.3720703,0.31006 0.7854817,0.55811 1.2609049,0.72347 v 1.01286 c 0,0.10336 0.082682,0.20671 0.1860352,0.24805 0.7648111,0.16536 1.5296223,0.14469 2.2530923,0 0.1240235,-0.0413 0.2067058,-0.14469 0.2067058,-0.24805 v -1.01286 c 0.4547526,-0.16536 0.8681641,-0.41341 1.2402341,-0.72347 l 0.888835,0.4961 c 0.103353,0.062 0.227376,0.0413 0.310058,-0.0413 0.516765,-0.55811 0.888835,-1.21957 1.136882,-1.96371 0.02067,-0.10335 -0.02067,-0.22737 -0.124024,-0.28938 z m -4.7749018,0.41341 c -0.9301757,0 -1.6536457,-0.72347 -1.6536457,-1.65365 0,-0.9095 0.72347,-1.65365 1.6536457,-1.65365 0.9095052,0 1.6536458,0.74415 1.6536458,1.65365 0,0.93018 -0.7441406,1.65365 -1.6536458,1.65365 z" />
  </g>
</svg>
