<?xml version="1.0" encoding="UTF-8" standalone="no"?>
<!-- Created with Inkscape (http://www.inkscape.org/) -->

<svg
   xmlns:dc="http://purl.org/dc/elements/1.1/"
   xmlns:cc="http://creativecommons.org/ns#"
   xmlns:rdf="http://www.w3.org/1999/02/22-rdf-syntax-ns#"
   xmlns:svg="http://www.w3.org/2000/svg"
   xmlns="http://www.w3.org/2000/svg"
   xmlns:xlink="http://www.w3.org/1999/xlink"
   xmlns:sodipodi="http://sodipodi.sourceforge.net/DTD/sodipodi-0.dtd"
   xmlns:inkscape="http://www.inkscape.org/namespaces/inkscape"
   width="60"
   height="60"
   viewBox="0 0 15.875 15.875"
   version="1.1"
   id="svg5357"
   inkscape:version="0.92.4 (5da689c313, 2019-01-14)"
   sodipodi:docname="iso_menu_delete_app_button.svg">
  <defs
     id="defs5351">
    <linearGradient
       id="linearGradient1935"
       inkscape:collect="always">
      <stop
         id="stop1931"
         offset="0"
         style="stop-color:#dbdbdb;stop-opacity:1" />
      <stop
         id="stop1933"
         offset="1"
         style="stop-color:#ffffff;stop-opacity:1" />
    </linearGradient>
    <linearGradient
       inkscape:collect="always"
       xlink:href="#linearGradient1935"
       id="linearGradient6553"
       gradientUnits="userSpaceOnUse"
       gradientTransform="matrix(1.2857144,0,0,1.2857144,68.556842,-41.174485)"
       x1="333.53189"
       y1="105.25716"
       x2="339.22046"
       y2="99.237892" />
    <linearGradient
       inkscape:collect="always"
       xlink:href="#linearGradient1935"
       id="linearGradient7668-1-4"
       gradientUnits="userSpaceOnUse"
       gradientTransform="matrix(4.8593949,0,0,4.8593949,-1600.8874,-469.11092)"
       x1="333.53189"
       y1="105.25716"
       x2="339.22046"
       y2="99.237892" />
  </defs>
  <sodipodi:namedview
     id="base"
     pagecolor="#ffffff"
     bordercolor="#666666"
     borderopacity="1.0"
     inkscape:pageopacity="0.0"
     inkscape:pageshadow="2"
     inkscape:zoom="12.364769"
     inkscape:cx="32.715116"
     inkscape:cy="32.12896"
     inkscape:document-units="mm"
     inkscape:current-layer="layer1"
     showgrid="false"
     units="px"
     inkscape:window-width="1920"
     inkscape:window-height="1013"
     inkscape:window-x="-9"
     inkscape:window-y="-9"
     inkscape:window-maximized="1" />
  <metadata
     id="metadata5354">
    <rdf:RDF>
      <cc:Work
         rdf:about="">
        <dc:format>image/svg+xml</dc:format>
        <dc:type
           rdf:resource="http://purl.org/dc/dcmitype/StillImage" />
        <dc:title />
      </cc:Work>
    </rdf:RDF>
  </metadata>
  <g
     inkscape:label="Layer 1"
     inkscape:groupmode="layer"
     id="layer1"
     transform="translate(0,-281.12498)">
    <path
       style="font-style:normal;font-variant:normal;font-weight:normal;font-stretch:normal;font-size:7.64731169px;line-height:1.25;font-family:'Font Awesome 5 Free';-inkscape-font-specification:'Font Awesome 5 Free';letter-spacing:0px;word-spacing:0px;display:inline;fill:url(#linearGradient7668-1-4);fill-opacity:1;stroke:none;stroke-width:0.92903274"
       d="M 30 12 C 20.056518 12 12 20.056441 12 30 C 12 39.943521 20.056518 48 30 48 C 39.94356 48 48 39.943521 48 30 C 48 20.056441 39.94356 12 30 12 z M 27.5625 19.232422 L 32.398438 19.232422 C 32.735193 19.232422 33.112906 19.485736 33.28125 19.822266 L 33.701172 20.578125 L 38.75 20.578125 C 39.086378 20.578125 39.421875 20.915348 39.421875 21.251953 L 39.421875 22.597656 C 39.421875 22.976214 39.086525 23.269531 38.75 23.269531 L 21.251953 23.269531 C 20.873396 23.269531 20.578125 22.976214 20.578125 22.597656 L 20.578125 21.251953 C 20.578125 20.915575 20.873396 20.578125 21.251953 20.578125 L 26.298828 20.578125 L 26.677734 19.822266 C 26.803593 19.485888 27.225971 19.232422 27.5625 19.232422 z M 21.923828 24.615234 L 38.076172 24.615234 L 37.152344 38.875 C 37.108501 39.926578 36.18439 40.767578 35.132812 40.767578 L 24.826172 40.767578 C 23.774633 40.767578 22.850622 39.926578 22.808594 38.875 L 21.923828 24.615234 z "
       transform="matrix(0.26458333,0,0,0.26458333,0,281.12498)"
       id="path11938" />
  </g>
</svg>
