<?xml version="1.0" encoding="UTF-8" standalone="no"?>
<!-- Created with Inkscape (http://www.inkscape.org/) -->

<svg
   xmlns:dc="http://purl.org/dc/elements/1.1/"
   xmlns:cc="http://creativecommons.org/ns#"
   xmlns:rdf="http://www.w3.org/1999/02/22-rdf-syntax-ns#"
   xmlns:svg="http://www.w3.org/2000/svg"
   xmlns="http://www.w3.org/2000/svg"
   xmlns:xlink="http://www.w3.org/1999/xlink"
   xmlns:sodipodi="http://sodipodi.sourceforge.net/DTD/sodipodi-0.dtd"
   xmlns:inkscape="http://www.inkscape.org/namespaces/inkscape"
   width="60"
   height="60"
   viewBox="0 0 15.875 15.875"
   version="1.1"
   id="svg4407"
   inkscape:version="0.92.4 (5da689c313, 2019-01-14)"
   sodipodi:docname="menu_license_button.svg">
  <defs
     id="defs4401">
    <linearGradient
       id="linearGradient1935"
       inkscape:collect="always">
      <stop
         id="stop1931"
         offset="0"
         style="stop-color:#dbdbdb;stop-opacity:1" />
      <stop
         id="stop1933"
         offset="1"
         style="stop-color:#ffffff;stop-opacity:1" />
    </linearGradient>
    <linearGradient
       inkscape:collect="always"
       xlink:href="#linearGradient1935"
       id="linearGradient4985"
       x1="4.2322721"
       y1="65.823776"
       x2="12.521172"
       y2="56.894089"
       gradientUnits="userSpaceOnUse"
       gradientTransform="translate(18.594628,-1.632148)" />
    <linearGradient
       inkscape:collect="always"
       xlink:href="#linearGradient1935"
       id="linearGradient5146"
       gradientUnits="userSpaceOnUse"
       x1="5.6470833"
       y1="73.281136"
       x2="11.827924"
       y2="65.343636"
       gradientTransform="translate(18.648419,38.181878)" />
    <linearGradient
       inkscape:collect="always"
       xlink:href="#linearGradient1935"
       id="linearGradient5186"
       gradientUnits="userSpaceOnUse"
       gradientTransform="translate(18.354274,38.059316)"
       x1="4.8394475"
       y1="89.146431"
       x2="12.297809"
       y2="81.605804" />
    <linearGradient
       inkscape:collect="always"
       xlink:href="#linearGradient1935"
       id="linearGradient5226"
       x1="-31.647053"
       y1="111.2722"
       x2="-23.21524"
       y2="102.94675"
       gradientUnits="userSpaceOnUse"
       gradientTransform="translate(53.943473,32.418764)" />
    <linearGradient
       inkscape:collect="always"
       xlink:href="#linearGradient1935"
       id="linearGradient17301"
       gradientUnits="userSpaceOnUse"
       gradientTransform="translate(35.321872,181.90619)"
       x1="-31.647053"
       y1="111.2722"
       x2="-23.21524"
       y2="102.94675" />
  </defs>
  <sodipodi:namedview
     id="base"
     pagecolor="#ffffff"
     bordercolor="#666666"
     borderopacity="1.0"
     inkscape:pageopacity="0.0"
     inkscape:pageshadow="2"
     inkscape:zoom="7.5366211"
     inkscape:cx="47.501896"
     inkscape:cy="32.702153"
     inkscape:document-units="mm"
     inkscape:current-layer="layer1"
     showgrid="false"
     units="px"
     inkscape:window-width="1920"
     inkscape:window-height="1013"
     inkscape:window-x="-9"
     inkscape:window-y="-9"
     inkscape:window-maximized="1" />
  <metadata
     id="metadata4404">
    <rdf:RDF>
      <cc:Work
         rdf:about="">
        <dc:format>image/svg+xml</dc:format>
        <dc:type
           rdf:resource="http://purl.org/dc/dcmitype/StillImage" />
        <dc:title />
      </cc:Work>
    </rdf:RDF>
  </metadata>
  <g
     inkscape:label="Layer 1"
     inkscape:groupmode="layer"
     id="layer1"
     transform="translate(0,-281.12498)">
    <path
       inkscape:connector-curvature="0"
       id="path17298"
       style="font-style:normal;font-variant:normal;font-weight:normal;font-stretch:normal;font-size:10.58333302px;line-height:1.25;font-family:'Font Awesome 5 Free';-inkscape-font-specification:'Font Awesome 5 Free';letter-spacing:0px;word-spacing:0px;fill:url(#linearGradient17301);fill-opacity:1;stroke:none;stroke-width:0.26458332"
       d="m 13.229167,287.42949 c 0,-2.02571 -1.632976,-3.65869 -3.6586918,-3.65869 -2.0050455,0.0207 -3.6173501,1.63298 -3.6173501,3.63802 0,0.41342 0.062012,0.78549 0.1653645,1.15756 l -3.3279621,3.32796 c -0.1033529,0.10335 -0.144694,0.22737 -0.144694,0.3514 v 1.6123 c 0,0.28939 0.2067057,0.4961 0.4960937,0.4961 h 2.3151041 c 0.2687175,0 0.4960938,-0.20671 0.4960938,-0.4961 v -0.82682 H 6.779948 c 0.2687174,0 0.4960937,-0.20671 0.4960937,-0.49609 v -0.82683 h 0.7648112 v 0 c 0.1240234,0 0.289388,-0.062 0.3720703,-0.16536 l 0.4960937,-0.55811 c 0.2067057,0.0413 0.434082,0.062 0.6821289,0.062 2.0050452,0 3.6380212,-1.6123 3.6380212,-3.61735 z m -3.6380212,-1.01285 c 0,-0.53744 0.4340822,-0.99219 0.9921872,-0.99219 0.537435,0 0.992188,0.45475 0.992188,0.99219 0,0.5581 -0.454753,0.99218 -0.992188,0.99218 -0.558105,0 -0.9921872,-0.43408 -0.9921872,-0.99218 z" />
  </g>
</svg>
