<?xml version="1.0" encoding="UTF-8" standalone="no"?>
<!-- Created with Inkscape (http://www.inkscape.org/) -->

<svg
   xmlns:dc="http://purl.org/dc/elements/1.1/"
   xmlns:cc="http://creativecommons.org/ns#"
   xmlns:rdf="http://www.w3.org/1999/02/22-rdf-syntax-ns#"
   xmlns:svg="http://www.w3.org/2000/svg"
   xmlns="http://www.w3.org/2000/svg"
   xmlns:xlink="http://www.w3.org/1999/xlink"
   xmlns:sodipodi="http://sodipodi.sourceforge.net/DTD/sodipodi-0.dtd"
   xmlns:inkscape="http://www.inkscape.org/namespaces/inkscape"
   width="60"
   height="60"
   viewBox="0 0 15.875 15.875"
   version="1.1"
   id="svg4407"
   inkscape:version="0.92.4 (5da689c313, 2019-01-14)"
   sodipodi:docname="menu_about_button.svg">
  <defs
     id="defs4401">
    <linearGradient
       id="linearGradient1935"
       inkscape:collect="always">
      <stop
         id="stop1931"
         offset="0"
         style="stop-color:#dbdbdb;stop-opacity:1" />
      <stop
         id="stop1933"
         offset="1"
         style="stop-color:#ffffff;stop-opacity:1" />
    </linearGradient>
    <linearGradient
       inkscape:collect="always"
       xlink:href="#linearGradient1935"
       id="linearGradient4985"
       x1="4.2322721"
       y1="65.823776"
       x2="12.521172"
       y2="56.894089"
       gradientUnits="userSpaceOnUse"
       gradientTransform="translate(18.594628,-1.632148)" />
    <linearGradient
       inkscape:collect="always"
       xlink:href="#linearGradient1935"
       id="linearGradient5146"
       gradientUnits="userSpaceOnUse"
       x1="5.6470833"
       y1="73.281136"
       x2="11.827924"
       y2="65.343636"
       gradientTransform="translate(18.648419,38.181878)" />
    <linearGradient
       inkscape:collect="always"
       xlink:href="#linearGradient1935"
       id="linearGradient5186"
       gradientUnits="userSpaceOnUse"
       gradientTransform="translate(18.354274,38.059316)"
       x1="4.8394475"
       y1="89.146431"
       x2="12.297809"
       y2="81.605804" />
    <linearGradient
       inkscape:collect="always"
       xlink:href="#linearGradient1935"
       id="linearGradient5226"
       x1="-31.647053"
       y1="111.2722"
       x2="-23.21524"
       y2="102.94675"
       gradientUnits="userSpaceOnUse"
       gradientTransform="translate(53.943473,32.418764)" />
    <linearGradient
       inkscape:collect="always"
       xlink:href="#linearGradient1935"
       id="linearGradient5290"
       x1="5.0514431"
       y1="209.68726"
       x2="12.149689"
       y2="202.16107"
       gradientUnits="userSpaceOnUse"
       gradientTransform="translate(18.326409,-34.654509)" />
    <linearGradient
       inkscape:collect="always"
       xlink:href="#linearGradient1935"
       id="linearGradient15522"
       gradientUnits="userSpaceOnUse"
       gradientTransform="matrix(3.7795276,0,0,3.7795276,-1.7740239,-748.50526)"
       x1="5.0514431"
       y1="209.68726"
       x2="12.149689"
       y2="202.16107" />
  </defs>
  <sodipodi:namedview
     id="base"
     pagecolor="#ffffff"
     bordercolor="#666666"
     borderopacity="1.0"
     inkscape:pageopacity="0.0"
     inkscape:pageshadow="2"
     inkscape:zoom="12.364769"
     inkscape:cx="26.826139"
     inkscape:cy="27.048801"
     inkscape:document-units="mm"
     inkscape:current-layer="layer1"
     showgrid="false"
     units="px"
     inkscape:window-width="1920"
     inkscape:window-height="1013"
     inkscape:window-x="-9"
     inkscape:window-y="-9"
     inkscape:window-maximized="1" />
  <metadata
     id="metadata4404">
    <rdf:RDF>
      <cc:Work
         rdf:about="">
        <dc:format>image/svg+xml</dc:format>
        <dc:type
           rdf:resource="http://purl.org/dc/dcmitype/StillImage" />
        <dc:title />
      </cc:Work>
    </rdf:RDF>
  </metadata>
  <g
     inkscape:label="Layer 1"
     inkscape:groupmode="layer"
     id="layer1"
     transform="translate(0,-281.12498)">
    <path
       style="font-style:normal;font-variant:normal;font-weight:normal;font-stretch:normal;font-size:10.58333302px;line-height:1.25;font-family:'Glyphicons IFX';-inkscape-font-specification:'Glyphicons IFX';letter-spacing:0px;word-spacing:0px;fill:url(#linearGradient15522);fill-opacity:1;stroke:none;stroke-width:0.99999994"
       d="M 30 10.625 C 19.296875 10.625 10.625 19.374992 10.625 30 C 10.625 40.703131 19.296875 49.375 30 49.375 C 40.625 49.375 49.375 40.703131 49.375 30 C 49.375 19.374992 40.625 10.625 30 10.625 z M 30 19.21875 C 31.796875 19.21875 33.28125 20.703137 33.28125 22.5 C 33.28125 24.375024 31.796875 25.78125 30 25.78125 C 28.125 25.78125 26.71875 24.375024 26.71875 22.5 C 26.71875 20.703137 28.125 19.21875 30 19.21875 z M 26.5625 27.5 L 31.5625 27.5 C 32.03125 27.5 32.5 27.968725 32.5 28.4375 L 32.5 36.25 L 33.4375 36.25 C 33.90625 36.25 34.375 36.718763 34.375 37.1875 L 34.375 39.0625 C 34.375 39.60936 33.90625 40 33.4375 40 L 26.5625 40 C 26.015625 40 25.625 39.60936 25.625 39.0625 L 25.625 37.1875 C 25.625 36.718763 26.015625 36.25 26.5625 36.25 L 27.5 36.25 L 27.5 31.25 L 26.5625 31.25 C 26.015625 31.25 25.625 30.859398 25.625 30.3125 L 25.625 28.4375 C 25.625 27.968725 26.015625 27.5 26.5625 27.5 z "
       id="path15529"
       transform="matrix(0.26458333,0,0,0.26458333,0,281.12498)" />
  </g>
</svg>
