<?xml version="1.0" encoding="UTF-8" standalone="no"?>
<!-- Created with Inkscape (http://www.inkscape.org/) -->

<svg
   xmlns:dc="http://purl.org/dc/elements/1.1/"
   xmlns:cc="http://creativecommons.org/ns#"
   xmlns:rdf="http://www.w3.org/1999/02/22-rdf-syntax-ns#"
   xmlns:svg="http://www.w3.org/2000/svg"
   xmlns="http://www.w3.org/2000/svg"
   xmlns:xlink="http://www.w3.org/1999/xlink"
   xmlns:sodipodi="http://sodipodi.sourceforge.net/DTD/sodipodi-0.dtd"
   xmlns:inkscape="http://www.inkscape.org/namespaces/inkscape"
   width="60"
   height="60"
   viewBox="0 0 15.875 15.875"
   version="1.1"
   id="svg5357"
   inkscape:version="0.92.4 (5da689c313, 2019-01-14)"
   sodipodi:docname="iso_menu_puzzles_inactive_button.svg">
  <defs
     id="defs5351">
    <linearGradient
       inkscape:collect="always"
       xlink:href="#linearGradient1935"
       id="linearGradient4222"
       gradientUnits="userSpaceOnUse"
       x1="2249.4343"
       y1="226.81467"
       x2="2268.79"
       y2="202.41948"
       gradientTransform="matrix(0.34017857,0,0,0.34017857,-759.7492,215.69354)" />
    <linearGradient
       id="linearGradient1935"
       inkscape:collect="always">
      <stop
         id="stop1931"
         offset="0"
         style="stop-color:#dbdbdb;stop-opacity:1" />
      <stop
         id="stop1933"
         offset="1"
         style="stop-color:#ffffff;stop-opacity:1" />
    </linearGradient>
  </defs>
  <sodipodi:namedview
     id="base"
     pagecolor="#ffffff"
     bordercolor="#666666"
     borderopacity="1.0"
     inkscape:pageopacity="0.0"
     inkscape:pageshadow="2"
     inkscape:zoom="15.073242"
     inkscape:cx="22.99993"
     inkscape:cy="32.170782"
     inkscape:document-units="mm"
     inkscape:current-layer="layer1"
     showgrid="false"
     units="px"
     inkscape:window-width="1920"
     inkscape:window-height="1013"
     inkscape:window-x="-9"
     inkscape:window-y="-9"
     inkscape:window-maximized="1" />
  <metadata
     id="metadata5354">
    <rdf:RDF>
      <cc:Work
         rdf:about="">
        <dc:format>image/svg+xml</dc:format>
        <dc:type
           rdf:resource="http://purl.org/dc/dcmitype/StillImage" />
        <dc:title />
      </cc:Work>
    </rdf:RDF>
  </metadata>
  <g
     inkscape:label="Layer 1"
     inkscape:groupmode="layer"
     id="layer1"
     transform="translate(0,-281.12498)">
    <path
       id="path4216"
       d="m 7.9374939,284.29998 c -2.630907,0 -4.7625,2.13161 -4.7625,4.7625 0,2.6309 2.131593,4.7625 4.7625,4.7625 0.9993766,0 1.9257169,-0.30881 2.6915271,-0.8345 H 8.7261639 a 0.51433714,0.51433714 0 0 1 -0.5096215,-0.4518 c -0.074397,-0.59846 -0.11049,-1.26629 -0.1680822,-1.86832 -0.071029,0.0469 -0.077765,0.0356 -0.1534886,0.095 -0.1502909,0.11786 -0.3068071,0.24506 -0.4816929,0.35679 -0.1748858,0.11172 -0.3712028,0.2312 -0.663076,0.23121 -0.5362235,-5e-5 -0.9702914,-0.34901 -1.2358007,-0.77869 -0.2655434,-0.42968 -0.4066495,-0.97235 -0.4066495,-1.56203 0,-0.58969 0.1411061,-1.12969 0.4066495,-1.55937 0.2655093,-0.42967 0.6995772,-0.77865 1.2358007,-0.77869 0.2921113,0 0.4835298,0.11702 0.6577693,0.22656 0.1742054,0.10951 0.3304834,0.23414 0.4796858,0.34882 0.1307646,0.1004 0.1301523,0.0948 0.2312193,0.15082 0.00748,-0.0825 0.01939,-0.13341 0.024493,-0.22856 0.025513,-0.45984 0.021771,-0.99517 0.07307,-1.38397 a 0.51433714,0.51433714 0 0 1 0.5096216,-0.44914 H 10.90198 c -0.813707,-0.64863 -1.8427132,-1.03914 -2.9645881,-1.03914 z"
       style="font-style:normal;font-variant:normal;font-weight:normal;font-stretch:normal;font-size:7.64731169px;line-height:1.25;font-family:'Font Awesome 5 Free';-inkscape-font-specification:'Font Awesome 5 Free';letter-spacing:0px;word-spacing:0px;fill:url(#linearGradient4222);fill-opacity:1;stroke:none;stroke-width:0.24580646"
       inkscape:connector-curvature="0" />
    <path
       id="path4218"
       d="m 9.2131636,286.36829 c -0.013267,0.27541 -0.024153,0.5323 -0.042522,0.86175 -0.013947,0.25021 -0.034018,0.48549 -0.077731,0.70029 -0.022112,0.10739 -0.046706,0.20867 -0.1083128,0.32888 -0.061538,0.12023 -0.2004673,0.321 -0.474379,0.35945 a 0.51433714,0.51433714 0 0 1 -0.047829,0.002 c -0.5837125,0.0278 -0.8923225,-0.31845 -1.1999459,-0.55478 -0.1537948,-0.11818 -0.2960234,-0.22707 -0.401955,-0.29367 -0.070757,-0.0447 -0.1222262,-0.0593 -0.1309007,-0.0644 -0.085963,0.008 -0.2064204,0.0714 -0.3388519,0.28569 -0.1425348,0.23065 -0.2531609,0.6013 -0.2531269,1.01921 -3.4e-5,0.4179 0.1105921,0.78923 0.2531269,1.01987 0.1330778,0.21531 0.2541474,0.27971 0.3401785,0.28769 0.00782,-0.005 0.056232,-0.0193 0.1269207,-0.0645 0.1046389,-0.0668 0.2469356,-0.17735 0.401955,-0.29898 0.3100387,-0.24318 0.6469516,-0.58286 1.2105594,-0.59996 a 0.51433714,0.51433714 0 0 1 0.5149283,0.392 c 0.1736952,0.70911 0.1653949,1.54474 0.2079512,2.21182 h 2.5181036 c 0.617764,-0.80324 0.988661,-1.80616 0.988661,-2.89816 0,-1.00057 -0.309665,-1.92784 -0.836499,-2.69419 z"
       style="font-style:normal;font-variant:normal;font-weight:normal;font-stretch:normal;font-size:7.64731169px;line-height:1.25;font-family:'Font Awesome 5 Free';-inkscape-font-specification:'Font Awesome 5 Free';letter-spacing:0px;word-spacing:0px;fill:#d0cabd;fill-opacity:1;stroke:none;stroke-width:0.24580646"
       inkscape:connector-curvature="0" />
  </g>
</svg>
