{"accessors":[{"bufferView":0,"componentType":5123,"count":12288,"max":[2396],"min":[0],"type":"SCALAR"},{"bufferView":1,"componentType":5126,"count":2397,"max":[49.114192962646484,45.06343078613281,28.61170196533203],"min":[-42.91755294799805,0.0,-28.61170196533203],"type":"VEC3"},{"bufferView":2,"componentType":5126,"count":2397,"max":[0.9994003176689148,1.0,0.9999986290931702],"min":[-0.9995805621147156,-1.0,-0.9999988675117493],"type":"VEC3"},{"bufferView":3,"componentType":5126,"count":2397,"max":[2.0,1.0],"min":[0.0,-1.0],"type":"VEC2"}],"asset":{"generator":"Soft8Soft Verge3D for 3ds Max plug-in","version":"2.0"},"bufferViews":[{"buffer":0,"byteLength":24576,"byteOffset":0,"target":34963},{"buffer":0,"byteLength":28764,"byteOffset":24576,"target":34962},{"buffer":0,"byteLength":28764,"byteOffset":53340,"target":34962},{"buffer":0,"byteLength":19176,"byteOffset":82104,"target":34962}],"buffers":[{"byteLength":101280,"uri":"template.bin"}],"cameras":[{"extensions":{"S8S_v3d_camera_data":{"controls":"ORBIT","enablePan":true,"moveSpeed":1,"orbitMaxDistance":10000,"orbitMaxPolarAngle":3.141592653589793,"orbitMinDistance":0,"orbitMinPolarAngle":0,"orbitTarget":[0,0,0],"rotateSpeed":1,"viewportFitInitialAspect":1.3333333730697632,"viewportFitType":"VERTICAL"}},"name":"__DEFAULT__","perspective":{"aspectRatio":1.3333333730697632,"yfov":0.6024156988215424,"zfar":4000.0,"znear":1.0},"type":"perspective"}],"extensions":{"S8S_v3d_data":{"lights":[{"color":[1,1,1],"intensity":1,"name":"__DEFAULT__","profile":"max","type":"point"},{"color":[0.0,0.0,0.0],"intensity":1,"name":"__AMBIENT__","profile":"max","type":"ambient"}]}},"extensionsUsed":["S8S_v3d_material_data","S8S_v3d_camera_data","S8S_v3d_data","S8S_v3d_node_data","S8S_v3d_scene_data"],"materials":[{"doubleSided":false,"emissiveFactor":[0,0,0],"extensions":{"S8S_v3d_material_data":{"nodeGraph":{"edges":[{"fromNode":1,"fromOutput":0,"toInput":0,"toNode":0},{"fromNode":1,"fromOutput":1,"toInput":1,"toNode":0}],"nodes":[{"inputs":[[1,1,1,1]],"is_active_output":true,"name":"MaxOutput","outputs":[],"type":"OUTPUT_MAX"},{"IOR":1.5,"inputFactors":[0,0,0,0,0,0,0,0,0,0,0,0],"inputs":[[0.34117648005485535,0.8823529481887817,0.34117648005485535,1.0],[0.34117648005485535,0.8823529481887817,0.34117648005485535,1.0],[0.8999999761581421,0.8999999761581421,0.8999999761581421,1.0],0.3100000023841858,0.2199999988079071,[0.0,0.0,0.0,1.0],1.0,[0,0,0,0],[0,0,0],[0,0,0,0],[0,0,0,0],0],"is_active_output":false,"name":"__DEFAULT__2080949236992","outputs":[[0,0,0,0]],"selfIllumColorOn":false,"type":"MATERIAL_MAX"}]},"profile":"max"}},"name":"__DEFAULT__2080949236992"},{"extensions":{"S8S_v3d_material_data":{"nodeGraph":{"edges":[],"nodes":[{"inputs":[[0.0,0.0,0.0,1]],"is_active_output":true,"name":"World Output","outputs":[],"type":"OUTPUT_MAX"}]},"profile":"max"}},"name":"Verge3D_Environment"}],"meshes":[{"name":"Teapot001","primitives":[{"attributes":{"NORMAL":2,"POSITION":1,"TEXCOORD_0":3},"indices":0,"material":0,"mode":4}]}],"nodes":[{"extensions":{"S8S_v3d_node_data":{"frustumCulling":true,"hidden":false,"renderOrder":0,"useCastShadows":true,"useShadows":true}},"mesh":0,"name":"Teapot001","translation":[0.0,-10.0,-0.0]},{"camera":0,"children":[2],"name":"__DEFAULT_CAMERA__","rotation":[-0.2391176074743271,-0.36964380741119385,-0.09904573857784271,0.8923991322517395],"scale":[1.0,1.0000001192092896,1.0000001192092896],"translation":[-153.09310913085938,124.99998474121094,153.09310913085938]},{"extensions":{"S8S_v3d_node_data":{"light":0}},"name":"__DEFAULT_LIGHT__","rotation":[3.774895063202166e-08,0.0,0.0,1.0],"scale":[1.0,1.0,1.0],"translation":[230.07936096191406,345.1190185546875,460.1587219238281]}],"scene":0,"scenes":[{"extensions":{"S8S_v3d_scene_data":{"aaMethod":"AUTO","light":1,"postprocessing":[],"shadowMap":{"renderReverseSided":false,"renderSingleSided":true,"type":"PCFPOISSON"},"worldMaterial":1}},"extras":{"animFrameRate":30,"coordSystem":"Z_UP_RIGHT"},"name":"Scene","nodes":[0,1]}]}
