{"accessors":[{"bufferView":0,"componentType":5123,"count":93069,"max":[20282],"min":[0],"type":"SCALAR"},{"bufferView":1,"componentType":5126,"count":20283,"max":[1.5079419612884521,1.010740041732788,1.2143019437789917],"min":[-1.5079419612884521,-1.1086570024490356,-1.3452579975128174],"type":"VEC3"},{"bufferView":2,"componentType":5126,"count":20283,"max":[0.9999879598617554,0.9999902248382568,0.9999471306800842],"min":[-0.9999944567680359,-0.999995231628418,-0.9999944567680359],"type":"VEC3"},{"bufferView":3,"componentType":5126,"count":20283,"max":[1.0,0.9999781250953674,0.9999861121177673,1.0],"min":[-1.0,-0.9997841119766235,-0.9999844431877136,-1.0],"type":"VEC4"},{"bufferView":4,"componentType":5126,"count":20283,"max":[0.9928969740867615,1.0],"min":[0.0,0.0021409988403320312],"type":"VEC2"}],"asset":{"generator":"Soft8Soft Verge3D for Blender add-on","version":"2.0"},"bufferViews":[{"buffer":0,"byteLength":186138,"byteOffset":0,"target":34963},{"buffer":0,"byteLength":243396,"byteOffset":186140,"target":34962},{"buffer":0,"byteLength":243396,"byteOffset":429536,"target":34962},{"buffer":0,"byteLength":324528,"byteOffset":672932,"target":34962},{"buffer":0,"byteLength":162264,"byteOffset":997460,"target":34962}],"buffers":[{"byteLength":1159724,"uri":"pbr.bin"}],"cameras":[{"extensions":{"S8S_v3d_camera_data":{"controls":"ORBIT","enablePan":true,"moveSpeed":1.0,"orbitMaxDistance":7.0,"orbitMaxPolarAngle":3.1415927410125732,"orbitMinDistance":4.0,"orbitMinPolarAngle":0.0,"orbitTarget":[0.0,0.0,-0.0],"rotateSpeed":1.0,"viewportFitInitialAspect":1.7777777777777777,"viewportFitType":"AUTO"}},"name":"Camera","perspective":{"aspectRatio":1.7777777777777777,"yfov":0.5033799372418416,"zfar":100.0,"znear":0.10000000149011612},"type":"perspective"}],"extensionsUsed":["S8S_v3d_texture_data","S8S_v3d_material_data","S8S_v3d_camera_data","S8S_v3d_mesh_data","S8S_v3d_node_data","S8S_v3d_scene_data"],"images":[{"uri":"suzannas_helmet_baseColor.jpg"},{"uri":"suzannas_helmet_normal.png"},{"uri":"suzannas_helmet_occlusionRoughnessMetallic.jpg"},{"uri":"environment.jpg"}],"materials":[{"extensions":{"S8S_v3d_material_data":{"useCastShadows":true}},"name":"susannas_help_PBR","normalTexture":{"index":1},"occlusionTexture":{"index":2},"pbrMetallicRoughness":{"baseColorTexture":{"index":0},"metallicRoughnessTexture":{"index":2}}},{"extensions":{"S8S_v3d_material_data":{"nodeGraph":{"edges":[{"fromNode":0,"fromOutput":0,"toInput":0,"toNode":1},{"fromNode":2,"fromOutput":0,"toInput":0,"toNode":0}],"nodes":[{"inputs":[[0.05087608844041824,0.05087608844041824,0.05087608844041824,1.0],15.0],"is_active_output":false,"name":"Background","outputs":[[0,0,0,0]],"type":"BACKGROUND_BL"},{"inputs":[[0,0,0,0],[0,0,0,0]],"is_active_output":true,"name":"World Output","outputs":[],"type":"OUTPUT_WORLD_BL"},{"inputs":[[0.0,0.0,0.0]],"is_active_output":false,"name":"Environment Texture","outputs":[[0.0,0.0,0.0,0.0]],"projection":"EQUIRECTANGULAR","texture":3,"type":"TEX_ENVIRONMENT_BL"}]},"useCastShadows":true}},"name":"Verge3D_Environment_World"}],"meshes":[{"extensions":{"S8S_v3d_mesh_data":{"colorLayers":{},"uvLayers":{}}},"name":"Suzanne.023_Suzanne.031","primitives":[{"attributes":{"NORMAL":2,"POSITION":1,"TANGENT":3,"TEXCOORD_0":4},"indices":0,"material":0,"mode":4}]}],"nodes":[{"extensions":{"S8S_v3d_node_data":{"frustumCulling":true,"groupNames":["Collection 1"],"hidden":false,"renderOrder":0,"useShadows":true}},"mesh":0,"name":"Suzanne.023_Suzanne.031","rotation":[0.7071068286895752,0.0,-0.0,0.7071068286895752],"scale":[1.0,1.000001311302185,1.0],"translation":[0.0,0.14013569056987762,-0.0]},{"camera":0,"extensions":{"S8S_v3d_node_data":{"frustumCulling":true,"groupNames":["Collection 1"],"hidden":false,"renderOrder":0}},"name":"Camera","rotation":[-0.15274617075920105,0.43113070726394653,0.07431614398956299,0.8861557841300964],"scale":[1.0,0.9999999403953552,1.0],"translation":[3.9532058238983154,1.7587759494781494,3.0996923446655273]}],"samplers":[{}],"scene":0,"scenes":[{"extensions":{"S8S_v3d_scene_data":{"aaMethod":"AUTO","iblEnvironmentMode":"PMREM","physicallyCorrectLights":true,"pmremMaxTileSize":512,"shadowMap":{"esmDistanceScale":1.0,"renderReverseSided":false,"renderSingleSided":true,"type":"PCFPOISSON"},"worldMaterial":1}},"extras":{"animFrameRate":24,"coordSystem":"Z_UP_RIGHT"},"name":"Scene","nodes":[0,1]}],"textures":[{"extensions":{"S8S_v3d_texture_data":{"colorSpace":"srgb"}},"name":"suzannas_helmet_baseColor.jpg","sampler":0,"source":0},{"extensions":{"S8S_v3d_texture_data":{"colorSpace":"non-color"}},"name":"suzannas_helmet_normal.png","sampler":0,"source":1},{"extensions":{"S8S_v3d_texture_data":{"colorSpace":"non-color"}},"name":"suzannas_helmet_occlusionRoughnessMetallic.jpg","sampler":0,"source":2},{"extensions":{"S8S_v3d_texture_data":{"colorSpace":"srgb"}},"name":"environment.jpg","sampler":0,"source":3}]}
