<svg xmlns="http://www.w3.org/2000/svg" width="134.667" height="133.71" viewBox="0 0 134.667 133.71">
    <defs>
        <style>
            .cls-1{fill:#462d80}.cls-2{fill:#efbb8c}.cls-5{fill:#01243a}
        </style>
    </defs>
    <g id="illu_dance" transform="translate(-31.68 -1657.724)">
        <path id="패스_1227" d="M197.082 1705.442a3.452 3.452 0 0 0-4.917 1.434c-1.844 3.278-2.254 1.639-3.278 4.507s.819 4.1 2.048 4.712l1.23.614s2.8 1.362 2.832 2.628l.036 1.265 3.278-11.677z" class="cls-1" transform="translate(-94.167 -28.327)"/>
        <path id="패스_1228" d="M188.73 1714.125a3.551 3.551 0 0 0-4.3 1.639c-1.434 2.663.2 4.507 2.458 4.712s1.842-6.351 1.842-6.351z" class="cls-1" transform="translate(-91.346 -33.732)"/>
        <path id="패스_1229" d="M199.375 1706.218s5.828 3.356 5.186 7.607a2.493 2.493 0 0 1-.716 1.406c-.646.635-1.748 1.906-1.6 3.074a3.114 3.114 0 0 0 3.073 2.868s-3.893 3.687-4.712 8.195c0 0-2.458-2.458-8.195-3.688 0 0 4.917-1.639 4.917-5.941a27.19 27.19 0 0 0-.2-4.682 2.065 2.065 0 0 0-1.414-1.547c-.5-.151-1.278-.552-.848-1.556.615-1.434 2.049-.205 2.868-.82s-.291-1.725-.615-2.048c-.203-.205-.819-2.663 2.256-2.868z" class="cls-2" transform="translate(-96.46 -29.103)"/>
        <path id="패스_1230" d="M145.009 1754.891a13.878 13.878 0 0 0-5.736 3.893 46.93 46.93 0 0 1-11.268 8.6c-3.483 1.844-11.678 7.171-12.907 9.014s-2.458 4.507-1.024 5.532 3.073-5.532 4.507-5.736 15.365-6.761 15.98-7.785 4.917-2.458 8.195-5.736 11.473 4.712 11.473 4.712z" class="cls-2" transform="translate(-49.06 -58.314)"/>
        <path id="패스_1231" d="M224.688 1694.422a9.483 9.483 0 0 0 2.458-2.868c1.024-1.844 2.458-3.278 3.073-5.122s1.229-6.966 2.458-9.424a55.118 55.118 0 0 0 3.483-9.424c.205-1.434 3.483-5.736 7.375-5.941a1.361 1.361 0 0 1 0 2.048c-1.024 1.229-4.3 2.663-4.712 3.483s-2.458 12.087-2.868 14.136a46.823 46.823 0 0 1-1.844 8.6c-1.434 4.3-2.868 7.99-3.073 10.244.001.005-4.506 9.224-6.35-5.732z" class="cls-2" transform="translate(-115.832 -2.352)"/>
        <path id="패스_1232" fill="#f97d65" d="M95.949 1748.127s1.434 8.195 3.073 10.244 3.278 5.531 5.327 6.556a12.734 12.734 0 0 0-1.23 3.073c-.2 1.229-4.917 7.99-2.048 15.57 0 0 .819 2.458 0 3.893a50.237 50.237 0 0 0-4.1 6.556c-2.458 4.712-8.4 11.678-17.209 10.449s-12.293-4.3-21.512-3.278-15.775 7.58-17.824 4.507a3.172 3.172 0 0 1-.409-2.254s-3.688-.41-4.917 2.049-1.639 4.3-1.229 5.327 1.229 2.048-.2 2.663a3.71 3.71 0 0 0-1.024 5.736c2.048 2.254 8.4 2.459 8.809 4.917s-1.024 3.278 1.434 4.712 6.966-2.458 7.99-3.278 5.941-5.121 11.268-4.3 6.556 4.3 7.58 5.122 1.639 2.254 5.532 1.844 4.712 4.3 5.941 5.736 5.327 5.122 9.424 1.434 5.327-.615 5.941-.2 3.688 2.049 5.122-2.663c0 0 .2-1.024 1.639-.41a21.475 21.475 0 0 0 4.712 1.434c2.049.41 5.327.41 7.58-1.024s2.663.2 3.893-2.663 2.663-1.024 3.278-3.688 1.639-3.892 4.1-3.483a9.758 9.758 0 0 0 2.663-.409c1.23-.41 10.858 1.639 14.546-1.025s2.254-5.941 4.3-6.761 4.3-1.639 4.917-3.278 4.3-.819 5.736-7.375 4.712-2.664 4.917-9.834 3.688-4.3 1.844-10.448.409-6.966-2.868-10.038c0 0-2.868.2-5.941-4.712s-10.653-9.834-15.57-11.063-15.365-8.195-19.053-9.629a20.2 20.2 0 0 0-2.458 5.737c-.41 2.458-3.893 4.917-4.712 2.868s-1.434-3.073 0-7.375c0 0-2.868.2-3.483-.615s-1.844-3.688-2.868-5.122a15.552 15.552 0 0 0-4.712 8.195 14.922 14.922 0 0 0-8.199-3.697z" transform="translate(0 -51.55)"/>
        <path id="패스_1233" d="M256.411 1708.99s2.254-6.35 3.688-9.424 2.254-11.883 4.507-15.98a27.547 27.547 0 0 0 1.024-4.3c.615-3.278 2.049 3.688 2.049 3.688a15.208 15.208 0 0 0-.259 4.592c.205 2.868-3.019 15.486-3.224 17.535s-1.844 21.716-6.966 27.453c0 0-1.639-7.99-2.049-9.015s0-9.424.615-11.473a12.129 12.129 0 0 0 .615-3.076z" class="cls-2" transform="translate(-134.033 -12.412)"/>
        <path id="패스_1234" d="M230.7 1886.311s.615 15.549-4.712 28.742c0 0-2.667 4.129-1.643 6.484s-2.25-2.008-2.25-2.008-.816-10.366 8.605-33.218z" class="cls-2" transform="translate(-114.267 -137.184)"/>
        <path id="패스_1235" fill="none" stroke="#a5203f" stroke-miterlimit="10" stroke-width="3px" d="M250.713 1813.813s2.459 13.726-6.556 28.682" transform="translate(-127.516 -93.675)"/>
        <g id="그룹_37" transform="translate(129.614 1657.724)">
            <path id="패스_1236" d="M276.72 1673.961a.475.475 0 0 1-.092-.48c.573-1.634 2.437-6.785 2.109-8.093-.357-1.42-1.622-6.353-1.034-7.334s3.548 5.139 3.9 6.144c.115.329-.372 1.807-.563 4.162-.21 2.584-.5 5.859-.756 8.345a1.115 1.115 0 0 1-2.149.292 13.534 13.534 0 0 0-1.415-3.036z" class="cls-2" transform="translate(-276.599 -1657.858)"/>
            <path id="패스_1237" d="M280.4 1661.158a22.612 22.612 0 0 0 2.651 3.583 2.593 2.593 0 0 0 .072-.816c-.515-1.293-3.382-6.712-3.954-6.161-.3.292-.178 3.15.134 3.811a1.871 1.871 0 0 0 1.097-.417z" class="cls-5" transform="translate(-278.039 -1657.724)"/>
        </g>
        <g id="그룹_38" transform="translate(107.291 1775.824)">
            <path id="패스_1238" d="M225.961 1953.084c-.339 1.477-2.37 5.329-1.668 7.06s2.217 7.088 1.693 8.27-4.534-4.778-5.072-5.771.63-7.139.785-8.627c1.146.014 3.168-1.031 4.262-.932z" class="cls-2" transform="translate(-220.773 -1953.077)"/>
            <path id="패스_1239" d="M224.346 1977.905a30.126 30.126 0 0 0-3.548-3.158 3.668 3.668 0 0 0 .07 1.1c1.241 1.692 4.67 6.5 5.087 5.766.222-.391.256-3.72-.352-4.5a2.613 2.613 0 0 0-1.257.792z" class="cls-5" transform="translate(-220.782 -1966.082)"/>
        </g>
    </g>
</svg>
