<svg xmlns="http://www.w3.org/2000/svg" width="160" height="160" viewBox="0 0 160 160">
    <defs>
        <clipPath id="clip-path">
            <rect id="background" width="160" height="160" fill="#b7bacf" rx="4" transform="translate(4234.324 693.325)"/>
        </clipPath>
        <style>
            .cls-3{fill:#f0bc8d}.cls-6{fill:#260219}
        </style>
    </defs>
    <g id="illu_greeting" clip-path="url(#clip-path)" transform="translate(-4234.324 -693.325)">
        <path id="패스_1267" d="M4300.157 1019.545v3.348l4.757.529.706-5.11z" class="cls-3" transform="translate(-5.306 -154.04)"/>
        <path id="패스_1268" d="M4354.186 1016.111l.789 3.254 4.748-.607-.519-5.132z" class="cls-3" transform="translate(-34.461 -151.511)"/>
        <path id="패스_1269" d="M4331.037 734.325s5.99 16.915-2.644 15.153l-.88 5.462-8.986-.7a34.348 34.348 0 0 0 2.466-12.334c0-6.7 10.044-7.581 10.044-7.581z" class="cls-3" transform="translate(-15.219 -.793)"/>
        <path id="패스_1270" fill="#442d1d" d="M4299.214 856.168s-.053.116-.144.331c-.754 1.782-4.087 10.377-1.011 16.259a5.132 5.132 0 0 1 .589 2.5l-1.373 54.732 7.048-.176 7.753-40 10.4 39.116 6.872-.881-1.728-36.564a32.174 32.174 0 0 0-.469-5.067l-3.97-30.434-10.924-4.933z" transform="translate(-3.483 -63.785)"/>
        <path id="패스_1271" fill="#330233" d="M4315.26 735.69s-6.871-.353-5.109-8.105a4.186 4.186 0 0 1 3.523-3.172c3.172-.7.529-5.815 3.877-6.872a2.6 2.6 0 0 1 2.643.7c1.41 1.233 2.995-.7 3.171-2.114s4.933-4.229 6.52 2.467c0 0 .7 2.819-2.82 6.872 0 0-1.233.881-1.057 3.348s-2.291 1.586-3.171.353-3 .528-1.939 2.467-1.232 4.937-5.638 4.056z" transform="translate(-10.543 10)"/>
        <path id="패스_1272" d="M4375.05 758.528l6.262.939a1.679 1.679 0 0 0 1.385-.424 50.929 50.929 0 0 0 7.138-7.91 3.86 3.86 0 0 0 .625-1.789l.449-5.089 1.771.409a.81.81 0 0 0 .835-.309l3.2-4.37a.778.778 0 0 1 .917-.262l1.879.752a.293.293 0 0 1 .184.3l-.267 2.948a2.558 2.558 0 0 1-.487 1.283l-5.041 6.827-7.588 12.544a3.713 3.713 0 0 1-3.064 1.789l-9.61.291z" class="cls-3" transform="translate(-44.96 -3.675)"/>
        <path id="패스_1273" d="M4291.291 808.728l1.08 6.807a5.335 5.335 0 0 0 2.24 3.555l3.228 2.226 2.114-14.272z" class="cls-3" transform="translate(-.521 -40.034)"/>
        <path id="패스_1274" d="M4303.572 1026.851a.687.687 0 0 1 .4-.078 8.675 8.675 0 0 1 3.815 1.212c1.409 1.057 7.577 1.409 6.167 4.757l-9.866-.881-.176.7-5.286-.529.339-5.089a.155.155 0 0 1 .2-.14c.672.203 3.021.804 4.407.048z" class="cls-6" transform="translate(-4.479 -158.605)"/>
        <path id="패스_1275" d="M4358.858 1022.293a.686.686 0 0 1 .4-.1 8.674 8.674 0 0 1 3.89.941c1.481.955 7.657.873 6.485 4.312l-9.9-.185-.126.715-5.311-.156-.019-5.1a.156.156 0 0 1 .189-.153c.678.144 3.064.578 4.392-.274z" class="cls-6" transform="translate(-34.507 -156.132)"/>
        <path id="패스_1276" fill="#3a083a" d="M4326.88 921.714s-5.1-18.948-5.1-19.829V901" transform="translate(-16.975 -90.738)"/>
        <path id="패스_1277" fill="#f4cb56" d="M4290.569 791.3a.283.283 0 0 1-.239-.337c.5-2.425 4.215-18.9 17.03-17.676 12.264 1.167 21.575 2.677 23.919 3.073a.585.585 0 0 1 .479.672l-1.253 7.674a.38.38 0 0 1-.437.314c-1.322-.221-5.724-.669-6.322 3.067-.7 4.4-4.052 25.9-4.052 25.9s-10.22 5.286-23.963.176l1.038-21.607a.457.457 0 0 0-.4-.474z" transform="translate(0 -21.784)"/>
    </g>
</svg>
