<svg xmlns="http://www.w3.org/2000/svg" width="57.868" height="120.36" viewBox="0 0 57.868 120.36">
    <defs>
        <style>
            .cls-3{fill:#f0bc8d}.cls-4{fill:#ffd18d}.cls-5{fill:#01243a}
        </style>
    </defs>
    <g id="illu_super" transform="translate(-3465.441 -1848.679)">
        <path id="패스_1314" fill="#e2ae83" d="M3583.124 1892.322s5.75-37.517 7.043-39.048 1.006-2.68 6.038-4.594c0 0 4.744-.128.719 3.063a6.683 6.683 0 0 0-4.456 4.977c-1.15 4.211-.288 34.965-4.313 42.749s-5.031-7.147-5.031-7.147z" transform="translate(-75.234)"/>
        <path id="패스_1315" fill="#2f1832" d="M3507.315 1906.443s3.594-4.849-2.156-6c0 0-2.156-.128-4.6 2.552s-5.176 1.149-6.181-1.148-7.331-2.3-9.344-.128-1.007 7.274-4.025 8.167-11.356 4.467-13.943 9.826-.575 7.4.431 8.805 1.725 2.552 0 4.722-3.162 6.508-.863 9.315 6.181 2.935 10.206 1.276 10.925-4.594 16.531-1.148 12.075-10.592 12.075-10.592z" transform="translate(0 -32.88)"/>
        <path id="패스_1316" d="M3573.822 1911.875s-.092 1.706-2.392 3.238-.575 4.211-1.294 5.232-1.725.638-1.869 1.914 1.15 1.659 1.006 3.19a5.473 5.473 0 0 1-1.294 3.318s3.594 2.68 7.332 1.531c0 0-.863-3.19.575-4.594s5.072-5.454-2.064-13.829z" class="cls-3" transform="translate(-65.552 -40.401)"/>
        <g id="그룹_47" transform="translate(3473.302 1938.665)">
            <path id="패스_1317" d="M3501.573 2105.1s-3.1-2.453-4.944-2.281-7.514 3.771-9.145 3.476 5.145-7.641 6.543-8.1 9.354 2.667 9.354 2.667z" class="cls-4" transform="translate(-3487.233 -2098.152)"/>
            <path id="패스_1318" d="M3490.961 2103a43.307 43.307 0 0 1 4.482-4.724 3.382 3.382 0 0 0-1.415-.082c-1.4.459-8.174 7.8-6.543 8.1.867.157 2.872-.785 4.839-1.729a4.932 4.932 0 0 0-1.363-1.565z" class="cls-5" transform="translate(-3487.233 -2098.153)"/>
        </g>
        <path id="패스_1319" d="M3512.329 1903.544s-6.182-21.055-7.187-24.756-3.306-13.016-7.044-15.951a12.405 12.405 0 0 0-4.492-1.635 3.494 3.494 0 0 1-2-.826c-.62-.559-1-1.285.375-1.741a3.917 3.917 0 0 1 1.982-.108 29.365 29.365 0 0 0 4.851.609c2.156 0 3.594 1.276 4.456 3.318s9.775 26.16 14.662 31.519-1.866 10.848-5.603 9.571z" class="cls-3" transform="translate(-16.37 -6.246)"/>
        <path id="패스_1320" d="M3534.877 2009.613s-6.675 13.171-7.135 15.187c-2.444 10.719 9.488-5.742 9.488-5.742l8.984 1.85a13.27 13.27 0 0 1 1.869-5.232c1.437-1.914-2.013-6.38-2.013-6.38z" class="cls-3" transform="translate(-39.618 -102.682)"/>
        <g id="그룹_48" transform="translate(3467.478 1946.417)">
            <path id="패스_1321" d="M3485.465 2127s-2.914-2.627-4.766-2.562-7.774 3.329-9.38 2.938 5.7-7.327 7.124-7.7 9.137 3.2 9.137 3.2z" class="cls-4" transform="translate(-3471.089 -2119.642)"/>
            <path id="패스_1322" d="M3475.029 2124.287a44.372 44.372 0 0 1 4.819-4.453 3.367 3.367 0 0 0-1.406-.164c-1.428.377-8.73 7.315-7.124 7.7.853.207 2.924-.617 4.956-1.445a4.834 4.834 0 0 0-1.245-1.638z" class="cls-5" transform="translate(-3471.089 -2119.642)"/>
        </g>
        <path id="패스_1323" fill="#7ec8ea" d="M3552.439 1957.575a6.307 6.307 0 0 1-.863-.638s.863 7.274-5.606 9.571c0 0 1.438 6.763-2.3 11.1 0 0 8.481-.128 14.806 4.594 0 0 3.45-5.36 5.462-7.146s4.6-4.083 1.293-8.422-3.737-3.573-5.462-7.529c.001.001-3.162 1.15-7.33-1.53z" transform="translate(-50.011 -69.209)"/>
        <g id="그룹_49" transform="translate(3479.76 1911.707)">
            <path id="패스_1324" fill="#19224c" d="M3537.366 2052.733s7.388 9.719 10.522 17.479 5.371 16.3.963 19.27-16.425-5.165-16.656-5.136-12.995-2.935-12.995-2.935-4.115-8.469-1.817-15.75c0 0 7.966 4.486 12.189 4.785z" transform="translate(-3512.521 -2042.157)"/>
            <path id="패스_1325" fill="#21285c" d="M3532.191 2028.976s-1.408 7.783-1.324 10.519 1.642 15.4 2.121 21.329.674 14.521-.286 16.639-2.364 4.419-6.191 2.655-15.254-8.184-16.55-8.894-7.06-4.975-3.875-13.117l14.5 5.658s-5.646-10.9-7.338-15.551-2.245-9.578-.4-14.305 5.107-9.2 5.12-10.419c-.009 0 10.632-1.149 14.223 5.486z" transform="translate(-3505.139 -2023.414)"/>
        </g>
    </g>
</svg>
