<svg xmlns="http://www.w3.org/2000/svg" width="118.203" height="115.667" viewBox="0 0 118.203 115.667">
    <defs>
        <style>
            .cls-2{fill:#efbb8c}.cls-3{fill:#2f1832}.cls-4{fill:#01243a}
        </style>
    </defs>
    <g id="illu_break" transform="translate(-123.317 -1370.557)">
        <path id="패스_1214" fill="#b23858" d="M246.013 1509.46s2.442-1.086.678-5.292-6.106 2.578-6.106 2.578 3.257 3.121 5.428 2.714z" transform="translate(-66.494 -74.982)"/>
        <path id="패스_1215" d="M238.061 1497.152s.678-2.985 3.121-3.8l.95-7.191-9.5-2.443-1.764 7.463z" class="cls-2" transform="translate(-60.985 -64.166)"/>
        <path id="패스_1216" d="M190.2 1522.58s-5.971 2.985-6.785 6.106-.271 7.735 2.714 8.82a20.392 20.392 0 0 0 7.328.679z" class="cls-3" transform="translate(-33.882 -86.202)"/>
        <path id="패스_1217" d="M219.474 1592.773s.95 6.242.542 9.5.136 2.849-.271 4.478-.678 2.443.407 2.85 8.413 0 8.956 0 2.171.407 2.578-.543-4.071-1.764-6.106-1.629-.95-2.985-.543-5.834a83.822 83.822 0 0 0 .271-12.755c-.271-1.088-5.698.133-5.834 3.933z" class="cls-2" transform="translate(-54.475 -123.557)"/>
        <path id="패스_1218" d="M147.223 1472.1a73.816 73.816 0 0 0-10.72-2.985c-4.342-.678-8.82-4.885-10.856-5.7a1.6 1.6 0 0 0-2.306 1.764c.136.543 1.085 4.478 4.749 5.292s16.148 5.156 18.183 7.328 3.664-1.765 3.664-1.765z" class="cls-2" transform="translate(0 -52.544)"/>
        <path id="패스_1219" d="M202.494 1414.888a46.5 46.5 0 0 1-8.684-14.248c-3.528-8.956-6.717-15.537-8.549-18.318 0 0-.077-.148-.185-.391a1.646 1.646 0 0 1 2.7-1.848c4.478 3.935 12.116 13.417 13.23 17.166 1.492 5.021 8.006 10.448 8.006 10.448z" class="cls-2" transform="translate(-34.917 -5.106)"/>
        <path id="패스_1220" d="M296.371 1442.526s5.428-4.614 11.4-3.529 22.322 6.31 26.528 6.581a18.816 18.816 0 0 1-1.7 3.189c-1.085 1.628-23.34-1.764-25.782-.678a25.266 25.266 0 0 0-5.292 3.664z" class="cls-2" transform="translate(-98.127 -38.714)"/>
        <path id="패스_1221" d="M220.844 1454.156s1.764-1.222.678-2.171-3.935-1.492-4.614-2.307 1.493-2.443 2.171-4.342 3.528-11.805 7.192-12.077a4.227 4.227 0 0 1 1.493 1.493c.678 1.085 4.478.678 6.106 2.307s4.749 4.206 6.378 4.206a28.662 28.662 0 0 0 6.106-1.493c.814-.271 3.664-2.714 5.428-1.628s8.956 5.7 7.6 15.334a3.566 3.566 0 0 1-2.714 3.256c-2.714.815-2.307 2.85-5.564 3.122s-3.528.407-4.206 1.357-2.171.814-2.714 1.628-1.764 1.492-4.071 1.221-1.493 1.764-3.935.814-2.985-.136-2.985-.136-1.9-5.292-5.971-6.106a11.126 11.126 0 0 1-6.378-4.478z" class="cls-3" transform="translate(-52.996 -35.554)"/>
        <g id="그룹_36" transform="translate(140.436 1370.557)">
            <path id="패스_1222" d="M174.868 1377.725c-.817.3-1.359.508-2.215-.727-.558-.805-1.3-1.767-2.048-1.98-1.37-.391-6.575.875-7.642.17s6.137-4.662 7.282-4.63 6.929 6.319 6.929 6.319z" class="cls-2" transform="translate(-162.855 -1370.557)"/>
            <path id="패스_1223" d="M166.5 1373.537a36.021 36.021 0 0 1 4.721-2.509 2.316 2.316 0 0 0-.982-.472c-1.145-.032-8.349 3.925-7.282 4.63.567.375 2.3.193 4.008 0a4.123 4.123 0 0 0-.465-1.649z" class="cls-4" transform="translate(-162.855 -1370.557)"/>
        </g>
        <path id="패스_1224" fill="#e6395c" d="M197.2 1481.43s-1.357-.543-2.307 1.357-2.578 4.478-5.835 2.849-3.935-4.478-6.649-2.985-5.835-.271-5.835-.271a5.289 5.289 0 0 1-1.493 5.428 1.725 1.725 0 0 1 .678 1.9c-.271 1.357-.678 4.206 1.9 5.156s3.935-.272 4.614.542-.136 4.071 1.221 5.021a2.762 2.762 0 0 1 1.357 3.392 14.19 14.19 0 0 0 1.086 9.227s.814 1.221.543 1.9-.407 1.9 1.764 2.442-.271 2.307 2.714 4.885a2.014 2.014 0 0 1 .95 2.036c-.136 1.493.136 5.835 2.443 7.735 0 0 2.442-3.528 6.106-1.357 0 0 3.664-3.256 2.442-11.534 0 0-.542-2.985 1.221-3.121s3.528-.271 4.071-5.428-1.628-8.82.678-13.3a11.461 11.461 0 0 1-4.614-7.192c-.812-4.747-7.055-8.682-7.055-8.682z" transform="translate(-29.353 -62.828)"/>
        <path id="패스_1225" d="M348.866 1443.491s13.614 4.058 14.863 3.375 4.067-5.24 5.322-5.488-1.1 7.629-1.933 8.41-8.211.895-8.211.895z" class="cls-2" transform="translate(-127.893 -40.155)"/>
        <path id="패스_1226" d="M390.242 1445.041a36.073 36.073 0 0 1-1.6 5.1 2.314 2.314 0 0 0 1.031-.354c.837-.781 3.188-8.657 1.933-8.41-.667.132-1.774 1.479-2.853 2.816a4.132 4.132 0 0 0 1.489.848z" class="cls-4" transform="translate(-150.447 -40.155)"/>
    </g>
</svg>
