<svg xmlns="http://www.w3.org/2000/svg" width="117.47" height="123.539" viewBox="0 0 117.47 123.539">
    <defs>
        <style>
            .cls-1{fill:#e6e6e8}.cls-2{fill:#707070}.cls-3{fill:#ffd1a3}.cls-4,.cls-9{fill:#cfcfcf}.cls-4,.cls-5,.cls-6{mix-blend-mode:multiply}.cls-10,.cls-4,.cls-5,.cls-6,.cls-8{isolation:isolate}.cls-5,.cls-7{fill:#e6e6e6}.cls-11,.cls-8{fill:#7d7d7d}.cls-10,.cls-8{mix-blend-mode:screen}.cls-13{fill:#3f5651}.cls-15{fill:#454545}
        </style>
    </defs>
    <g id="illu_teak" transform="translate(-1012.895 -681.681)">
        <path id="패스_1278" d="M1032.612 727.537c-2.042 10.694 1.319 13.864 2.057 12.521s1.974-11.876 1.974-11.876z" class="cls-1" transform="translate(-6.772 -16.287)"/>
        <path id="패스_1279" d="M1032.612 727.537c-2.042 10.694 1.319 13.864 2.057 12.521s1.974-11.876 1.974-11.876z" class="cls-2" transform="translate(-6.772 -16.287)"/>
        <path id="패스_1280" d="M1082.209 700.621c.376 5.535.483 4.782 3.815 5.588s9.242.054 7.416 11.231-4.641 24.5-2.859 26.975 15.325 13 19.194 17.41 2.472 6.448 3.869 9.35 3.654 9.995 6.448 19.667 3.869 11.07 6.341 12.9 4.3 3.332 3.869 4.084-2.795 2.042-6.126 0-6.664-.86-6.771-3.224 1.5-4.622-.645-8.383-2.257-5.266-5.589-10.747-3.538-14.509-4.885-14.939-13.6-5.588-19.619-9.35-6.556-3.331-13.864 1.29-18.163 9.888-18.915 11.929-.323 4.514-1.505 9.888-2.794 5.8-4.084 9.457-2.257 8.2-1.934 9.565.242 2.015-1.209 3.788-.242 4.675-3.385 4.756-5.884.806-3.547-3.627a30.08 30.08 0 0 0 2.74-6.126c1.129-2.9 2.176-7.5 3.144-14.589s3.466-12.01 3.224-13.783 2.418-3.788 4.03-7.093 3.95-7.577 12.01-14.912 8.786-9.753 7.577-16.04-4.917-17.733-4.917-17.733a95.647 95.647 0 0 0-10.479.04c-4.353.363-4.313 1.128-10.318 1.209s-12.937-.121-16.766.725-6.609 2.418-8.544 2.5-.887-.765.4-1.451 1.894-1.41 1.209-1.693-2.781-.242-5.6 0-3.748-.4-2.5-.806 3.144-1.894 5.159-1.894 3.265-.564 5.884 0 8.3-.685 13.018-2.1 9.35-2.418 11.728-2.056 8.947-1.652 14.146-2.942 10.357-2.62 11.889-3.1 1.773-3.063 1.773-3.063z" class="cls-3" transform="translate(0 -6.727)"/>
        <path id="패스_1281" d="M1187.864 862.359a.491.491 0 0 0 .057-.257 12.951 12.951 0 0 1-1.884.794c-1.827.537-3.17-.859-6.663-2.687s-3.171-1.719-3.065-4.675a1.573 1.573 0 0 0-.886-1.368c.136 1.912-.527 3.418-.456 4.969.107 2.364 3.439 1.182 6.771 3.224s5.696.752 6.126 0z" class="cls-4" transform="translate(-57.561 -61.261)"/>
        <path id="패스_1282" d="M1059.213 857.057s.093 3.319-.874 4.931c-.9 1.5-3.605 5.725-7.344 3.436-.8 2.585 1.575 2.06 4.254 1.991 3.144-.081 1.935-2.982 3.385-4.756s1.531-2.418 1.209-3.788a5.225 5.225 0 0 1-.019-1.512z" class="cls-4" transform="translate(-13.476 -62.288)"/>
        <path id="패스_1283" d="M1136.647 738.25a5.94 5.94 0 0 1 .323-4.325c.887-2.041-.323-3.708 0-5.562s.161-1.532-.4-4.111 0-2.579.564-4.836c.55-2.2-.438-3.409-3.08-6-.064-.066-.131-.132-.2-.2a10.9 10.9 0 0 0-2.575-1.667l-.163.366s-5.7 31.113-5.642 31.328 12.413 0 12.413 0a46.318 46.318 0 0 0-1.24-4.993z" class="cls-1" transform="translate(-39.983 -10.61)"/>
        <path id="패스_1284" d="M1136.647 738.25a5.94 5.94 0 0 1 .323-4.325c.887-2.041-.323-3.708 0-5.562s.161-1.532-.4-4.111 0-2.579.564-4.836c.55-2.2-.438-3.409-3.08-6-.064-.066-.131-.132-.2-.2a10.9 10.9 0 0 0-2.575-1.667l-.163.366s-5.7 31.113-5.642 31.328 12.413 0 12.413 0a46.318 46.318 0 0 0-1.24-4.993z" class="cls-5" transform="translate(-39.983 -10.61)"/>
        <g id="그룹_42" class="cls-6" transform="translate(1089.925 700.943)">
            <path id="패스_1285" d="M1132.643 749.792c-.727 1-.134.19 2.266-1.505a5.129 5.129 0 0 0-2.266 1.505z" class="cls-7" transform="translate(-1132.352 -724.6)"/>
            <path id="패스_1286" d="M1139.775 728.363c.323-1.854.161-1.532-.4-4.111s0-2.579.564-4.836c.55-2.2-.438-3.409-3.08-6-.064-.066-.132-.132-.2-.2a10.9 10.9 0 0 0-2.575-1.667l-.163.366-.547 2.994 1.112 8.774c3.681 4.514 1.047 7.9 2.042 7.738s1.479-2.257.995-.161 1.667 1.333-1.424 3.407c-.3.2-.568.388-.824.569a4.272 4.272 0 0 1 3.988.458 6.923 6.923 0 0 1 .517-1.774c.882-2.037-.327-3.704-.005-5.557z" class="cls-7" transform="translate(-1132.713 -711.553)"/>
        </g>
        <path id="패스_1287" d="M1139.791 758.542a2.669 2.669 0 0 1-.824 4.262c-1.128.4-.2.161-1.733.322a19.218 19.218 0 0 1-3.44 0c-.913-.04-1.477 0-2.082-.564s-.135-4.507.6-4.47 1.619-.648 2.707-.326 1.128-.455 2.1-.087 2.124.148 2.672.863z" class="cls-3" transform="translate(-42.102 -26.956)"/>
        <path id="패스_1288" d="M1139.976 761.424l-.685-.9c-.685-.9-.685.455-1.894-.333s-1.33.506-2.177.091-.927.536-1.3 0-1.115-.391-2.138 0c0 0 1.748 1.06 2.138.946a13.9 13.9 0 0 1 2.257-.551c.872-.1 1.1.746 2.311.551s1.488.196 1.488.196z" class="cls-5" transform="translate(-42.224 -27.793)"/>
        <path id="패스_1289" d="M1139.463 822.67c-.484-.967-1.209-6.851-3.144-10.317s-.806-5.655-3.063-8.464-2.579-7.5-3.708-10.076-2.534-5.062-2.534-5.062a13.057 13.057 0 0 0-2.33-3.536c-3.869-4.406-17.411-14.938-19.194-17.411a2.724 2.724 0 0 1-.392-1.012l-19.457-.316c-.994 2.374-3.2 4.85-7.358 8.637-8.06 7.335-10.4 11.607-12.01 14.912s-4.272 5.32-4.03 7.093a3.418 3.418 0 0 1-.065 1c-.428 1.5-.943 3.287-1.491 5.225-.153.524-.308 1.068-.461 1.644-1.413 5.072-2.937 10.873-3.706 15.264-.966 5.515-1.5 6.092-1.647 6.131.709.088 10.272 1.254 11.141 0 .9-1.3 1.387-2.024 3.08-6.537s1.854-10.962 5-16.927-2.418-5.642 4.675-7.98 14.987-6.771 17.73-6.609 3.475.322 8.993 5.481 6.324 2.257 8.823 6.69 2.418 4.111 5.4 12.252a82.616 82.616 0 0 0 6.126 13.3 46.785 46.785 0 0 0 6.713-.309c4.06-.443 7.392-2.106 6.909-3.073z" class="cls-1" transform="translate(-14.909 -30.117)"/>
        <path id="패스_1290" d="M1064.572 800.538c.115-2.891 4.946-7.158 6.771-11.369s9.429-11.7 9.429-11.7c-.518.492-1.068 1-1.664 1.547-8.06 7.335-10.4 11.607-12.01 14.912s-4.272 5.32-4.03 7.093a3.417 3.417 0 0 1-.065 1c-.428 1.5-.943 3.287-1.491 5.225-.153.524-.308 1.068-.461 1.644-1.413 5.072-2.937 10.873-3.706 15.264-.052.3-.1.569-.151.838 2.542-6.857 8.883-14.7 5.766-12.445a6.144 6.144 0 0 0-2.075 2.348 13.682 13.682 0 0 0 .356-2.743c.271-4.903 3.216-8.724 3.331-11.614z" class="cls-8" transform="translate(-15.734 -34.022)"/>
        <path id="패스_1291" d="M1130.518 784.6c-2.223-1.976-4.8-4.16-7.165-6.183-3.088-.576-5.589-1.016-5.68-.951-.2.145-21.344 1.154-28.812 1.506l-.044.041c-1.662 1.512-3.069 2.888-4.288 4.158 8.723 4.708 14.055 3.707 18.321 3.8s9.745-.154 15.629-.552a76.158 76.158 0 0 0 12.039-1.819z" class="cls-2" transform="translate(-25.442 -34.018)"/>
        <path id="패스_1292" d="M1096.659 767.288a82.253 82.253 0 0 1-9.189 9.726c-.852.811-2.526 1.612 3.116 4.353s13.344-.362 15.579 1.028 16.26-1.109 19.242-1.431 3.985-.642 3.645-1.893-12.307-10.977-12.307-10.977z" class="cls-1" transform="translate(-26.163 -30.405)"/>
        <g id="그룹_43" class="cls-6" transform="translate(1068.061 736.915)">
            <path id="패스_1293" d="M1098.619 775.062c-.243.322-.22.31 0 0z" class="cls-9" transform="translate(-1098.445 -770.081)"/>
            <path id="패스_1294" d="M1131.064 768.445l-4.186-.168c1 .21 1.577 1 3.874 1.846a28.694 28.694 0 0 0 3.465.922c-1.803-1.503-3.153-2.6-3.153-2.6z" class="cls-9" transform="translate(-1108.544 -767.671)"/>
            <path id="패스_1295" d="M1115.967 767.907l-14.183-.569a54.431 54.431 0 0 1-3.069 4.981c.059-.077.128-.169.218-.284 1.29-1.666 3.815-3.923 4.729-3.923s1.612-.893 1.612 1.246-.107 5.72 0 3.2.7-3.7 3.009-4.074 5.964-.409 7.684-.581z" class="cls-9" transform="translate(-1098.541 -767.338)"/>
        </g>
        <path id="패스_1296" d="M1094.287 708.932a15.693 15.693 0 0 1-2.534-.645l-1.215 12.87s-1.947-10.558-6.377-12.426a1.716 1.716 0 0 1-.635.376c-1.531.484-6.69 1.814-11.889 3.1s-11.768 3.3-14.146 2.942-7.013.645-11.728 2.056a57.805 57.805 0 0 1-9.6 2.123 43.2 43.2 0 0 1 0 13.89s6.38-1.4 8.637-3.116 2.257-.7 6.878-.753 15.422-1.451 16.873-.967 1.451 1.182 2.74 2.365-.268.537.753 2.472a34.362 34.362 0 0 1 2.149 3.944c1.022 2.343 1.344 2.427 1.828 5.017a6.327 6.327 0 0 0 2.9 3.81 10.655 10.655 0 0 1-.594 1.146h20.525c-1.783-2.472 1.032-15.8 2.859-26.975s-4.092-10.423-7.424-11.229z" class="cls-1" transform="translate(-8.262 -9.45)"/>
        <g id="그룹_44" class="cls-10" transform="translate(1027.896 699.281)">
            <path id="패스_1297" d="M1053.985 721.433c3.385 1.934 7.738 2.169 5.8 1.488-1.552-.547-3.462-3.5-3.055-4.091-2.524-.1-6.711.845-10.97 2.12a57.817 57.817 0 0 1-9.6 2.123c.106.6.194 1.2.267 1.786.323.034.526.039.526.039 8.488-1.046 13.647-5.398 17.032-3.465z" class="cls-11" transform="translate(-1036.159 -712.473)"/>
            <path id="패스_1298" d="M1097.331 710.637c.411.232-.608-1.32-1.42-1.662a1.717 1.717 0 0 1-.635.376c-1.532.484-6.69 1.814-11.889 3.1s-11.768 3.3-14.146 2.942c2.136 1.089 5.844 1.31 13.743-.171s12.116-5.84 14.347-4.585z" class="cls-11" transform="translate(-1047.908 -708.975)"/>
        </g>
        <path id="패스_1299" fill="#20120d" d="M1119.323 708.846a11.386 11.386 0 0 1-2.163-.559l-1.215 12.87s-1.948-10.558-6.377-12.426a1.717 1.717 0 0 1-.635.376c-.29.092-.713.215-1.241.361 3.5 3.684 8.414 15.478 8.414 15.478s2.694-11.373 3.217-16.1z" transform="translate(-33.668 -9.45)"/>
        <path id="패스_1300" d="M1096.931 754.227c-.811-1.209-1.558-2.106-1.558-2.106 2.5.024 3.062-5.954 2.223-4.288s-.867 2.525-2.223 3.117-2.215 2.1-3.558 2.472-.983.835-1.27-.523-.221-4.291-.88-2.223.215 2.3-1.182 2.415-3.654 2.563-5.7-.3-2.74-8.343-3.063-4.528 2.1 6.664-.322 3.815-2.961-2.149-2.905-4.245-2.9-9.189-3.2-12.091 2.229-10.8 0-5.965-2.173 3.042-5.953 4.417-9.818-6.835-8.367-3.611 2.622 2.708-.22 3.611-16.008-2.644-20.629 2.676l-1.762 2.029c-.114.9-.212 1.41-.212 1.41s6.38-1.4 8.637-3.116 2.257-.7 6.878-.753 15.422-1.451 16.873-.967 1.451 1.182 2.74 2.364-.268.537.753 2.472a34.353 34.353 0 0 1 2.149 3.945c1.022 2.343 1.344 2.426 1.828 5.017a6.326 6.326 0 0 0 2.9 3.81 10.662 10.662 0 0 1-.594 1.146z" class="cls-4" transform="translate(-8.262 -16.538)"/>
        <path id="패스_1301" d="M1127.769 837.609a46.794 46.794 0 0 0 6.713-.31 19.169 19.169 0 0 0 3.1-.6 44.42 44.42 0 0 0-4.517-1.563c-4.987-1.426-6.7-.082-6.448-5.8s2.15-6.448 7.308-5.159-9.243-5.588-14.132-9.028-10.6-13.66-6.5-9.745 7.854 2.007 11.607 0 .215-1.862-1.769.072-13.923-4.3-16.953-5.159 4.965-.215 9.066-1.074-10.5.967-16.46.322-11.07 1.4-21.544 2.612-5.217 2.009.443 2.2-4.37 2.6-10.411 7.093-1.912 5.184 2.387 1.315.215 3.439-2.387 5.873 1.957.575 6.042-6.089c4.044-6.6-2.161 18.334-13 25.729 3.066.258 7.091.433 7.641-.357.9-1.3 1.387-2.023 3.08-6.537s1.854-10.962 5-16.927-2.418-5.642 4.675-7.98 14.987-6.771 17.73-6.61 3.475.322 8.993 5.481 6.324 2.257 8.823 6.69 2.418 4.111 5.4 12.252a82.638 82.638 0 0 0 6.113 13.299z" class="cls-4" transform="translate(-16.838 -41.67)"/>
        <path id="패스_1302" d="M1109.618 790.582c-5.369 2.035-15.579.1-12.891 1.068s12.149-.322 14.565 0 16.425 2.1 12.948.366-11.031-.889-12.339-1.434a2.744 2.744 0 0 0-2.283 0z" class="cls-4" transform="translate(-29.617 -38.592)"/>
        <path id="패스_1303" d="M1172.309 831.794c1.6-.644 2.534-1.41 2.261-1.955-.484-.967-1.209-6.851-3.144-10.317s-.806-5.655-3.063-8.464-2.579-7.5-3.708-10.076-2.534-5.063-2.534-5.063a13.064 13.064 0 0 0-2.33-3.536 74.126 74.126 0 0 0-6.07-5.722c4.888 8.033 4.888 13.272 5.21 9.968s1.4-3.1 3.063 1 2.74 4.4 3.547 9.313-.389 9.8.806 6.333 2.015-.208 2.821 2.372 4.272 9.753 4.03 13.219a7.951 7.951 0 0 1-.889 2.928z" class="cls-8" transform="translate(-50.017 -37.286)"/>
        <path id="패스_1304" d="M1121.378 767.181a4.849 4.849 0 0 1-.555-2.462 138.248 138.248 0 0 1-19.375 1.316c-.053.121-.115.242-.174.362-.591.707-1.142 1.352-1.669 1.961l21.84-1.123z" class="cls-13" transform="translate(-30.796 -29.492)"/>
        <path id="패스_1305" d="M1111.333 768.821c-3.542 3.541.338 10.444-.4 14.894s.4 17.67.4 17.67h-4.03s2.821-21.118 4.03-24.907a26.435 26.435 0 0 0 .967-8.2z" class="cls-13" transform="translate(-33.531 -30.756)"/>
        <path id="패스_1306" d="M1115.636 768.954c2.2 7.684 1.505 20.849 1.451 25.2s-.323 6.932-.323 6.932h4.46s-1.881-20.151-2.042-23.429a56.939 56.939 0 0 0-1.445-8.436z" class="cls-13" transform="translate(-36.49 -30.997)"/>
        <path id="패스_1307" d="M1112.8 766.947c.161-1.559.494-1.927 2.409-1.528s1.192 1.789 1.192 1.789z" class="cls-13" transform="translate(-35.484 -29.688)"/>
        <path id="패스_1308" d="M1020.214 731.072c.887-.665 3.91-2.539 4.413-3.224s-2.176.544-5.481.181c-3.227-.355-4.991 1.32-5.823.086-1.054.4-.1.994 2.619.761 2.821-.242 4.917-.282 5.6 0s.081 1.008-1.209 1.693-2.338 1.532-.4 1.451a9.293 9.293 0 0 0 2.445-.571c-.148.029-3.039.279-2.164-.377z" class="cls-4" transform="translate(-.003 -16.322)"/>
        <path id="패스_1309" fill="#7a5b38" d="M1099.7 687.24c.039-2.1-1.475-2.1-.3-3.095s6.808-3.254 9.783-2.182a7.449 7.449 0 0 1 5 5.872c.278 2.3-.785 5.395-1.19 6.864a3.026 3.026 0 0 0-.031 1.434l-11.872-5.918-1.4-1.147z" transform="translate(-30.565)"/>
        <path id="패스_1310" d="M1100.2 690.059c-.179 2.579-.44 3.867 0 4.6.5.839 1.084 1.382.373 2.529-.9 1.451-.633 1.639.282 2.113.874.453-1.094.749 0 1.627.6.478-.286.337.068.949.309.534.551-.215 1.559 1.511.574.983.357 1.31 3.372.437s4.959-4.721 4.959-5.277 1.587.4 1.905-2.7-1.23-3.055-1.905-2.737a6.406 6.406 0 0 0-1.388 1 1.609 1.609 0 0 0-1.468-1.479c-1.349-.079-2.123-.079-1.7-1.944s-.406-3.214-2.033-1.547-3.65 3.491-3.65 2.619a4.728 4.728 0 0 0-.374-1.701z" class="cls-3" transform="translate(-30.921 -2.383)"/>
        <g id="그룹_45" class="cls-10" transform="translate(1068.39 681.79)">
            <path id="패스_1311" d="M1099.7 688.959c.386-1.668.384-2.407.039-2.545-.253-.1-.573-.453-.534-.63-.786.819.534.947.5 2.913z" class="cls-15" transform="translate(-1098.955 -683.247)"/>
            <path id="패스_1312" d="M1101.52 684.87c-.566-.691-1.613-.9-.65-.88s1.123.123 1.441 0 .36-.295.821 0 2.723 1.154 1.445.169-1.613-.586-1.277-.984a3.973 3.973 0 0 1 1.664-.671 4.615 4.615 0 0 0 1.092-.653 16.431 16.431 0 0 0-6.465 2.355c-.037.031-.071.061-.1.091a1.086 1.086 0 0 1 .566.092c1.149.398 2.028 1.172 1.463.481z" class="cls-15" transform="translate(-1099.144 -681.85)"/>
        </g>
        <path id="패스_1313" d="M1117.784 693.089a14.413 14.413 0 0 0 .451-5.254 7.449 7.449 0 0 0-5-5.872 6.679 6.679 0 0 0-2.875-.226l.007.054c1.885.277 4.745 1.617 4.9 1.972s.361 2.409.361 1.488-.2-1.846.237-.923 1.041.261 1.208 1.681.817 1.127.315 2.2-.775 1.152-.5 1.069.817-.5.817.024a6.064 6.064 0 0 1 .146 1.84c-.018.647-.039 1.328-.067 1.947z" transform="translate(-34.616)" style="isolation:isolate;mix-blend-mode:multiply" fill="#dedede"/>
    </g>
</svg>
