<svg xmlns="http://www.w3.org/2000/svg" width="40" height="40" viewBox="0 0 40 40">
    <defs>
        <style>
            .cls-1{fill:#cad9fc}.cls-2{fill:#e8edfc}.cls-4{fill:#6b75ca}
        </style>
    </defs>
    <g id="Logo" transform="translate(2.113 2.325)">
        <g id="그룹_21" transform="translate(-1.949 -1.472)">
            <path id="패스_14" d="M8.887 27.822a19.126 19.126 0 1 0 .734-5.268 18.233 18.233 0 0 0-.734 5.268z" class="cls-1" transform="translate(-8.198 -8.675)"/>
            <path id="패스_15" d="M8.887 32.486c0 10.477 8.138 18.971 18.176 18.971s18.176-8.494 18.176-18.971S37.1 13.515 27.063 13.515a18.317 18.317 0 0 0-17.48 13.752 18.788 18.788 0 0 0-.696 5.219z" class="cls-2" transform="translate(-8.198 -13.14)"/>
            <path id="Shape" fill="#fff" d="M.746 186.274l1.273.359a18.786 18.786 0 0 0-.7 5.046H0a20.13 20.13 0 0 1 .746-5.405z" transform="translate(0 -172.507)"/>
        </g>
        <g id="_024---Human-Pose" transform="translate(2.02 3.659)">
            <g id="그룹_22" transform="translate(11.906)">
                <circle id="Oval" cx="3.969" cy="3.969" r="3.969" class="cls-2"/>
                <path id="Shape-2" d="M244.192 74.867a3.959 3.959 0 0 0-.992.133 3.964 3.964 0 0 1 0 7.677 3.969 3.969 0 1 0 .992-7.809z" class="cls-1" transform="translate(-240.223 -74.867)"/>
            </g>
            <path id="Shape-3" d="M106.145 84.34h-5.609l-4.372-4.372a1.984 1.984 0 1 1 2.8-2.8z" class="cls-2" transform="translate(-92.095 -76.402)"/>
            <g id="그룹_23" transform="translate(17.701 .129)">
                <path id="Shape-4" d="M289.534 79.968l-4.372 4.372h-5.609l7.177-7.177a1.984 1.984 0 1 1 2.8 2.8z" class="cls-2" transform="translate(-279.552 -76.531)"/>
                <path id="Shape-5" d="M332.672 77.753a1.961 1.961 0 0 0-2.395-.308 1.962 1.962 0 0 1 .41 3.112l-4.372 4.372h1.985l4.372-4.372a1.984 1.984 0 0 0 0-2.8z" class="cls-1" transform="translate(-322.69 -77.121)"/>
            </g>
            <g id="그룹_24" transform="translate(0 7.938)">
                <path id="Shape-6" d="M82.95 179.251a1.984 1.984 0 0 1-1.984 1.984h-9.922v7.984l6.033 6.033a1.984 1.984 0 0 1 0 2.8 2.039 2.039 0 0 1-.476.357 1.975 1.975 0 0 1-2.328-.357l-3.228-3.228-3.678-3.671h-.582l-3.678 3.671-3.228 3.228a1.978 1.978 0 0 1-2.494.258 1.653 1.653 0 0 1-.311-.258 1.984 1.984 0 0 1 0-2.8l6.033-6.033v-7.984h-9.923a1.984 1.984 0 1 1 0-3.969h27.782a1.984 1.984 0 0 1 1.984 1.984z" class="cls-2" transform="translate(-51.2 -177.267)"/>
                <path id="Shape-7" d="M283.584 236.451v-7.984H281.6v7.984l6.033 6.033a1.984 1.984 0 0 1 0 2.8 2.05 2.05 0 0 1-.408.313 1.976 1.976 0 0 0 1.918.044 2.038 2.038 0 0 0 .476-.357 1.984 1.984 0 0 0 0-2.8z" class="cls-1" transform="translate(-263.74 -224.498)"/>
                <path id="Shape-8" d="M411.584 177.267H409.6a1.984 1.984 0 1 1 0 3.969h1.984a1.984 1.984 0 0 0 0-3.969z" class="cls-1" transform="translate(-381.818 -177.267)"/>
            </g>
            <g id="그룹_25" transform="translate(11.906 21.828)">
                <path id="Shape-9" d="M208.769 356.467v7.933a1.98 1.98 0 0 1-1.5 1.925h-.007a1.884 1.884 0 0 1-.476.06 1.911 1.911 0 0 1-.886-.218h-.013a1.965 1.965 0 0 1-1.087-1.767v-4.266l3.678-3.671z" class="cls-2" transform="translate(-204.8 -356.467)"/>
                <path id="Shape-10" d="M220.286 356.467l-1.693 1.69v6.243a1.971 1.971 0 0 1-.992 1.712c.031.018.06.038.092.054h.013a1.911 1.911 0 0 0 .887.218 1.884 1.884 0 0 0 .476-.06h.007a1.98 1.98 0 0 0 1.5-1.925v-7.938z" class="cls-1" transform="translate(-216.608 -356.467)"/>
            </g>
            <g id="그룹_26" transform="translate(15.875 21.828)">
                <path id="Shape-11" d="M259.969 360.138v4.262a1.965 1.965 0 0 1-1.085 1.766h-.013a1.91 1.91 0 0 1-.886.218 1.884 1.884 0 0 1-.476-.06h-.009a1.98 1.98 0 0 1-1.5-1.924v-7.938h.291z" class="cls-2" transform="translate(-256 -356.467)"/>
                <path id="Shape-12" d="M256.291 356.467H256v1.69l1.984 1.981v4.262a1.962 1.962 0 0 1-.992 1.712 2.01 2.01 0 0 0 .51.213h.007a1.878 1.878 0 0 0 .476.06 1.91 1.91 0 0 0 .886-.218h.013a1.965 1.965 0 0 0 1.085-1.766v-4.266z" class="cls-1" transform="translate(-256 -356.467)"/>
            </g>
        </g>
        <g id="그룹_30" transform="translate(1.159 2.86)">
            <g id="그룹_27" transform="translate(3.436 .088)">
                <path id="패스_16" d="M199.306 346.7a.232.232 0 0 0-.164-.068h-1.168a.232.232 0 0 0-.164.068l-4.041 4.034a.232.232 0 0 0-.068.165v4.52a2.8 2.8 0 0 0 1.556 2.532l.131.066a.232.232 0 0 0 .068.022 2.769 2.769 0 0 0 1.075.221 2.807 2.807 0 0 0 .606-.065l.084-.019a2.714 2.714 0 0 0 .267-.079 2.911 2.911 0 0 0 .939-.555 2.82 2.82 0 0 0 .948-2.119v-8.558a.232.232 0 0 0-.069-.165zm-1.637 2.552v6.174a1.113 1.113 0 0 1-.371.837 1.191 1.191 0 0 1-.383.227l-.038.012-.076.019a1.041 1.041 0 0 1-.26.033 1.059 1.059 0 0 1-.493-.121l-.135-.071-.012-.006a1.107 1.107 0 0 1-.494-.934v-3.913z" class="cls-4" transform="translate(-185.23 -324.858)"/>
                <path id="패스_17" d="M97.558 74.817l-8.223-8.223a2.837 2.837 0 1 0-4.016 4.006l4.547 4.547a.232.232 0 0 0 .164.068h7.363a.233.233 0 0 0 .164-.4zM88.1 67.765l.006.006 5.737 5.737h-3.2l-4.125-4.125-.019-.018a1.132 1.132 0 1 1 1.6-1.6z" class="cls-4" transform="translate(-84.43 -65.7)"/>
            </g>
            <g id="그룹_28" transform="translate(15.875 .088)">
                <path id="패스_18" d="M250.505 350.737l-2.827-2.82-1.214-1.213a.232.232 0 0 0-.164-.068h-1.168a.233.233 0 0 0-.233.233v8.554a2.828 2.828 0 0 0 .952 2.126 2.91 2.91 0 0 0 .941.554 2.7 2.7 0 0 0 .266.078l.079.017h.01a2.731 2.731 0 0 0 .583.063h.008a2.79 2.79 0 0 0 1.082-.221.231.231 0 0 0 .068-.022l.131-.066a2.8 2.8 0 0 0 1.555-2.528V350.9a.233.233 0 0 0-.069-.163zm-1.637.7v3.917a1.1 1.1 0 0 1-.508.94l-.133.067a1.062 1.062 0 0 1-.489.121 1.153 1.153 0 0 1-.269-.034l-.063-.015-.043-.014a1.191 1.191 0 0 1-.384-.225 1.122 1.122 0 0 1-.375-.844v-6.171z" class="cls-4" transform="translate(-244.9 -324.858)"/>
                <path id="패스_19" d="M270.246 67.833a2.837 2.837 0 0 0-4.811-1.247l-8.228 8.228a.232.232 0 0 0 .164.4h7.363a.232.232 0 0 0 .164-.068l4.542-4.546a2.837 2.837 0 0 0 .806-2.767zm-9.319 5.673l5.725-5.725.018-.018a1.132 1.132 0 1 1 1.6 1.6l-.006.006-4.138 4.138z" class="cls-4" transform="translate(-256.19 -65.698)"/>
            </g>
            <g id="그룹_29">
                <path id="패스_20" d="M70.719 166.435H42.937a2.837 2.837 0 1 0 0 5.674h9.069v6.778l-5.783 5.783a2.842 2.842 0 0 0-.01 4 2.5 2.5 0 0 0 .459.38 2.838 2.838 0 0 0 3.562-.369l3.228-3.227 3.366-3.36 3.366 3.36 3.225 3.224a2.8 2.8 0 0 0 2 .842 2.844 2.844 0 0 0 2.009-4.849l-5.783-5.783v-6.778h9.069a2.837 2.837 0 1 0 0-5.674zm0 3.969H60.177a.233.233 0 0 0-.233.233v8.863a.232.232 0 0 0 .068.164l6.214 6.214a1.135 1.135 0 0 1 0 1.6 1.18 1.18 0 0 1-.269.2 1.118 1.118 0 0 1-1.327-.207l-7.088-7.081a.232.232 0 0 0-.164-.068h-1.1a.232.232 0 0 0-.164.068l-3.86 3.853-3.23 3.23a1.13 1.13 0 0 1-1.419.147l-.009-.006a.811.811 0 0 1-.153-.127l-.015-.015a1.133 1.133 0 0 1 0-1.6l6.214-6.214a.232.232 0 0 0 .068-.164v-8.861a.233.233 0 0 0-.233-.233h-10.54a1.132 1.132 0 1 1 0-2.263h27.782a1.132 1.132 0 1 1 0 2.263z" class="cls-4" transform="translate(-40.1 -158.539)"/>
                <path id="패스_21" d="M198.521 64.568a4.821 4.821 0 1 0 4.821 4.821 4.827 4.827 0 0 0-4.821-4.821zm0 7.938a3.116 3.116 0 1 1 3.116-3.116 3.12 3.12 0 0 1-3.116 3.116z" class="cls-4" transform="translate(-181.794 -64.568)"/>
            </g>
        </g>
        <g id="그룹_31" transform="translate(-2.113 -2.325)">
            <path id="패스_22" d="M.363 210.419H.357a.894.894 0 0 0-.891.9.9.9 0 0 0 .894.889.894.894 0 0 0 0-1.788z" class="cls-4" transform="translate(.657 -193.928)"/>
            <path id="패스_23" d="M32.029 3.533a20 20 0 0 0-26.29-1.748 20.142 20.142 0 0 0-7.086 10.388.847.847 0 0 0 .075.648.847.847 0 0 0 .511.406.853.853 0 0 0 .235.033.856.856 0 0 0 .819-.619 18.31 18.31 0 1 1-.7 5.034.854.854 0 0 0-.853-.853.854.854 0 0 0-.853.853 20 20 0 0 0 20 20 20 20 0 0 0 20-20 19.869 19.869 0 0 0-5.858-14.142z" class="cls-4" transform="translate(2.113 2.325)"/>
        </g>
    </g>
</svg>
