{"accessors":[{"bufferView":0,"componentType":5123,"count":5760,"max":[1776],"min":[0],"type":"SCALAR"},{"bufferView":1,"componentType":5126,"count":1777,"max":[0.004972302354872227,0.005007673054933548,0.004978382959961891],"min":[-0.004972302354872227,-0.005007673520594835,-0.004978382959961891],"type":"VEC3"},{"bufferView":2,"componentType":5126,"count":1777,"max":[0.99932861328125,1.0,1.0],"min":[-0.99932861328125,-1.0,-1.0],"type":"VEC3"},{"bufferView":3,"componentType":5126,"count":1777,"max":[0.9848484396934509,1.0],"min":[0.015151501633226871,0.5276179313659668],"type":"VEC2"},{"bufferView":4,"componentType":5123,"count":76884,"max":[13271],"min":[0],"type":"SCALAR"},{"bufferView":5,"componentType":5126,"count":13272,"max":[0.028881872072815895,0.03630552068352699,0.006811090745031834],"min":[-0.028881875798106194,-0.09410593658685684,-0.006811089813709259],"type":"VEC3"},{"bufferView":6,"componentType":5126,"count":13272,"max":[1.0,1.0,0.9999998211860657],"min":[-1.0,-1.0,-0.9999997615814209],"type":"VEC3"},{"bufferView":7,"componentType":5126,"count":13272,"max":[1.0,0.5141032934188843,0.011805543676018715,1.0],"min":[0.8577281832695007,-0.5141023993492126,-0.012300758622586727,-1.0],"type":"VEC4"},{"bufferView":8,"componentType":5126,"count":13272,"max":[0.9999033212661743,0.9998095035552979],"min":[9.669302380643785e-05,0.03286588191986084],"type":"VEC2"},{"bufferView":9,"componentType":5126,"count":13272,"max":[1.0,1.0,1.0,1.0],"min":[0.0,0.0,0.0,1.0],"type":"VEC4"},{"bufferView":10,"componentType":5123,"count":77592,"max":[13431],"min":[0],"type":"SCALAR"},{"bufferView":11,"componentType":5126,"count":13432,"max":[0.029105544090270996,0.0363207645714283,0.006811090745031834],"min":[-0.029105544090270996,-0.0945911854505539,-0.006811089813709259],"type":"VEC3"},{"bufferView":12,"componentType":5126,"count":13432,"max":[1.0,1.0,0.9999988079071045],"min":[-1.0,-1.0,-0.9999988079071045],"type":"VEC3"},{"bufferView":13,"componentType":5126,"count":13432,"max":[1.0,0.5141004920005798,0.022191179916262627,1.0],"min":[0.8577235341072083,-0.5141000151634216,-0.025331726297736168,-1.0],"type":"VEC4"},{"bufferView":14,"componentType":5126,"count":13432,"max":[0.9999093413352966,0.9054252207279205],"min":[9.059906005859375e-05,0.01774275302886963],"type":"VEC2"},{"bufferView":15,"componentType":5126,"count":13432,"max":[1.0,1.0,1.0,1.0],"min":[0.0,0.0,0.0,1.0],"type":"VEC4"},{"bufferView":16,"componentType":5123,"count":90012,"max":[15499],"min":[0],"type":"SCALAR"},{"bufferView":17,"componentType":5126,"count":15500,"max":[0.028951125219464302,0.03629300370812416,0.006811090745031834],"min":[-0.02895112708210945,-0.09422342479228973,-0.006811089813709259],"type":"VEC3"},{"bufferView":18,"componentType":5126,"count":15500,"max":[1.0,1.0,0.9999997019767761],"min":[-1.0,-1.0,-0.9999997019767761],"type":"VEC3"},{"bufferView":19,"componentType":5126,"count":15500,"max":[1.0,0.5141038298606873,0.015251549892127514,1.0],"min":[0.8577269315719604,-0.514104425907135,-0.014927756041288376,-1.0],"type":"VEC4"},{"bufferView":20,"componentType":5126,"count":15500,"max":[0.9999032020568848,0.972364068031311],"min":[9.673833847045898e-05,0.024358391761779785],"type":"VEC2"},{"bufferView":21,"componentType":5126,"count":15500,"max":[1.0,1.0,1.0,1.0],"min":[0.0,0.0,0.0,1.0],"type":"VEC4"},{"bufferView":22,"componentType":5123,"count":84084,"max":[14557],"min":[0],"type":"SCALAR"},{"bufferView":23,"componentType":5126,"count":14558,"max":[0.028899718075990677,0.03629064932465553,0.006811090745031834],"min":[-0.028899718075990677,-0.0941210687160492,-0.006811089813709259],"type":"VEC3"},{"bufferView":24,"componentType":5126,"count":14558,"max":[1.0,1.0,0.9999998807907104],"min":[-1.0,-1.0,-0.9999998807907104],"type":"VEC3"},{"bufferView":25,"componentType":5126,"count":14558,"max":[1.0,0.5141037702560425,0.0010794922709465027,1.0],"min":[0.8577280044555664,-0.5141021609306335,-0.0011549923801794648,-1.0],"type":"VEC4"},{"bufferView":26,"componentType":5126,"count":14558,"max":[0.999904990196228,0.9967526793479919],"min":[9.499591396888718e-05,0.048127949237823486],"type":"VEC2"},{"bufferView":27,"componentType":5126,"count":14558,"max":[1.0,1.0,1.0,1.0],"min":[0.0,0.0,0.0,1.0],"type":"VEC4"},{"bufferView":28,"componentType":5123,"count":84180,"max":[14491],"min":[0],"type":"SCALAR"},{"bufferView":29,"componentType":5126,"count":14492,"max":[0.02939237840473652,0.03635716438293457,0.006811090745031834],"min":[-0.02939237840473652,-0.09418758004903793,-0.006811089813709259],"type":"VEC3"},{"bufferView":30,"componentType":5126,"count":14492,"max":[1.0,1.0,0.9999992847442627],"min":[-1.0,-1.0,-0.9999995231628418],"type":"VEC3"},{"bufferView":31,"componentType":5126,"count":14492,"max":[1.0,0.5141068696975708,0.023341720923781395,1.0],"min":[0.8577216267585754,-0.5141089558601379,-0.027318870648741722,-1.0],"type":"VEC4"},{"bufferView":32,"componentType":5126,"count":14492,"max":[0.9999173879623413,0.9918343424797058],"min":[8.25291353976354e-05,0.1662306785583496],"type":"VEC2"},{"bufferView":33,"componentType":5126,"count":14492,"max":[1.0,1.0,1.0,1.0],"min":[0.0,0.0,0.0,1.0],"type":"VEC4"}],"asset":{"generator":"Soft8Soft Verge3D for Blender add-on","version":"2.0"},"bufferViews":[{"buffer":0,"byteLength":11520,"byteOffset":0,"target":34963},{"buffer":0,"byteLength":21324,"byteOffset":11520,"target":34962},{"buffer":0,"byteLength":21324,"byteOffset":32844,"target":34962},{"buffer":0,"byteLength":14216,"byteOffset":54168,"target":34962},{"buffer":0,"byteLength":153768,"byteOffset":68384,"target":34963},{"buffer":0,"byteLength":159264,"byteOffset":222152,"target":34962},{"buffer":0,"byteLength":159264,"byteOffset":381416,"target":34962},{"buffer":0,"byteLength":212352,"byteOffset":540680,"target":34962},{"buffer":0,"byteLength":106176,"byteOffset":753032,"target":34962},{"buffer":0,"byteLength":212352,"byteOffset":859208,"target":34962},{"buffer":0,"byteLength":155184,"byteOffset":1071560,"target":34963},{"buffer":0,"byteLength":161184,"byteOffset":1226744,"target":34962},{"buffer":0,"byteLength":161184,"byteOffset":1387928,"target":34962},{"buffer":0,"byteLength":214912,"byteOffset":1549112,"target":34962},{"buffer":0,"byteLength":107456,"byteOffset":1764024,"target":34962},{"buffer":0,"byteLength":214912,"byteOffset":1871480,"target":34962},{"buffer":0,"byteLength":180024,"byteOffset":2086392,"target":34963},{"buffer":0,"byteLength":186000,"byteOffset":2266416,"target":34962},{"buffer":0,"byteLength":186000,"byteOffset":2452416,"target":34962},{"buffer":0,"byteLength":248000,"byteOffset":2638416,"target":34962},{"buffer":0,"byteLength":124000,"byteOffset":2886416,"target":34962},{"buffer":0,"byteLength":248000,"byteOffset":3010416,"target":34962},{"buffer":0,"byteLength":168168,"byteOffset":3258416,"target":34963},{"buffer":0,"byteLength":174696,"byteOffset":3426584,"target":34962},{"buffer":0,"byteLength":174696,"byteOffset":3601280,"target":34962},{"buffer":0,"byteLength":232928,"byteOffset":3775976,"target":34962},{"buffer":0,"byteLength":116464,"byteOffset":4008904,"target":34962},{"buffer":0,"byteLength":232928,"byteOffset":4125368,"target":34962},{"buffer":0,"byteLength":168360,"byteOffset":4358296,"target":34963},{"buffer":0,"byteLength":173904,"byteOffset":4526656,"target":34962},{"buffer":0,"byteLength":173904,"byteOffset":4700560,"target":34962},{"buffer":0,"byteLength":231872,"byteOffset":4874464,"target":34962},{"buffer":0,"byteLength":115936,"byteOffset":5106336,"target":34962},{"buffer":0,"byteLength":231872,"byteOffset":5222272,"target":34962}],"buffers":[{"byteLength":5454144,"uri":"gem_10.bin"}],"cameras":[{"extensions":{"S8S_v3d_camera_data":{"controls":"ORBIT","enablePan":true,"moveSpeed":1,"orbitMaxDistance":10000,"orbitMaxPolarAngle":3.141592653589793,"orbitMinDistance":0,"orbitMinPolarAngle":0,"orbitTarget":[0.0004643381107598543,0.00332997040823102,-0.005613325163722038],"rotateSpeed":1,"viewportFitInitialAspect":1,"viewportFitType":"VERTICAL"}},"name":"__DEFAULT__","perspective":{"aspectRatio":1,"yfov":0.7853981633974483,"zfar":5.0,"znear":0.0010000000474974513},"type":"perspective"}],"extensions":{"S8S_v3d_data":{"nodeGraphs":[{"edges":[{"fromNode":18,"fromOutput":0,"toInput":0,"toNode":23},{"fromNode":13,"fromOutput":0,"toInput":1,"toNode":6},{"fromNode":22,"fromOutput":0,"toInput":0,"toNode":6},{"fromNode":23,"fromOutput":0,"toInput":0,"toNode":22},{"fromNode":10,"fromOutput":2,"toInput":0,"toNode":9},{"fromNode":9,"fromOutput":0,"toInput":0,"toNode":8},{"fromNode":12,"fromOutput":0,"toInput":1,"toNode":14},{"fromNode":11,"fromOutput":0,"toInput":0,"toNode":10},{"fromNode":8,"fromOutput":0,"toInput":0,"toNode":14},{"fromNode":18,"fromOutput":0,"toInput":0,"toNode":17},{"fromNode":17,"fromOutput":0,"toInput":1,"toNode":19},{"fromNode":7,"fromOutput":0,"toInput":2,"toNode":6},{"fromNode":20,"fromOutput":0,"toInput":2,"toNode":7},{"fromNode":16,"fromOutput":0,"toInput":0,"toNode":20},{"fromNode":21,"fromOutput":1,"toInput":1,"toNode":20},{"fromNode":19,"fromOutput":0,"toInput":2,"toNode":20},{"fromNode":6,"fromOutput":0,"toInput":2,"toNode":14},{"fromNode":14,"fromOutput":0,"toInput":0,"toNode":24},{"fromNode":15,"fromOutput":2,"toInput":1,"toNode":7},{"fromNode":3,"fromOutput":0,"toInput":0,"toNode":7},{"fromNode":20,"fromOutput":0,"toInput":1,"toNode":2},{"fromNode":2,"fromOutput":0,"toInput":0,"toNode":3},{"fromNode":20,"fromOutput":0,"toInput":1,"toNode":4},{"fromNode":5,"fromOutput":0,"toInput":1,"toNode":3},{"fromNode":4,"fromOutput":1,"toInput":0,"toNode":5},{"fromNode":15,"fromOutput":0,"toInput":1,"toNode":5},{"fromNode":15,"fromOutput":1,"toInput":2,"toNode":5}],"name":"metall_material","nodes":[{"inputs":[],"is_active_output":false,"name":"Frame","outputs":[],"type":"FRAME_BL"},{"inputs":[],"is_active_output":false,"name":"Frame.001","outputs":[],"type":"FRAME_BL"},{"inputs":[1.4500000476837158,[0.0,0.0,0.0]],"is_active_output":false,"name":"Fresnel","outputs":[0.0],"type":"FRESNEL_BL"},{"blendType":"MIX","inputs":[0.5,[0.5,0.5,0.5,1.0],[0.6795570850372314,0.6795570850372314,0.6795570850372314,1.0]],"is_active_output":false,"name":"Mix.002","outputs":[[0.0,0.0,0.0,0.0]],"type":"MIX_RGB_BL","useClamp":false},{"inputs":[0.5,[0.0,0.0,0.0]],"is_active_output":false,"name":"Layer Weight","outputs":[0.0,0.0],"type":"LAYER_WEIGHT_BL"},{"blendType":"MIX","inputs":[0.5,[0.5,0.5,0.5,1.0],[0.5,0.5,0.5,1.0]],"is_active_output":false,"name":"Mix.003","outputs":[[0.0,0.0,0.0,0.0]],"type":"MIX_RGB_BL","useClamp":false},{"inputs":[0.5,[0,0,0,0],[0,0,0,0]],"is_active_output":false,"name":"Mix Shader","outputs":[[0,0,0,0]],"type":"MIX_SHADER_BL"},{"inputs":[[0.6266327500343323,0.6266327500343323,0.6266327500343323,1.0],0.0,[0.0,0.0,0.0]],"is_active_output":false,"name":"Glossy BSDF","outputs":[[0,0,0,0]],"type":"BSDF_GLOSSY_BL"},{"inputs":[0.5,23.39999771118164,0.0],"is_active_output":false,"name":"Math.001","operation":"MULTIPLY","outputs":[0.0],"type":"MATH_BL","useClamp":true},{"inputs":[0.5,0.07000000029802322,0.0],"is_active_output":false,"name":"Math","operation":"ADD","outputs":[0.0],"type":"MATH_BL","useClamp":false},{"inputs":[[0.800000011920929,0.800000011920929,0.800000011920929,1.0]],"is_active_output":false,"name":"Separate RGB","outputs":[0.0,0.0,0.0],"type":"SEPRGB_BL"},{"inputs":[],"is_active_output":false,"name":"Geometry","outputs":[[0.0,0.0,0.0],[0.0,0.0,0.0],[0.0,0.0,0.0],[0.0,0.0,0.0],[0.0,0.0,0.0],[0.0,0.0,0.0],0.0,0.0,0.0],"type":"NEW_GEOMETRY_BL"},{"inputs":[[1.0,1.0,1.0,1.0],1.0],"is_active_output":false,"name":"Emission.001","outputs":[[0,0,0,0]],"type":"EMISSION_BL"},{"inputs":[[0.0,0.0,0.0,1.0],0.0,[0.0,0.0,0.0]],"is_active_output":false,"name":"Diffuse BSDF","outputs":[[0,0,0,0]],"type":"BSDF_DIFFUSE_BL"},{"inputs":[0.5,[0,0,0,0],[0,0,0,0]],"is_active_output":false,"name":"Mix Shader.001","outputs":[[0,0,0,0]],"type":"MIX_SHADER_BL"},{"inputs":[],"is_active_output":false,"name":"Group Input","outputs":[[0.0,0.0,0.0,1.0],[0.0,0.0,0.0,1.0],0.0],"type":"GROUP_INPUT_BL"},{"colorLayer":"engrave_mask","inputs":[],"is_active_output":false,"name":"Attribute","outputs":[[0.0,0.0,0.0,0.0],[0.0,0.0,0.0],0.0],"type":"ATTRIBUTE_BL"},{"inputs":[[0.0,0.0,0.0]],"is_active_output":false,"name":"Image Texture.001","outputs":[[0.0,0.0,0.0,0.0],0.0],"projection":"FLAT","projectionBlend":0.0,"texture":1,"type":"TEX_IMAGE_BL"},{"inputs":[],"is_active_output":false,"name":"UV Map","outputs":[[0.0,0.0,0.0]],"type":"UVMAP_BL","uvLayer":"engrave"},{"inputs":[1.0,[0.5,0.5,1.0,1.0]],"is_active_output":false,"name":"Normal Map","outputs":[[0.0,0.0,0.0]],"type":"NORMAL_MAP_BL","uvLayer":"engrave"},{"blendType":"MIX","inputs":[0.5,[0.5,0.5,0.5,1.0],[0.5,0.5,0.5,1.0]],"is_active_output":false,"name":"Mix.001","outputs":[[0.0,0.0,0.0,0.0]],"type":"MIX_RGB_BL","useClamp":false},{"inputs":[],"is_active_output":false,"name":"Geometry.001","outputs":[[0.0,0.0,0.0],[0.0,0.0,0.0],[0.0,0.0,0.0],[0.0,0.0,0.0],[0.0,0.0,0.0],[0.0,0.0,0.0],0.0,0.0,0.0],"type":"NEW_GEOMETRY_BL"},{"blendType":"MIX","inputs":[0.5,[0.7743505835533142,0.7743505835533142,0.7743505835533142,1.0],[1.0,1.0,1.0,1.0]],"is_active_output":false,"name":"Mix","outputs":[[0.0,0.0,0.0,0.0]],"type":"MIX_RGB_BL","useClamp":false},{"inputs":[[0.0,0.0,0.0]],"is_active_output":false,"name":"Image Texture","outputs":[[0.0,0.0,0.0,0.0],0.0],"projection":"FLAT","projectionBlend":0.0,"texture":2,"type":"TEX_IMAGE_BL"},{"inputs":[[0,0,0,0]],"is_active_output":true,"name":"Group Output","outputs":[],"type":"GROUP_OUTPUT_BL"}]}]}},"extensionsUsed":["S8S_v3d_texture_data","S8S_v3d_data","S8S_v3d_material_data","S8S_v3d_camera_data","S8S_v3d_mesh_data","S8S_v3d_node_data","S8S_v3d_scene_data"],"images":[{"uri":"environment.hdr"},{"uri":"engrave_normal.jpg"},{"uri":"engrave_ao.jpg"}],"materials":[{"extensions":{"S8S_v3d_material_data":{"nodeGraph":{"edges":[{"fromNode":1,"fromOutput":0,"toInput":0,"toNode":0},{"fromNode":2,"fromOutput":0,"toInput":0,"toNode":1}],"nodes":[{"inputs":[[0,0,0,0],[0,0,0,0],[0.0,0.0,0.0]],"is_active_output":true,"name":"Material Output","outputs":[],"type":"OUTPUT_MATERIAL_BL"},{"inputs":[[0.8000000715255737,0.7218967080116272,0.5669994354248047,1.0],0.0,[1.0,0.20000000298023224,0.10000000149011612],[0.800000011920929,0.800000011920929,0.800000011920929,1.0],0.9583333134651184,0.5,0.0,0.3499999940395355,0.0,0.0,0.0,0.5,0.0,0.029999999329447746,1.4500000476837158,0.0,0.0,[0.0,0.0,0.0,1.0],1.0,[0.0,0.0,0.0],[0.0,0.0,0.0],[0.0,0.0,0.0]],"is_active_output":false,"name":"Principled BSDF","outputs":[[0,0,0,0]],"type":"BSDF_PRINCIPLED_BL"},{"inputs":[],"is_active_output":false,"name":"color","outputs":[[0.7991030216217041,0.7230550050735474,0.5647119879722595,1.0]],"type":"RGB_BL"}]},"useCastShadows":true}},"name":"pearl"},{"extensions":{"S8S_v3d_material_data":{"nodeGraph":{"edges":[{"fromNode":4,"fromOutput":0,"toInput":0,"toNode":3},{"fromNode":1,"fromOutput":0,"toInput":1,"toNode":4},{"fromNode":0,"fromOutput":0,"toInput":0,"toNode":4},{"fromNode":2,"fromOutput":0,"toInput":2,"toNode":4}],"nodes":[{"inputs":[],"is_active_output":false,"name":"metall_color_1","outputs":[[0.7293471693992615,0.7293471693992615,0.7293471693992615,1.0]],"type":"RGB_BL"},{"inputs":[],"is_active_output":false,"name":"metall_color_2","outputs":[[0.5382355451583862,0.5382355451583862,0.5382355451583862,1.0]],"type":"RGB_BL"},{"inputs":[],"is_active_output":false,"name":"metall_roughness","outputs":[0.0],"type":"VALUE_BL"},{"inputs":[[0,0,0,0],[0,0,0,0],[0.0,0.0,0.0]],"is_active_output":true,"name":"Material Output","outputs":[],"type":"OUTPUT_MATERIAL_BL"},{"inputs":[[0.0,0.0,0.0,1.0],[0.0,0.0,0.0,1.0],0.0],"is_active_output":false,"name":"Group","nodeGraph":0,"outputs":[[0,0,0,0]],"type":"GROUP_BL"}]},"useCastShadows":true}},"name":"metall"},{"extensions":{"S8S_v3d_material_data":{"nodeGraph":{"edges":[{"fromNode":2,"fromOutput":0,"toInput":0,"toNode":0},{"fromNode":4,"fromOutput":0,"toInput":1,"toNode":3},{"fromNode":1,"fromOutput":0,"toInput":0,"toNode":3},{"fromNode":3,"fromOutput":0,"toInput":0,"toNode":2}],"nodes":[{"inputs":[[0,0,0,0],[0,0,0,0]],"is_active_output":true,"name":"World Output","outputs":[],"type":"OUTPUT_WORLD_BL"},{"inputs":[],"is_active_output":false,"name":"Light Path","outputs":[0.0,0.0,0.0,0.0,0.0,0.0,0.0,0.0,0.0,0.0,0.0,0.0,0.0],"type":"LIGHT_PATH_BL"},{"inputs":[[1.0,1.0,1.0,1.0],1.0000001192092896],"is_active_output":false,"name":"Background","outputs":[[0,0,0,0]],"type":"BACKGROUND_BL"},{"blendType":"MIX","inputs":[0.5,[0.5,0.5,0.5,1.0],[1.0,1.0,1.0,1.0]],"is_active_output":false,"name":"Mix","outputs":[[0.0,0.0,0.0,0.0]],"type":"MIX_RGB_BL","useClamp":false},{"inputs":[[0.0,0.0,0.0]],"is_active_output":false,"name":"Environment Texture","outputs":[[0.0,0.0,0.0,0.0]],"projection":"EQUIRECTANGULAR","texture":0,"type":"TEX_ENVIRONMENT_BL"}]},"useCastShadows":true}},"name":"Verge3D_Environment_World"}],"meshes":[{"extensions":{"S8S_v3d_mesh_data":{"colorLayers":{},"uvLayers":{"UVMap":"TEXCOORD_0"}}},"name":"gem_10","primitives":[{"attributes":{"NORMAL":2,"POSITION":1,"TEXCOORD_0":3},"indices":0,"material":0,"mode":4}]},{"extensions":{"S8S_v3d_mesh_data":{"colorLayers":{"engrave_mask":"COLOR_0"},"uvLayers":{"engrave":"TEXCOORD_0"}}},"name":"ring_type_1.011","primitives":[{"attributes":{"COLOR_0":9,"NORMAL":6,"POSITION":5,"TANGENT":7,"TEXCOORD_0":8},"indices":4,"material":1,"mode":4}]},{"extensions":{"S8S_v3d_mesh_data":{"colorLayers":{"engrave_mask":"COLOR_0"},"uvLayers":{"engrave":"TEXCOORD_0"}}},"name":"ring_type_2.011","primitives":[{"attributes":{"COLOR_0":15,"NORMAL":12,"POSITION":11,"TANGENT":13,"TEXCOORD_0":14},"indices":10,"material":1,"mode":4}]},{"extensions":{"S8S_v3d_mesh_data":{"colorLayers":{"engrave_mask":"COLOR_0"},"uvLayers":{"engrave":"TEXCOORD_0"}}},"name":"ring_type_3.011","primitives":[{"attributes":{"COLOR_0":21,"NORMAL":18,"POSITION":17,"TANGENT":19,"TEXCOORD_0":20},"indices":16,"material":1,"mode":4}]},{"extensions":{"S8S_v3d_mesh_data":{"colorLayers":{"engrave_mask":"COLOR_0"},"uvLayers":{"engrave":"TEXCOORD_0"}}},"name":"ring_type_4.011","primitives":[{"attributes":{"COLOR_0":27,"NORMAL":24,"POSITION":23,"TANGENT":25,"TEXCOORD_0":26},"indices":22,"material":1,"mode":4}]},{"extensions":{"S8S_v3d_mesh_data":{"colorLayers":{"engrave_mask":"COLOR_0"},"uvLayers":{"engrave":"TEXCOORD_0"}}},"name":"ring_type_5.011","primitives":[{"attributes":{"COLOR_0":33,"NORMAL":30,"POSITION":29,"TANGENT":31,"TEXCOORD_0":32},"indices":28,"material":1,"mode":4}]}],"nodes":[{"extensions":{"S8S_v3d_node_data":{"frustumCulling":true,"groupNames":[],"hidden":true,"renderOrder":0}},"name":"Empty","translation":[0.0,-0.028885208070278168,-0.0]},{"children":[10],"extensions":{"S8S_v3d_node_data":{"frustumCulling":true,"groupNames":["gem_10_line_0"],"hidden":true,"renderOrder":0,"useShadows":true}},"mesh":3,"name":"ring_type_3_gem_10_curve_0_line_0","translation":[0.0,7.999999797903001e-05,-0.0]},{"children":[7],"extensions":{"S8S_v3d_node_data":{"frustumCulling":true,"groupNames":["gem_10_line_0"],"hidden":true,"renderOrder":0,"useShadows":true}},"mesh":1,"name":"ring_type_1_gem_10_curve_0_line_0","translation":[0.0,1.4999999621068127e-05,-0.0]},{"children":[12],"extensions":{"S8S_v3d_node_data":{"frustumCulling":true,"groupNames":["gem_10_line_0"],"hidden":true,"renderOrder":0,"useShadows":true}},"mesh":4,"name":"ring_type_4_gem_10_curve_0_line_0","translation":[0.0,2.9999999242136255e-05,-0.0]},{"children":[9],"extensions":{"S8S_v3d_node_data":{"frustumCulling":true,"groupNames":["gem_10_line_0"],"hidden":true,"renderOrder":0,"useShadows":true}},"mesh":2,"name":"ring_type_2_gem_10_curve_0_line_0","translation":[0.0,0.0002500000118743628,-0.0]},{"children":[14],"extensions":{"S8S_v3d_node_data":{"frustumCulling":true,"groupNames":["gem_10_line_0"],"hidden":true,"renderOrder":0,"useShadows":true}},"mesh":5,"name":"ring_type_5_gem_10_curve_0_line_0","translation":[0.0,2.9999999242136255e-05,-0.0]},{"extensions":{"S8S_v3d_node_data":{"frustumCulling":true,"groupNames":["gem_10_line_0"],"hidden":true,"renderOrder":0,"useShadows":true}},"mesh":0,"name":"gem_type_1_gem_10_curve_0_line_0_outside","translation":[0.0,0.03447115793824196,-0.10000000149011612]},{"children":[6],"name":"v3d_Proxy_Node_0_gem_type_1_gem_10_curve_0_line_0_outside","translation":[-0.0,-0.0,0.10000000149011612]},{"extensions":{"S8S_v3d_node_data":{"frustumCulling":true,"groupNames":["gem_10_line_0"],"hidden":true,"renderOrder":0,"useShadows":true}},"mesh":0,"name":"gem_type_2_gem_10_curve_0_line_0_outside","translation":[0.0,0.034486401826143265,-0.05000000074505806]},{"children":[8],"name":"v3d_Proxy_Node_0_gem_type_2_gem_10_curve_0_line_0_outside","translation":[-0.0,-0.0,0.05000000074505806]},{"extensions":{"S8S_v3d_node_data":{"frustumCulling":true,"groupNames":["gem_10_line_0"],"hidden":true,"renderOrder":0,"useShadows":true}},"mesh":0,"name":"gem_type_3_gem_10_curve_0_line_0_outside","translation":[0.0,0.03447115793824196,-0.0]},{"extensions":{"S8S_v3d_node_data":{"frustumCulling":true,"groupNames":["gem_10_line_0"],"hidden":true,"renderOrder":0,"useShadows":true}},"mesh":0,"name":"gem_type_4_gem_10_curve_0_line_0_outside","translation":[0.0,0.03447115793824196,0.05000000074505806]},{"children":[11],"name":"v3d_Proxy_Node_0_gem_type_4_gem_10_curve_0_line_0_outside","translation":[-0.0,-0.0,-0.05000000074505806]},{"extensions":{"S8S_v3d_node_data":{"frustumCulling":true,"groupNames":["gem_10_line_0"],"hidden":true,"renderOrder":0,"useShadows":true}},"mesh":0,"name":"gem_type_5_gem_10_curve_0_line_0_outside","translation":[0.0,0.034499019384384155,0.10000000149011612]},{"children":[13],"name":"v3d_Proxy_Node_0_gem_type_5_gem_10_curve_0_line_0_outside","translation":[-0.0,-0.0,-0.10000000149011612]},{"camera":0,"name":"__DEFAULT_CAMERA__","rotation":[-0.2901569604873657,-0.2887561619281769,-0.09230390936136246,0.9076943397521973],"scale":[0.9999998807907104,0.9999997615814209,0.9999997615814209],"translation":[-0.0347650982439518,0.046749576926231384,0.04415419325232506]}],"samplers":[{}],"scene":0,"scenes":[{"extensions":{"S8S_v3d_scene_data":{"aaMethod":"AUTO","iblEnvironmentMode":"PMREM","physicallyCorrectLights":true,"pmremMaxTileSize":512,"shadowMap":{"renderReverseSided":false,"renderSingleSided":true,"type":"PCFPOISSON"},"useHDR":true,"worldMaterial":2}},"extras":{"animFrameRate":24,"coordSystem":"Z_UP_RIGHT"},"name":"Scene","nodes":[0,1,4,2,3,5,15]}],"textures":[{"extensions":{"S8S_v3d_texture_data":{"colorSpace":"linear"}},"name":"environment.hdr","sampler":0,"source":0},{"extensions":{"S8S_v3d_texture_data":{"anisotropy":16,"colorSpace":"non-color"}},"name":"engrave_normal","sampler":0,"source":1},{"extensions":{"S8S_v3d_texture_data":{"anisotropy":16,"colorSpace":"srgb"}},"name":"engrave_ao","sampler":0,"source":2}]}
