{"accessors":[{"bufferView":0,"componentType":5123,"count":960,"max":[959],"min":[0],"type":"SCALAR"},{"bufferView":1,"componentType":5126,"count":960,"max":[6.328114032745361,6.3281145095825195,6.328114032745361],"min":[-6.3281145095825195,-6.3281145095825195,-6.328114032745361],"type":"VEC3"},{"bufferView":2,"componentType":5126,"count":960,"max":[0.9854123592376709,0.987786054611206,0.984649121761322],"min":[-0.9854124784469604,-0.987786054611206,-0.9846492409706116],"type":"VEC3"},{"bufferView":3,"componentType":5126,"count":960,"max":[0.9984399080276489,0.9984399459790438],"min":[0.0015600540209561586,0.002921164035797119],"type":"VEC2"},{"bufferView":4,"componentType":5123,"count":2880,"max":[481],"min":[0],"type":"SCALAR"},{"bufferView":5,"componentType":5126,"count":482,"max":[1.000000238418579,1.0,1.0000003576278687],"min":[-0.9999998211860657,-1.0,-0.9999991655349731],"type":"VEC3"},{"bufferView":6,"componentType":5126,"count":482,"max":[1.0,1.0,1.0],"min":[-1.0,-1.0,-1.0],"type":"VEC3"},{"bufferView":7,"componentType":5123,"count":2880,"max":[481],"min":[0],"type":"SCALAR"},{"bufferView":8,"componentType":5126,"count":482,"max":[1.000000238418579,1.0,1.0000003576278687],"min":[-0.9999998211860657,-1.0,-0.9999991655349731],"type":"VEC3"},{"bufferView":9,"componentType":5126,"count":482,"max":[1.0,1.0,1.0],"min":[-1.0,-1.0,-1.0],"type":"VEC3"},{"bufferView":10,"componentType":5123,"count":2880,"max":[481],"min":[0],"type":"SCALAR"},{"bufferView":11,"componentType":5126,"count":482,"max":[1.000000238418579,1.0,1.0000003576278687],"min":[-0.9999998211860657,-1.0,-0.9999991655349731],"type":"VEC3"},{"bufferView":12,"componentType":5126,"count":482,"max":[1.0,1.0,1.0],"min":[-1.0,-1.0,-1.0],"type":"VEC3"},{"bufferView":13,"componentType":5123,"count":7848,"max":[1301],"min":[0],"type":"SCALAR"},{"bufferView":14,"componentType":5126,"count":1302,"max":[1.4447557926177979,0.03491956740617752,1.0806889533996582],"min":[-1.444756031036377,-0.24724642932415009,-1.5792653560638428],"type":"VEC3"},{"bufferView":15,"componentType":5126,"count":1302,"max":[1.0,1.0,1.0],"min":[-1.0,-1.0,-1.0],"type":"VEC3"},{"bufferView":16,"componentType":5123,"count":24192,"max":[4031],"min":[0],"type":"SCALAR"},{"bufferView":17,"componentType":5126,"count":4032,"max":[1.2707195281982422,0.03491956740617752,0.9087727069854736],"min":[-1.2707197666168213,-0.24724642932415009,-1.4032013416290283],"type":"VEC3"},{"bufferView":18,"componentType":5126,"count":4032,"max":[1.0,1.0,1.0],"min":[-1.0,-1.0,-1.0],"type":"VEC3"},{"bufferView":19,"componentType":5123,"count":5184,"max":[863],"min":[0],"type":"SCALAR"},{"bufferView":20,"componentType":5126,"count":864,"max":[0.36445385217666626,0.04240338131785393,-0.6244035959243774],"min":[-0.36445388197898865,-0.2504154443740845,-1.35331130027771],"type":"VEC3"},{"bufferView":21,"componentType":5126,"count":864,"max":[1.0,1.0,1.0],"min":[-1.0,-1.0,-1.0],"type":"VEC3"},{"bufferView":22,"componentType":5123,"count":5184,"max":[863],"min":[0],"type":"SCALAR"},{"bufferView":23,"componentType":5126,"count":864,"max":[-0.49192187190055847,0.04240335896611214,0.8588825464248657],"min":[-1.220829725265503,-0.2504153549671173,0.12997472286224365],"type":"VEC3"},{"bufferView":24,"componentType":5126,"count":864,"max":[1.0,1.0,1.0],"min":[-1.0,-1.0,-1.0],"type":"VEC3"},{"bufferView":25,"componentType":5123,"count":5184,"max":[863],"min":[0],"type":"SCALAR"},{"bufferView":26,"componentType":5126,"count":864,"max":[1.2208294868469238,0.04240335896611214,0.8588827252388],"min":[0.49192172288894653,-0.2504154145717621,0.12997494637966156],"type":"VEC3"},{"bufferView":27,"componentType":5126,"count":864,"max":[1.0,1.0,1.0],"min":[-1.0,-1.0,-1.0],"type":"VEC3"},{"bufferView":28,"componentType":5123,"count":8208,"max":[1371],"min":[0],"type":"SCALAR"},{"bufferView":29,"componentType":5126,"count":1372,"max":[0.4935447871685028,0.12411178648471832,0.4949663579463959],"min":[-0.4946223497390747,-0.33582794666290283,-0.4932006895542145],"type":"VEC3"},{"bufferView":30,"componentType":5126,"count":1372,"max":[1.0,1.0,1.0],"min":[-1.0,-1.0,-1.0],"type":"VEC3"},{"bufferView":31,"componentType":5126,"count":2401,"max":[100.0],"min":[0.0],"type":"SCALAR"},{"bufferView":32,"componentType":5126,"count":2401,"max":[0.0,0.9999991655349731,-0.0,1.0],"min":[0.0,-0.9999997019767761,-0.0,-0.9999993443489075],"type":"VEC4"}],"animations":[{"channels":[{"sampler":0,"target":{"node":4,"path":"rotation"}}],"extensions":{"S8S_v3d_animation_data":{"auto":false,"loop":"REPEAT","offset":0.0,"repeatCount":1.0,"repeatInfinite":false}},"name":"Spinner","samplers":[{"input":31,"interpolation":"LINEAR","output":32}]},{"channels":[{"sampler":0,"target":{"node":5,"path":"rotation"}}],"extensions":{"S8S_v3d_animation_data":{"auto":false,"loop":"REPEAT","offset":0.0,"repeatCount":1.0,"repeatInfinite":false}},"name":"Spinner rings","samplers":[{"input":31,"interpolation":"LINEAR","output":32}]}],"asset":{"generator":"Soft8Soft Verge3D for Blender add-on","version":"2.0"},"bufferViews":[{"buffer":0,"byteLength":1920,"byteOffset":0,"target":34963},{"buffer":0,"byteLength":11520,"byteOffset":1920,"target":34962},{"buffer":0,"byteLength":11520,"byteOffset":13440,"target":34962},{"buffer":0,"byteLength":7680,"byteOffset":24960,"target":34962},{"buffer":0,"byteLength":5760,"byteOffset":32640,"target":34963},{"buffer":0,"byteLength":5784,"byteOffset":38400,"target":34962},{"buffer":0,"byteLength":5784,"byteOffset":44184,"target":34962},{"buffer":0,"byteLength":5760,"byteOffset":49968,"target":34963},{"buffer":0,"byteLength":5784,"byteOffset":55728,"target":34962},{"buffer":0,"byteLength":5784,"byteOffset":61512,"target":34962},{"buffer":0,"byteLength":5760,"byteOffset":67296,"target":34963},{"buffer":0,"byteLength":5784,"byteOffset":73056,"target":34962},{"buffer":0,"byteLength":5784,"byteOffset":78840,"target":34962},{"buffer":0,"byteLength":15696,"byteOffset":84624,"target":34963},{"buffer":0,"byteLength":15624,"byteOffset":100320,"target":34962},{"buffer":0,"byteLength":15624,"byteOffset":115944,"target":34962},{"buffer":0,"byteLength":48384,"byteOffset":131568,"target":34963},{"buffer":0,"byteLength":48384,"byteOffset":179952,"target":34962},{"buffer":0,"byteLength":48384,"byteOffset":228336,"target":34962},{"buffer":0,"byteLength":10368,"byteOffset":276720,"target":34963},{"buffer":0,"byteLength":10368,"byteOffset":287088,"target":34962},{"buffer":0,"byteLength":10368,"byteOffset":297456,"target":34962},{"buffer":0,"byteLength":10368,"byteOffset":307824,"target":34963},{"buffer":0,"byteLength":10368,"byteOffset":318192,"target":34962},{"buffer":0,"byteLength":10368,"byteOffset":328560,"target":34962},{"buffer":0,"byteLength":10368,"byteOffset":338928,"target":34963},{"buffer":0,"byteLength":10368,"byteOffset":349296,"target":34962},{"buffer":0,"byteLength":10368,"byteOffset":359664,"target":34962},{"buffer":0,"byteLength":16416,"byteOffset":370032,"target":34963},{"buffer":0,"byteLength":16464,"byteOffset":386448,"target":34962},{"buffer":0,"byteLength":16464,"byteOffset":402912,"target":34962},{"buffer":0,"byteLength":9604,"byteOffset":419376},{"buffer":0,"byteLength":38416,"byteOffset":428980}],"buffers":[{"byteLength":467396,"uri":"spinner.bin"}],"cameras":[{"extensions":{"S8S_v3d_camera_data":{"controls":"ORBIT","enablePan":false,"moveSpeed":1.0,"orbitMaxDistance":10.0,"orbitMaxPolarAngle":3.1415927410125732,"orbitMinDistance":4.0,"orbitMinPolarAngle":0.0,"orbitTarget":[0.0,0.0,-0.0],"rotateSpeed":1.0,"viewportFitInitialAspect":2.008547067642212,"viewportFitType":"VERTICAL"}},"name":"Camera","perspective":{"aspectRatio":2.008547067642212,"yfov":0.5033799409866333,"zfar":100.0,"znear":0.10000000149011612},"type":"perspective"}],"extensions":{"S8S_v3d_data":{"lights":[{"color":[1.0,1.0,1.0],"intensity":1.0,"name":"Lamp","profile":"blender","shadow":{"bias":-0.0018,"cameraFar":10100.0,"cameraFov":0,"cameraNear":0.1,"cameraOrthoBottom":-1,"cameraOrthoLeft":-1,"cameraOrthoRight":1,"cameraOrthoTop":1,"csm":{"maxDistance":1000.0},"enabled":false,"mapSize":1024,"radius":1.0,"slopeScaledBias":2.5},"type":"directional"},{"color":[1.0,1.0,1.0],"intensity":1.0,"name":"Lamp.001","profile":"blender","shadow":{"bias":-0.0018,"cameraFar":10100.0,"cameraFov":0,"cameraNear":0.1,"cameraOrthoBottom":-1,"cameraOrthoLeft":-1,"cameraOrthoRight":1,"cameraOrthoTop":1,"csm":{"maxDistance":1000.0},"enabled":false,"mapSize":1024,"radius":1.0,"slopeScaledBias":2.5},"type":"directional"},{"color":[1.0,1.0,1.0],"intensity":1.0,"name":"Lamp2","profile":"blender","shadow":{"bias":-0.0018,"cameraFar":10100.0,"cameraFov":0,"cameraNear":0.1,"cameraOrthoBottom":-1,"cameraOrthoLeft":-1,"cameraOrthoRight":1,"cameraOrthoTop":1,"csm":{"maxDistance":1000.0},"enabled":false,"mapSize":1024,"radius":1.0,"slopeScaledBias":2.5},"type":"directional"}]}},"extensionsUsed":["S8S_v3d_texture_data","S8S_v3d_material_data","S8S_v3d_camera_data","S8S_v3d_data","S8S_v3d_mesh_data","S8S_v3d_node_data","S8S_v3d_animation_data","S8S_v3d_scene_data"],"images":[{"uri":"environment_diff.png"},{"uri":"equirectangular_environment.jpg"}],"materials":[{"extensions":{"S8S_v3d_material_data":{"nodeGraph":{"edges":[{"fromNode":1,"fromOutput":0,"toInput":0,"toNode":0}],"nodes":[{"inputs":[[0,0,0,0],[0,0,0,0],[0.0,0.0,0.0]],"is_active_output":true,"name":"Material Output","outputs":[],"type":"OUTPUT_MATERIAL_BL"},{"inputs":[[0.0,0.01080289762467146,0.8000000715255737,1.0],0.0,[1.0,1.0,1.0],[0.699999988079071,0.10000000149011612,0.10000000149011612,1.0],1.0,1.0,0.0,0.5,0.0,0.0,0.0,0.5,0.0,0.029999999329447746,1.4500000476837158,0.0,0.0,[0.0,0.0,0.0,1.0],1.0,[0.0,0.0,0.0],[0.0,0.0,0.0],[0.0,0.0,0.0]],"is_active_output":false,"name":"Principled BSDF","outputs":[[0,0,0,0]],"type":"BSDF_PRINCIPLED_BL"}]}}},"name":"Blue"},{"extensions":{"S8S_v3d_material_data":{"nodeGraph":{"edges":[{"fromNode":1,"fromOutput":0,"toInput":0,"toNode":0}],"nodes":[{"inputs":[[0,0,0,0],[0,0,0,0],[0.0,0.0,0.0]],"is_active_output":true,"name":"Material Output","outputs":[],"type":"OUTPUT_MATERIAL_BL"},{"inputs":[[0.07818741351366043,0.17788845300674438,0.799102783203125,1.0],0.0,[1.0,1.0,1.0],[0.699999988079071,0.10000000149011612,0.10000000149011612,1.0],0.0,1.0,0.0,0.10000000149011612,0.0,0.0,0.0,0.5,0.0,0.029999999329447746,1.4500000476837158,0.0,0.0,[0.0,0.0,0.0,1.0],1.0,[0.0,0.0,0.0],[0.0,0.0,0.0],[0.0,0.0,0.0]],"is_active_output":false,"name":"Principled BSDF","outputs":[[0,0,0,0]],"type":"BSDF_PRINCIPLED_BL"}]}}},"name":"CoverBlue"},{"extensions":{"S8S_v3d_material_data":{"nodeGraph":{"edges":[{"fromNode":1,"fromOutput":0,"toInput":0,"toNode":0}],"nodes":[{"inputs":[[0,0,0,0],[0,0,0,0],[0.0,0.0,0.0]],"is_active_output":true,"name":"Material Output","outputs":[],"type":"OUTPUT_MATERIAL_BL"},{"inputs":[[0.0802198275923729,0.479320228099823,0.03560131788253784,1.0],0.0,[1.0,1.0,1.0],[0.699999988079071,0.10000000149011612,0.10000000149011612,1.0],0.0,1.0,0.0,0.10000000149011612,0.0,0.0,0.0,0.5,0.0,0.029999999329447746,1.4500000476837158,0.0,0.0,[0.0,0.0,0.0,1.0],1.0,[0.0,0.0,0.0],[0.0,0.0,0.0],[0.0,0.0,0.0]],"is_active_output":false,"name":"Principled BSDF","outputs":[[0,0,0,0]],"type":"BSDF_PRINCIPLED_BL"}]}}},"name":"CoverGreen"},{"extensions":{"S8S_v3d_material_data":{"nodeGraph":{"edges":[{"fromNode":0,"fromOutput":0,"toInput":0,"toNode":1}],"nodes":[{"inputs":[[0.5906188488006592,0.4341537058353424,0.04373503103852272,1.0],0.0,[1.0,1.0,1.0],[0.699999988079071,0.10000000149011612,0.10000000149011612,1.0],0.0,1.0,0.0,0.10000000149011612,0.0,0.0,0.0,0.5,0.0,0.029999999329447746,1.4500000476837158,0.0,0.0,[0.0,0.0,0.0,1.0],1.0,[0.0,0.0,0.0],[0.0,0.0,0.0],[0.0,0.0,0.0]],"is_active_output":false,"name":"Principled BSDF","outputs":[[0,0,0,0]],"type":"BSDF_PRINCIPLED_BL"},{"inputs":[[0,0,0,0],[0,0,0,0],[0.0,0.0,0.0]],"is_active_output":true,"name":"Material Output","outputs":[],"type":"OUTPUT_MATERIAL_BL"}]}}},"name":"CoverYellow"},{"extensions":{"S8S_v3d_material_data":{"nodeGraph":{"edges":[{"fromNode":1,"fromOutput":0,"toInput":0,"toNode":0},{"fromNode":0,"fromOutput":0,"toInput":0,"toNode":2},{"fromNode":2,"fromOutput":0,"toInput":0,"toNode":3}],"nodes":[{"inputs":[[0.0,0.0,0.0]],"is_active_output":false,"name":"Image Texture","outputs":[[0.0,0.0,0.0,0.0],0.0],"projection":"FLAT","projectionBlend":0.0,"texture":0,"type":"TEX_IMAGE_BL"},{"inputs":[],"is_active_output":false,"name":"UV Map","outputs":[[0.0,0.0,0.0]],"type":"UVMAP_BL","uvLayer":"UVMap"},{"inputs":[[0.800000011920929,0.800000011920929,0.800000011920929,1.0],1.0],"is_active_output":false,"name":"Emission","outputs":[[0,0,0,0]],"type":"EMISSION_BL"},{"inputs":[[0,0,0,0],[0,0,0,0],[0.0,0.0,0.0]],"is_active_output":true,"name":"Material Output","outputs":[],"type":"OUTPUT_MATERIAL_BL"}]}}},"name":"environment"},{"extensions":{"S8S_v3d_material_data":{"nodeGraph":{"edges":[{"fromNode":1,"fromOutput":0,"toInput":0,"toNode":0}],"nodes":[{"inputs":[[0,0,0,0],[0,0,0,0],[0.0,0.0,0.0]],"is_active_output":true,"name":"Material Output","outputs":[],"type":"OUTPUT_MATERIAL_BL"},{"inputs":[[0.7605246305465698,0.03688944876194,0.022173885256052017,1.0],0.0,[1.0,1.0,1.0],[0.699999988079071,0.10000000149011612,0.10000000149011612,1.0],1.0,1.0,0.0,0.5,0.0,0.0,0.0,0.5,0.0,0.029999999329447746,1.4500000476837158,0.0,0.0,[0.0,0.0,0.0,1.0],1.0,[0.0,0.0,0.0],[0.0,0.0,0.0],[0.0,0.0,0.0]],"is_active_output":false,"name":"Principled BSDF","outputs":[[0,0,0,0]],"type":"BSDF_PRINCIPLED_BL"}]}}},"name":"Red"},{"extensions":{"S8S_v3d_material_data":{"nodeGraph":{"edges":[{"fromNode":1,"fromOutput":0,"toInput":0,"toNode":0}],"nodes":[{"inputs":[[0,0,0,0],[0,0,0,0],[0.0,0.0,0.0]],"is_active_output":true,"name":"Material Output","outputs":[],"type":"OUTPUT_MATERIAL_BL"},{"inputs":[[0.800000011920929,0.800000011920929,0.800000011920929,1.0],0.0,[1.0,1.0,1.0],[0.699999988079071,0.10000000149011612,0.10000000149011612,1.0],1.0,0.5,0.0,0.0,0.0,0.0,0.0,0.5,0.0,0.029999999329447746,1.4500000476837158,0.0,0.0,[0.0,0.0,0.0,1.0],1.0,[0.0,0.0,0.0],[0.0,0.0,0.0],[0.0,0.0,0.0]],"is_active_output":false,"name":"Principled BSDF","outputs":[[0,0,0,0]],"type":"BSDF_PRINCIPLED_BL"}]}}},"name":"Steel"},{"extensions":{"S8S_v3d_material_data":{"nodeGraph":{"edges":[{"fromNode":0,"fromOutput":0,"toInput":0,"toNode":1}],"nodes":[{"inputs":[[1.0,0.8622993230819702,0.0,1.0],0.0,[1.0,1.0,1.0],[0.699999988079071,0.10000000149011612,0.10000000149011612,1.0],1.0,0.0,0.0,0.5,0.0,0.0,0.0,0.5,0.0,0.029999999329447746,1.4500000476837158,0.0,0.0,[0.0,0.0,0.0,1.0],1.0,[0.0,0.0,0.0],[0.0,0.0,0.0],[0.0,0.0,0.0]],"is_active_output":false,"name":"Principled BSDF","outputs":[[0,0,0,0]],"type":"BSDF_PRINCIPLED_BL"},{"inputs":[[0,0,0,0],[0,0,0,0],[0.0,0.0,0.0]],"is_active_output":true,"name":"Material Output","outputs":[],"type":"OUTPUT_MATERIAL_BL"}]}}},"name":"Yellow"},{"extensions":{"S8S_v3d_material_data":{"nodeGraph":{"edges":[{"fromNode":1,"fromOutput":0,"toInput":0,"toNode":0},{"fromNode":2,"fromOutput":0,"toInput":0,"toNode":1}],"nodes":[{"inputs":[[0,0,0,0],[0,0,0,0]],"is_active_output":true,"name":"World Output","outputs":[],"type":"OUTPUT_WORLD_BL"},{"inputs":[[1.0,1.0,1.0,1.0],1.0],"is_active_output":false,"name":"Background","outputs":[[0,0,0,0]],"type":"BACKGROUND_BL"},{"inputs":[[0.0,0.0,0.0]],"is_active_output":false,"name":"Environment Texture","outputs":[[0.0,0.0,0.0,0.0]],"projection":"EQUIRECTANGULAR","texture":1,"type":"TEX_ENVIRONMENT_BL"}]}}},"name":"Verge3D_Environment_World"}],"meshes":[{"extensions":{"S8S_v3d_mesh_data":{"colorLayers":{},"uvLayers":{"UVMap":"TEXCOORD_0"}}},"name":"Icosphere.001","primitives":[{"attributes":{"NORMAL":2,"POSITION":1,"TEXCOORD_0":3},"indices":0,"material":4,"mode":4}]},{"extensions":{"S8S_v3d_mesh_data":{"colorLayers":{},"uvLayers":{}}},"name":"Sphere","primitives":[{"attributes":{"NORMAL":6,"POSITION":5},"indices":4,"material":5,"mode":4}]},{"extensions":{"S8S_v3d_mesh_data":{"colorLayers":{},"uvLayers":{}}},"name":"Sphere.001","primitives":[{"attributes":{"NORMAL":9,"POSITION":8},"indices":7,"material":0,"mode":4}]},{"extensions":{"S8S_v3d_mesh_data":{"colorLayers":{},"uvLayers":{}}},"name":"Sphere.002","primitives":[{"attributes":{"NORMAL":12,"POSITION":11},"indices":10,"material":7,"mode":4}]},{"extensions":{"S8S_v3d_mesh_data":{"colorLayers":{},"uvLayers":{}}},"name":"Spinner","primitives":[{"attributes":{"NORMAL":15,"POSITION":14},"indices":13,"material":5,"mode":4}]},{"extensions":{"S8S_v3d_mesh_data":{"colorLayers":{},"uvLayers":{}}},"name":"Spinner rings","primitives":[{"attributes":{"NORMAL":18,"POSITION":17},"indices":16,"material":6,"mode":4},{"attributes":{"NORMAL":21,"POSITION":20},"indices":19,"material":1,"mode":4},{"attributes":{"NORMAL":24,"POSITION":23},"indices":22,"material":2,"mode":4},{"attributes":{"NORMAL":27,"POSITION":26},"indices":25,"material":3,"mode":4}]},{"extensions":{"S8S_v3d_mesh_data":{"colorLayers":{},"uvLayers":{}}},"name":"Spinner.001","primitives":[{"attributes":{"NORMAL":30,"POSITION":29},"indices":28,"material":5,"mode":4}]}],"nodes":[{"extensions":{"S8S_v3d_node_data":{"frustumCulling":true,"groupNames":["Collection 1"],"hidden":false,"renderOrder":0}},"mesh":3,"name":"Yellow Ball","scale":[0.368155837059021,0.368155837059021,0.368155837059021],"translation":[1.9423949718475342,8.749961853027344e-05,-1.0563600063323975]},{"extensions":{"S8S_v3d_node_data":{"frustumCulling":true,"groupNames":["all parts","Collection 1","spinner parts"],"hidden":false,"renderOrder":0}},"mesh":6,"name":"Spinner Center"},{"extensions":{"S8S_v3d_node_data":{"frustumCulling":true,"groupNames":["Collection 1"],"hidden":false,"renderOrder":0}},"mesh":2,"name":"Blue Ball","scale":[0.368155837059021,0.368155837059021,0.368155837059021],"translation":[-1.908096194267273,8.749961853027344e-05,-1.0683143138885498]},{"extensions":{"S8S_v3d_node_data":{"frustumCulling":true,"groupNames":["Collection 1"],"hidden":false,"renderOrder":0}},"mesh":1,"name":"Red Ball","scale":[0.368155837059021,0.368155837059021,0.368155837059021],"translation":[0.038958966732025146,8.749961853027344e-05,1.9919980764389038]},{"children":[5],"extensions":{"S8S_v3d_node_data":{"frustumCulling":true,"groupNames":["all parts","Collection 1","spinner parts"],"hidden":false,"renderOrder":0}},"mesh":4,"name":"Spinner"},{"extensions":{"S8S_v3d_node_data":{"frustumCulling":true,"groupNames":["all parts","Collection 1"],"hidden":false,"renderOrder":0}},"mesh":5,"name":"Spinner rings"},{"extensions":{"S8S_v3d_node_data":{"frustumCulling":true,"groupNames":["Collection 2"],"hidden":false,"renderOrder":0}},"mesh":0,"name":"Icosphere"},{"extensions":{"S8S_v3d_node_data":{"frustumCulling":true,"groupNames":["Collection 20"],"hidden":false,"light":1,"renderOrder":0}},"name":"Lamp.001","rotation":[0.6831924319267273,0.2303343266248703,-0.2194908708333969,0.6572807431221008],"scale":[1.0,1.0000001192092896,1.000000238418579],"translation":[-0.1947765350341797,-5.885728359222412,-0.15212726593017578]},{"extensions":{"S8S_v3d_node_data":{"frustumCulling":true,"groupNames":["Collection 20"],"hidden":false,"light":2,"renderOrder":0}},"name":"Lamp2","rotation":[-0.3250003457069397,-0.4316905736923218,0.048137977719306946,0.8400599956512451],"scale":[1.0,0.9999999403953552,1.0],"translation":[-4.932503700256348,3.3126752376556396,5.533341407775879]},{"extensions":{"S8S_v3d_node_data":{"frustumCulling":true,"groupNames":["Collection 20"],"hidden":false,"light":0,"renderOrder":0}},"name":"Lamp","rotation":[0.056106436997652054,0.8258824944496155,0.42390984296798706,0.36751946806907654],"scale":[1.0,0.9999999403953552,0.9999999403953552],"translation":[4.7902960777282715,3.542560338973999,-6.437653064727783]},{"camera":0,"extensions":{"S8S_v3d_node_data":{"frustumCulling":true,"groupNames":["Collection 20"],"hidden":false,"renderOrder":0}},"name":"Camera","rotation":[-0.2581087052822113,0.3681166172027588,0.10714542120695114,0.8867864012718201],"scale":[0.9999999403953552,0.9999998807907104,0.9999998211860657],"translation":[3.7255938053131104,3.3361523151397705,3.6177070140838623]}],"samplers":[{}],"scene":0,"scenes":[{"extensions":{"S8S_v3d_scene_data":{"aaMethod":"AUTO","iblEnvironmentMode":"PMREM","physicallyCorrectLights":true,"pmremMaxTileSize":512,"worldMaterial":8}},"extras":{"animFrameRate":24,"coordSystem":"Z_UP_RIGHT"},"name":"Scene","nodes":[0,2,3,1,4,6,7,8,9,10]}],"textures":[{"extensions":{"S8S_v3d_texture_data":{"colorSpace":"srgb"}},"name":"environment_diff","sampler":0,"source":0},{"extensions":{"S8S_v3d_texture_data":{"colorSpace":"srgb"}},"name":"equirectangular_environment.jpg","sampler":0,"source":1}]}
